<svg width="40" height="41" viewBox="0 0 40 41" fill="none" xmlns="http://www.w3.org/2000/svg">
<path d="M19.9999 40.4598C31.0456 40.4598 39.9998 31.5055 39.9998 20.4599C39.9998 9.41423 31.0456 0.459961 19.9999 0.459961C8.95426 0.459961 0 9.41423 0 20.4599C0 31.5055 8.95426 40.4598 19.9999 40.4598Z" fill="#FFD93B"/>
<path d="M39.9983 20.4603C39.9983 31.5102 31.0421 40.4602 19.9984 40.4602C13.7109 40.4602 8.09842 37.5602 4.42969 33.0165C7.86092 35.7915 12.2297 37.4477 16.9859 37.4477C28.0296 37.4477 36.9858 28.4978 36.9858 17.4478C36.9858 12.6916 35.3295 8.32284 32.5546 4.8916C37.092 8.56034 39.9983 14.1728 39.9983 20.4603Z" fill="#F4C534"/>
<path d="M32.3334 11.0889C33.9546 12.2226 35.0171 14.0976 35.0171 16.2213C35.0171 19.6926 32.2209 22.4888 28.7496 22.4888C24.8434 22.4888 21.8372 18.9363 22.6047 15.0176C24.4784 12.8439 29.6546 11.2001 32.3334 11.0889Z" fill="white"/>
<path d="M22.094 14.8174L21.1977 13.3724C20.9515 12.9761 21.0727 12.4561 21.4702 12.2099C21.8652 11.9649 22.3877 12.0861 22.6315 12.4824L23.0565 13.1661C25.979 11.2611 29.9689 10.3474 33.9402 10.7161C34.4039 10.7586 34.7464 11.1699 34.7027 11.6336C34.6602 12.0974 34.2527 12.4399 33.7864 12.3961C32.3239 12.2611 27.2365 12.0536 23.324 15.0411C22.929 15.3436 22.3565 15.2436 22.094 14.8174Z" fill="#3E4347"/>
<path d="M28.4681 21.2849C29.9779 21.2849 31.2018 20.0609 31.2018 18.5511C31.2018 17.0413 29.9779 15.8174 28.4681 15.8174C26.9583 15.8174 25.7344 17.0413 25.7344 18.5511C25.7344 20.0609 26.9583 21.2849 28.4681 21.2849Z" fill="#3E4347"/>
<path d="M27.1924 17.1149C26.8849 17.4437 26.7924 17.8637 26.9787 18.0487C27.1737 18.2249 27.5812 18.1224 27.8887 17.7937C28.2062 17.4762 28.2787 17.0549 28.0824 16.8587C27.8887 16.6799 27.4912 16.7949 27.1924 17.1149Z" fill="white"/>
<path d="M7.66421 11.0889C6.04296 12.2226 4.98047 14.0976 4.98047 16.2213C4.98047 19.6926 7.77671 22.4888 11.2479 22.4888C15.1542 22.4888 18.1604 18.9363 17.3929 15.0176C15.5192 12.8439 10.3429 11.2001 7.66421 11.0889Z" fill="white"/>
<path d="M16.6791 15.0421C12.7717 12.0546 7.68794 12.2609 6.2167 12.3971C5.75045 12.4371 5.34295 12.0971 5.30045 11.6334C5.25795 11.1684 5.5992 10.7584 6.06295 10.7159C10.0304 10.3509 14.0242 11.2621 16.9466 13.1658L17.3716 12.4821C17.6141 12.0871 18.1341 11.9621 18.5329 12.2096C18.9291 12.4559 19.0516 12.9758 18.8054 13.3721L17.9091 14.8171C17.6454 15.2446 17.0729 15.3421 16.6791 15.0421Z" fill="#3E4347"/>
<path d="M11.5345 21.2849C13.0443 21.2849 14.2683 20.0609 14.2683 18.5511C14.2683 17.0413 13.0443 15.8174 11.5345 15.8174C10.0247 15.8174 8.80078 17.0413 8.80078 18.5511C8.80078 20.0609 10.0247 21.2849 11.5345 21.2849Z" fill="#3E4347"/>
<path d="M12.8033 17.1149C13.1108 17.4437 13.2033 17.8637 13.0171 18.0487C12.8221 18.2249 12.4146 18.1224 12.1071 17.7937C11.7896 17.4762 11.7171 17.0549 11.9134 16.8587C12.1071 16.6799 12.5046 16.7949 12.8033 17.1149Z" fill="white"/>
<path d="M28.1672 33.2547C22.7272 32.2347 17.2735 32.2347 11.821 33.2547C11.1672 33.3909 10.6147 32.7372 10.791 32.0297C12.1097 27.0497 15.6385 24.3984 19.9109 24.3984C24.1834 24.3984 27.8922 27.0497 29.1984 32.0434C29.3734 32.7372 28.8197 33.3896 28.1672 33.2547Z" fill="#3E4347"/>
<path d="M25.6974 26.38C24.0662 25.0737 22.06 24.3975 19.9075 24.3975C17.7312 24.3975 15.7525 25.0937 14.1562 26.4275C14.36 26.7162 14.6425 26.9587 14.9975 27.0749C18.2712 28.1287 21.5437 28.1287 24.8175 27.0749C25.1937 26.9525 25.4937 26.6925 25.6974 26.38Z" fill="white"/>
<path d="M26.3509 32.9564C26.2034 32.4102 26.0309 31.8652 25.8034 31.3202C25.6109 30.8652 25.2521 30.5027 24.8196 30.3327C21.5459 29.0727 18.2734 29.0727 14.9997 30.3327C14.5684 30.5014 14.2084 30.8652 14.0159 31.3202C13.7847 31.8752 13.6084 32.4302 13.4609 32.9864C17.7609 32.3427 22.0596 32.3314 26.3509 32.9564Z" fill="white"/>
<path d="M21.1215 35.3158C20.4803 35.1408 19.7328 35.1433 18.8278 35.3283C18.4141 35.4158 17.9941 35.1433 17.9066 34.7196C17.8203 34.2971 18.0928 33.8846 18.5153 33.7983C19.6616 33.5633 20.6503 33.5671 21.534 33.8108C21.9503 33.9246 22.1953 34.3546 22.0815 34.7708C21.9665 35.1871 21.534 35.4308 21.1215 35.3158Z" fill="#F4C534"/>
</svg>
