<svg width="14" height="18" viewBox="0 0 14 18" fill="none" xmlns="http://www.w3.org/2000/svg">
<path d="M9.38025 6.70508C9.15728 6.70508 8.97656 6.88579 8.97656 7.10877V14.7385C8.97656 14.9613 9.15728 15.1422 9.38025 15.1422C9.60323 15.1422 9.78394 14.9613 9.78394 14.7385V7.10877C9.78394 6.88579 9.60323 6.70508 9.38025 6.70508Z" fill="white" fill-opacity="0.8"/>
<path d="M4.61853 6.70508C4.39556 6.70508 4.21484 6.88579 4.21484 7.10877V14.7385C4.21484 14.9613 4.39556 15.1422 4.61853 15.1422C4.84151 15.1422 5.02222 14.9613 5.02222 14.7385V7.10877C5.02222 6.88579 4.84151 6.70508 4.61853 6.70508Z" fill="white" fill-opacity="0.8"/>
<path d="M1.14654 5.59173V15.5377C1.14654 16.1256 1.3621 16.6777 1.73866 17.0738C2.11349 17.471 2.63513 17.6965 3.18106 17.6975H10.8189C11.365 17.6965 11.8867 17.471 12.2613 17.0738C12.6379 16.6777 12.8535 16.1256 12.8535 15.5377V5.59173C13.602 5.39304 14.0871 4.66987 13.9869 3.90176C13.8867 3.13381 13.2324 2.55934 12.4578 2.55919H10.391V2.05458C10.3933 1.63023 10.2256 1.22276 9.92515 0.922993C9.62475 0.623381 9.21665 0.456545 8.79231 0.460014H5.20769C4.78335 0.456545 4.37525 0.623381 4.07485 0.922993C3.77445 1.22276 3.60666 1.63023 3.60903 2.05458V2.55919H1.54218C0.767607 2.55934 0.113351 3.13381 0.0130595 3.90176C-0.0870738 4.66987 0.397981 5.39304 1.14654 5.59173ZM10.8189 16.8901H3.18106C2.49085 16.8901 1.95391 16.2972 1.95391 15.5377V5.62721H12.0461V15.5377C12.0461 16.2972 11.5092 16.8901 10.8189 16.8901ZM4.4164 2.05458C4.41372 1.84438 4.49635 1.64206 4.64553 1.49367C4.79454 1.34529 4.99733 1.26376 5.20769 1.26739H8.79231C9.00267 1.26376 9.20546 1.34529 9.35447 1.49367C9.50365 1.6419 9.58628 1.84438 9.5836 2.05458V2.55919H4.4164V2.05458ZM1.54218 3.36656H12.4578C12.8591 3.36656 13.1845 3.69188 13.1845 4.0932C13.1845 4.49452 12.8591 4.81983 12.4578 4.81983H1.54218C1.14086 4.81983 0.815545 4.49452 0.815545 4.0932C0.815545 3.69188 1.14086 3.36656 1.54218 3.36656Z" fill="white" fill-opacity="0.8"/>
<path d="M7.00134 6.70508C6.77837 6.70508 6.59766 6.88579 6.59766 7.10877V14.7385C6.59766 14.9613 6.77837 15.1422 7.00134 15.1422C7.22432 15.1422 7.40503 14.9613 7.40503 14.7385V7.10877C7.40503 6.88579 7.22432 6.70508 7.00134 6.70508Z" fill="white" fill-opacity="0.8"/>
</svg>
