<svg width="20" height="17" viewBox="0 0 20 17" fill="none" xmlns="http://www.w3.org/2000/svg">
<path d="M10 0C2.72727 0 0 8.275 0 8.275C0 8.275 2.72727 16.55 10 16.55C17.2727 16.55 20 8.275 20 8.275C20 8.275 17.2727 0 10 0ZM10 2.06875C14.7964 2.06875 17.2224 6.48252 18.0078 8.27096C17.2214 10.047 14.7773 14.4812 10 14.4812C5.20364 14.4812 2.77764 10.0675 1.99219 8.27904C2.77946 6.50302 5.22273 2.06875 10 2.06875ZM10 4.1375C7.99182 4.1375 6.36364 5.99007 6.36364 8.275C6.36364 10.5599 7.99182 12.4125 10 12.4125C12.0082 12.4125 13.6364 10.5599 13.6364 8.275C13.6364 5.99007 12.0082 4.1375 10 4.1375ZM10 6.20625C11.0045 6.20625 11.8182 7.13202 11.8182 8.275C11.8182 9.41798 11.0045 10.3438 10 10.3438C8.99545 10.3438 8.18182 9.41798 8.18182 8.275C8.18182 7.13202 8.99545 6.20625 10 6.20625Z" fill="#E4E4E7" fill-opacity="0.4"/>
</svg>
