<svg width="40" height="41" viewBox="0 0 40 41" fill="none" xmlns="http://www.w3.org/2000/svg">
<path d="M19.9999 40.4598C31.0456 40.4598 39.9998 31.5055 39.9998 20.4599C39.9998 9.41423 31.0456 0.459961 19.9999 0.459961C8.95426 0.459961 0 9.41423 0 20.4599C0 31.5055 8.95426 40.4598 19.9999 40.4598Z" fill="#FFD93B"/>
<path d="M20.0006 33.3145C14.1518 33.3145 9.05561 29.3532 7.60812 23.6832C7.49437 23.237 7.76312 22.7832 8.20937 22.6695C8.65311 22.5533 9.10811 22.8245 9.22186 23.2707C10.4819 28.2032 14.9131 31.6482 19.9993 31.6482C25.0855 31.6482 29.518 28.2032 30.7768 23.2707C30.8893 22.8245 31.343 22.5533 31.7905 22.6695C32.2368 22.7832 32.5055 23.237 32.3918 23.6832C30.9455 29.3532 25.8493 33.3145 20.0006 33.3145Z" fill="#3E4347"/>
<path d="M39.9983 20.4603C39.9983 31.5102 31.0421 40.4602 19.9984 40.4602C13.7109 40.4602 8.09842 37.5602 4.42969 33.0165C7.86092 35.7915 12.2297 37.4477 16.9859 37.4477C28.0296 37.4477 36.9858 28.4978 36.9858 17.4478C36.9858 12.6916 35.3295 8.32284 32.5546 4.8916C37.092 8.56034 39.9983 14.1728 39.9983 20.4603Z" fill="#F4C534"/>
<path d="M13.5415 21.3133C15.2343 21.3133 16.6065 19.6825 16.6065 17.6708C16.6065 15.6591 15.2343 14.0283 13.5415 14.0283C11.8488 14.0283 10.4766 15.6591 10.4766 17.6708C10.4766 19.6825 11.8488 21.3133 13.5415 21.3133Z" fill="#3E4347"/>
<path d="M14.9228 16.8873C14.684 17.0748 14.2915 16.9823 14.0403 16.6773C13.789 16.3723 13.7765 15.9636 14.0153 15.7761C14.2528 15.5799 14.6465 15.6724 14.8965 15.9774C15.149 16.2911 15.1515 16.6923 14.9228 16.8873Z" fill="#5A5F63"/>
<path d="M26.4634 21.3133C28.1562 21.3133 29.5284 19.6825 29.5284 17.6708C29.5284 15.6591 28.1562 14.0283 26.4634 14.0283C24.7707 14.0283 23.3984 15.6591 23.3984 17.6708C23.3984 19.6825 24.7707 21.3133 26.4634 21.3133Z" fill="#3E4347"/>
<path d="M27.8446 16.8873C27.6059 17.0748 27.2134 16.9823 26.9621 16.6773C26.7109 16.3723 26.6984 15.9636 26.9371 15.7761C27.1746 15.5799 27.5671 15.6724 27.8184 15.9774C28.0709 16.2911 28.0734 16.6923 27.8446 16.8873Z" fill="#5A5F63"/>
</svg>
