<svg width="16" height="16" viewBox="0 0 16 16" fill="none" xmlns="http://www.w3.org/2000/svg">
<path d="M13.8018 0C12.5897 0 11.6037 1.03979 11.6037 2.31791C11.6037 2.4879 11.6216 2.65357 11.6547 2.81328L8.83367 4.30085C8.43028 3.80895 7.83483 3.49669 7.17112 3.49669C5.95906 3.49669 4.97298 4.53647 4.97298 5.8146C4.97298 7.09273 5.95906 8.13251 7.17112 8.13251C7.34335 8.13251 7.51084 8.11083 7.67176 8.07114L9.0219 10.2071C8.57201 10.6319 8.28827 11.2484 8.28827 11.9337C8.28827 12.0653 8.29931 12.1943 8.31935 12.3199L4.30594 13.0254C4.03669 12.0662 3.19397 11.3642 2.1982 11.3642C0.986128 11.3642 0 12.4039 0 13.682C0 14.9602 0.986128 16 2.1982 16C3.25037 16 4.13183 15.2162 4.34618 14.1733L8.78071 13.3938C9.18406 13.9167 9.79873 14.2516 10.4864 14.2516C11.6985 14.2516 12.6847 13.2118 12.6847 11.9337C12.6847 10.6557 11.6985 9.61589 10.4864 9.61589C10.3141 9.61589 10.1467 9.63763 9.98583 9.67726L8.63569 7.5412C9.08558 7.11646 9.36927 6.49994 9.36927 5.8146C9.36927 5.64461 9.35133 5.479 9.31825 5.31935L12.1393 3.83172C12.5427 4.32368 13.1381 4.63594 13.8018 4.63594C15.0139 4.63594 16 3.5961 16 2.31791C16 1.03979 15.0139 0 13.8018 0ZM2.1982 14.8607C1.58217 14.8607 1.08105 14.332 1.08105 13.682C1.08105 13.0321 1.58222 12.5034 2.1982 12.5034C2.81417 12.5034 3.31529 13.0321 3.31529 13.682C3.31529 14.3319 2.81417 14.8607 2.1982 14.8607ZM11.6037 11.9337C11.6037 12.5837 11.1025 13.1123 10.4864 13.1123C9.87038 13.1123 9.36932 12.5837 9.36932 11.9337C9.36932 11.2839 9.87044 10.7551 10.4864 10.7551C11.1025 10.7551 11.6037 11.2839 11.6037 11.9337ZM6.05403 5.8146C6.05403 5.16469 6.55515 4.63594 7.17112 4.63594C7.7871 4.63594 8.28822 5.16469 8.28822 5.8146C8.28822 6.46451 7.7871 6.99326 7.17112 6.99326C6.55515 6.99326 6.05403 6.46451 6.05403 5.8146ZM13.8018 3.49669C13.1858 3.49669 12.6847 2.96788 12.6847 2.31791C12.6847 1.66801 13.1858 1.13926 13.8018 1.13926C14.4178 1.13926 14.919 1.66795 14.919 2.31791C14.919 2.96782 14.4178 3.49669 13.8018 3.49669Z" fill="#E4E4E7" fill-opacity="0.4"/>
</svg>
