<svg width="322" height="20" viewBox="0 0 322 20" fill="none" xmlns="http://www.w3.org/2000/svg">
<path d="M158.279 14.12C157.752 14.12 157.285 13.98 156.879 13.7C156.472 13.4133 156.152 13.0133 155.919 12.5C155.685 11.9867 155.569 11.38 155.569 10.68C155.569 9.98667 155.685 9.38667 155.919 8.88C156.152 8.37333 156.472 7.98333 156.879 7.71C157.285 7.43 157.752 7.29 158.279 7.29C158.812 7.29 159.282 7.43 159.689 7.71C160.095 7.98333 160.415 8.37333 160.649 8.88C160.882 9.38667 160.999 9.98667 160.999 10.68C160.999 11.38 160.882 11.9867 160.649 12.5C160.415 13.0133 160.095 13.4133 159.689 13.7C159.282 13.98 158.812 14.12 158.279 14.12ZM158.279 13.7C158.725 13.7 159.115 13.5767 159.449 13.33C159.782 13.0767 160.042 12.7233 160.229 12.27C160.415 11.8167 160.509 11.2867 160.509 10.68C160.509 10.0733 160.415 9.55 160.229 9.11C160.042 8.66333 159.782 8.32 159.449 8.08C159.115 7.83333 158.725 7.71 158.279 7.71C157.832 7.71 157.442 7.83333 157.109 8.08C156.775 8.32 156.515 8.66333 156.329 9.11C156.142 9.55 156.049 10.0733 156.049 10.68C156.049 11.2867 156.142 11.8167 156.329 12.27C156.515 12.7233 156.775 13.0767 157.109 13.33C157.442 13.5767 157.832 13.7 158.279 13.7ZM162.512 14V7.41H164.402C165.055 7.41 165.579 7.54333 165.972 7.81C166.365 8.07 166.562 8.51667 166.562 9.15C166.562 9.67667 166.409 10.09 166.102 10.39C165.802 10.69 165.392 10.8733 164.872 10.94L166.692 14H166.162L164.372 10.97H162.972V14H162.512ZM162.972 10.59H164.282C164.862 10.59 165.309 10.4733 165.622 10.24C165.935 10 166.092 9.63667 166.092 9.15C166.092 8.65667 165.935 8.31 165.622 8.11C165.309 7.90333 164.862 7.8 164.282 7.8H162.972V10.59Z" fill="#E4E4E7" fill-opacity="0.4"/>
<line y1="9.7" x2="137" y2="9.7" stroke="#E4E4E7" stroke-opacity="0.2" stroke-width="0.6"/>
<line x1="185" y1="9.7" x2="322" y2="9.7" stroke="#E4E4E7" stroke-opacity="0.2" stroke-width="0.6"/>
</svg>
