<svg width="268" height="113" viewBox="0 0 268 113" fill="none" xmlns="http://www.w3.org/2000/svg">
<rect width="268" height="113" fill="#262832" fill-opacity="0.8"/>
<rect x="21" y="49" width="37.6667" height="6.55072" fill="#0198BD"/>
<rect x="58.666" y="49" width="37.6667" height="6.55072" fill="#49E3CE"/>
<rect x="96.334" y="49" width="37.6667" height="6.55072" fill="#D8FEB5"/>
<rect x="134" y="49" width="37.6667" height="6.55072" fill="#FEEDB1"/>
<rect x="171.666" y="49" width="37.6667" height="6.55072" fill="#FEAD54"/>
<rect x="209.334" y="49" width="37.6667" height="6.55072" fill="#D1374E"/>
<path d="M17.26 77V67.816H22.552V68.796H18.422V71.904H21.922V72.884H18.422V77H17.26ZM26.6326 77.168C26.0259 77.168 25.4752 77.028 24.9806 76.748C24.4859 76.4587 24.0939 76.048 23.8046 75.516C23.5152 74.984 23.3706 74.3493 23.3706 73.612C23.3706 72.8653 23.5152 72.226 23.8046 71.694C24.1032 71.162 24.4859 70.7513 24.9526 70.462C25.4192 70.1727 25.9092 70.028 26.4226 70.028C27.2906 70.028 27.9579 70.3173 28.4246 70.896C28.9006 71.4747 29.1386 72.2493 29.1386 73.22C29.1386 73.3413 29.1339 73.4627 29.1246 73.584C29.1246 73.696 29.1152 73.794 29.0966 73.878H24.5046C24.5512 74.5967 24.7752 75.1707 25.1766 75.6C25.5872 76.0293 26.1192 76.244 26.7726 76.244C27.0992 76.244 27.3979 76.1973 27.6686 76.104C27.9486 76.0013 28.2146 75.8707 28.4666 75.712L28.8726 76.468C28.5832 76.6547 28.2519 76.818 27.8786 76.958C27.5146 77.098 27.0992 77.168 26.6326 77.168ZM24.4906 73.052H28.1306C28.1306 72.3613 27.9812 71.8387 27.6826 71.484C27.3932 71.12 26.9826 70.938 26.4506 70.938C25.9746 70.938 25.5452 71.1247 25.1626 71.498C24.7892 71.862 24.5652 72.38 24.4906 73.052ZM31.9662 77L30.0762 70.196H31.2522L32.2602 74.13C32.3349 74.4473 32.4049 74.7647 32.4702 75.082C32.5356 75.39 32.6009 75.7027 32.6662 76.02H32.7222C32.7969 75.7027 32.8716 75.39 32.9462 75.082C33.0209 74.7647 33.1002 74.4473 33.1842 74.13L34.2342 70.196H35.3542L36.4182 74.13C36.5022 74.4473 36.5816 74.7647 36.6562 75.082C36.7402 75.39 36.8196 75.7027 36.8942 76.02H36.9502C37.0249 75.7027 37.0949 75.39 37.1602 75.082C37.2349 74.7647 37.3049 74.4473 37.3702 74.13L38.3642 70.196H39.4562L37.6362 77H36.2362L35.2562 73.346C35.1722 73.0193 35.0929 72.6973 35.0182 72.38C34.9529 72.0627 34.8782 71.7313 34.7942 71.386H34.7382C34.6636 71.7313 34.5889 72.0673 34.5142 72.394C34.4396 72.7113 34.3556 73.0333 34.2622 73.36L33.3102 77H31.9662ZM43.6404 77.168C43.0337 77.168 42.483 77.028 41.9884 76.748C41.4937 76.4587 41.1017 76.048 40.8124 75.516C40.523 74.984 40.3784 74.3493 40.3784 73.612C40.3784 72.8653 40.523 72.226 40.8124 71.694C41.111 71.162 41.4937 70.7513 41.9604 70.462C42.427 70.1727 42.917 70.028 43.4304 70.028C44.2984 70.028 44.9657 70.3173 45.4324 70.896C45.9084 71.4747 46.1464 72.2493 46.1464 73.22C46.1464 73.3413 46.1417 73.4627 46.1324 73.584C46.1324 73.696 46.123 73.794 46.1044 73.878H41.5124C41.559 74.5967 41.783 75.1707 42.1844 75.6C42.595 76.0293 43.127 76.244 43.7804 76.244C44.107 76.244 44.4057 76.1973 44.6764 76.104C44.9564 76.0013 45.2224 75.8707 45.4744 75.712L45.8804 76.468C45.591 76.6547 45.2597 76.818 44.8864 76.958C44.5224 77.098 44.107 77.168 43.6404 77.168ZM41.4984 73.052H45.1384C45.1384 72.3613 44.989 71.8387 44.6904 71.484C44.401 71.12 43.9904 70.938 43.4584 70.938C42.9824 70.938 42.553 71.1247 42.1704 71.498C41.797 71.862 41.573 72.38 41.4984 73.052ZM47.8277 77V70.196H48.7797L48.8777 71.428H48.9197C49.153 70.9987 49.4377 70.658 49.7737 70.406C50.1097 70.154 50.469 70.028 50.8517 70.028C51.1224 70.028 51.365 70.0747 51.5797 70.168L51.3557 71.176C51.2437 71.1387 51.141 71.1107 51.0477 71.092C50.9544 71.0733 50.8377 71.064 50.6977 71.064C50.4084 71.064 50.105 71.1807 49.7877 71.414C49.4797 71.6473 49.209 72.0533 48.9757 72.632V77H47.8277ZM57.6259 77.168C56.8979 77.168 56.3893 76.958 56.0999 76.538C55.8199 76.118 55.6799 75.572 55.6799 74.9V71.134H54.6719V70.266L55.7359 70.196L55.8759 68.292H56.8419V70.196H58.6759V71.134H56.8419V74.914C56.8419 75.334 56.9166 75.6607 57.0659 75.894C57.2246 76.118 57.4999 76.23 57.8919 76.23C58.0133 76.23 58.1439 76.2113 58.2839 76.174C58.4239 76.1273 58.5499 76.0853 58.6619 76.048L58.8859 76.916C58.6993 76.9813 58.4939 77.0373 58.2699 77.084C58.0553 77.14 57.8406 77.168 57.6259 77.168ZM60.2144 77V70.196H61.1664L61.2644 71.428H61.3064C61.5397 70.9987 61.8244 70.658 62.1604 70.406C62.4964 70.154 62.8557 70.028 63.2384 70.028C63.5091 70.028 63.7517 70.0747 63.9664 70.168L63.7424 71.176C63.6304 71.1387 63.5277 71.1107 63.4344 71.092C63.3411 71.0733 63.2244 71.064 63.0844 71.064C62.7951 71.064 62.4917 71.1807 62.1744 71.414C61.8664 71.6473 61.5957 72.0533 61.3624 72.632V77H60.2144ZM66.2941 77.168C65.7248 77.168 65.2488 77 64.8661 76.664C64.4928 76.3187 64.3061 75.8427 64.3061 75.236C64.3061 74.4893 64.6375 73.92 65.3001 73.528C65.9721 73.1267 67.0315 72.8467 68.4781 72.688C68.4781 72.3987 68.4361 72.1233 68.3521 71.862C68.2775 71.6007 68.1375 71.3907 67.9321 71.232C67.7361 71.064 67.4515 70.98 67.0781 70.98C66.6861 70.98 66.3175 71.0547 65.9721 71.204C65.6268 71.3533 65.3188 71.5213 65.0481 71.708L64.6001 70.91C64.9175 70.7047 65.3048 70.5087 65.7621 70.322C66.2288 70.126 66.7328 70.028 67.2741 70.028C68.1048 70.028 68.7068 70.2847 69.0801 70.798C69.4535 71.302 69.6401 71.9787 69.6401 72.828V77H68.6881L68.5901 76.188H68.5481C68.2308 76.4493 67.8808 76.678 67.4981 76.874C67.1248 77.07 66.7235 77.168 66.2941 77.168ZM66.6301 76.244C66.9568 76.244 67.2648 76.1647 67.5541 76.006C67.8435 75.8473 68.1515 75.6233 68.4781 75.334V73.444C67.3488 73.584 66.5555 73.794 66.0981 74.074C65.6501 74.354 65.4261 74.7133 65.4261 75.152C65.4261 75.5347 65.5428 75.8147 65.7761 75.992C66.0095 76.16 66.2941 76.244 66.6301 76.244ZM71.9768 77V71.134H71.0528V70.266L71.9768 70.196V69.118C71.9768 68.4273 72.1355 67.8813 72.4528 67.48C72.7795 67.0693 73.2835 66.864 73.9648 66.864C74.1795 66.864 74.3848 66.8873 74.5808 66.934C74.7768 66.9713 74.9495 67.0227 75.0988 67.088L74.8468 67.97C74.5948 67.858 74.3381 67.802 74.0768 67.802C73.4421 67.802 73.1248 68.2407 73.1248 69.118V70.196H74.5668V71.134H73.1248V77H71.9768ZM76.0647 77V71.134H75.1407V70.266L76.0647 70.196V69.118C76.0647 68.4273 76.2234 67.8813 76.5407 67.48C76.8674 67.0693 77.3714 66.864 78.0527 66.864C78.2674 66.864 78.4727 66.8873 78.6687 66.934C78.8647 66.9713 79.0374 67.0227 79.1867 67.088L78.9347 67.97C78.6827 67.858 78.426 67.802 78.1647 67.802C77.53 67.802 77.2127 68.2407 77.2127 69.118V70.196H78.6547V71.134H77.2127V77H76.0647ZM79.9566 77V70.196H81.1046V77H79.9566ZM80.5446 68.796C80.3206 68.796 80.1339 68.7307 79.9846 68.6C79.8446 68.46 79.7746 68.2733 79.7746 68.04C79.7746 67.816 79.8446 67.634 79.9846 67.494C80.1339 67.354 80.3206 67.284 80.5446 67.284C80.7686 67.284 80.9506 67.354 81.0906 67.494C81.2399 67.634 81.3146 67.816 81.3146 68.04C81.3146 68.2733 81.2399 68.46 81.0906 68.6C80.9506 68.7307 80.7686 68.796 80.5446 68.796ZM86.0899 77.168C85.4926 77.168 84.9512 77.028 84.4659 76.748C83.9806 76.468 83.5979 76.062 83.3179 75.53C83.0379 74.998 82.8979 74.3587 82.8979 73.612C82.8979 72.8467 83.0472 72.198 83.3459 71.666C83.6539 71.134 84.0552 70.728 84.5499 70.448C85.0539 70.168 85.5952 70.028 86.1739 70.028C86.6219 70.028 87.0046 70.1073 87.3219 70.266C87.6486 70.4247 87.9286 70.6113 88.1619 70.826L87.5739 71.582C87.3779 71.4047 87.1679 71.26 86.9439 71.148C86.7292 71.036 86.4866 70.98 86.2159 70.98C85.8052 70.98 85.4366 71.092 85.1099 71.316C84.7926 71.5307 84.5406 71.8387 84.3539 72.24C84.1766 72.632 84.0879 73.0893 84.0879 73.612C84.0879 74.3867 84.2792 75.0167 84.6619 75.502C85.0539 75.978 85.5626 76.216 86.1879 76.216C86.5052 76.216 86.7992 76.1507 87.0699 76.02C87.3406 75.88 87.5786 75.7167 87.7839 75.53L88.2879 76.3C87.9799 76.5707 87.6392 76.7853 87.2659 76.944C86.8926 77.0933 86.5006 77.168 86.0899 77.168Z" fill="#E4E4E7" fill-opacity="0.8"/>
<path d="M184.26 77V67.816H185.66L187.424 72.716C187.536 73.0333 187.643 73.3553 187.746 73.682C187.858 73.9993 187.97 74.3167 188.082 74.634H188.138C188.25 74.3167 188.353 73.9993 188.446 73.682C188.549 73.3553 188.656 73.0333 188.768 72.716L190.504 67.816H191.918V77H190.826V71.946C190.826 71.5353 190.845 71.0827 190.882 70.588C190.919 70.084 190.952 69.6313 190.98 69.23H190.924L190.196 71.316L188.46 76.076H187.69L185.954 71.316L185.226 69.23H185.17C185.198 69.6313 185.226 70.084 185.254 70.588C185.291 71.0827 185.31 71.5353 185.31 71.946V77H184.26ZM196.966 77.168C196.415 77.168 195.897 77.028 195.412 76.748C194.936 76.468 194.549 76.062 194.25 75.53C193.961 74.998 193.816 74.3587 193.816 73.612C193.816 72.8467 193.961 72.198 194.25 71.666C194.549 71.134 194.936 70.728 195.412 70.448C195.897 70.168 196.415 70.028 196.966 70.028C197.526 70.028 198.044 70.168 198.52 70.448C198.996 70.728 199.379 71.134 199.668 71.666C199.967 72.198 200.116 72.8467 200.116 73.612C200.116 74.3587 199.967 74.998 199.668 75.53C199.379 76.062 198.996 76.468 198.52 76.748C198.044 77.028 197.526 77.168 196.966 77.168ZM196.966 76.216C197.554 76.216 198.025 75.978 198.38 75.502C198.744 75.0167 198.926 74.3867 198.926 73.612C198.926 72.828 198.744 72.1933 198.38 71.708C198.025 71.2227 197.554 70.98 196.966 70.98C196.387 70.98 195.916 71.2227 195.552 71.708C195.188 72.1933 195.006 72.828 195.006 73.612C195.006 74.3867 195.188 75.0167 195.552 75.502C195.916 75.978 196.387 76.216 196.966 76.216ZM201.908 77V70.196H202.86L202.958 71.428H203C203.233 70.9987 203.518 70.658 203.854 70.406C204.19 70.154 204.549 70.028 204.932 70.028C205.202 70.028 205.445 70.0747 205.66 70.168L205.436 71.176C205.324 71.1387 205.221 71.1107 205.128 71.092C205.034 71.0733 204.918 71.064 204.778 71.064C204.488 71.064 204.185 71.1807 203.868 71.414C203.56 71.6473 203.289 72.0533 203.056 72.632V77H201.908ZM209.383 77.168C208.776 77.168 208.225 77.028 207.731 76.748C207.236 76.4587 206.844 76.048 206.555 75.516C206.265 74.984 206.121 74.3493 206.121 73.612C206.121 72.8653 206.265 72.226 206.555 71.694C206.853 71.162 207.236 70.7513 207.703 70.462C208.169 70.1727 208.659 70.028 209.173 70.028C210.041 70.028 210.708 70.3173 211.175 70.896C211.651 71.4747 211.889 72.2493 211.889 73.22C211.889 73.3413 211.884 73.4627 211.875 73.584C211.875 73.696 211.865 73.794 211.847 73.878H207.255C207.301 74.5967 207.525 75.1707 207.927 75.6C208.337 76.0293 208.869 76.244 209.523 76.244C209.849 76.244 210.148 76.1973 210.419 76.104C210.699 76.0013 210.965 75.8707 211.217 75.712L211.623 76.468C211.333 76.6547 211.002 76.818 210.629 76.958C210.265 77.098 209.849 77.168 209.383 77.168ZM207.241 73.052H210.881C210.881 72.3613 210.731 71.8387 210.433 71.484C210.143 71.12 209.733 70.938 209.201 70.938C208.725 70.938 208.295 71.1247 207.913 71.498C207.539 71.862 207.315 72.38 207.241 73.052ZM218.515 77.168C217.787 77.168 217.278 76.958 216.989 76.538C216.709 76.118 216.569 75.572 216.569 74.9V71.134H215.561V70.266L216.625 70.196L216.765 68.292H217.731V70.196H219.565V71.134H217.731V74.914C217.731 75.334 217.805 75.6607 217.955 75.894C218.113 76.118 218.389 76.23 218.781 76.23C218.902 76.23 219.033 76.2113 219.173 76.174C219.313 76.1273 219.439 76.0853 219.551 76.048L219.775 76.916C219.588 76.9813 219.383 77.0373 219.159 77.084C218.944 77.14 218.729 77.168 218.515 77.168ZM221.103 77V70.196H222.055L222.153 71.428H222.195C222.428 70.9987 222.713 70.658 223.049 70.406C223.385 70.154 223.744 70.028 224.127 70.028C224.398 70.028 224.64 70.0747 224.855 70.168L224.631 71.176C224.519 71.1387 224.416 71.1107 224.323 71.092C224.23 71.0733 224.113 71.064 223.973 71.064C223.684 71.064 223.38 71.1807 223.063 71.414C222.755 71.6473 222.484 72.0533 222.251 72.632V77H221.103ZM227.183 77.168C226.613 77.168 226.137 77 225.755 76.664C225.381 76.3187 225.195 75.8427 225.195 75.236C225.195 74.4893 225.526 73.92 226.189 73.528C226.861 73.1267 227.92 72.8467 229.367 72.688C229.367 72.3987 229.325 72.1233 229.241 71.862C229.166 71.6007 229.026 71.3907 228.821 71.232C228.625 71.064 228.34 70.98 227.967 70.98C227.575 70.98 227.206 71.0547 226.861 71.204C226.515 71.3533 226.207 71.5213 225.937 71.708L225.489 70.91C225.806 70.7047 226.193 70.5087 226.651 70.322C227.117 70.126 227.621 70.028 228.163 70.028C228.993 70.028 229.595 70.2847 229.969 70.798C230.342 71.302 230.529 71.9787 230.529 72.828V77H229.577L229.479 76.188H229.437C229.119 76.4493 228.769 76.678 228.387 76.874C228.013 77.07 227.612 77.168 227.183 77.168ZM227.519 76.244C227.845 76.244 228.153 76.1647 228.443 76.006C228.732 75.8473 229.04 75.6233 229.367 75.334V73.444C228.237 73.584 227.444 73.794 226.987 74.074C226.539 74.354 226.315 74.7133 226.315 75.152C226.315 75.5347 226.431 75.8147 226.665 75.992C226.898 76.16 227.183 76.244 227.519 76.244ZM232.865 77V71.134H231.941V70.266L232.865 70.196V69.118C232.865 68.4273 233.024 67.8813 233.341 67.48C233.668 67.0693 234.172 66.864 234.853 66.864C235.068 66.864 235.273 66.8873 235.469 66.934C235.665 66.9713 235.838 67.0227 235.987 67.088L235.735 67.97C235.483 67.858 235.227 67.802 234.965 67.802C234.331 67.802 234.013 68.2407 234.013 69.118V70.196H235.455V71.134H234.013V77H232.865ZM236.953 77V71.134H236.029V70.266L236.953 70.196V69.118C236.953 68.4273 237.112 67.8813 237.429 67.48C237.756 67.0693 238.26 66.864 238.941 66.864C239.156 66.864 239.361 66.8873 239.557 66.934C239.753 66.9713 239.926 67.0227 240.075 67.088L239.823 67.97C239.571 67.858 239.315 67.802 239.053 67.802C238.419 67.802 238.101 68.2407 238.101 69.118V70.196H239.543V71.134H238.101V77H236.953ZM240.845 77V70.196H241.993V77H240.845ZM241.433 68.796C241.209 68.796 241.023 68.7307 240.873 68.6C240.733 68.46 240.663 68.2733 240.663 68.04C240.663 67.816 240.733 67.634 240.873 67.494C241.023 67.354 241.209 67.284 241.433 67.284C241.657 67.284 241.839 67.354 241.979 67.494C242.129 67.634 242.203 67.816 242.203 68.04C242.203 68.2733 242.129 68.46 241.979 68.6C241.839 68.7307 241.657 68.796 241.433 68.796ZM246.979 77.168C246.381 77.168 245.84 77.028 245.355 76.748C244.869 76.468 244.487 76.062 244.207 75.53C243.927 74.998 243.787 74.3587 243.787 73.612C243.787 72.8467 243.936 72.198 244.235 71.666C244.543 71.134 244.944 70.728 245.439 70.448C245.943 70.168 246.484 70.028 247.063 70.028C247.511 70.028 247.893 70.1073 248.211 70.266C248.537 70.4247 248.817 70.6113 249.051 70.826L248.463 71.582C248.267 71.4047 248.057 71.26 247.833 71.148C247.618 71.036 247.375 70.98 247.105 70.98C246.694 70.98 246.325 71.092 245.999 71.316C245.681 71.5307 245.429 71.8387 245.243 72.24C245.065 72.632 244.977 73.0893 244.977 73.612C244.977 74.3867 245.168 75.0167 245.551 75.502C245.943 75.978 246.451 76.216 247.077 76.216C247.394 76.216 247.688 76.1507 247.959 76.02C248.229 75.88 248.467 75.7167 248.673 75.53L249.177 76.3C248.869 76.5707 248.528 76.7853 248.155 76.944C247.781 77.0933 247.389 77.168 246.979 77.168Z" fill="#E4E4E7" fill-opacity="0.8"/>
<path d="M48.2795 27V19.216H45.6335V17.844H52.5495V19.216H49.9035V27H48.2795ZM53.3189 27V20.126H54.6489L54.7609 21.344H54.8169C55.0595 20.896 55.3535 20.5553 55.6989 20.322C56.0442 20.0793 56.3989 19.958 56.7629 19.958C57.0895 19.958 57.3509 20.0047 57.5469 20.098L57.2669 21.498C57.1455 21.4607 57.0335 21.4327 56.9309 21.414C56.8282 21.3953 56.7022 21.386 56.5529 21.386C56.2822 21.386 55.9975 21.4933 55.6989 21.708C55.4002 21.9133 55.1435 22.2773 54.9289 22.8V27H53.3189ZM59.8384 27.168C59.2411 27.168 58.7511 26.9813 58.3684 26.608C57.9951 26.2347 57.8084 25.7493 57.8084 25.152C57.8084 24.4147 58.1304 23.8453 58.7744 23.444C59.4184 23.0333 60.4451 22.7533 61.8544 22.604C61.8451 22.24 61.7471 21.9273 61.5604 21.666C61.3831 21.3953 61.0611 21.26 60.5944 21.26C60.2584 21.26 59.9271 21.3253 59.6004 21.456C59.2831 21.5867 58.9704 21.7453 58.6624 21.932L58.0744 20.854C58.4571 20.6113 58.8864 20.4013 59.3624 20.224C59.8477 20.0467 60.3611 19.958 60.9024 19.958C61.7611 19.958 62.4004 20.2147 62.8204 20.728C63.2497 21.232 63.4644 21.9647 63.4644 22.926V27H62.1344L62.0224 26.244H61.9664C61.6584 26.5053 61.3271 26.7247 60.9724 26.902C60.6271 27.0793 60.2491 27.168 59.8384 27.168ZM60.3564 25.908C60.6364 25.908 60.8884 25.8427 61.1124 25.712C61.3457 25.572 61.5931 25.3853 61.8544 25.152V23.612C60.9211 23.7333 60.2724 23.9153 59.9084 24.158C59.5444 24.3913 59.3624 24.6807 59.3624 25.026C59.3624 25.334 59.4557 25.558 59.6424 25.698C59.8291 25.838 60.0671 25.908 60.3564 25.908ZM65.6711 27V21.4H64.7471V20.196L65.6711 20.126V19.412C65.6711 18.6933 65.8485 18.1053 66.2031 17.648C66.5578 17.1813 67.1411 16.948 67.9531 16.948C68.1958 16.948 68.4291 16.9713 68.6531 17.018C68.8771 17.0647 69.0638 17.1207 69.2131 17.186L68.9051 18.39C68.6531 18.278 68.4011 18.222 68.1491 18.222C67.5705 18.222 67.2811 18.6093 67.2811 19.384V20.126H68.6251V21.4H67.2811V27H65.6711ZM70.1145 27V21.4H69.1905V20.196L70.1145 20.126V19.412C70.1145 18.6933 70.2918 18.1053 70.6465 17.648C71.0012 17.1813 71.5845 16.948 72.3965 16.948C72.6392 16.948 72.8725 16.9713 73.0965 17.018C73.3205 17.0647 73.5072 17.1207 73.6565 17.186L73.3485 18.39C73.0965 18.278 72.8445 18.222 72.5925 18.222C72.0138 18.222 71.7245 18.6093 71.7245 19.384V20.126H73.0685V21.4H71.7245V27H70.1145ZM74.2779 27V20.126H75.8879V27H74.2779ZM75.0899 18.922C74.8005 18.922 74.5672 18.838 74.3899 18.67C74.2125 18.502 74.1239 18.278 74.1239 17.998C74.1239 17.7273 74.2125 17.508 74.3899 17.34C74.5672 17.172 74.8005 17.088 75.0899 17.088C75.3792 17.088 75.6125 17.172 75.7899 17.34C75.9672 17.508 76.0559 17.7273 76.0559 17.998C76.0559 18.278 75.9672 18.502 75.7899 18.67C75.6125 18.838 75.3792 18.922 75.0899 18.922ZM80.8119 27.168C80.1866 27.168 79.6219 27.028 79.1179 26.748C78.6233 26.4587 78.2266 26.048 77.9279 25.516C77.6386 24.9747 77.4939 24.326 77.4939 23.57C77.4939 22.8047 77.6526 22.156 77.9699 21.624C78.2873 21.0827 78.7073 20.672 79.2299 20.392C79.7619 20.1027 80.3313 19.958 80.9379 19.958C81.3766 19.958 81.7593 20.0327 82.0859 20.182C82.4126 20.3313 82.7019 20.5133 82.9539 20.728L82.1699 21.778C81.9926 21.6193 81.8106 21.498 81.6239 21.414C81.4373 21.3207 81.2366 21.274 81.0219 21.274C80.4713 21.274 80.0186 21.484 79.6639 21.904C79.3186 22.324 79.1459 22.8793 79.1459 23.57C79.1459 24.2513 79.3139 24.802 79.6499 25.222C79.9953 25.642 80.4386 25.852 80.9799 25.852C81.2506 25.852 81.5026 25.796 81.7359 25.684C81.9786 25.5627 82.1979 25.4227 82.3939 25.264L83.0519 26.328C82.7346 26.608 82.3799 26.818 81.9879 26.958C81.5959 27.098 81.2039 27.168 80.8119 27.168ZM89.6195 27.168C88.7608 27.168 88.0748 26.8507 87.5615 26.216C87.0481 25.5813 86.7915 24.6993 86.7915 23.57C86.7915 22.8233 86.9268 22.1793 87.1975 21.638C87.4775 21.0967 87.8415 20.6813 88.2895 20.392C88.7375 20.1027 89.2088 19.958 89.7035 19.958C90.0955 19.958 90.4268 20.028 90.6975 20.168C90.9775 20.2987 91.2481 20.4807 91.5095 20.714L91.4535 19.608V17.116H93.0635V27H91.7335L91.6215 26.258H91.5655C91.3135 26.51 91.0195 26.7247 90.6835 26.902C90.3475 27.0793 89.9928 27.168 89.6195 27.168ZM90.0115 25.838C90.5248 25.838 91.0055 25.5813 91.4535 25.068V21.862C91.2201 21.6473 90.9868 21.498 90.7535 21.414C90.5201 21.33 90.2868 21.288 90.0535 21.288C89.6148 21.288 89.2368 21.4887 88.9195 21.89C88.6115 22.282 88.4575 22.8373 88.4575 23.556C88.4575 24.2933 88.5928 24.858 88.8635 25.25C89.1341 25.642 89.5168 25.838 90.0115 25.838ZM98.0538 27.168C97.4191 27.168 96.8451 27.028 96.3318 26.748C95.8185 26.4587 95.4125 26.048 95.1138 25.516C94.8151 24.9747 94.6658 24.326 94.6658 23.57C94.6658 22.8233 94.8151 22.1793 95.1138 21.638C95.4218 21.0967 95.8185 20.6813 96.3038 20.392C96.7891 20.1027 97.2978 19.958 97.8298 19.958C98.4551 19.958 98.9778 20.098 99.3978 20.378C99.8178 20.6487 100.135 21.0313 100.35 21.526C100.564 22.0113 100.672 22.576 100.672 23.22C100.672 23.556 100.648 23.8173 100.602 24.004H96.2338C96.3085 24.6107 96.5278 25.082 96.8918 25.418C97.2558 25.754 97.7131 25.922 98.2638 25.922C98.5625 25.922 98.8378 25.88 99.0898 25.796C99.3511 25.7027 99.6078 25.5767 99.8598 25.418L100.406 26.426C100.079 26.6407 99.7151 26.818 99.3138 26.958C98.9125 27.098 98.4925 27.168 98.0538 27.168ZM96.2198 22.912H99.2718C99.2718 22.38 99.1551 21.9647 98.9218 21.666C98.6885 21.358 98.3385 21.204 97.8718 21.204C97.4705 21.204 97.1111 21.3533 96.7938 21.652C96.4858 21.9413 96.2945 22.3613 96.2198 22.912ZM102.21 27V20.126H103.54L103.652 21.05H103.708C104.016 20.7513 104.352 20.4947 104.716 20.28C105.08 20.0653 105.495 19.958 105.962 19.958C106.699 19.958 107.236 20.196 107.572 20.672C107.908 21.148 108.076 21.82 108.076 22.688V27H106.466V22.898C106.466 22.3287 106.382 21.9273 106.214 21.694C106.046 21.4607 105.77 21.344 105.388 21.344C105.089 21.344 104.823 21.4187 104.59 21.568C104.366 21.708 104.109 21.918 103.82 22.198V27H102.21ZM111.961 27.168C111.495 27.168 111.028 27.0793 110.561 26.902C110.095 26.7153 109.693 26.4867 109.357 26.216L110.113 25.18C110.421 25.4133 110.729 25.6 111.037 25.74C111.345 25.88 111.672 25.95 112.017 25.95C112.391 25.95 112.666 25.8707 112.843 25.712C113.021 25.5533 113.109 25.3573 113.109 25.124C113.109 24.928 113.035 24.7693 112.885 24.648C112.745 24.5173 112.563 24.4053 112.339 24.312C112.115 24.2093 111.882 24.1113 111.639 24.018C111.341 23.906 111.042 23.7707 110.743 23.612C110.454 23.444 110.216 23.234 110.029 22.982C109.843 22.7207 109.749 22.3987 109.749 22.016C109.749 21.4093 109.973 20.9147 110.421 20.532C110.869 20.1493 111.476 19.958 112.241 19.958C112.727 19.958 113.161 20.042 113.543 20.21C113.926 20.378 114.257 20.5693 114.537 20.784L113.795 21.764C113.553 21.5867 113.305 21.4467 113.053 21.344C112.811 21.232 112.554 21.176 112.283 21.176C111.938 21.176 111.681 21.2507 111.513 21.4C111.345 21.54 111.261 21.7173 111.261 21.932C111.261 22.2027 111.401 22.408 111.681 22.548C111.961 22.688 112.288 22.8233 112.661 22.954C112.979 23.066 113.287 23.206 113.585 23.374C113.884 23.5327 114.131 23.7427 114.327 24.004C114.533 24.2653 114.635 24.6107 114.635 25.04C114.635 25.628 114.407 26.132 113.949 26.552C113.492 26.9627 112.829 27.168 111.961 27.168ZM116.073 27V20.126H117.683V27H116.073ZM116.885 18.922C116.595 18.922 116.362 18.838 116.185 18.67C116.007 18.502 115.919 18.278 115.919 17.998C115.919 17.7273 116.007 17.508 116.185 17.34C116.362 17.172 116.595 17.088 116.885 17.088C117.174 17.088 117.407 17.172 117.585 17.34C117.762 17.508 117.851 17.7273 117.851 17.998C117.851 18.278 117.762 18.502 117.585 18.67C117.407 18.838 117.174 18.922 116.885 18.922ZM122.159 27.168C121.366 27.168 120.801 26.9393 120.465 26.482C120.138 26.0153 119.975 25.4133 119.975 24.676V21.4H118.995V20.196L120.059 20.126L120.255 18.25H121.599V20.126H123.349V21.4H121.599V24.676C121.599 25.4787 121.921 25.88 122.565 25.88C122.686 25.88 122.812 25.866 122.943 25.838C123.074 25.8007 123.186 25.7633 123.279 25.726L123.559 26.916C123.372 26.9813 123.158 27.0373 122.915 27.084C122.682 27.14 122.43 27.168 122.159 27.168ZM125.257 29.828C125.071 29.828 124.907 29.814 124.767 29.786C124.627 29.758 124.492 29.7253 124.361 29.688L124.655 28.428C124.721 28.4467 124.795 28.4653 124.879 28.484C124.973 28.512 125.061 28.526 125.145 28.526C125.509 28.526 125.799 28.414 126.013 28.19C126.237 27.9753 126.405 27.6953 126.517 27.35L126.643 26.916L123.941 20.126H125.579L126.769 23.5C126.872 23.7987 126.97 24.116 127.063 24.452C127.166 24.7787 127.269 25.1053 127.371 25.432H127.427C127.511 25.1147 127.595 24.7927 127.679 24.466C127.773 24.13 127.861 23.808 127.945 23.5L128.981 20.126H130.535L128.043 27.308C127.754 28.0827 127.404 28.694 126.993 29.142C126.583 29.5993 126.004 29.828 125.257 29.828ZM134.53 27V20.126H135.86L135.972 21.344H136.028C136.27 20.896 136.564 20.5553 136.91 20.322C137.255 20.0793 137.61 19.958 137.974 19.958C138.3 19.958 138.562 20.0047 138.758 20.098L138.478 21.498C138.356 21.4607 138.244 21.4327 138.142 21.414C138.039 21.3953 137.913 21.386 137.764 21.386C137.493 21.386 137.208 21.4933 136.91 21.708C136.611 21.9133 136.354 22.2773 136.14 22.8V27H134.53ZM142.556 27.168C141.921 27.168 141.347 27.028 140.834 26.748C140.32 26.4587 139.914 26.048 139.616 25.516C139.317 24.9747 139.168 24.326 139.168 23.57C139.168 22.8233 139.317 22.1793 139.616 21.638C139.924 21.0967 140.32 20.6813 140.806 20.392C141.291 20.1027 141.8 19.958 142.332 19.958C142.957 19.958 143.48 20.098 143.9 20.378C144.32 20.6487 144.637 21.0313 144.852 21.526C145.066 22.0113 145.174 22.576 145.174 23.22C145.174 23.556 145.15 23.8173 145.104 24.004H140.736C140.81 24.6107 141.03 25.082 141.394 25.418C141.758 25.754 142.215 25.922 142.766 25.922C143.064 25.922 143.34 25.88 143.592 25.796C143.853 25.7027 144.11 25.5767 144.362 25.418L144.908 26.426C144.581 26.6407 144.217 26.818 143.816 26.958C143.414 27.098 142.994 27.168 142.556 27.168ZM140.722 22.912H143.774C143.774 22.38 143.657 21.9647 143.424 21.666C143.19 21.358 142.84 21.204 142.374 21.204C141.972 21.204 141.613 21.3533 141.296 21.652C140.988 21.9413 140.796 22.3613 140.722 22.912ZM146.711 29.716V20.126H148.041L148.153 20.854H148.209C148.499 20.6113 148.821 20.4013 149.175 20.224C149.539 20.0467 149.908 19.958 150.281 19.958C151.14 19.958 151.803 20.2753 152.269 20.91C152.745 21.5447 152.983 22.394 152.983 23.458C152.983 24.242 152.843 24.914 152.563 25.474C152.283 26.0247 151.919 26.4447 151.471 26.734C151.033 27.0233 150.557 27.168 150.043 27.168C149.745 27.168 149.446 27.1027 149.147 26.972C148.849 26.832 148.559 26.6453 148.279 26.412L148.321 27.56V29.716H146.711ZM149.707 25.838C150.165 25.838 150.547 25.6373 150.855 25.236C151.163 24.8347 151.317 24.2467 151.317 23.472C151.317 22.7813 151.201 22.2447 150.967 21.862C150.734 21.4793 150.356 21.288 149.833 21.288C149.348 21.288 148.844 21.5447 148.321 22.058V25.264C148.573 25.4693 148.816 25.6187 149.049 25.712C149.283 25.796 149.502 25.838 149.707 25.838ZM154.614 27V20.126H155.944L156.056 21.344H156.112C156.354 20.896 156.648 20.5553 156.994 20.322C157.339 20.0793 157.694 19.958 158.058 19.958C158.384 19.958 158.646 20.0047 158.842 20.098L158.562 21.498C158.44 21.4607 158.328 21.4327 158.226 21.414C158.123 21.3953 157.997 21.386 157.848 21.386C157.577 21.386 157.292 21.4933 156.994 21.708C156.695 21.9133 156.438 22.2773 156.224 22.8V27H154.614ZM162.64 27.168C162.005 27.168 161.431 27.028 160.918 26.748C160.404 26.4587 159.998 26.048 159.7 25.516C159.401 24.9747 159.252 24.326 159.252 23.57C159.252 22.8233 159.401 22.1793 159.7 21.638C160.008 21.0967 160.404 20.6813 160.89 20.392C161.375 20.1027 161.884 19.958 162.416 19.958C163.041 19.958 163.564 20.098 163.984 20.378C164.404 20.6487 164.721 21.0313 164.936 21.526C165.15 22.0113 165.258 22.576 165.258 23.22C165.258 23.556 165.234 23.8173 165.188 24.004H160.82C160.894 24.6107 161.114 25.082 161.478 25.418C161.842 25.754 162.299 25.922 162.85 25.922C163.148 25.922 163.424 25.88 163.676 25.796C163.937 25.7027 164.194 25.5767 164.446 25.418L164.992 26.426C164.665 26.6407 164.301 26.818 163.9 26.958C163.498 27.098 163.078 27.168 162.64 27.168ZM160.806 22.912H163.858C163.858 22.38 163.741 21.9647 163.508 21.666C163.274 21.358 162.924 21.204 162.458 21.204C162.056 21.204 161.697 21.3533 161.38 21.652C161.072 21.9413 160.88 22.3613 160.806 22.912ZM168.713 27.168C168.247 27.168 167.78 27.0793 167.313 26.902C166.847 26.7153 166.445 26.4867 166.109 26.216L166.865 25.18C167.173 25.4133 167.481 25.6 167.789 25.74C168.097 25.88 168.424 25.95 168.769 25.95C169.143 25.95 169.418 25.8707 169.595 25.712C169.773 25.5533 169.861 25.3573 169.861 25.124C169.861 24.928 169.787 24.7693 169.637 24.648C169.497 24.5173 169.315 24.4053 169.091 24.312C168.867 24.2093 168.634 24.1113 168.391 24.018C168.093 23.906 167.794 23.7707 167.495 23.612C167.206 23.444 166.968 23.234 166.781 22.982C166.595 22.7207 166.501 22.3987 166.501 22.016C166.501 21.4093 166.725 20.9147 167.173 20.532C167.621 20.1493 168.228 19.958 168.993 19.958C169.479 19.958 169.913 20.042 170.295 20.21C170.678 20.378 171.009 20.5693 171.289 20.784L170.547 21.764C170.305 21.5867 170.057 21.4467 169.805 21.344C169.563 21.232 169.306 21.176 169.035 21.176C168.69 21.176 168.433 21.2507 168.265 21.4C168.097 21.54 168.013 21.7173 168.013 21.932C168.013 22.2027 168.153 22.408 168.433 22.548C168.713 22.688 169.04 22.8233 169.413 22.954C169.731 23.066 170.039 23.206 170.337 23.374C170.636 23.5327 170.883 23.7427 171.079 24.004C171.285 24.2653 171.387 24.6107 171.387 25.04C171.387 25.628 171.159 26.132 170.701 26.552C170.244 26.9627 169.581 27.168 168.713 27.168ZM175.765 27.168C175.13 27.168 174.556 27.028 174.043 26.748C173.529 26.4587 173.123 26.048 172.825 25.516C172.526 24.9747 172.377 24.326 172.377 23.57C172.377 22.8233 172.526 22.1793 172.825 21.638C173.133 21.0967 173.529 20.6813 174.015 20.392C174.5 20.1027 175.009 19.958 175.541 19.958C176.166 19.958 176.689 20.098 177.109 20.378C177.529 20.6487 177.846 21.0313 178.061 21.526C178.275 22.0113 178.383 22.576 178.383 23.22C178.383 23.556 178.359 23.8173 178.313 24.004H173.945C174.019 24.6107 174.239 25.082 174.603 25.418C174.967 25.754 175.424 25.922 175.975 25.922C176.273 25.922 176.549 25.88 176.801 25.796C177.062 25.7027 177.319 25.5767 177.571 25.418L178.117 26.426C177.79 26.6407 177.426 26.818 177.025 26.958C176.623 27.098 176.203 27.168 175.765 27.168ZM173.931 22.912H176.983C176.983 22.38 176.866 21.9647 176.633 21.666C176.399 21.358 176.049 21.204 175.583 21.204C175.181 21.204 174.822 21.3533 174.505 21.652C174.197 21.9413 174.005 22.3613 173.931 22.912ZM179.92 27V20.126H181.25L181.362 21.05H181.418C181.726 20.7513 182.062 20.4947 182.426 20.28C182.79 20.0653 183.206 19.958 183.672 19.958C184.41 19.958 184.946 20.196 185.282 20.672C185.618 21.148 185.786 21.82 185.786 22.688V27H184.176V22.898C184.176 22.3287 184.092 21.9273 183.924 21.694C183.756 21.4607 183.481 21.344 183.098 21.344C182.8 21.344 182.534 21.4187 182.3 21.568C182.076 21.708 181.82 21.918 181.53 22.198V27H179.92ZM190.176 27.168C189.383 27.168 188.818 26.9393 188.482 26.482C188.156 26.0153 187.992 25.4133 187.992 24.676V21.4H187.012V20.196L188.076 20.126L188.272 18.25H189.616V20.126H191.366V21.4H189.616V24.676C189.616 25.4787 189.938 25.88 190.582 25.88C190.704 25.88 190.83 25.866 190.96 25.838C191.091 25.8007 191.203 25.7633 191.296 25.726L191.576 26.916C191.39 26.9813 191.175 27.0373 190.932 27.084C190.699 27.14 190.447 27.168 190.176 27.168ZM194.178 27.168C193.581 27.168 193.091 26.9813 192.708 26.608C192.335 26.2347 192.148 25.7493 192.148 25.152C192.148 24.4147 192.47 23.8453 193.114 23.444C193.758 23.0333 194.785 22.7533 196.194 22.604C196.185 22.24 196.087 21.9273 195.9 21.666C195.723 21.3953 195.401 21.26 194.934 21.26C194.598 21.26 194.267 21.3253 193.94 21.456C193.623 21.5867 193.31 21.7453 193.002 21.932L192.414 20.854C192.797 20.6113 193.226 20.4013 193.702 20.224C194.188 20.0467 194.701 19.958 195.242 19.958C196.101 19.958 196.74 20.2147 197.16 20.728C197.59 21.232 197.804 21.9647 197.804 22.926V27H196.474L196.362 26.244H196.306C195.998 26.5053 195.667 26.7247 195.312 26.902C194.967 27.0793 194.589 27.168 194.178 27.168ZM194.696 25.908C194.976 25.908 195.228 25.8427 195.452 25.712C195.686 25.572 195.933 25.3853 196.194 25.152V23.612C195.261 23.7333 194.612 23.9153 194.248 24.158C193.884 24.3913 193.702 24.6807 193.702 25.026C193.702 25.334 193.796 25.558 193.982 25.698C194.169 25.838 194.407 25.908 194.696 25.908ZM201.934 27.168C201.141 27.168 200.576 26.9393 200.24 26.482C199.914 26.0153 199.75 25.4133 199.75 24.676V21.4H198.77V20.196L199.834 20.126L200.03 18.25H201.374V20.126H203.124V21.4H201.374V24.676C201.374 25.4787 201.696 25.88 202.34 25.88C202.462 25.88 202.588 25.866 202.718 25.838C202.849 25.8007 202.961 25.7633 203.054 25.726L203.334 26.916C203.148 26.9813 202.933 27.0373 202.69 27.084C202.457 27.14 202.205 27.168 201.934 27.168ZM204.571 27V20.126H206.181V27H204.571ZM205.383 18.922C205.093 18.922 204.86 18.838 204.683 18.67C204.505 18.502 204.417 18.278 204.417 17.998C204.417 17.7273 204.505 17.508 204.683 17.34C204.86 17.172 205.093 17.088 205.383 17.088C205.672 17.088 205.905 17.172 206.083 17.34C206.26 17.508 206.349 17.7273 206.349 17.998C206.349 18.278 206.26 18.502 206.083 18.67C205.905 18.838 205.672 18.922 205.383 18.922ZM211.049 27.168C210.48 27.168 209.948 27.028 209.453 26.748C208.958 26.4587 208.557 26.048 208.249 25.516C207.941 24.9747 207.787 24.326 207.787 23.57C207.787 22.8047 207.941 22.156 208.249 21.624C208.557 21.0827 208.958 20.672 209.453 20.392C209.948 20.1027 210.48 19.958 211.049 19.958C211.628 19.958 212.164 20.1027 212.659 20.392C213.154 20.672 213.555 21.0827 213.863 21.624C214.171 22.156 214.325 22.8047 214.325 23.57C214.325 24.326 214.171 24.9747 213.863 25.516C213.555 26.048 213.154 26.4587 212.659 26.748C212.164 27.028 211.628 27.168 211.049 27.168ZM211.049 25.852C211.553 25.852 211.95 25.642 212.239 25.222C212.528 24.802 212.673 24.2513 212.673 23.57C212.673 22.8793 212.528 22.324 212.239 21.904C211.95 21.484 211.553 21.274 211.049 21.274C210.545 21.274 210.148 21.484 209.859 21.904C209.579 22.324 209.439 22.8793 209.439 23.57C209.439 24.2513 209.579 24.802 209.859 25.222C210.148 25.642 210.545 25.852 211.049 25.852ZM215.918 27V20.126H217.248L217.36 21.05H217.416C217.724 20.7513 218.06 20.4947 218.424 20.28C218.788 20.0653 219.204 19.958 219.67 19.958C220.408 19.958 220.944 20.196 221.28 20.672C221.616 21.148 221.784 21.82 221.784 22.688V27H220.174V22.898C220.174 22.3287 220.09 21.9273 219.922 21.694C219.754 21.4607 219.479 21.344 219.096 21.344C218.798 21.344 218.532 21.4187 218.298 21.568C218.074 21.708 217.818 21.918 217.528 22.198V27H215.918Z" fill="#E4E4E7" fill-opacity="0.8"/>
</svg>
