<svg width="50" height="50" viewBox="0 0 50 50" fill="none" xmlns="http://www.w3.org/2000/svg">
<path d="M14.7731 25C14.7731 23.7448 13.7555 22.7273 12.5004 22.7273H3.40945C2.15429 22.7273 1.13672 23.7448 1.13672 25C1.13672 26.2552 2.15429 27.2727 3.40945 27.2727H12.5004C13.7555 27.2727 14.7731 26.2552 14.7731 25Z" fill="#E4E4E7" fill-opacity="0.4"/>
<path d="M46.5916 22.7273H42.0462C40.791 22.7273 39.7734 23.7448 39.7734 25C39.7734 26.2552 40.791 27.2727 42.0462 27.2727H46.5916C47.8468 27.2727 48.8643 26.2552 48.8643 25C48.8643 23.7448 47.8468 22.7273 46.5916 22.7273Z" fill="#E4E4E7" fill-opacity="0.4"/>
<path d="M26.136 13.6364C27.3912 13.6364 28.4087 12.6188 28.4087 11.3636V2.27273C28.4087 1.01758 27.3912 0 26.136 0C24.8809 0 23.8633 1.01758 23.8633 2.27273V11.3636C23.8633 12.6188 24.8809 13.6364 26.136 13.6364Z" fill="#E4E4E7" fill-opacity="0.4"/>
<path d="M26.136 36.3636C24.8809 36.3636 23.8633 37.3812 23.8633 38.6364V47.7273C23.8633 48.9824 24.8809 50 26.136 50C27.3912 50 28.4087 48.9824 28.4087 47.7273V38.6364C28.4087 37.3812 27.3912 36.3636 26.136 36.3636Z" fill="#E4E4E7" fill-opacity="0.4"/>
<path d="M11.6727 7.32228C10.7855 6.4347 9.34638 6.43486 8.45865 7.32228C7.57107 8.20986 7.57107 9.6488 8.45865 10.5364L14.887 16.9649C15.3308 17.4086 15.9124 17.6306 16.494 17.6306C17.0755 17.6306 17.6573 17.4086 18.1009 16.965C18.9885 16.0774 18.9885 14.6385 18.1009 13.7509L11.6727 7.32228Z" fill="#E4E4E7" fill-opacity="0.4"/>
<path d="M37.3856 33.0354C36.4981 32.148 35.0591 32.148 34.1715 33.0354C33.2839 33.923 33.2841 35.362 34.1715 36.2495L40.6 42.6777C41.0437 43.1215 41.6254 43.3433 42.2071 43.3433C42.7887 43.3433 43.3704 43.1214 43.814 42.6777C44.7016 41.7902 44.7016 40.3512 43.814 39.4636L37.3856 33.0354Z" fill="#E4E4E7" fill-opacity="0.4"/>
<path d="M14.8868 33.0354L8.45865 39.4636C7.57107 40.3512 7.57107 41.7902 8.45865 42.6777C8.90244 43.1215 9.4841 43.3433 10.0658 43.3433C10.6474 43.3433 11.2291 43.1215 11.6727 42.6777L18.1009 36.2495C18.9885 35.362 18.9885 33.923 18.1009 33.0354C17.2133 32.1479 15.7743 32.1479 14.8868 33.0354Z" fill="#E4E4E7" fill-opacity="0.4"/>
</svg>
