<svg width="16" height="16" viewBox="0 0 16 16" fill="none" xmlns="http://www.w3.org/2000/svg">
<path d="M15.6643 5.7011C15.6041 5.50351 15.468 5.33783 15.2859 5.24031C15.1038 5.14279 14.8905 5.12138 14.6926 5.18075C14.4947 5.24012 14.3284 5.37544 14.2301 5.55711C14.1318 5.73878 14.1094 5.95201 14.1679 6.15014C14.3477 6.75104 14.4387 7.37499 14.4382 8.00222C14.4382 11.5517 11.5505 14.4394 8.001 14.4394C4.45151 14.4394 1.56385 11.5517 1.56385 8.00222C1.56385 4.45273 4.45151 1.56507 8.001 1.56507C9.25574 1.56283 10.4835 1.92899 11.5321 2.61814C11.6178 2.67599 11.7141 2.71626 11.8155 2.7366C11.9169 2.75694 12.0213 2.75695 12.1226 2.73663C12.224 2.71631 12.3204 2.67607 12.4061 2.61824C12.4918 2.56041 12.5652 2.48613 12.622 2.39972C12.6788 2.31332 12.7178 2.21649 12.7369 2.11487C12.756 2.01325 12.7547 1.90885 12.7332 1.80772C12.7116 1.70659 12.6702 1.61076 12.6113 1.52576C12.5524 1.44077 12.4772 1.36831 12.3901 1.31259C10.7345 0.225556 8.73457 -0.208666 6.77727 0.0939561C4.81997 0.396578 3.04451 1.41453 1.79452 2.9508C0.54452 4.48706 -0.091139 6.43242 0.0105609 8.41036C0.112261 10.3883 0.944088 12.2582 2.34506 13.6582C3.60538 14.9161 5.24925 15.7177 7.01646 15.9361C8.78366 16.1545 10.5732 15.7772 12.1019 14.864C13.6305 13.9507 14.8109 12.5537 15.4561 10.8941C16.1014 9.23449 16.1747 7.40706 15.6643 5.7011Z" fill="white" fill-opacity="0.8"/>
<path d="M11.6359 5.26204L6.82926 10.0699L4.36564 7.60629C4.29309 7.53374 4.20696 7.47619 4.11217 7.43693C4.01737 7.39766 3.91577 7.37745 3.81317 7.37745C3.71057 7.37745 3.60897 7.39766 3.51418 7.43693C3.41938 7.47619 3.33325 7.53374 3.2607 7.60629C3.18815 7.67884 3.1306 7.76497 3.09133 7.85977C3.05207 7.95456 3.03186 8.05616 3.03186 8.15876C3.03186 8.26137 3.05207 8.36296 3.09133 8.45776C3.1306 8.55255 3.18815 8.63868 3.2607 8.71123L6.05149 11.5017C6.25777 11.708 6.53754 11.8239 6.82926 11.8239C7.12098 11.8239 7.40075 11.708 7.60703 11.5017L12.7408 6.36698C12.8873 6.22046 12.9697 6.02173 12.9697 5.81451C12.9697 5.6073 12.8873 5.40857 12.7408 5.26204C12.5943 5.11552 12.3956 5.0332 12.1883 5.0332C11.9811 5.0332 11.7824 5.11552 11.6359 5.26204Z" fill="white" fill-opacity="0.8"/>
</svg>
