<svg width="24" height="17" viewBox="0 0 24 17" fill="none" xmlns="http://www.w3.org/2000/svg">
<path d="M23.9997 1.77618C23.9992 1.30536 23.812 0.85396 23.4791 0.520986C23.1463 0.188011 22.6949 0.000650157 22.2241 0H1.77587C1.305 0.00056892 0.853585 0.187894 0.520659 0.520877C0.187734 0.85386 0.00048754 1.30531 2.13374e-08 1.77618V5.16457C-7.18611e-05 5.62779 0.18148 6.07258 0.50568 6.40344C0.18148 6.7343 -7.18611e-05 7.17909 2.13374e-08 7.64231V11.0316C0.000754301 11.4085 0.121075 11.7755 0.343645 12.0796C0.566215 12.3838 0.879554 12.6095 1.23856 12.7243V14.2809C1.23852 14.3515 1.25239 14.4214 1.27938 14.4866C1.30637 14.5518 1.34594 14.6111 1.39585 14.661C1.44575 14.7109 1.50499 14.7504 1.5702 14.7774C1.63541 14.8044 1.7053 14.8183 1.77587 14.8182H3.01566V16.1231C3.01562 16.1937 3.02949 16.2636 3.05648 16.3288C3.08346 16.394 3.12304 16.4532 3.17294 16.5031C3.22284 16.553 3.28209 16.5926 3.3473 16.6196C3.4125 16.6466 3.48239 16.6605 3.55296 16.6604H5.39515C5.46572 16.6605 5.53561 16.6466 5.60081 16.6196C5.66602 16.5926 5.72527 16.553 5.77517 16.5031C5.82507 16.4532 5.86465 16.394 5.89164 16.3288C5.91862 16.2636 5.93249 16.1937 5.93245 16.1231V14.8173H18.0672V16.1222C18.0672 16.1928 18.0811 16.2627 18.1081 16.3279C18.135 16.3931 18.1746 16.4523 18.2245 16.5022C18.2744 16.5521 18.3337 16.5917 18.3989 16.6187C18.4641 16.6457 18.534 16.6595 18.6045 16.6595H20.4467C20.5173 16.6595 20.5872 16.6457 20.6524 16.6187C20.7176 16.5917 20.7769 16.5521 20.8268 16.5022C20.8767 16.4523 20.9162 16.3931 20.9432 16.3279C20.9702 16.2627 20.9841 16.1928 20.984 16.1222V14.8173H22.2241C22.2947 14.8174 22.3646 14.8035 22.4298 14.7765C22.495 14.7495 22.5543 14.7099 22.6042 14.66C22.6541 14.6101 22.6936 14.5509 22.7206 14.4857C22.7476 14.4205 22.7615 14.3506 22.7614 14.28V12.7234C23.1204 12.6086 23.4338 12.3829 23.6564 12.0787C23.8789 11.7746 23.9992 11.4076 24 11.0307V7.64231C24.0001 7.17909 23.8185 6.7343 23.4943 6.40344C23.8185 6.07258 24.0001 5.62779 24 5.16457L23.9997 1.77618ZM1.07492 1.77618C1.07508 1.59026 1.14896 1.41201 1.28036 1.28049C1.41176 1.14897 1.58996 1.07493 1.77587 1.07461H22.2241C22.4101 1.07485 22.5884 1.14886 22.7198 1.28038C22.8513 1.41191 22.9252 1.59021 22.9254 1.77618V5.16457C22.9252 5.35054 22.8513 5.52884 22.7198 5.66037C22.5884 5.79189 22.4101 5.86589 22.2241 5.86614H1.77587C1.5899 5.86589 1.41163 5.79189 1.28016 5.66037C1.1487 5.52884 1.07477 5.35054 1.07461 5.16457L1.07492 1.77618ZM4.85815 15.5849H4.09057V14.8173H4.85815V15.5849ZM19.9094 15.5849H19.1418V14.8173H19.9094V15.5849ZM2.31348 13.7427V12.8069H21.6871V13.7427H2.31348ZM22.9251 11.0316C22.9247 11.2174 22.8507 11.3954 22.7193 11.5267C22.5879 11.658 22.4099 11.7319 22.2241 11.7323H1.77587C1.59012 11.7319 1.41206 11.658 1.28069 11.5267C1.14931 11.3954 1.07532 11.2174 1.07492 11.0316V7.64231C1.07508 7.4564 1.14896 7.27814 1.28036 7.14663C1.41176 7.01511 1.58996 6.94107 1.77587 6.94075H22.2241C22.4101 6.94099 22.5884 7.01499 22.7198 7.14652C22.8513 7.27804 22.9252 7.45635 22.9254 7.64231L22.9251 11.0316Z" fill="#E4E4E7" fill-opacity="0.8"/>
</svg>
