<svg width="23" height="23" viewBox="0 0 23 23" fill="none" xmlns="http://www.w3.org/2000/svg">
<path d="M3.375 0C1.51425 0 0 1.51425 0 3.375C0 5.23575 1.51425 6.75 3.375 6.75C5.23575 6.75 6.75 5.23575 6.75 3.375C6.75 1.51425 5.23575 0 3.375 0ZM19.125 0C17.2642 0 15.75 1.51425 15.75 3.375C15.75 5.23575 17.2642 6.75 19.125 6.75C20.9858 6.75 22.5 5.23575 22.5 3.375C22.5 1.51425 20.9858 0 19.125 0ZM3.375 0.75C4.8225 0.75 6 1.9275 6 3.375C6 3.98175 5.79134 4.53974 5.44409 4.98486C5.24384 4.53374 4.90403 4.1635 4.47803 3.92725C4.73678 3.65762 4.89771 3.2936 4.89771 2.8916C4.89771 2.06435 4.22496 1.3916 3.39771 1.3916C2.57046 1.3916 1.89771 2.06435 1.89771 2.8916C1.89771 3.29098 2.05652 3.65178 2.31152 3.92065C2.12815 4.0219 1.95697 4.1478 1.80322 4.30005C1.59622 4.51005 1.44179 4.75493 1.33154 5.01855C0.968918 4.56855 0.75 3.99712 0.75 3.375C0.75 1.9275 1.9275 0.75 3.375 0.75ZM19.125 0.75C20.5725 0.75 21.75 1.9275 21.75 3.375C21.75 3.98175 21.5413 4.53974 21.1941 4.98486C20.9938 4.53374 20.654 4.1635 20.228 3.92725C20.4868 3.65762 20.6477 3.2936 20.6477 2.8916C20.6477 2.06435 19.975 1.3916 19.1477 1.3916C18.3205 1.3916 17.6477 2.06435 17.6477 2.8916C17.6477 3.29098 17.8065 3.65178 18.0615 3.92065C17.8781 4.0219 17.707 4.1478 17.5532 4.30005C17.3462 4.51005 17.1918 4.75493 17.0815 5.01855C16.7189 4.56855 16.5 3.99712 16.5 3.375C16.5 1.9275 17.6775 0.75 19.125 0.75ZM11.25 1.5C9.89437 1.5 8.5821 1.77302 7.34985 2.31152L7.65015 2.99854C8.78752 2.50166 9.99862 2.25 11.25 2.25C12.5014 2.25 13.7125 2.50166 14.8499 2.99854L15.1501 2.31152C13.9179 1.77302 12.6056 1.5 11.25 1.5ZM3.39771 2.1416C3.81133 2.1416 4.14771 2.47798 4.14771 2.8916C4.14771 3.30523 3.81133 3.6416 3.39771 3.6416C2.98408 3.6416 2.64771 3.30523 2.64771 2.8916C2.64771 2.47798 2.98408 2.1416 3.39771 2.1416ZM19.1477 2.1416C19.5613 2.1416 19.8977 2.47798 19.8977 2.8916C19.8977 3.30523 19.5613 3.6416 19.1477 3.6416C18.7341 3.6416 18.3977 3.30523 18.3977 2.8916C18.3977 2.47798 18.7341 2.1416 19.1477 2.1416ZM3.39771 4.3916C4.09371 4.3916 4.69153 4.88063 4.8479 5.54663C4.42753 5.83238 3.92062 6 3.375 6C2.8455 6 2.35306 5.84082 1.94019 5.57007C1.99906 5.29107 2.13173 5.03545 2.33423 4.83032C2.62073 4.5472 2.99796 4.3916 3.39771 4.3916ZM19.1477 4.3916C19.8437 4.3916 20.4415 4.88063 20.5979 5.54663C20.1775 5.83238 19.6706 6 19.125 6C18.5955 6 18.1031 5.84082 17.6902 5.57007C17.7491 5.29107 17.8817 5.03545 18.0842 4.83032C18.3707 4.5472 18.748 4.3916 19.1477 4.3916ZM10.875 4.5V5.25H10.125C9.918 5.25 9.75 5.418 9.75 5.625V6.75H9C8.793 6.75 8.625 6.918 8.625 7.125V9.375H6.75C6.60787 9.375 6.4783 9.45515 6.41455 9.58228L5.66455 11.0823C5.60643 11.1985 5.61241 11.3364 5.68066 11.447C5.74929 11.5573 5.86987 11.625 6 11.625H6.375V14.625C6.375 14.832 6.543 15 6.75 15H8.625C8.625 15.207 8.793 15.375 9 15.375H13.5C13.707 15.375 13.875 15.207 13.875 15H15.75C15.957 15 16.125 14.832 16.125 14.625V11.625H16.5C16.6301 11.625 16.7507 11.5573 16.8193 11.447C16.8876 11.3364 16.8936 11.1985 16.8354 11.0823L16.0854 9.58228C16.0217 9.45515 15.8921 9.375 15.75 9.375H13.875V7.125C13.875 6.918 13.707 6.75 13.5 6.75H12.75V5.625C12.75 5.418 12.582 5.25 12.375 5.25H11.625V4.5H10.875ZM10.5 6H12V6.75H10.5V6ZM2.31152 7.34985C1.77302 8.5821 1.5 9.89437 1.5 11.25C1.5 12.5782 1.76215 13.8664 2.28003 15.0776L2.96997 14.7832C2.49222 13.6653 2.25 12.4766 2.25 11.25C2.25 9.99862 2.50166 8.78752 2.99854 7.65015L2.31152 7.34985ZM20.1885 7.34985L19.5015 7.65015C19.9983 8.78715 20.25 9.99825 20.25 11.25C20.25 12.4766 20.0074 13.665 19.53 14.7825L20.22 15.0776C20.7375 13.866 21 12.5782 21 11.25C21 9.89437 20.727 8.5821 20.1885 7.34985ZM9.375 7.5H13.125V14.625H12.375V13.5C12.375 12.8798 11.8702 12.375 11.25 12.375C10.6298 12.375 10.125 12.8798 10.125 13.5V14.625H9.375V7.5ZM10.125 8.25V9H10.875V8.25H10.125ZM11.625 8.25V9H12.375V8.25H11.625ZM10.125 9.75V10.5H10.875V9.75H10.125ZM11.625 9.75V10.5H12.375V9.75H11.625ZM6.98145 10.125H8.625V10.875H6.60645L6.98145 10.125ZM13.875 10.125H15.5186L15.8936 10.875H13.875V10.125ZM10.125 11.25V12H10.875V11.25H10.125ZM11.625 11.25V12H12.375V11.25H11.625ZM7.125 11.625H8.625V14.25H7.125V11.625ZM13.875 11.625H15.375V14.25H13.875V11.625ZM7.5 12.375V13.125H8.25V12.375H7.5ZM14.25 12.375V13.125H15V12.375H14.25ZM11.25 13.125C11.4566 13.125 11.625 13.2934 11.625 13.5V14.625H10.875V13.5C10.875 13.2934 11.0434 13.125 11.25 13.125ZM3.375 15.75C1.51425 15.75 0 17.2642 0 19.125C0 20.9858 1.51425 22.5 3.375 22.5C5.23575 22.5 6.75 20.9858 6.75 19.125C6.75 17.2642 5.23575 15.75 3.375 15.75ZM19.125 15.75C17.2642 15.75 15.75 17.2642 15.75 19.125C15.75 20.9858 17.2642 22.5 19.125 22.5C20.9858 22.5 22.5 20.9858 22.5 19.125C22.5 17.2642 20.9858 15.75 19.125 15.75ZM3.375 16.5C4.8225 16.5 6 17.6775 6 19.125C6 19.7318 5.79134 20.2897 5.44409 20.7349C5.24384 20.2837 4.90403 19.9135 4.47803 19.6772C4.73678 19.4076 4.89771 19.0436 4.89771 18.6416C4.89771 17.8144 4.22496 17.1416 3.39771 17.1416C2.57046 17.1416 1.89771 17.8144 1.89771 18.6416C1.89771 19.041 2.05652 19.4018 2.31152 19.6707C2.12815 19.7719 1.95697 19.8978 1.80322 20.05C1.59622 20.26 1.44179 20.5049 1.33154 20.7686C0.968918 20.3186 0.75 19.7471 0.75 19.125C0.75 17.6775 1.9275 16.5 3.375 16.5ZM19.125 16.5C20.5725 16.5 21.75 17.6775 21.75 19.125C21.75 19.7318 21.5413 20.2897 21.1941 20.7349C20.9938 20.2837 20.654 19.9135 20.228 19.6772C20.4868 19.4076 20.6477 19.0436 20.6477 18.6416C20.6477 17.8144 19.975 17.1416 19.1477 17.1416C18.3205 17.1416 17.6477 17.8144 17.6477 18.6416C17.6477 19.041 17.8065 19.4018 18.0615 19.6707C17.8781 19.7719 17.707 19.8978 17.5532 20.05C17.3462 20.26 17.1918 20.5049 17.0815 20.7686C16.7189 20.3186 16.5 19.7471 16.5 19.125C16.5 17.6775 17.6775 16.5 19.125 16.5ZM3.39771 17.8916C3.81133 17.8916 4.14771 18.228 4.14771 18.6416C4.14771 19.0552 3.81133 19.3916 3.39771 19.3916C2.98408 19.3916 2.64771 19.0552 2.64771 18.6416C2.64771 18.228 2.98408 17.8916 3.39771 17.8916ZM19.1477 17.8916C19.5613 17.8916 19.8977 18.228 19.8977 18.6416C19.8977 19.0552 19.5613 19.3916 19.1477 19.3916C18.7341 19.3916 18.3977 19.0552 18.3977 18.6416C18.3977 18.228 18.7341 17.8916 19.1477 17.8916ZM7.71753 19.53L7.4231 20.22C8.63435 20.7375 9.92175 21 11.25 21C12.5782 21 13.866 20.7375 15.0776 20.22L14.7825 19.53C13.665 20.0074 12.4766 20.25 11.25 20.25C10.0234 20.25 8.83503 20.0074 7.71753 19.53ZM3.39771 20.1416C4.09371 20.1416 4.69153 20.6306 4.8479 21.2966C4.42753 21.5824 3.92062 21.75 3.375 21.75C2.8455 21.75 2.35306 21.5908 1.94019 21.3201C1.99906 21.0411 2.13173 20.7854 2.33423 20.5803C2.62073 20.2972 2.99796 20.1416 3.39771 20.1416ZM19.1477 20.1416C19.8437 20.1416 20.4415 20.6306 20.5979 21.2966C20.1775 21.5824 19.6706 21.75 19.125 21.75C18.5955 21.75 18.1031 21.5908 17.6902 21.3201C17.7491 21.0411 17.8817 20.7854 18.0842 20.5803C18.3707 20.2972 18.748 20.1416 19.1477 20.1416Z" fill="#E4E4E7" fill-opacity="0.8"/>
</svg>
