<svg width="159" height="40" viewBox="0 0 159 40" fill="none" xmlns="http://www.w3.org/2000/svg">
<path d="M0 6C0 2.68629 2.68629 0 6 0H153C156.314 0 159 2.68629 159 6V34C159 37.3137 156.314 40 153 40H6C2.68629 40 0 37.3137 0 34V6Z" fill="#018F6A" fill-opacity="0.85"/>
<path d="M59.8939 20.432L59.5259 21.712H62.1979L61.8299 20.432C61.6592 19.8773 61.4939 19.3067 61.3339 18.72C61.1845 18.1333 61.0352 17.552 60.8859 16.976H60.8219C60.6832 17.5627 60.5339 18.1493 60.3739 18.736C60.2245 19.312 60.0645 19.8773 59.8939 20.432ZM56.3899 26L59.7979 15.536H61.9739L65.3819 26H63.4299L62.6139 23.168H59.0939L58.2779 26H56.3899ZM69.2638 26.192C68.2824 26.192 67.4984 25.8293 66.9118 25.104C66.3251 24.3787 66.0318 23.3707 66.0318 22.08C66.0318 21.2267 66.1864 20.4907 66.4958 19.872C66.8158 19.2533 67.2318 18.7787 67.7438 18.448C68.2558 18.1173 68.7944 17.952 69.3598 17.952C69.8078 17.952 70.1864 18.032 70.4958 18.192C70.8158 18.3413 71.1251 18.5493 71.4238 18.816L71.3598 17.552V14.704H73.1998V26H71.6798L71.5518 25.152H71.4878C71.1998 25.44 70.8638 25.6853 70.4798 25.888C70.0958 26.0907 69.6904 26.192 69.2638 26.192ZM69.7118 24.672C70.2984 24.672 70.8478 24.3787 71.3598 23.792V20.128C71.0931 19.8827 70.8264 19.712 70.5598 19.616C70.2931 19.52 70.0264 19.472 69.7598 19.472C69.2584 19.472 68.8264 19.7013 68.4638 20.16C68.1118 20.608 67.9358 21.2427 67.9358 22.064C67.9358 22.9067 68.0904 23.552 68.3998 24C68.7091 24.448 69.1464 24.672 69.7118 24.672ZM78.295 26.192C77.3137 26.192 76.5297 25.8293 75.943 25.104C75.3563 24.3787 75.063 23.3707 75.063 22.08C75.063 21.2267 75.2177 20.4907 75.527 19.872C75.847 19.2533 76.263 18.7787 76.775 18.448C77.287 18.1173 77.8257 17.952 78.391 17.952C78.839 17.952 79.2177 18.032 79.527 18.192C79.847 18.3413 80.1563 18.5493 80.455 18.816L80.391 17.552V14.704H82.231V26H80.711L80.583 25.152H80.519C80.231 25.44 79.895 25.6853 79.511 25.888C79.127 26.0907 78.7217 26.192 78.295 26.192ZM78.743 24.672C79.3297 24.672 79.879 24.3787 80.391 23.792V20.128C80.1243 19.8827 79.8577 19.712 79.591 19.616C79.3243 19.52 79.0577 19.472 78.791 19.472C78.2897 19.472 77.8577 19.7013 77.495 20.16C77.143 20.608 76.967 21.2427 76.967 22.064C76.967 22.9067 77.1217 23.552 77.431 24C77.7403 24.448 78.1777 24.672 78.743 24.672ZM87.9374 26V15.536H91.2334C92.012 15.536 92.7054 15.6373 93.3134 15.84C93.9214 16.0427 94.4014 16.3787 94.7534 16.848C95.1054 17.3173 95.2814 17.9573 95.2814 18.768C95.2814 19.536 95.1054 20.1707 94.7534 20.672C94.4014 21.1733 93.9267 21.5467 93.3294 21.792C92.732 22.0373 92.0547 22.16 91.2974 22.16H89.7934V26H87.9374ZM89.7934 20.672H91.1534C92.6894 20.672 93.4574 20.0373 93.4574 18.768C93.4574 18.1067 93.2547 17.6533 92.8494 17.408C92.4547 17.152 91.868 17.024 91.0894 17.024H89.7934V20.672ZM98.3845 26.192C97.7018 26.192 97.1418 25.9787 96.7045 25.552C96.2778 25.1253 96.0645 24.5707 96.0645 23.888C96.0645 23.0453 96.4325 22.3947 97.1685 21.936C97.9045 21.4667 99.0778 21.1467 100.689 20.976C100.678 20.56 100.566 20.2027 100.353 19.904C100.15 19.5947 99.7818 19.44 99.2485 19.44C98.8645 19.44 98.4858 19.5147 98.1125 19.664C97.7498 19.8133 97.3925 19.9947 97.0405 20.208L96.3685 18.976C96.8058 18.6987 97.2965 18.4587 97.8405 18.256C98.3952 18.0533 98.9818 17.952 99.6005 17.952C100.582 17.952 101.313 18.2453 101.793 18.832C102.283 19.408 102.529 20.2453 102.529 21.344V26H101.009L100.881 25.136H100.817C100.465 25.4347 100.086 25.6853 99.6805 25.888C99.2858 26.0907 98.8538 26.192 98.3845 26.192ZM98.9765 24.752C99.2965 24.752 99.5845 24.6773 99.8405 24.528C100.107 24.368 100.39 24.1547 100.689 23.888V22.128C99.6218 22.2667 98.8805 22.4747 98.4645 22.752C98.0485 23.0187 97.8405 23.3493 97.8405 23.744C97.8405 24.096 97.9472 24.352 98.1605 24.512C98.3738 24.672 98.6458 24.752 98.9765 24.752ZM108.011 26.192C107.296 26.192 106.651 26.032 106.075 25.712C105.509 25.3813 105.056 24.912 104.715 24.304C104.384 23.6853 104.219 22.944 104.219 22.08C104.219 21.2053 104.4 20.464 104.763 19.856C105.125 19.2373 105.605 18.768 106.203 18.448C106.811 18.1173 107.461 17.952 108.155 17.952C108.656 17.952 109.093 18.0373 109.467 18.208C109.84 18.3787 110.171 18.5867 110.459 18.832L109.563 20.032C109.36 19.8507 109.152 19.712 108.939 19.616C108.725 19.5093 108.496 19.456 108.251 19.456C107.621 19.456 107.104 19.696 106.699 20.176C106.304 20.656 106.107 21.2907 106.107 22.08C106.107 22.8587 106.299 23.488 106.683 23.968C107.077 24.448 107.584 24.688 108.203 24.688C108.512 24.688 108.8 24.624 109.067 24.496C109.344 24.3573 109.595 24.1973 109.819 24.016L110.571 25.232C110.208 25.552 109.803 25.792 109.355 25.952C108.907 26.112 108.459 26.192 108.011 26.192ZM112.121 26V14.704H113.929V21.76H113.977L116.889 18.144H118.905L116.217 21.344L119.177 26H117.177L115.161 22.592L113.929 24V26H112.121ZM122.228 26.192C121.546 26.192 120.986 25.9787 120.548 25.552C120.122 25.1253 119.908 24.5707 119.908 23.888C119.908 23.0453 120.276 22.3947 121.012 21.936C121.748 21.4667 122.922 21.1467 124.532 20.976C124.522 20.56 124.41 20.2027 124.196 19.904C123.994 19.5947 123.626 19.44 123.092 19.44C122.708 19.44 122.33 19.5147 121.956 19.664C121.594 19.8133 121.236 19.9947 120.884 20.208L120.212 18.976C120.65 18.6987 121.14 18.4587 121.684 18.256C122.239 18.0533 122.826 17.952 123.444 17.952C124.426 17.952 125.156 18.2453 125.636 18.832C126.127 19.408 126.372 20.2453 126.372 21.344V26H124.852L124.724 25.136H124.66C124.308 25.4347 123.93 25.6853 123.524 25.888C123.13 26.0907 122.698 26.192 122.228 26.192ZM122.82 24.752C123.14 24.752 123.428 24.6773 123.684 24.528C123.951 24.368 124.234 24.1547 124.532 23.888V22.128C123.466 22.2667 122.724 22.4747 122.308 22.752C121.892 23.0187 121.684 23.3493 121.684 23.744C121.684 24.096 121.791 24.352 122.004 24.512C122.218 24.672 122.49 24.752 122.82 24.752ZM131.31 29.472C130.692 29.472 130.132 29.3973 129.63 29.248C129.14 29.0987 128.75 28.8693 128.462 28.56C128.185 28.2613 128.046 27.8827 128.046 27.424C128.046 26.7733 128.42 26.2133 129.166 25.744V25.68C128.964 25.552 128.793 25.3813 128.654 25.168C128.526 24.9547 128.462 24.688 128.462 24.368C128.462 24.0587 128.548 23.7813 128.718 23.536C128.9 23.28 129.102 23.072 129.326 22.912V22.848C129.06 22.6453 128.82 22.3627 128.606 22C128.404 21.6373 128.302 21.2267 128.302 20.768C128.302 20.16 128.446 19.648 128.734 19.232C129.022 18.816 129.401 18.5013 129.87 18.288C130.35 18.064 130.862 17.952 131.406 17.952C131.62 17.952 131.822 17.9733 132.014 18.016C132.217 18.048 132.398 18.0907 132.558 18.144H135.374V19.504H133.934C134.062 19.6533 134.169 19.8453 134.254 20.08C134.34 20.304 134.382 20.5547 134.382 20.832C134.382 21.408 134.249 21.8987 133.982 22.304C133.716 22.6987 133.358 22.9973 132.91 23.2C132.462 23.4027 131.961 23.504 131.406 23.504C131.236 23.504 131.06 23.488 130.878 23.456C130.697 23.424 130.516 23.3707 130.334 23.296C130.217 23.4027 130.121 23.5093 130.046 23.616C129.982 23.7227 129.95 23.8667 129.95 24.048C129.95 24.272 130.041 24.448 130.222 24.576C130.414 24.704 130.75 24.768 131.23 24.768H132.622C133.572 24.768 134.286 24.9227 134.766 25.232C135.257 25.5307 135.502 26.0213 135.502 26.704C135.502 27.216 135.332 27.68 134.99 28.096C134.649 28.5227 134.164 28.8587 133.534 29.104C132.905 29.3493 132.164 29.472 131.31 29.472ZM131.406 22.352C131.78 22.352 132.1 22.2133 132.366 21.936C132.633 21.6587 132.766 21.2693 132.766 20.768C132.766 20.2773 132.633 19.8987 132.366 19.632C132.11 19.3547 131.79 19.216 131.406 19.216C131.022 19.216 130.697 19.3493 130.43 19.616C130.164 19.8827 130.03 20.2667 130.03 20.768C130.03 21.2693 130.164 21.6587 130.43 21.936C130.697 22.2133 131.022 22.352 131.406 22.352ZM131.598 28.272C132.228 28.272 132.74 28.144 133.134 27.888C133.529 27.632 133.726 27.3387 133.726 27.008C133.726 26.6987 133.604 26.4907 133.358 26.384C133.124 26.2773 132.782 26.224 132.334 26.224H131.262C130.836 26.224 130.478 26.1867 130.19 26.112C129.785 26.4213 129.582 26.768 129.582 27.152C129.582 27.504 129.764 27.776 130.126 27.968C130.489 28.1707 130.98 28.272 131.598 28.272ZM139.997 26.192C139.271 26.192 138.615 26.032 138.029 25.712C137.442 25.3813 136.978 24.912 136.637 24.304C136.295 23.6853 136.125 22.944 136.125 22.08C136.125 21.2267 136.295 20.4907 136.637 19.872C136.989 19.2533 137.442 18.7787 137.997 18.448C138.551 18.1173 139.133 17.952 139.741 17.952C140.455 17.952 141.053 18.112 141.533 18.432C142.013 18.7413 142.375 19.1787 142.621 19.744C142.866 20.2987 142.989 20.944 142.989 21.68C142.989 22.064 142.962 22.3627 142.909 22.576H137.917C138.002 23.2693 138.253 23.808 138.669 24.192C139.085 24.576 139.607 24.768 140.237 24.768C140.578 24.768 140.893 24.72 141.181 24.624C141.479 24.5173 141.773 24.3733 142.061 24.192L142.685 25.344C142.311 25.5893 141.895 25.792 141.437 25.952C140.978 26.112 140.498 26.192 139.997 26.192ZM137.901 21.328H141.389C141.389 20.72 141.255 20.2453 140.989 19.904C140.722 19.552 140.322 19.376 139.789 19.376C139.33 19.376 138.919 19.5467 138.557 19.888C138.205 20.2187 137.986 20.6987 137.901 21.328Z" fill="#E4E4E7"/>
<path d="M20.5 17.5V27.5L28.5 31L36.5 27.5V17.5" stroke="#E4E4E7" stroke-miterlimit="10" stroke-linecap="round" stroke-linejoin="round"/>
<path d="M20.5 17.5L28.5 21L36.5 17.5" stroke="#E4E4E7" stroke-miterlimit="10" stroke-linecap="round" stroke-linejoin="round"/>
<path d="M24.5 15.75L32.5 19.281V22.5" stroke="#E4E4E7" stroke-miterlimit="10" stroke-linecap="round" stroke-linejoin="round"/>
<path d="M20.5 17.5L28.5 14L36.5 17.5" stroke="#E4E4E7" stroke-miterlimit="10" stroke-linecap="round" stroke-linejoin="round"/>
<path d="M14.5 23.6523L14.547 23.6743L18.5 25.5003" stroke="#E4E4E7" stroke-miterlimit="10" stroke-linecap="round" stroke-linejoin="round"/>
<path d="M15.2031 20.4766L18.4971 21.9986" stroke="#E4E4E7" stroke-miterlimit="10" stroke-linecap="round" stroke-linejoin="round"/>
<path d="M15.8672 17.2812L18.5022 18.4983" stroke="#E4E4E7" stroke-miterlimit="10" stroke-linecap="round" stroke-linejoin="round"/>
<path d="M28.5 21V31" stroke="#E4E4E7" stroke-miterlimit="10" stroke-linecap="round" stroke-linejoin="round"/>
<path d="M45 8.33203V17.6654" stroke="#E4E4E7" stroke-width="2" stroke-linecap="round" stroke-linejoin="round"/>
<path d="M40.3359 13H49.6693" stroke="#E4E4E7" stroke-width="2" stroke-linecap="round" stroke-linejoin="round"/>
</svg>
