<svg width="57" height="40" viewBox="0 0 57 40" fill="none" xmlns="http://www.w3.org/2000/svg">
<path d="M0 6C0 2.68629 2.68629 0 6 0H51C54.3137 0 57 2.68629 57 6V34C57 37.3137 54.3137 40 51 40H6C2.68629 40 0 37.3137 0 34V6Z" fill="#018F6A" fill-opacity="0.85"/>
<path d="M16.5 18.5V28.5L24.5 32L32.5 28.5V18.5" stroke="#E4E4E7" stroke-miterlimit="10" stroke-linecap="round" stroke-linejoin="round"/>
<path d="M16.5 18.5L24.5 22L32.5 18.5" stroke="#E4E4E7" stroke-miterlimit="10" stroke-linecap="round" stroke-linejoin="round"/>
<path d="M20.5 16.75L28.5 20.281V23.5" stroke="#E4E4E7" stroke-miterlimit="10" stroke-linecap="round" stroke-linejoin="round"/>
<path d="M16.5 18.5L24.5 15L32.5 18.5" stroke="#E4E4E7" stroke-miterlimit="10" stroke-linecap="round" stroke-linejoin="round"/>
<path d="M10.5 24.6523L10.547 24.6743L14.5 26.5003" stroke="#E4E4E7" stroke-miterlimit="10" stroke-linecap="round" stroke-linejoin="round"/>
<path d="M11.2031 21.4766L14.4971 22.9986" stroke="#E4E4E7" stroke-miterlimit="10" stroke-linecap="round" stroke-linejoin="round"/>
<path d="M11.8672 18.2812L14.5022 19.4983" stroke="#E4E4E7" stroke-miterlimit="10" stroke-linecap="round" stroke-linejoin="round"/>
<path d="M24.5 22V32" stroke="#E4E4E7" stroke-miterlimit="10" stroke-linecap="round" stroke-linejoin="round"/>
<path d="M41 9.33203V18.6654" stroke="#E4E4E7" stroke-width="2" stroke-linecap="round" stroke-linejoin="round"/>
<path d="M36.3359 14H45.6693" stroke="#E4E4E7" stroke-width="2" stroke-linecap="round" stroke-linejoin="round"/>
</svg>