<svg width="98" height="68" viewBox="0 0 98 68" fill="none" xmlns="http://www.w3.org/2000/svg">
<path d="M97.9554 7.24951C97.9534 5.32786 97.1893 3.48546 95.8308 2.12642C94.4722 0.767374 92.6301 0.00265363 90.7084 0H7.24825C5.32639 0.00232206 3.48393 0.766894 2.12509 2.12597C0.766242 3.48505 0.00198991 5.32765 8.7089e-08 7.24951V21.0793C-0.000293303 22.97 0.740715 24.7854 2.06395 26.1358C0.740715 27.4862 -0.000293303 29.3016 8.7089e-08 31.1923V45.0259C0.0030787 46.5642 0.494172 48.0619 1.4026 49.3034C2.31102 50.5449 3.58992 51.4661 5.05523 51.9345V58.288C5.05507 58.5761 5.11168 58.8613 5.22183 59.1275C5.33198 59.3936 5.49351 59.6354 5.69718 59.8391C5.90086 60.0428 6.14268 60.2043 6.40882 60.3145C6.67497 60.4246 6.96021 60.4812 7.24825 60.4811H12.3085V65.807C12.3083 66.095 12.3649 66.3803 12.4751 66.6464C12.5852 66.9125 12.7468 67.1544 12.9504 67.358C13.1541 67.5617 13.3959 67.7232 13.6621 67.8334C13.9282 67.9435 14.2135 68.0002 14.5015 68H22.0204C22.3085 68.0002 22.5937 67.9435 22.8599 67.8334C23.126 67.7232 23.3678 67.5617 23.5715 67.358C23.7752 67.1544 23.9367 66.9125 24.0469 66.6464C24.157 66.3803 24.2136 66.095 24.2135 65.807V60.4773H73.7419V65.8032C73.7418 66.0912 73.7984 66.3765 73.9085 66.6426C74.0187 66.9088 74.1802 67.1506 74.3839 67.3543C74.5876 67.558 74.8294 67.7195 75.0955 67.8296C75.3617 67.9398 75.6469 67.9964 75.935 67.9962H83.4539C83.7419 67.9964 84.0272 67.9398 84.2933 67.8296C84.5595 67.7195 84.8013 67.558 85.005 67.3543C85.2086 67.1506 85.3702 66.9088 85.4803 66.6426C85.5905 66.3765 85.6471 66.0912 85.6469 65.8032V60.4773H90.7084C90.9964 60.4775 91.2817 60.4209 91.5478 60.3107C91.814 60.2006 92.0558 60.039 92.2595 59.8353C92.4631 59.6317 92.6247 59.3899 92.7348 59.1237C92.845 58.8576 92.9016 58.5723 92.9014 58.2843V51.9308C94.3667 51.4624 95.6456 50.5411 96.5541 49.2997C97.4625 48.0582 97.9536 46.5605 97.9567 45.0221V31.1923C97.9569 29.3016 97.2159 27.4862 95.8927 26.1358C97.2159 24.7854 97.9569 22.97 97.9567 21.0793L97.9554 7.24951ZM4.3873 7.24951C4.38796 6.49071 4.68951 5.76314 5.22583 5.22635C5.76215 4.68956 6.48945 4.38737 7.24825 4.38605H90.7084C91.4674 4.38704 92.195 4.68909 92.7316 5.22591C93.2682 5.76273 93.5699 6.49049 93.5706 7.24951V21.0793C93.5699 21.8384 93.2682 22.5661 92.7316 23.1029C92.195 23.6398 91.4674 23.9418 90.7084 23.9428H7.24825C6.48924 23.9418 5.76161 23.6398 5.22502 23.1029C4.68843 22.5661 4.38671 21.8384 4.38604 21.0793L4.3873 7.24951ZM19.8287 63.6102H16.6958V60.4773H19.8287V63.6102ZM81.2609 63.6102H78.128V60.4773H81.2609V63.6102ZM9.44253 56.0913V52.2716H88.5166V56.0913H9.44253ZM93.5694 45.0259C93.5677 45.784 93.2657 46.5106 92.7295 47.0466C92.1933 47.5826 91.4666 47.8843 90.7084 47.8856H7.24825C6.4901 47.8843 5.76337 47.5826 5.22716 47.0466C4.69095 46.5106 4.38895 45.784 4.3873 45.0259V31.1923C4.38796 30.4335 4.68951 29.7059 5.22583 29.1691C5.76215 28.6324 6.48945 28.3302 7.24825 28.3288H90.7084C91.4674 28.3298 92.195 28.6319 92.7316 29.1687C93.2682 29.7055 93.5699 30.4333 93.5706 31.1923L93.5694 45.0259Z" fill="#E4E4E7" fill-opacity="0.8"/>
<path d="M21.5619 19.8816C22.6929 19.8816 23.7985 19.5462 24.7389 18.9178C25.6792 18.2895 26.4121 17.3963 26.8449 16.3514C27.2776 15.3065 27.3908 14.1567 27.1701 13.0474C26.9493 11.9382 26.4046 10.9193 25.6048 10.1197C24.805 9.32003 23.786 8.77553 22.6767 8.55504C21.5674 8.33454 20.4176 8.44795 19.3728 8.88094C18.328 9.31392 17.435 10.047 16.8068 10.9875C16.1787 11.928 15.8435 13.0337 15.8438 14.1647C15.8454 15.6806 16.4484 17.134 17.5205 18.2058C18.5925 19.2776 20.046 19.8803 21.5619 19.8816ZM21.5619 12.8326C21.8254 12.8326 22.0829 12.9107 22.302 13.0571C22.521 13.2035 22.6918 13.4115 22.7926 13.6549C22.8934 13.8983 22.9198 14.1662 22.8684 14.4246C22.817 14.683 22.6901 14.9204 22.5038 15.1066C22.3175 15.2929 22.0802 15.4198 21.8218 15.4712C21.5634 15.5226 21.2955 15.4962 21.0521 15.3954C20.8087 15.2946 20.6007 15.1239 20.4543 14.9048C20.3079 14.6857 20.2298 14.4282 20.2298 14.1647C20.2301 13.8115 20.3706 13.4729 20.6203 13.2231C20.8701 12.9734 21.2087 12.8329 21.5619 12.8326Z" fill="#E4E4E7" fill-opacity="0.8"/>
<path d="M34.7985 16.3577H79.912C80.4937 16.3577 81.0515 16.1267 81.4628 15.7154C81.874 15.3041 82.1051 14.7463 82.1051 14.1647C82.1051 13.5831 81.874 13.0253 81.4628 12.614C81.0515 12.2027 80.4937 11.9717 79.912 11.9717H34.7985C34.2169 11.9717 33.6591 12.2027 33.2478 12.614C32.8365 13.0253 32.6055 13.5831 32.6055 14.1647C32.6055 14.7463 32.8365 15.3041 33.2478 15.7154C33.6591 16.1267 34.2169 16.3577 34.7985 16.3577Z" fill="#E4E4E7" fill-opacity="0.8"/>
<path d="M21.5631 32.3901C20.4321 32.3899 19.3264 32.7251 18.3858 33.3533C17.4453 33.9815 16.7122 34.8746 16.2793 35.9195C15.8463 36.9644 15.733 38.1142 15.9536 39.2235C16.1742 40.3329 16.7188 41.3519 17.5186 42.1516C18.3183 42.9514 19.3373 43.496 20.4466 43.7166C21.556 43.9372 22.7058 43.8239 23.7507 43.3909C24.7956 42.958 25.6887 42.2249 26.3169 41.2844C26.9451 40.3438 27.2803 39.2381 27.28 38.107C27.278 36.5914 26.6751 35.1385 25.6034 34.0668C24.5317 32.9951 23.0788 32.3921 21.5631 32.3901ZM21.5631 39.4391C21.2996 39.4394 21.042 39.3615 20.8227 39.2153C20.6035 39.069 20.4326 38.8611 20.3316 38.6177C20.2305 38.3743 20.204 38.1064 20.2552 37.8479C20.3065 37.5894 20.4333 37.352 20.6195 37.1655C20.8058 36.9791 21.0431 36.8521 21.3016 36.8006C21.56 36.7491 21.8279 36.7754 22.0714 36.8762C22.3149 36.977 22.523 37.1477 22.6694 37.3668C22.8158 37.5859 22.894 37.8435 22.894 38.107C22.8937 38.46 22.7534 38.7985 22.5039 39.0482C22.2544 39.2979 21.9161 39.4385 21.5631 39.4391Z" fill="#E4E4E7" fill-opacity="0.8"/>
<path d="M79.912 35.9136H34.7985C34.2169 35.9136 33.6591 36.1446 33.2478 36.5559C32.8365 36.9672 32.6055 37.525 32.6055 38.1066C32.6055 38.6882 32.8365 39.246 33.2478 39.6573C33.6591 40.0686 34.2169 40.2996 34.7985 40.2996H79.912C80.4937 40.2996 81.0515 40.0686 81.4628 39.6573C81.874 39.246 82.1051 38.6882 82.1051 38.1066C82.1051 37.525 81.874 36.9672 81.4628 36.5559C81.0515 36.1446 80.4937 35.9136 79.912 35.9136Z" fill="#E4E4E7" fill-opacity="0.8"/>
</svg>
