<svg width="24" height="24" viewBox="0 0 24 24" fill="none" xmlns="http://www.w3.org/2000/svg">
<path d="M23.1089 8.00159C23.0764 7.95261 23.0322 7.91244 22.9804 7.88466C22.9286 7.85688 22.8707 7.84236 22.8119 7.84238H21.4384C21.3907 7.8421 21.3433 7.85142 21.2993 7.86979C21.2552 7.88816 21.2152 7.9152 21.1818 7.94931L18.7438 10.4562H13.2784L16.1584 5.77268C16.1919 5.71861 16.2104 5.65656 16.2118 5.59297C16.2132 5.52938 16.1976 5.46656 16.1666 5.41104C16.1355 5.35552 16.0902 5.30932 16.0353 5.27722C15.9804 5.24513 15.9179 5.22831 15.8543 5.22852H12.7652C12.6707 5.2286 12.5801 5.26621 12.5133 5.33307L7.39012 10.4562H5.6317C2.73507 10.4562 0.712891 12.0721 0.712891 14.3937C0.712891 14.6098 0.798762 14.8171 0.951613 14.97C1.10446 15.1228 1.31178 15.2087 1.52794 15.2087H6.79606L12.8697 21.2824C12.9365 21.3492 13.0271 21.3869 13.1216 21.3869H16.2107C16.2743 21.3871 16.3368 21.3703 16.3917 21.3382C16.4466 21.3061 16.492 21.2599 16.523 21.2044C16.554 21.1489 16.5697 21.0861 16.5682 21.0225C16.5668 20.9589 16.5484 20.8968 16.5149 20.8428L13.0456 15.2087H18.1355C18.7477 15.2084 19.3462 15.028 19.8567 14.69C20.3671 14.352 20.7668 13.8713 21.006 13.3077L23.1446 8.33188C23.1659 8.27807 23.1738 8.21988 23.1676 8.16233C23.1614 8.10478 23.1412 8.04961 23.1089 8.00159ZM12.9125 5.94139H15.2079L12.4372 10.4562H8.39764L12.9125 5.94139ZM20.3501 13.0345C20.1648 13.4683 19.8561 13.838 19.4623 14.0978C19.0686 14.3577 18.6072 14.4961 18.1355 14.4958H12.4087C12.3451 14.4956 12.2826 14.5125 12.2277 14.5445C12.1728 14.5766 12.1275 14.6229 12.0964 14.6784C12.0654 14.7339 12.0498 14.7967 12.0512 14.8603C12.0527 14.9239 12.0711 14.9859 12.1046 15.04L15.5715 20.6741H13.2689L7.19527 14.6004C7.12849 14.5335 7.03789 14.4959 6.94339 14.4958H1.52794C1.514 14.4955 1.50026 14.4925 1.48754 14.4868C1.47481 14.4811 1.46335 14.4729 1.45383 14.4627C1.44431 14.4525 1.43692 14.4405 1.4321 14.4275C1.42728 14.4144 1.42512 14.4005 1.42576 14.3865C1.42576 12.4927 3.15566 11.1691 5.6317 11.1691H18.8959C18.9436 11.1694 18.9909 11.1601 19.035 11.1417C19.0791 11.1233 19.1191 11.0963 19.1525 11.0622L21.5881 8.55525H22.2725L20.3501 13.0345Z" fill="#E4E4E7"/>
</svg>
