<svg width="16" height="16" viewBox="0 0 16 16" fill="none" xmlns="http://www.w3.org/2000/svg">
<path d="M6.28534 3.44397V0.571293C6.28523 0.255679 6.02932 -0.000100421 5.71371 2.95766e-08C5.55185 3.3513e-05 5.39762 0.0687414 5.28927 0.18898L0.14626 5.90349C-0.0418165 6.11296 -0.0493503 6.42817 0.128547 6.64638L5.27159 12.9323C5.47142 13.1766 5.83143 13.2126 6.07573 13.0128C6.20806 12.9045 6.28497 12.7427 6.28534 12.5717V9.72421C10.7998 9.87107 13.617 11.8008 14.8868 15.6102C14.9647 15.8432 15.1828 16.0003 15.4285 16.0004C15.4593 16.0005 15.4901 15.998 15.5206 15.993C15.797 15.9479 16 15.7091 16 15.429C16 8.69958 11.949 3.75596 6.28534 3.44397Z" fill="white" fill-opacity="0.8"/>
</svg>
