<svg width="20" height="20" viewBox="0 0 20 20" fill="none" xmlns="http://www.w3.org/2000/svg">
<path d="M4.29688 4.92212C4.08125 4.92212 3.90625 5.09712 3.90625 5.31274C3.90625 5.52837 4.08125 5.70337 4.29688 5.70337C4.5125 5.70337 4.6875 5.52837 4.6875 5.31274C4.6875 5.09712 4.5125 4.92212 4.29688 4.92212Z" fill="#E4E4E7" fill-opacity="0.8"/>
<path d="M18.3955 8.26282L17.8303 7.13239C17.6305 6.73271 17.2289 6.48446 16.7821 6.48446H13.5151V3.75021C13.5151 3.10407 12.9894 2.57837 12.3432 2.57837H1.17184C0.525664 2.57837 0 3.10403 0 3.75021V13.906C0 14.5522 0.525664 15.0779 1.17184 15.0779H2.34367C2.34367 15.6776 2.57043 16.2253 2.94234 16.6403H0.390625C0.174883 16.6403 0 16.8152 0 17.0309C0 17.2466 0.174883 17.4215 0.390625 17.4215H19.6086C19.8243 17.4215 19.9992 17.2466 19.9992 17.0309C19.9992 16.8152 19.8243 16.6403 19.6086 16.6403H18.6193C18.9912 16.2253 19.218 15.6776 19.218 15.0779C19.218 15.0556 19.2169 15.0334 19.2163 15.0112C19.6718 14.8504 19.9992 14.4159 19.9992 13.906V11.7467C19.9992 11.2909 20.0895 11.7165 18.3955 8.26282ZM17.8047 8.8281L18.9766 11.1718H15.0775V8.8281H17.8047ZM0.781211 11.953H1.56242V12.7342H0.781211V11.953ZM4.6873 16.6403C3.82578 16.6403 3.12488 15.9393 3.12488 15.0779C3.12488 14.9715 3.13543 14.8667 3.15652 14.7649C3.30344 14.0409 3.94723 13.5154 4.6873 13.5154C5.42738 13.5154 6.07121 14.0409 6.21809 14.7649C6.2182 14.7655 6.21832 14.766 6.21844 14.7665C6.23922 14.8667 6.24973 14.9715 6.24973 15.0779C6.24973 15.9394 5.54883 16.6403 4.6873 16.6403ZM4.6873 12.7342C3.68648 12.7342 2.80324 13.3753 2.47762 14.2966H1.17184C0.956445 14.2966 0.781211 14.1214 0.781211 13.906V13.5154H1.95305C2.16879 13.5154 2.34367 13.3404 2.34367 13.1247V11.5623C2.34367 11.3466 2.16879 11.1717 1.95305 11.1717H0.781211V3.75021C0.781211 3.53481 0.956445 3.35958 1.17184 3.35958H12.3432C12.5586 3.35958 12.7339 3.53481 12.7339 3.75021C12.7339 4.04079 12.7339 13.3599 12.7339 14.2967H6.8968C6.57059 13.3749 5.6877 12.7342 4.6873 12.7342ZM6.43227 16.6403C6.80422 16.2253 7.03094 15.6776 7.03094 15.0779C7.33086 15.0779 14.4029 15.0779 14.5306 15.0779C14.5306 15.6776 14.7574 16.2253 15.1293 16.6403H6.43227ZM16.8743 16.6403C16.0128 16.6403 15.3119 15.9393 15.3119 15.0779C15.3119 14.9715 15.3224 14.8667 15.3435 14.7649C15.4904 14.0409 16.1342 13.5154 16.8743 13.5154C17.6144 13.5154 18.2582 14.0409 18.4051 14.7649C18.4052 14.7655 18.4053 14.766 18.4054 14.7665C18.4262 14.8667 18.4367 14.9715 18.4367 15.0779C18.4368 15.9394 17.7358 16.6403 16.8743 16.6403ZM19.218 13.906C19.218 14.0359 19.1539 14.1509 19.0561 14.222C18.7096 13.3404 17.8475 12.7342 16.8743 12.7342C15.8735 12.7342 14.9902 13.3754 14.6646 14.2967H13.515V7.26567H16.7821C16.931 7.26567 17.0649 7.34849 17.1315 7.48173L17.4141 8.04688H14.6869C14.4712 8.04688 14.2963 8.22181 14.2963 8.43751V11.5624C14.2963 11.7781 14.4712 11.953 14.6869 11.953H19.218V13.906Z" fill="#E4E4E7" fill-opacity="0.8"/>
<path d="M10.7811 4.92212H5.85938C5.64363 4.92212 5.46875 5.09704 5.46875 5.31274C5.46875 5.52845 5.64363 5.70337 5.85938 5.70337H10.7811C10.9968 5.70337 11.1717 5.52845 11.1717 5.31274C11.1717 5.09704 10.9968 4.92212 10.7811 4.92212Z" fill="#E4E4E7" fill-opacity="0.8"/>
<path d="M10.7811 6.48462H7.42188C7.20613 6.48462 7.03125 6.65954 7.03125 6.87524C7.03125 7.09095 7.20613 7.26587 7.42188 7.26587H10.7811C10.9969 7.26587 11.1718 7.09095 11.1718 6.87524C11.1718 6.65954 10.9968 6.48462 10.7811 6.48462Z" fill="#E4E4E7" fill-opacity="0.8"/>
<path d="M16.875 14.2966C16.4442 14.2966 16.0938 14.6471 16.0938 15.0778C16.0938 15.5086 16.4442 15.8591 16.875 15.8591C17.3057 15.8591 17.6562 15.5086 17.6562 15.0778C17.6562 14.6471 17.3057 14.2966 16.875 14.2966Z" fill="#E4E4E7" fill-opacity="0.8"/>
<path d="M4.68746 14.2966C4.25668 14.2966 3.90625 14.6471 3.90625 15.0778C3.90625 15.5086 4.25672 15.8591 4.68746 15.8591C5.11824 15.8591 5.46867 15.5086 5.46867 15.0778C5.46867 14.6471 5.11824 14.2966 4.68746 14.2966Z" fill="#E4E4E7" fill-opacity="0.8"/>
</svg>
