<svg width="20" height="20" viewBox="0 0 20 20" fill="none" xmlns="http://www.w3.org/2000/svg">
<path d="M17.0703 11.1719C16.5897 11.1719 16.136 11.2889 15.7355 11.4951L14.987 10.5594C15.3381 10.3519 15.7205 10.1964 16.1218 10.1065C16.4513 10.0328 16.7851 9.9968 17.1123 10.0003C17.1179 10.0003 17.1236 10.0005 17.1292 10.0005C18.0002 10.0005 18.8281 9.30176 18.8281 8.17368C18.8281 5.29907 16.4914 2.96875 13.631 2.96875H12.9688C12.6451 2.96875 12.3828 3.23105 12.3828 3.55469C12.3828 3.87833 12.6451 4.14062 12.9688 4.14062H13.631C13.8036 4.14062 13.9737 4.15161 14.1406 4.17282V5.3244C13.7984 5.35538 13.4683 5.44586 13.1638 5.58853C12.3871 4.68445 11.2207 4.14062 10 4.14062C8.61481 4.14062 7.33353 4.84436 6.58142 5.97641L5.61401 5.39597C5.52292 5.34134 5.4187 5.3125 5.3125 5.3125H0.585938C0.262299 5.3125 0 5.5748 0 5.89844C0 7.51389 1.31424 8.82812 2.92969 8.82812C4.04984 8.82812 3.78372 8.81241 4.2453 8.88474C6.5239 9.24179 8.24219 11.2326 8.24219 13.5156H7.03125C7.03125 11.5771 5.4541 10 3.51562 10C1.57715 10 0 11.5771 0 13.5156C0 15.4541 1.57715 17.0312 3.51562 17.0312C5.04333 17.0312 6.34644 16.0516 6.83014 14.6875H12.3828C12.7065 14.6875 12.9688 14.4252 12.9688 14.1016C12.9688 13.7746 13.0075 13.4422 13.0841 13.114C13.2439 12.4294 13.5945 11.8013 14.0726 11.2924L14.8206 12.2273C14.3964 12.7357 14.1406 13.3893 14.1406 14.1016C14.1406 15.717 15.4549 17.0312 17.0703 17.0312C18.6858 17.0312 20 15.717 20 14.1016C20 12.4861 18.6858 11.1719 17.0703 11.1719ZM3.51562 15.8594C2.22321 15.8594 1.17188 14.808 1.17188 13.5156C1.17188 12.2232 2.22321 11.1719 3.51562 11.1719C4.80804 11.1719 5.85938 12.2232 5.85938 13.5156H4.10156C3.77853 13.5156 3.51562 13.2527 3.51562 12.9297C3.51562 12.606 3.25333 12.3438 2.92969 12.3438C2.60605 12.3438 2.34375 12.606 2.34375 12.9297C2.34375 13.8989 3.13232 14.6797 4.10156 14.6797H5.54413C5.13809 15.3795 4.38126 15.8594 3.51562 15.8594ZM10 5.3125C10.8519 5.3125 11.6656 5.67841 12.2211 6.29028C12.1309 6.3916 12.047 6.49963 11.9704 6.61423L11.2631 7.65076C9.96948 7.6033 8.70605 7.23541 7.58774 6.57944C8.12881 5.79666 9.02878 5.3125 10 5.3125ZM4.42657 7.73483C3.85773 7.64572 4.17816 7.66403 2.92969 7.66403C2.16583 7.66403 1.51413 7.16644 1.27228 6.48438H5.15015L6.91803 7.54501C8.01544 8.20358 9.23782 8.61847 10.5014 8.76663L10.4503 8.84155C9.57306 8.91586 8.76526 9.29565 8.15353 9.90967C7.22778 8.73947 5.89172 7.96432 4.42657 7.73483ZM11.8289 13.5156H9.41406C9.41406 12.6161 9.20258 11.7345 8.80524 10.9361C9.28253 10.345 9.99619 10 10.769 10C10.9627 10 11.1438 9.90433 11.2531 9.74442L12.9401 7.27249C12.9413 7.27066 12.9425 7.26898 12.9436 7.26715C13.2704 6.77704 13.8171 6.48438 14.4063 6.48438H14.7266C15.0502 6.48438 15.3125 6.22208 15.3125 5.89844V4.50989C16.6653 5.13565 17.6562 6.49536 17.6562 8.2457C17.6562 8.54904 17.4257 8.83102 17.1242 8.82843C16.7056 8.82431 16.283 8.86948 15.8656 8.96286C14.9243 9.17389 14.0553 9.65286 13.3527 10.3482C12.4992 11.1931 11.9641 12.2729 11.8289 13.5156ZM17.0703 15.8594C16.1011 15.8594 15.3125 15.0708 15.3125 14.1016C15.3125 13.7613 15.41 13.4436 15.578 13.1741L16.6127 14.4676C16.815 14.7205 17.1838 14.7612 17.4364 14.5592C17.6891 14.357 17.7299 13.9882 17.5279 13.7357L16.4928 12.4417C16.6737 12.3785 16.868 12.3438 17.0703 12.3438C18.0396 12.3438 18.8281 13.1323 18.8281 14.1016C18.8281 15.0708 18.0396 15.8594 17.0703 15.8594Z" fill="#E4E4E7" fill-opacity="0.8"/>
</svg>
