<svg width="20" height="20" viewBox="0 0 20 20" fill="none" xmlns="http://www.w3.org/2000/svg">
<path d="M18.1206 4.55444H1.88297C1.80419 4.55444 1.72864 4.58574 1.67294 4.64144C1.61723 4.69715 1.58594 4.7727 1.58594 4.85147V15.1485C1.58594 15.2273 1.61723 15.3028 1.67294 15.3585C1.72864 15.4142 1.80419 15.4455 1.88297 15.4455H18.1206C18.1994 15.4455 18.2749 15.4142 18.3306 15.3585C18.3863 15.3028 18.4176 15.2273 18.4176 15.1485V4.85147C18.4176 4.7727 18.3863 4.69715 18.3306 4.64144C18.2749 4.58574 18.1994 4.55444 18.1206 4.55444ZM17.8236 14.8515H2.18V5.1485H17.8236V14.8515Z" fill="#E4E4E7" fill-opacity="0.8"/>
<path d="M3.56265 13.8613H9.30523C9.38401 13.8613 9.45956 13.83 9.51526 13.7743C9.57097 13.7186 9.60226 13.6431 9.60226 13.5643C9.58819 12.7374 9.24672 11.9499 8.65275 11.3745C8.05878 10.7991 7.26083 10.4828 6.43394 10.495C5.60706 10.4828 4.8091 10.7991 4.21514 11.3745C3.62117 11.9499 3.27969 12.7374 3.26562 13.5643C3.26562 13.6431 3.29692 13.7186 3.35262 13.7743C3.40833 13.83 3.48388 13.8613 3.56265 13.8613ZM6.43394 11.089C7.05191 11.0797 7.65214 11.2956 8.12257 11.6965C8.593 12.0973 8.90147 12.6556 8.99038 13.2672H3.87751C3.96641 12.6556 4.27488 12.0973 4.74531 11.6965C5.21574 11.2956 5.81598 11.0797 6.43394 11.089Z" fill="#E4E4E7" fill-opacity="0.8"/>
<path d="M6.43707 9.90101C6.76997 9.90101 7.0954 9.80229 7.37219 9.61734C7.64899 9.43239 7.86472 9.16952 7.99212 8.86196C8.11951 8.5544 8.15285 8.21597 8.0879 7.88947C8.02296 7.56296 7.86265 7.26305 7.62725 7.02766C7.39186 6.79226 7.09195 6.63196 6.76544 6.56701C6.43894 6.50207 6.10051 6.5354 5.79295 6.66279C5.48539 6.79019 5.22252 7.00592 5.03757 7.28272C4.85262 7.55951 4.75391 7.88494 4.75391 8.21784C4.75443 8.66408 4.93193 9.0919 5.24747 9.40744C5.56302 9.72298 5.99083 9.90048 6.43707 9.90101ZM6.43707 7.12873C6.65248 7.12873 6.86305 7.1926 7.04215 7.31228C7.22125 7.43195 7.36085 7.60204 7.44328 7.80105C7.52571 8.00006 7.54728 8.21905 7.50526 8.43031C7.46323 8.64158 7.35951 8.83564 7.20719 8.98795C7.05488 9.14027 6.86082 9.244 6.64955 9.28602C6.43828 9.32804 6.2193 9.30647 6.02029 9.22404C5.82128 9.14161 5.65119 9.00202 5.53151 8.82291C5.41184 8.64381 5.34797 8.43324 5.34797 8.21784C5.34849 7.92915 5.4634 7.65243 5.66754 7.4483C5.87167 7.24417 6.14839 7.12925 6.43707 7.12873Z" fill="#E4E4E7" fill-opacity="0.8"/>
<path d="M10.1994 8.31672H16.14C16.2187 8.31672 16.2943 8.28542 16.35 8.22972C16.4057 8.17401 16.437 8.09846 16.437 8.01969C16.437 7.94091 16.4057 7.86536 16.35 7.80965C16.2943 7.75395 16.2187 7.72266 16.14 7.72266H10.1994C10.1206 7.72266 10.045 7.75395 9.98934 7.80965C9.93364 7.86536 9.90234 7.94091 9.90234 8.01969C9.90234 8.09846 9.93364 8.17401 9.98934 8.22972C10.045 8.28542 10.1206 8.31672 10.1994 8.31672Z" fill="#E4E4E7" fill-opacity="0.8"/>
<path d="M10.1994 11.0892H16.14C16.2187 11.0892 16.2943 11.0579 16.35 11.0022C16.4057 10.9465 16.437 10.8709 16.437 10.7921C16.437 10.7134 16.4057 10.6378 16.35 10.5821C16.2943 10.5264 16.2187 10.4951 16.14 10.4951H10.1994C10.1206 10.4951 10.045 10.5264 9.98934 10.5821C9.93364 10.6378 9.90234 10.7134 9.90234 10.7921C9.90234 10.8709 9.93364 10.9465 9.98934 11.0022C10.045 11.0579 10.1206 11.0892 10.1994 11.0892Z" fill="#E4E4E7" fill-opacity="0.8"/>
</svg>
