<svg width="45" height="40" viewBox="0 0 45 40" fill="none" xmlns="http://www.w3.org/2000/svg">
<path d="M19.8286 16.8906C19.2476 16.8906 18.6797 17.0629 18.1966 17.3857C17.7136 17.7085 17.3371 18.1672 17.1147 18.704C16.8924 19.2408 16.8342 19.8314 16.9476 20.4012C17.0609 20.971 17.3407 21.4944 17.7515 21.9053C18.1623 22.3161 18.6857 22.5958 19.2555 22.7092C19.8254 22.8225 20.416 22.7644 20.9527 22.542C21.4895 22.3197 21.9483 21.9432 22.2711 21.4601C22.5938 20.977 22.7661 20.4091 22.7661 19.8281C22.7661 19.0491 22.4566 18.3019 21.9057 17.751C21.3549 17.2001 20.6077 16.8906 19.8286 16.8906ZM19.8286 21.2969C19.5381 21.2969 19.2542 21.2107 19.0126 21.0493C18.7711 20.888 18.5828 20.6586 18.4717 20.3902C18.3605 20.1218 18.3314 19.8265 18.3881 19.5416C18.4448 19.2567 18.5846 18.995 18.7901 18.7896C18.9955 18.5842 19.2572 18.4443 19.5421 18.3876C19.827 18.3309 20.1223 18.36 20.3907 18.4712C20.6591 18.5823 20.8884 18.7706 21.0498 19.0121C21.2112 19.2537 21.2974 19.5376 21.2974 19.8281C21.2974 20.2177 21.1426 20.5912 20.8672 20.8667C20.5917 21.1421 20.2182 21.2969 19.8286 21.2969Z" fill="#E4E4E7" fill-opacity="0.8"/>
<path d="M19.8286 8.07812C17.5047 8.07813 15.2329 8.76725 13.3007 10.0584C11.3684 11.3495 9.86236 13.1846 8.97303 15.3316C8.0837 17.4786 7.85102 19.8412 8.30439 22.1204C8.75777 24.3997 9.87685 26.4934 11.5201 28.1366C13.1634 29.7799 15.257 30.899 17.5363 31.3524C19.8156 31.8057 22.1781 31.573 24.3251 30.6837C26.4722 29.7944 28.3073 28.2883 29.5984 26.3561C30.8895 24.4238 31.5786 22.1521 31.5786 19.8281C31.5749 16.713 30.3358 13.7265 28.133 11.5237C25.9303 9.32095 22.9438 8.08182 19.8286 8.07812ZM19.8286 30.1094C17.7952 30.1094 15.8074 29.5064 14.1167 28.3767C12.4259 27.247 11.1081 25.6412 10.33 23.7626C9.55182 21.8839 9.34821 19.8167 9.74492 17.8224C10.1416 15.828 11.1208 13.996 12.5587 12.5582C13.9965 11.1203 15.8285 10.1411 17.8228 9.74443C19.8172 9.34772 21.8844 9.55133 23.7631 10.3295C25.6417 11.1077 27.2474 12.4254 28.3772 14.1162C29.5069 15.8069 30.1099 17.7947 30.1099 19.8281C30.107 22.554 29.0228 25.1674 27.0953 27.0948C25.1679 29.0223 22.5545 30.1065 19.8286 30.1094Z" fill="#E4E4E7" fill-opacity="0.8"/>
<path d="M19.8286 24.2344C19.3929 24.2344 18.9669 24.3636 18.6046 24.6057C18.2423 24.8478 17.9599 25.1918 17.7932 25.5944C17.6264 25.997 17.5828 26.4399 17.6678 26.8673C17.7528 27.2947 17.9627 27.6872 18.2708 27.9953C18.5789 28.3035 18.9714 28.5133 19.3988 28.5983C19.8262 28.6833 20.2691 28.6397 20.6717 28.4729C21.0743 28.3062 21.4184 28.0238 21.6604 27.6615C21.9025 27.2992 22.0317 26.8732 22.0317 26.4375C22.0317 25.8532 21.7996 25.2928 21.3865 24.8797C20.9733 24.4665 20.4129 24.2344 19.8286 24.2344ZM19.8286 27.1719C19.6834 27.1719 19.5414 27.1288 19.4206 27.0481C19.2998 26.9674 19.2057 26.8527 19.1501 26.7185C19.0946 26.5843 19.08 26.4367 19.1083 26.2942C19.1367 26.1518 19.2066 26.0209 19.3093 25.9182C19.412 25.8155 19.5429 25.7456 19.6853 25.7172C19.8278 25.6889 19.9755 25.7034 20.1096 25.759C20.2438 25.8146 20.3585 25.9087 20.4392 26.0295C20.5199 26.1503 20.563 26.2923 20.563 26.4375C20.563 26.6323 20.4856 26.8191 20.3479 26.9568C20.2102 27.0945 20.0234 27.1719 19.8286 27.1719Z" fill="#E4E4E7" fill-opacity="0.8"/>
<path d="M24.2349 19.8281C24.2349 20.2639 24.3641 20.6898 24.6062 21.0521C24.8482 21.4144 25.1923 21.6968 25.5949 21.8635C25.9975 22.0303 26.4404 22.0739 26.8678 21.9889C27.2952 21.9039 27.6877 21.6941 27.9958 21.386C28.3039 21.0779 28.5138 20.6853 28.5988 20.2579C28.6838 19.8306 28.6402 19.3876 28.4734 18.985C28.3067 18.5825 28.0243 18.2384 27.662 17.9963C27.2997 17.7542 26.8737 17.625 26.438 17.625C25.8537 17.625 25.2933 17.8571 24.8801 18.2703C24.467 18.6834 24.2349 19.2438 24.2349 19.8281ZM27.1724 19.8281C27.1724 19.9734 27.1293 20.1154 27.0486 20.2361C26.9679 20.3569 26.8532 20.451 26.719 20.5066C26.5848 20.5622 26.4372 20.5767 26.2947 20.5484C26.1523 20.5201 26.0214 20.4501 25.9187 20.3474C25.816 20.2447 25.7461 20.1138 25.7177 19.9714C25.6894 19.8289 25.7039 19.6813 25.7595 19.5471C25.8151 19.4129 25.9092 19.2982 26.03 19.2175C26.1508 19.1368 26.2927 19.0937 26.438 19.0937C26.6328 19.0937 26.8195 19.1711 26.9573 19.3088C27.095 19.4466 27.1724 19.6334 27.1724 19.8281Z" fill="#E4E4E7" fill-opacity="0.8"/>
<path d="M19.8286 15.4219C20.2643 15.4219 20.6903 15.2927 21.0526 15.0506C21.4149 14.8085 21.6973 14.4644 21.864 14.0619C22.0308 13.6593 22.0744 13.2163 21.9894 12.7889C21.9044 12.3616 21.6946 11.969 21.3865 11.6609C21.0783 11.3528 20.6858 11.143 20.2584 11.058C19.8311 10.973 19.3881 11.0166 18.9855 11.1833C18.5829 11.3501 18.2389 11.6325 17.9968 11.9948C17.7547 12.3571 17.6255 12.783 17.6255 13.2188C17.6255 13.8031 17.8576 14.3634 18.2708 14.7766C18.6839 15.1898 19.2443 15.4219 19.8286 15.4219ZM19.8286 12.4844C19.9739 12.4844 20.1158 12.5274 20.2366 12.6081C20.3574 12.6888 20.4515 12.8035 20.5071 12.9377C20.5627 13.0719 20.5772 13.2196 20.5489 13.362C20.5205 13.5045 20.4506 13.6353 20.3479 13.738C20.2452 13.8407 20.1143 13.9107 19.9719 13.939C19.8294 13.9674 19.6818 13.9528 19.5476 13.8972C19.4134 13.8416 19.2987 13.7475 19.218 13.6267C19.1373 13.506 19.0942 13.364 19.0942 13.2188C19.0942 13.024 19.1716 12.8372 19.3093 12.6995C19.4471 12.5617 19.6338 12.4844 19.8286 12.4844Z" fill="#E4E4E7" fill-opacity="0.8"/>
<path d="M13.2192 17.625C12.7835 17.625 12.3576 17.7542 11.9952 17.9963C11.6329 18.2384 11.3506 18.5825 11.1838 18.985C11.0171 19.3876 10.9734 19.8306 11.0584 20.2579C11.1435 20.6853 11.3533 21.0779 11.6614 21.386C11.9695 21.6941 12.3621 21.9039 12.7894 21.9889C13.2168 22.0739 13.6598 22.0303 14.0623 21.8635C14.4649 21.6968 14.809 21.4144 15.0511 21.0521C15.2932 20.6898 15.4224 20.2639 15.4224 19.8281C15.4224 19.2438 15.1903 18.6834 14.7771 18.2703C14.3639 17.8571 13.8035 17.625 13.2192 17.625ZM13.2192 20.5625C13.074 20.5625 12.932 20.5194 12.8112 20.4387C12.6905 20.358 12.5963 20.2433 12.5408 20.1092C12.4852 19.975 12.4706 19.8273 12.499 19.6849C12.5273 19.5424 12.5973 19.4115 12.7 19.3088C12.8027 19.2061 12.9335 19.1362 13.076 19.1079C13.2184 19.0795 13.3661 19.0941 13.5003 19.1497C13.6345 19.2052 13.7492 19.2994 13.8299 19.4201C13.9105 19.5409 13.9536 19.6829 13.9536 19.8281C13.9536 20.0229 13.8762 20.2097 13.7385 20.3474C13.6008 20.4851 13.414 20.5625 13.2192 20.5625Z" fill="#E4E4E7" fill-opacity="0.8"/>
<path d="M41.4084 10.9253C40.8028 10.0468 39.9927 9.32857 39.048 8.83259C38.1032 8.3366 37.052 8.07768 35.985 8.07812C35.9301 8.0825 35.8758 8.09335 35.8234 8.11044C33.3528 4.73793 29.8795 2.23261 25.8997 0.952464C21.9199 -0.327686 17.6373 -0.317157 13.6638 0.982545C9.69036 2.28225 6.22936 4.80461 3.77538 8.18923C1.3214 11.5738 0 15.6475 0 19.8281C0 24.0088 1.3214 28.0824 3.77538 31.467C6.22936 34.8516 9.69036 37.374 13.6638 38.6737C17.6373 39.9734 21.9199 39.9839 25.8997 38.7038C29.8795 37.4236 33.3528 34.9183 35.8234 31.5458C35.8758 31.5632 35.93 31.5741 35.985 31.5781C37.0526 31.5784 38.1042 31.3191 39.0493 30.8228C39.9944 30.3264 40.8048 29.6078 41.4106 28.7287C42.2136 28.2846 42.8831 27.6335 43.3496 26.8432C43.816 26.0529 44.0624 25.1521 44.0631 24.2344V15.4219C44.0622 14.5036 43.8155 13.6024 43.3487 12.8117C42.8819 12.021 42.2119 11.3697 41.4084 10.9253ZM38.6508 10.2952C37.9811 10.3294 37.3247 10.4956 36.7194 10.7843V9.59902C37.4037 9.69786 38.0608 9.93471 38.6508 10.2952ZM21.7051 38.084L26.9573 32.8317L25.9189 31.7933L19.5299 38.1824C15.0379 38.1045 10.73 36.3842 7.41988 33.3466C4.10978 30.309 2.02669 26.1644 1.56412 21.6956L6.82518 26.9567L7.86359 25.9183L1.47453 19.5292C1.55242 15.0373 3.27264 10.7293 6.31024 7.41925C9.34783 4.10914 13.4925 2.02605 17.9612 1.56348L12.7002 6.82455L13.7386 7.86295L20.1225 1.4783C23.1413 1.51859 26.1031 2.30634 28.7431 3.77113C31.383 5.23592 33.6189 7.33208 35.2506 9.8722V11.8315C34.6838 12.4091 34.2613 13.1124 34.0176 13.8841L32.8323 12.6995L31.7939 13.738L33.798 15.7421C33.8507 16.574 34.1049 17.3807 34.5388 18.0925C34.9726 18.8043 35.573 19.4 36.2883 19.8281C35.6206 20.2249 35.0518 20.7683 34.6249 21.4173C34.198 22.0662 33.9243 22.8037 33.8243 23.574C33.7243 24.3443 33.8008 25.1272 34.0479 25.8636C34.295 26.6 34.7063 27.2706 35.2506 27.8247V29.7899C33.7618 32.102 31.7706 34.0484 29.4254 35.4844C27.0802 36.9204 24.4412 37.809 21.7051 38.084ZM36.7194 28.872C37.3247 29.1606 37.9811 29.3268 38.6508 29.361C38.0605 29.721 37.4035 29.9578 36.7194 30.0572V28.872ZM38.9225 27.9062C38.1963 27.9062 37.4864 27.6909 36.8825 27.2874C36.2787 26.884 35.8081 26.3105 35.5301 25.6395C35.2522 24.9686 35.1795 24.2303 35.3212 23.518C35.4629 22.8058 35.8126 22.1515 36.3261 21.638C36.8396 21.1244 37.4939 20.7747 38.2062 20.6331C38.9184 20.4914 39.6567 20.5641 40.3277 20.842C40.9986 21.1199 41.5721 21.5906 41.9756 22.1944C42.379 22.7982 42.5944 23.5081 42.5944 24.2344C42.5932 25.2079 42.206 26.1411 41.5176 26.8295C40.8293 27.5179 39.896 27.9051 38.9225 27.9062ZM42.5944 20.644C42.2846 20.3291 41.9359 20.0549 41.5567 19.8281C41.9359 19.6013 42.2846 19.3272 42.5944 19.0122V20.644ZM38.9225 19.0938C38.1963 19.0938 37.4864 18.8784 36.8825 18.4749C36.2787 18.0715 35.8081 17.498 35.5301 16.827C35.2522 16.1561 35.1795 15.4178 35.3212 14.7055C35.4629 13.9933 35.8126 13.339 36.3261 12.8255C36.8396 12.3119 37.4939 11.9622 38.2062 11.8206C38.9184 11.6789 39.6567 11.7516 40.3277 12.0295C40.9986 12.3074 41.5721 12.7781 41.9756 13.3819C42.379 13.9857 42.5944 14.6956 42.5944 15.4219C42.5932 16.3954 42.206 17.3286 41.5176 18.017C40.8293 18.7054 39.896 19.0926 38.9225 19.0938Z" fill="#E4E4E7" fill-opacity="0.8"/>
<path d="M5.14111 17.625C5.5467 17.625 5.87549 17.2962 5.87549 16.8906C5.87549 16.485 5.5467 16.1562 5.14111 16.1562C4.73553 16.1562 4.40674 16.485 4.40674 16.8906C4.40674 17.2962 4.73553 17.625 5.14111 17.625Z" fill="#E4E4E7" fill-opacity="0.8"/>
<path d="M16.1567 35.25C16.5623 35.25 16.8911 34.9212 16.8911 34.5156C16.8911 34.11 16.5623 33.7812 16.1567 33.7812C15.7512 33.7812 15.4224 34.11 15.4224 34.5156C15.4224 34.9212 15.7512 35.25 16.1567 35.25Z" fill="#E4E4E7" fill-opacity="0.8"/>
<path d="M30.1099 32.3125C30.5154 32.3125 30.8442 31.9837 30.8442 31.5781C30.8442 31.1725 30.5154 30.8438 30.1099 30.8438C29.7043 30.8438 29.3755 31.1725 29.3755 31.5781C29.3755 31.9837 29.7043 32.3125 30.1099 32.3125Z" fill="#E4E4E7" fill-opacity="0.8"/>
<path d="M33.0474 22.0312C33.4529 22.0312 33.7817 21.7025 33.7817 21.2969C33.7817 20.8913 33.4529 20.5625 33.0474 20.5625C32.6418 20.5625 32.313 20.8913 32.313 21.2969C32.313 21.7025 32.6418 22.0312 33.0474 22.0312Z" fill="#E4E4E7" fill-opacity="0.8"/>
<path d="M8.81299 30.8438C9.21857 30.8438 9.54736 30.515 9.54736 30.1094C9.54736 29.7038 9.21857 29.375 8.81299 29.375C8.4074 29.375 8.07861 29.7038 8.07861 30.1094C8.07861 30.515 8.4074 30.8438 8.81299 30.8438Z" fill="#E4E4E7" fill-opacity="0.8"/>
<path d="M22.0317 5.875C22.4373 5.875 22.7661 5.54621 22.7661 5.14062C22.7661 4.73504 22.4373 4.40625 22.0317 4.40625C21.6262 4.40625 21.2974 4.73504 21.2974 5.14062C21.2974 5.54621 21.6262 5.875 22.0317 5.875Z" fill="#E4E4E7" fill-opacity="0.8"/>
<path d="M9.54736 9.54688C9.95295 9.54688 10.2817 9.21808 10.2817 8.8125C10.2817 8.40692 9.95295 8.07812 9.54736 8.07812C9.14178 8.07812 8.81299 8.40692 8.81299 8.8125C8.81299 9.21808 9.14178 9.54688 9.54736 9.54688Z" fill="#E4E4E7" fill-opacity="0.8"/>
<path d="M31.5786 10.2812C31.9842 10.2812 32.313 9.95246 32.313 9.54688C32.313 9.14129 31.9842 8.8125 31.5786 8.8125C31.173 8.8125 30.8442 9.14129 30.8442 9.54688C30.8442 9.95246 31.173 10.2812 31.5786 10.2812Z" fill="#E4E4E7" fill-opacity="0.8"/>
</svg>
