<svg width="20" height="20" viewBox="0 0 20 20" fill="none" xmlns="http://www.w3.org/2000/svg">
<path d="M15.475 12.6177C14.9718 12.6177 14.5625 13.027 14.5625 13.5302C14.5625 14.0333 14.9718 14.4427 15.475 14.4427C15.9782 14.4427 16.3875 14.0333 16.3875 13.5302C16.3875 13.027 15.9782 12.6177 15.475 12.6177ZM15.475 13.8111C15.3201 13.8111 15.1941 13.6851 15.1941 13.5302C15.1941 13.3753 15.3201 13.2492 15.475 13.2492C15.6299 13.2492 15.7559 13.3753 15.7559 13.5302C15.7559 13.6851 15.6299 13.8111 15.475 13.8111Z" fill="#E4E4E7"/>
<path d="M4.94765 12.6177C4.44449 12.6177 4.03516 13.027 4.03516 13.5302C4.03516 14.0333 4.44449 14.4427 4.94765 14.4427C5.45077 14.4427 5.86011 14.0333 5.86011 13.5302C5.86011 13.027 5.45077 12.6177 4.94765 12.6177ZM4.94765 13.8111C4.79273 13.8111 4.66671 13.6851 4.66671 13.5302C4.66671 13.3753 4.79273 13.2492 4.94765 13.2492C5.10257 13.2492 5.22855 13.3753 5.22855 13.5302C5.22855 13.6851 5.10257 13.8111 4.94765 13.8111Z" fill="#E4E4E7"/>
<path d="M19.9887 6.53671C19.8734 5.3487 18.8693 4.41675 17.6517 4.41675H5.95647C5.78202 4.41675 5.64069 4.55815 5.64069 4.73253C5.64069 4.90694 5.78202 5.04831 5.95647 5.04831H17.6517C18.4383 5.04831 19.1027 5.58053 19.3048 6.30354H15.4731H15.4731H12.9379V6.18034C12.9379 6.00592 12.7965 5.86456 12.6221 5.86456H7.82827C7.65381 5.86456 7.51249 6.00596 7.51249 6.18034V6.30354H4.94722H2.09613C1.92168 6.30354 1.78035 6.44495 1.78035 6.61932V10.2261C1.78035 10.4005 1.92168 10.5419 2.09613 10.5419H4.94726H7.51252V13.2966H6.98714C6.98538 13.2811 6.98288 13.2659 6.98077 13.2505C6.97893 13.237 6.97733 13.2234 6.97522 13.21C6.97198 13.1893 6.96807 13.1688 6.96421 13.1483C6.96194 13.1363 6.95999 13.1242 6.95753 13.1123C6.95241 13.0875 6.94647 13.0629 6.94042 13.0384C6.93862 13.0311 6.93714 13.0236 6.9353 13.0164C6.92714 12.9849 6.91823 12.9536 6.90866 12.9227C6.90557 12.9128 6.90206 12.9031 6.89882 12.8933C6.89194 12.8723 6.8851 12.8513 6.87756 12.8306C6.87307 12.8182 6.86807 12.8061 6.86339 12.7939C6.85647 12.776 6.84967 12.7581 6.84225 12.7404C6.83682 12.7274 6.83096 12.7146 6.8253 12.7018C6.81796 12.6852 6.81065 12.6687 6.80292 12.6523C6.79667 12.6392 6.7901 12.6263 6.78362 12.6133C6.77573 12.5976 6.76784 12.5819 6.7596 12.5664C6.75264 12.5534 6.74546 12.5406 6.73827 12.5277C6.72979 12.5127 6.72128 12.4977 6.71241 12.4828C6.70483 12.4701 6.69706 12.4575 6.68917 12.4449C6.68007 12.4304 6.67085 12.416 6.66143 12.4017C6.65327 12.3893 6.64495 12.377 6.63651 12.3649C6.62678 12.3508 6.61686 12.3369 6.60675 12.3231C6.59803 12.3111 6.58928 12.2992 6.5803 12.2875C6.56991 12.2738 6.55925 12.2604 6.5485 12.247C6.53928 12.2356 6.5301 12.2241 6.52061 12.2128C6.50948 12.1996 6.49811 12.1867 6.48667 12.1737C6.47706 12.1628 6.46757 12.1519 6.45768 12.1412C6.44573 12.1282 6.43342 12.1156 6.42112 12.1029C6.41132 12.0927 6.40163 12.0825 6.39159 12.0726C6.37846 12.0595 6.36491 12.047 6.35143 12.0343C6.34178 12.0252 6.33233 12.0159 6.32245 12.0071C6.30698 11.9931 6.29112 11.9797 6.2753 11.9662C6.26698 11.9591 6.25885 11.9517 6.25038 11.9447C6.22608 11.9247 6.20132 11.9053 6.17612 11.8863C6.16913 11.8811 6.1619 11.8762 6.15483 11.8711C6.1362 11.8575 6.11745 11.8439 6.09831 11.8309C6.088 11.8239 6.07737 11.8173 6.0669 11.8105C6.05065 11.7999 6.03444 11.7892 6.01788 11.779C6.00628 11.7719 5.9944 11.7652 5.98265 11.7583C5.96686 11.749 5.95108 11.7397 5.93499 11.7308C5.92257 11.724 5.90999 11.7175 5.89737 11.7109C5.88155 11.7026 5.86569 11.6943 5.84964 11.6864C5.83667 11.6801 5.82354 11.674 5.81038 11.6679C5.79429 11.6604 5.77823 11.653 5.7619 11.6459C5.7485 11.6401 5.73499 11.6345 5.72147 11.629C5.70507 11.6223 5.68858 11.6157 5.67202 11.6095C5.65831 11.6043 5.64452 11.5993 5.63065 11.5944C5.61386 11.5884 5.59694 11.5827 5.57991 11.5771C5.56593 11.5726 5.55194 11.5681 5.53788 11.564C5.52061 11.5587 5.50323 11.5538 5.48577 11.5491C5.47167 11.5453 5.45757 11.5415 5.44335 11.5379C5.42554 11.5335 5.40757 11.5294 5.3896 11.5255C5.37546 11.5224 5.36136 11.5192 5.3471 11.5163C5.32854 11.5127 5.30983 11.5095 5.29108 11.5063C5.27714 11.504 5.26327 11.5014 5.24925 11.4993C5.22956 11.4964 5.20964 11.4941 5.18976 11.4917C5.17647 11.4902 5.16327 11.4883 5.14991 11.487C5.12765 11.4848 5.10519 11.4833 5.08272 11.4819C5.07151 11.4811 5.06046 11.4801 5.04925 11.4795C5.01542 11.4778 4.98147 11.4769 4.94726 11.4769C4.91304 11.4769 4.87905 11.4778 4.84526 11.4795C4.83401 11.4801 4.82296 11.4811 4.81179 11.4819C4.78929 11.4833 4.76687 11.4848 4.7446 11.487C4.73124 11.4883 4.71808 11.4902 4.70476 11.4917C4.68487 11.4941 4.66495 11.4964 4.64526 11.4993C4.63124 11.5014 4.61733 11.5039 4.60343 11.5063C4.58468 11.5095 4.56601 11.5127 4.54741 11.5163C4.53319 11.5192 4.51909 11.5224 4.50491 11.5255C4.48694 11.5294 4.46898 11.5335 4.45116 11.5379C4.43694 11.5415 4.42284 11.5453 4.40874 11.5491C4.39128 11.5539 4.37386 11.5588 4.35663 11.564C4.34257 11.5682 4.32855 11.5726 4.3146 11.5771C4.29761 11.5826 4.28066 11.5884 4.26386 11.5944C4.24999 11.5992 4.2362 11.6043 4.22245 11.6095C4.20585 11.6158 4.18941 11.6223 4.17304 11.629C4.15948 11.6345 4.14601 11.6401 4.13257 11.6459C4.11628 11.653 4.10015 11.6604 4.08409 11.6679C4.07101 11.674 4.05784 11.6801 4.04488 11.6864C4.02878 11.6943 4.01292 11.7026 3.9971 11.7109C3.98456 11.7174 3.97198 11.7239 3.95956 11.7308C3.94347 11.7396 3.92765 11.749 3.91183 11.7583C3.90007 11.7651 3.88823 11.7718 3.87667 11.7789C3.86003 11.7891 3.84378 11.7999 3.82745 11.8105C3.81706 11.8173 3.80652 11.8238 3.79628 11.8307C3.77698 11.8438 3.75812 11.8576 3.73933 11.8713C3.73241 11.8763 3.72531 11.8811 3.71847 11.8862C3.69324 11.9051 3.66843 11.9246 3.64417 11.9446C3.63574 11.9516 3.62769 11.9588 3.61937 11.9659C3.60351 11.9794 3.58757 11.9929 3.57214 12.0069C3.5623 12.0158 3.55281 12.0251 3.54312 12.0341C3.52964 12.0468 3.51609 12.0594 3.50296 12.0724C3.493 12.0823 3.48335 12.0925 3.47359 12.1026C3.46128 12.1154 3.44894 12.128 3.43695 12.1411C3.42714 12.1517 3.41757 12.1627 3.40796 12.1736C3.39656 12.1865 3.38515 12.1995 3.37402 12.2127C3.3646 12.224 3.35538 12.2354 3.34613 12.2469C3.33538 12.2603 3.32472 12.2737 3.31433 12.2874C3.30535 12.2991 3.2966 12.311 3.28788 12.3229C3.27781 12.3368 3.26788 12.3507 3.25812 12.3647C3.24968 12.377 3.24136 12.3892 3.2332 12.4016C3.22378 12.4158 3.21452 12.4303 3.20546 12.4448C3.19757 12.4574 3.18984 12.47 3.18222 12.4827C3.17339 12.4976 3.16484 12.5126 3.15636 12.5276C3.14917 12.5405 3.14195 12.5533 3.13499 12.5663C3.12675 12.5818 3.11882 12.5975 3.11097 12.6132C3.10449 12.6262 3.09792 12.6391 3.09167 12.6522C3.0839 12.6685 3.07656 12.6852 3.06925 12.7018C3.06355 12.7146 3.05777 12.7273 3.05238 12.7402C3.04496 12.7579 3.03812 12.7759 3.03121 12.7938C3.02648 12.806 3.02156 12.8181 3.01706 12.8304C3.00953 12.8511 3.00265 12.8721 2.99581 12.8931C2.99261 12.903 2.98902 12.9127 2.98597 12.9226C2.97636 12.9535 2.96749 12.9847 2.95933 13.0162C2.95742 13.0235 2.95597 13.0309 2.95421 13.0382C2.94816 13.0627 2.94226 13.0873 2.9371 13.1122C2.9346 13.1241 2.93269 13.1361 2.93042 13.1482C2.92656 13.1687 2.92265 13.1892 2.91941 13.2098C2.9173 13.2233 2.91566 13.2368 2.91386 13.2503C2.91175 13.2657 2.90929 13.281 2.90749 13.2965H0.89492C0.749725 13.2965 0.6316 13.1783 0.6316 13.0331V12.7217H0.927694C1.42519 12.7217 1.83004 12.3169 1.83004 11.8194C1.83004 11.3218 1.42523 10.917 0.927694 10.917H0.6316V5.31171C0.6316 5.16647 0.749764 5.04835 0.89492 5.04835H4.9039C5.07835 5.04835 5.21968 4.90694 5.21968 4.73257C5.21968 4.55815 5.07835 4.41679 4.9039 4.41679H0.89492C0.401445 4.41675 0 4.81823 0 5.31171V11.233V12.406V13.0332C0 13.5267 0.401445 13.9282 0.89492 13.9282H2.9332C3.1191 14.8704 3.95136 15.5833 4.94722 15.5833C5.94307 15.5833 6.77534 14.8704 6.96124 13.9282H7.82827H12.6221H13.4591C13.645 14.8704 14.4772 15.5833 15.4731 15.5833C16.469 15.5833 17.3013 14.8704 17.4872 13.9282H19.1051C19.5986 13.9282 20 13.5267 20 13.0332V12.406V11.233V10.2261V6.76401V6.61932C20 6.59069 19.9958 6.56307 19.9887 6.53671ZM4.63144 9.91033H2.41191V6.93514H4.63144V9.91033ZM7.48249 9.91037H5.26304V6.93518H7.48249V9.91037ZM0.631561 11.5488H0.927654V11.5488C1.07695 11.5488 1.19844 11.6702 1.19844 11.8195C1.19844 11.9688 1.07695 12.0903 0.927654 12.0903H0.631561V11.5488ZM6.36702 13.5982V13.5983C6.33136 14.3506 5.70823 14.9517 4.94722 14.9517C4.1862 14.9517 3.56308 14.3506 3.52742 13.5983V13.5982C3.5264 13.5756 3.5257 13.553 3.5257 13.5302C3.5257 12.7464 4.16339 12.1086 4.94722 12.1086C5.65753 12.1086 6.24788 12.6324 6.35229 13.314C6.36311 13.3845 6.3687 13.4567 6.3687 13.5302C6.36874 13.5531 6.36803 13.5756 6.36702 13.5982ZM10.541 6.49616H12.3063V6.61846C12.3063 6.61878 12.3063 6.61905 12.3063 6.61936V9.91033H10.541V6.49616ZM8.14409 6.49616H9.90943V9.91033H8.14409V6.49616ZM12.3063 13.2144H8.14409V10.5419H12.3063V13.2144ZM12.9379 6.9351H15.1573V9.91029H12.9379V6.9351ZM16.8929 13.5982C16.8929 13.5983 16.8929 13.5983 16.8929 13.5983C16.8572 14.3506 16.2341 14.9517 15.4731 14.9517C14.7125 14.9517 14.0897 14.3513 14.0534 13.5995C14.0533 13.5989 14.0534 13.5983 14.0534 13.5977C14.0523 13.5752 14.0516 13.5529 14.0516 13.5302C14.0516 12.7464 14.6893 12.1086 15.4731 12.1086C16.2569 12.1086 16.8947 12.7464 16.8947 13.5302C16.8946 13.5531 16.8939 13.5756 16.8929 13.5982ZM19.3684 12.0902H18.7827C18.6334 12.0902 18.512 11.9688 18.512 11.8195C18.512 11.6702 18.6334 11.5487 18.7827 11.5487H19.3684V12.0902ZM19.3684 9.91037H17.4091C17.2347 9.91037 17.0933 10.0518 17.0933 10.2262C17.0933 10.4006 17.2347 10.5419 17.4091 10.5419H19.3684V10.9172H18.7827C18.2852 10.9172 17.8804 11.322 17.8804 11.8195C17.8804 12.317 18.2852 12.7218 18.7827 12.7218H19.3684V13.0332C19.3684 13.1785 19.2502 13.2966 19.1051 13.2966H17.513C17.5113 13.281 17.5088 13.2657 17.5066 13.2502C17.5048 13.2368 17.5032 13.2233 17.5011 13.21C17.4978 13.1891 17.4939 13.1685 17.49 13.1479C17.4877 13.1361 17.4858 13.1241 17.4834 13.1124C17.4781 13.0872 17.4722 13.0623 17.4661 13.0376C17.4643 13.0306 17.4629 13.0234 17.4611 13.0165C17.453 12.9849 17.444 12.9536 17.4345 12.9227C17.4314 12.9129 17.4279 12.9034 17.4248 12.8937C17.4179 12.8726 17.4109 12.8514 17.4034 12.8306C17.3989 12.8183 17.394 12.8062 17.3892 12.794C17.3823 12.776 17.3755 12.7581 17.3681 12.7404C17.3627 12.7274 17.3568 12.7148 17.3512 12.702C17.3438 12.6853 17.3365 12.6687 17.3286 12.6523C17.3224 12.6393 17.3159 12.6264 17.3095 12.6136C17.3016 12.5978 17.2936 12.582 17.2853 12.5664C17.2784 12.5535 17.2712 12.5407 17.264 12.5279C17.2555 12.5128 17.247 12.4977 17.2381 12.4829C17.2305 12.4701 17.2228 12.4576 17.2149 12.4451C17.2058 12.4305 17.1965 12.416 17.187 12.4017C17.1789 12.3894 17.1706 12.3772 17.1622 12.365C17.1525 12.3509 17.1425 12.3369 17.1324 12.323C17.1237 12.3111 17.115 12.2992 17.106 12.2875C17.0956 12.2738 17.0849 12.2604 17.0741 12.247C17.065 12.2356 17.0558 12.2242 17.0465 12.213C17.0353 12.1997 17.0238 12.1866 17.0123 12.1736C17.0027 12.1627 16.9933 12.1519 16.9836 12.1413C16.9716 12.1282 16.9592 12.1155 16.9468 12.1027C16.9371 12.0927 16.9275 12.0825 16.9175 12.0726C16.9043 12.0595 16.8906 12.0468 16.8771 12.0341C16.8675 12.0251 16.8581 12.0159 16.8484 12.0071C16.8327 11.993 16.8166 11.9794 16.8006 11.9657C16.7925 11.9588 16.7845 11.9516 16.7763 11.9448C16.752 11.9247 16.7272 11.9052 16.7019 11.8863C16.6951 11.8812 16.688 11.8765 16.6812 11.8715C16.6623 11.8577 16.6434 11.844 16.6241 11.8308C16.6139 11.8239 16.6034 11.8174 16.5931 11.8106C16.5767 11.7999 16.5604 11.7892 16.5438 11.779C16.5322 11.7719 16.5204 11.7652 16.5086 11.7583C16.4928 11.749 16.477 11.7397 16.4609 11.7308C16.4485 11.724 16.4359 11.7176 16.4234 11.711C16.4076 11.7027 16.3917 11.6944 16.3756 11.6865C16.3626 11.6801 16.3495 11.674 16.3365 11.668C16.3204 11.6605 16.3042 11.6531 16.2879 11.646C16.2745 11.6402 16.261 11.6346 16.2475 11.6291C16.2311 11.6224 16.2146 11.6158 16.1979 11.6095C16.1843 11.6044 16.1705 11.5994 16.1566 11.5944C16.1399 11.5885 16.1229 11.5828 16.1059 11.5772C16.092 11.5727 16.078 11.5682 16.0639 11.564C16.0466 11.5588 16.0292 11.5539 16.0117 11.5492C15.9976 11.5454 15.9835 11.5415 15.9693 11.538C15.9515 11.5335 15.9335 11.5295 15.9155 11.5255C15.9013 11.5224 15.8873 11.5192 15.873 11.5164C15.8545 11.5127 15.8358 11.5095 15.817 11.5063C15.8031 11.504 15.7892 11.5015 15.7752 11.4994C15.7555 11.4965 15.7356 11.4941 15.7157 11.4918C15.7024 11.4902 15.6892 11.4884 15.6759 11.487C15.6536 11.4849 15.6311 11.4834 15.6087 11.4819C15.5975 11.4812 15.5864 11.4801 15.5752 11.4796C15.5414 11.4779 15.5074 11.477 15.4732 11.477C15.439 11.477 15.405 11.4779 15.3712 11.4796C15.36 11.4801 15.349 11.4812 15.3378 11.4819C15.3153 11.4834 15.2928 11.4849 15.2705 11.487C15.2572 11.4883 15.2441 11.4902 15.2308 11.4918C15.2109 11.4941 15.1909 11.4965 15.1712 11.4994C15.1572 11.5014 15.1434 11.5039 15.1295 11.5063C15.1107 11.5095 15.092 11.5127 15.0733 11.5164C15.0592 11.5192 15.0451 11.5224 15.0311 11.5255C15.013 11.5295 14.9949 11.5335 14.977 11.538C14.9629 11.5415 14.9489 11.5453 14.9349 11.5491C14.9174 11.5539 14.8998 11.5588 14.8824 11.564C14.8684 11.5683 14.8546 11.5726 14.8408 11.5771C14.8236 11.5827 14.8066 11.5885 14.7896 11.5945C14.7759 11.5993 14.7622 11.6043 14.7486 11.6095C14.7319 11.6158 14.7152 11.6224 14.6987 11.6292C14.6853 11.6347 14.672 11.6402 14.6588 11.646C14.6422 11.6531 14.6259 11.6606 14.6097 11.6682C14.5968 11.6742 14.5838 11.6801 14.5711 11.6864C14.5548 11.6945 14.5386 11.7029 14.5226 11.7113C14.5102 11.7178 14.4979 11.7242 14.4858 11.7308C14.4693 11.7399 14.4533 11.7494 14.4371 11.7588C14.4257 11.7655 14.4141 11.772 14.4029 11.779C14.3858 11.7895 14.369 11.8005 14.3523 11.8115C14.3424 11.8179 14.3323 11.8242 14.3225 11.8309C14.3021 11.8447 14.2822 11.8591 14.2624 11.8736C14.2566 11.8779 14.2505 11.8819 14.2447 11.8863C14.2193 11.9053 14.1945 11.9249 14.17 11.9451C14.1624 11.9514 14.155 11.9581 14.1475 11.9645C14.1308 11.9786 14.1141 11.9927 14.0979 12.0074C14.0885 12.0159 14.0795 12.0247 14.0703 12.0334C14.0563 12.0465 14.0423 12.0595 14.0287 12.073C14.0191 12.0826 14.0097 12.0924 14.0002 12.1022C13.9876 12.1152 13.975 12.1282 13.9627 12.1416C13.9531 12.152 13.9438 12.1627 13.9345 12.1733C13.9228 12.1865 13.9112 12.1998 13.8998 12.2133C13.8906 12.2243 13.8816 12.2355 13.8726 12.2467C13.8617 12.2603 13.8508 12.274 13.8402 12.2879C13.8314 12.2994 13.8228 12.3111 13.8142 12.3229C13.804 12.3369 13.7939 12.351 13.784 12.3653C13.7758 12.3773 13.7676 12.3894 13.7595 12.4015C13.7499 12.4161 13.7406 12.4307 13.7314 12.4454C13.7237 12.4578 13.716 12.4702 13.7086 12.4827C13.6996 12.4977 13.6909 12.513 13.6823 12.5283C13.6752 12.5409 13.6681 12.5535 13.6613 12.5663C13.6529 12.582 13.6449 12.5979 13.6369 12.6139C13.6305 12.6267 13.624 12.6393 13.6179 12.6522C13.6101 12.6688 13.6026 12.6856 13.5952 12.7024C13.5897 12.715 13.5839 12.7275 13.5786 12.7403C13.571 12.7583 13.564 12.7766 13.557 12.7948C13.5524 12.8067 13.5476 12.8185 13.5433 12.8304C13.5356 12.8516 13.5285 12.8731 13.5215 12.8947C13.5184 12.904 13.5151 12.9133 13.5122 12.9227C13.5025 12.9537 13.4936 12.985 13.4854 13.0167C13.4838 13.0231 13.4825 13.0296 13.4809 13.036C13.4746 13.0614 13.4685 13.0868 13.4632 13.1126C13.4608 13.1241 13.4589 13.1358 13.4567 13.1475C13.4527 13.1683 13.4488 13.1892 13.4454 13.2102C13.4434 13.2234 13.4418 13.2368 13.44 13.2501C13.4378 13.2656 13.4353 13.2811 13.4336 13.2967H12.9382V10.542H15.4734H15.4735H16.3568C16.5313 10.542 16.6726 10.4006 16.6726 10.2262C16.6726 10.0518 16.5312 9.91045 16.3568 9.91045H15.7893V6.93526H19.3686V9.91037H19.3684Z" fill="#E4E4E7"/>
</svg>
