<svg width="20" height="21" viewBox="0 0 20 21" fill="none" xmlns="http://www.w3.org/2000/svg">
<path d="M2.75385 20.7692H17.2461C18.7654 20.7692 20 19.5346 20 18.0154V4.29228C20 2.77306 18.7654 1.53843 17.2461 1.53843H16.1539V0.769216C16.1539 0.346134 15.8077 0 15.3846 0C14.9615 0 14.6154 0.346134 14.6154 0.769216V1.53843H5.38464V0.769216C5.38464 0.346134 5.03844 0 4.61536 0C4.19228 0 3.84614 0.346134 3.84614 0.769216V1.53843H2.75385C1.23463 1.53843 0 2.77306 0 4.29228V18.0154C0 19.5346 1.23463 20.7692 2.75385 20.7692ZM1.5385 4.29228C1.5385 3.62307 2.08464 3.07693 2.75385 3.07693H3.84614V3.84614C3.84614 4.26923 4.19228 4.61536 4.61536 4.61536C5.03844 4.61536 5.38458 4.26923 5.38458 3.84614V3.07693H14.6154V3.84614C14.6154 4.26923 14.9615 4.61536 15.3846 4.61536C15.8077 4.61536 16.1538 4.26923 16.1538 3.84614V3.07693H17.2461C17.9153 3.07693 18.4614 3.62307 18.4614 4.29228V18.0154C18.4614 18.6846 17.9153 19.2307 17.2461 19.2307H2.75385C2.08464 19.2307 1.5385 18.6846 1.5385 18.0154V4.29228Z" fill="white" fill-opacity="0.8"/>
<path d="M5.57871 8.84491C6.10974 8.84491 6.54023 8.41443 6.54023 7.88339C6.54023 7.35236 6.10974 6.92188 5.57871 6.92188C5.04767 6.92188 4.61719 7.35236 4.61719 7.88339C4.61719 8.41443 5.04767 8.84491 5.57871 8.84491Z" fill="white" fill-opacity="0.8"/>
<path d="M9.80527 8.84491C10.3363 8.84491 10.7668 8.41443 10.7668 7.88339C10.7668 7.35236 10.3363 6.92188 9.80527 6.92188C9.27424 6.92188 8.84375 7.35236 8.84375 7.88339C8.84375 8.41443 9.27424 8.84491 9.80527 8.84491Z" fill="white" fill-opacity="0.8"/>
<path d="M14.0396 8.84491C14.5707 8.84491 15.0012 8.41443 15.0012 7.88339C15.0012 7.35236 14.5707 6.92188 14.0396 6.92188C13.5086 6.92188 13.0781 7.35236 13.0781 7.88339C13.0781 8.41443 13.5086 8.84491 14.0396 8.84491Z" fill="white" fill-opacity="0.8"/>
<path d="M5.57871 12.6926C6.10974 12.6926 6.54023 12.2621 6.54023 11.7311C6.54023 11.2 6.10974 10.7695 5.57871 10.7695C5.04767 10.7695 4.61719 11.2 4.61719 11.7311C4.61719 12.2621 5.04767 12.6926 5.57871 12.6926Z" fill="white" fill-opacity="0.8"/>
<path d="M9.80527 12.6926C10.3363 12.6926 10.7668 12.2621 10.7668 11.7311C10.7668 11.2 10.3363 10.7695 9.80527 10.7695C9.27424 10.7695 8.84375 11.2 8.84375 11.7311C8.84375 12.2621 9.27424 12.6926 9.80527 12.6926Z" fill="white" fill-opacity="0.8"/>
<path d="M14.0396 12.6926C14.5707 12.6926 15.0012 12.2621 15.0012 11.7311C15.0012 11.2 14.5707 10.7695 14.0396 10.7695C13.5086 10.7695 13.0781 11.2 13.0781 11.7311C13.0781 12.2621 13.5086 12.6926 14.0396 12.6926Z" fill="white" fill-opacity="0.8"/>
<path d="M5.57871 16.5383C6.10974 16.5383 6.54023 16.1078 6.54023 15.5768C6.54023 15.0457 6.10974 14.6152 5.57871 14.6152C5.04767 14.6152 4.61719 15.0457 4.61719 15.5768C4.61719 16.1078 5.04767 16.5383 5.57871 16.5383Z" fill="white" fill-opacity="0.8"/>
<path d="M9.80527 16.5383C10.3363 16.5383 10.7668 16.1078 10.7668 15.5768C10.7668 15.0457 10.3363 14.6152 9.80527 14.6152C9.27424 14.6152 8.84375 15.0457 8.84375 15.5768C8.84375 16.1078 9.27424 16.5383 9.80527 16.5383Z" fill="white" fill-opacity="0.8"/>
<path d="M14.0396 16.5383C14.5707 16.5383 15.0012 16.1078 15.0012 15.5768C15.0012 15.0457 14.5707 14.6152 14.0396 14.6152C13.5086 14.6152 13.0781 15.0457 13.0781 15.5768C13.0781 16.1078 13.5086 16.5383 14.0396 16.5383Z" fill="white" fill-opacity="0.8"/>
</svg>
