<svg width="26" height="25" viewBox="0 0 26 25" fill="none" xmlns="http://www.w3.org/2000/svg">
<path d="M14.7604 0.846045C14.7604 0.381345 15.2259 0 15.8078 0C16.3896 0 16.8551 0.377178 16.8551 0.846045V4.5428C16.8551 5.0075 16.3896 5.38885 15.8078 5.38885C15.2259 5.38885 14.7604 5.01167 14.7604 4.5428V0.846045ZM3.04053 16.2645H5.43994C5.59229 16.2645 5.71712 16.3874 5.71712 16.5375V18.2837C5.71712 18.4338 5.59229 18.5567 5.43994 18.5567H3.04053C2.88818 18.5567 2.76335 18.4338 2.76335 18.2837V16.5375C2.76335 16.3853 2.88818 16.2645 3.04053 16.2645ZM12.2277 11.2882H14.6271C14.7012 11.2882 14.7668 11.3174 14.8175 11.3633C13.876 11.9426 13.0592 12.6969 12.4118 13.5826H12.2277C12.0754 13.5826 11.9505 13.4596 11.9505 13.3096V11.5633C11.9505 11.4112 12.0754 11.2882 12.2277 11.2882ZM7.63412 11.2882H10.0335C10.1859 11.2882 10.3107 11.4112 10.3107 11.5612V13.3075C10.3107 13.4575 10.1859 13.5805 10.0335 13.5805H7.63412C7.48177 13.5805 7.35693 13.4575 7.35693 13.3075V11.5612C7.35693 11.4112 7.48177 11.2882 7.63412 11.2882ZM3.04053 11.2882H5.43994C5.59229 11.2882 5.71712 11.4112 5.71712 11.5612V13.3075C5.71712 13.4575 5.59229 13.5805 5.43994 13.5805H3.04053C2.88818 13.5805 2.76335 13.4575 2.76335 13.3075V11.5612C2.76335 11.4112 2.88818 11.2882 3.04053 11.2882ZM7.63412 16.2645H10.0335C10.1859 16.2645 10.3107 16.3874 10.3107 16.5375V18.2837C10.3107 18.4338 10.1859 18.5567 10.0335 18.5567H7.63412C7.48177 18.5567 7.35693 18.4338 7.35693 18.2837V16.5375C7.35693 16.3853 7.48177 16.2645 7.63412 16.2645ZM21.8973 12.4073C24.375 13.4179 26 15.7998 26 18.4546C26 20.2613 25.2552 21.8992 24.0534 23.0829C22.8516 24.2665 21.1906 25 19.354 25C17.5195 25 15.8586 24.2665 14.6546 23.0829C13.4528 21.8971 12.708 20.2613 12.708 18.4546C12.708 15.8206 14.3711 13.3638 16.8446 12.3635C18.3786 11.7467 20.3739 11.7842 21.8973 12.4073ZM18.332 18.2796C18.4146 18.19 18.5161 18.1129 18.6261 18.0545V15.208C18.6261 14.9183 18.8652 14.6828 19.1593 14.6828C19.4535 14.6828 19.6947 14.9183 19.6947 15.208V18.0545C19.8893 18.1587 20.0501 18.315 20.1538 18.5067H22.2189C22.5151 18.5067 22.7521 18.7422 22.7521 19.0318C22.7521 19.3215 22.513 19.557 22.2189 19.557H20.1538C19.9634 19.9071 19.591 20.1446 19.1593 20.1446C18.8208 20.1446 18.5182 19.9967 18.3109 19.7654C17.9279 19.334 17.9469 18.6901 18.332 18.2796ZM23.3001 14.6724C20.5474 11.9613 15.9051 12.7282 14.2949 16.1415C13.9648 16.8438 13.7786 17.6273 13.7786 18.4525C13.7786 19.9696 14.4028 21.3428 15.4121 22.3368C16.4214 23.3308 17.8158 23.9456 19.3561 23.9456C20.8965 23.9456 22.2909 23.3287 23.3001 22.3368C24.3094 21.3428 24.9336 19.9696 24.9336 18.4525C24.9336 17.5919 24.7326 16.7771 24.375 16.0519C24.1021 15.5039 23.7381 15.1038 23.3001 14.6724ZM5.35954 0.846045C5.35954 0.381345 5.82503 0 6.4069 0C6.98665 0 7.45426 0.377178 7.45426 0.846045V4.5428C7.45426 5.0075 6.98665 5.38885 6.4069 5.38885C5.82715 5.38885 5.35954 5.01167 5.35954 4.5428V0.846045ZM1.15316 8.08327H21.0869V3.82804C21.0869 3.68217 21.0277 3.55506 20.9325 3.46128C20.8372 3.36751 20.7018 3.30916 20.5601 3.30916H18.6494C18.3299 3.30916 18.0697 3.05285 18.0697 2.73818C18.0697 2.42352 18.3299 2.16721 18.6494 2.16721H20.5601C21.0277 2.16721 21.4487 2.35267 21.7555 2.65483C22.0623 2.95699 22.2507 3.37168 22.2507 3.83221V10.5901C21.8698 10.4609 21.4784 10.3568 21.0742 10.2797V9.22314H21.0869H1.15316V20.2488C1.15316 20.3947 1.2124 20.5218 1.30762 20.6156C1.40283 20.7093 1.53825 20.7677 1.68001 20.7677H11.1528C11.2607 21.1636 11.3962 21.5512 11.5591 21.9221H1.69059C1.2251 21.9221 0.801921 21.7367 0.495117 21.4345C0.188314 21.1303 0 20.7177 0 20.2571V3.83221C0 3.37376 0.188314 2.95907 0.495117 2.65483C0.801921 2.35267 1.22298 2.16721 1.69059 2.16721H3.73031C4.0498 2.16721 4.31006 2.42352 4.31006 2.73818C4.31006 3.05285 4.0498 3.30916 3.73031 3.30916H1.69059C1.54248 3.30916 1.41341 3.36751 1.3182 3.46128C1.22298 3.55506 1.16374 3.68842 1.16374 3.82804V8.08535H1.15316V8.08327ZM9.12581 3.30708C8.80632 3.30708 8.54606 3.05076 8.54606 2.7361C8.54606 2.42144 8.80632 2.16512 9.12581 2.16512H13.0169C13.3364 2.16512 13.5967 2.42144 13.5967 2.7361C13.5967 3.05076 13.3364 3.30708 13.0169 3.30708H9.12581Z" fill="#E4E4E7" fill-opacity="0.8"/>
</svg>
