<svg width="20" height="20" viewBox="0 0 20 20" fill="none" xmlns="http://www.w3.org/2000/svg">
<path d="M3.82811 12.3932C3.90308 12.3932 3.97808 12.3647 4.03526 12.3075L4.47807 11.8646C4.59249 11.7502 4.59249 11.5647 4.47807 11.4503C4.36366 11.3359 4.17815 11.3359 4.06378 11.4503L3.62097 11.8932C3.50655 12.0076 3.50655 12.193 3.62097 12.3075C3.67819 12.3647 3.75315 12.3932 3.82811 12.3932Z" fill="#E4E4E7" fill-opacity="0.8"/>
<path d="M16.2786 12.3075C16.3358 12.3647 16.4108 12.3932 16.4858 12.3932C16.5607 12.3932 16.6357 12.3647 16.6929 12.3075C16.8073 12.193 16.8073 12.0075 16.6929 11.8932L16.2501 11.4503C16.1357 11.3359 15.9502 11.3359 15.8358 11.4503C15.7214 11.5647 15.7214 11.7502 15.8358 11.8646L16.2786 12.3075Z" fill="#E4E4E7" fill-opacity="0.8"/>
<path d="M19.1165 9.30422C17.4618 8.53578 14.9729 8.46227 14.4703 8.45535L12.0968 6.94492C11.3954 6.49859 10.5853 6.2627 9.75402 6.2627H6.96422C6.24195 6.2627 5.51871 6.43344 4.87269 6.75645L3.38664 7.49945C2.93895 7.72332 2.46008 7.86828 1.96336 7.93039L0.805234 8.07516C0.346172 8.1325 0 8.52465 0 8.98727V10.8571C0 11.4045 0.367539 11.8917 0.893789 12.0421L2.27781 12.4375C2.51555 13.1902 3.22023 13.7375 4.05051 13.7375C4.74109 13.7375 5.34445 13.3586 5.66488 12.798H14.6482C14.9686 13.3586 15.572 13.7375 16.2626 13.7375C17.2874 13.7375 18.1212 12.9037 18.1212 11.8788C18.1212 10.854 17.2874 10.0202 16.2626 10.0202C15.2377 10.0202 14.4039 10.8539 14.4039 11.8788C14.4039 11.9927 14.4148 12.1039 14.4345 12.2121H5.87859C5.89828 12.1039 5.9091 11.9926 5.9091 11.8788C5.9091 10.854 5.07531 10.0202 4.05047 10.0202C3.0507 10.0202 2.23316 10.8138 2.19375 11.8041L1.05473 11.4786C0.77875 11.3998 0.585938 11.1443 0.585938 10.8571V9.97992H0.919219C1.08102 9.97992 1.21219 9.84875 1.21219 9.68695C1.21219 9.52516 1.08102 9.39398 0.919219 9.39398H0.585938V8.98727C0.585938 8.81953 0.711445 8.67734 0.877891 8.65656L2.03602 8.5118C2.59883 8.44145 3.14137 8.27715 3.64867 8.02352L3.7823 7.95672L4.32422 8.49613C4.67527 8.84719 5.14203 9.04055 5.63848 9.04055H6.24246C6.40426 9.04055 6.53543 8.90938 6.53543 8.74758C6.53543 8.58578 6.40426 8.45461 6.24246 8.45461H5.63848C5.58727 8.45461 5.53664 8.45125 5.48656 8.44531L5.81027 7.01547C6.18457 6.90562 6.57457 6.84859 6.96426 6.84859H8.45457V8.45457H7.49504C7.33324 8.45457 7.20207 8.58574 7.20207 8.74754C7.20207 8.90934 7.33324 9.04051 7.49504 9.04051H14.3838C14.4116 9.04051 17.1794 9.05059 18.8698 9.83559C18.9689 9.88164 19.0573 9.94473 19.1328 10.0202H18.7677C18.6059 10.0202 18.4747 10.1514 18.4747 10.3132C18.4747 10.475 18.6059 10.6061 18.7677 10.6061H19.4088C19.412 10.6379 19.4141 10.6697 19.4141 10.7021V11.7416C19.4141 12.0318 19.2864 12.2121 19.0808 12.2121C18.919 12.2121 18.7879 12.3433 18.7879 12.5051C18.7879 12.6669 18.919 12.798 19.0808 12.798C19.3403 12.798 19.576 12.6913 19.7447 12.4974C19.9117 12.3054 20 12.044 20 11.7416V10.7021C20 10.1021 19.6532 9.55344 19.1165 9.30422ZM16.2626 10.6062C16.9643 10.6062 17.5353 11.1771 17.5353 11.8789C17.5353 12.5806 16.9643 13.1516 16.2626 13.1516C15.5608 13.1516 14.9899 12.5806 14.9899 11.8789C14.9899 11.1771 15.5608 10.6062 16.2626 10.6062ZM4.05051 10.6062C4.75227 10.6062 5.3232 11.1771 5.3232 11.8789C5.3232 12.5806 4.75227 13.1516 4.05051 13.1516C3.34875 13.1516 2.77781 12.5806 2.77781 11.8789C2.77781 11.1771 3.34879 10.6062 4.05051 10.6062ZM4.93199 8.24098C4.8632 8.19488 4.7984 8.14172 4.73852 8.08184L4.33637 7.67969L5.13473 7.28051C5.1402 7.27777 5.14578 7.27523 5.15125 7.27254L4.93199 8.24098ZM9.04047 6.84859H9.75402C10.4737 6.84859 11.175 7.05285 11.7822 7.43922L13.3778 8.45461H9.04047V6.84859Z" fill="#E4E4E7" fill-opacity="0.8"/>
<path d="M6.86719 10.9597C6.70539 10.9597 6.57422 11.0909 6.57422 11.2527C6.57422 11.4145 6.70539 11.5457 6.86719 11.5457H13.4429C13.6047 11.5457 13.7358 11.4145 13.7358 11.2527C13.7358 11.0909 13.6047 10.9597 13.4429 10.9597H6.86719Z" fill="#E4E4E7" fill-opacity="0.8"/>
</svg>
