<svg width="53" height="53" viewBox="0 0 53 53" fill="none" xmlns="http://www.w3.org/2000/svg">
<circle cx="26.5" cy="26.5" r="25.75" stroke="#E4E4E7" stroke-opacity="0.6" stroke-width="1.5"/>
<path d="M36.6594 20.1863H32.6093V17.541C32.6093 17.2177 32.3815 16.9531 32.103 16.9531H15.143C14.8645 16.9531 14.6367 17.2177 14.6367 17.541V37.2337C14.6367 37.557 14.8645 37.8215 15.143 37.8215H17.7123C17.9528 39.5703 19.2628 40.9077 20.8385 40.9077C22.4143 40.9077 23.7179 39.5703 23.9647 37.8215H32.103H34.6723C34.9128 39.5703 36.2228 40.9077 37.7986 40.9077C39.3743 40.9077 40.678 39.5703 40.9248 37.8215H43.4941C43.7725 37.8215 44.0004 37.557 44.0004 37.2337V28.71C44.0004 24.0072 40.7096 20.1863 36.6594 20.1863ZM42.9752 28.1956H38.0454C36.9949 28.1956 36.1342 27.2036 36.1342 25.9765V21.3619H36.6594C40.0008 21.3619 42.741 24.382 42.9752 28.1956ZM31.5968 18.1288V31.2818H15.6493V18.1288H31.5968ZM17.7123 36.6458H15.6493V32.4574H31.5968V36.6458H23.9647C23.7243 34.897 22.4143 33.5596 20.8385 33.5596C19.2628 33.5596 17.9591 34.897 17.7123 36.6458ZM20.8385 39.732C19.6551 39.732 18.6869 38.6077 18.6869 37.2337C18.6869 35.8596 19.6551 34.7353 20.8385 34.7353C22.0219 34.7353 22.9902 35.8596 22.9902 37.2337C22.9902 38.6077 22.0219 39.732 20.8385 39.732ZM37.7986 39.732C36.6151 39.732 35.6469 38.6077 35.6469 37.2337C35.6469 35.8596 36.6151 34.7353 37.7986 34.7353C38.982 34.7353 39.9502 35.8596 39.9502 37.2337C39.9502 38.6077 38.982 39.732 37.7986 39.732ZM40.9248 36.6458C40.6843 34.897 39.3743 33.5596 37.7986 33.5596C36.2228 33.5596 34.9191 34.897 34.6723 36.6458H32.6093V21.3619H35.1217V25.9765C35.1217 27.8502 36.4316 29.3713 38.0454 29.3713H42.9878V36.6458H40.9248Z" fill="#E4E4E7" fill-opacity="0.4"/>
<circle cx="16.9545" cy="16.9545" r="6.95455" fill="#22242C"/>
<circle cx="16.9545" cy="16.9545" r="6.45455" stroke="#E4E4E7" stroke-opacity="0.4"/>
<path d="M20.5487 14.0568C20.4094 13.9277 20.2246 13.859 20.0347 13.8657C19.8449 13.8724 19.6655 13.9541 19.5357 14.0927L15.7211 18.2523L14.3633 16.6071C14.3029 16.5345 14.2288 16.4744 14.1452 16.4304C14.0616 16.3864 13.9702 16.3593 13.8762 16.3507C13.6862 16.3331 13.497 16.3918 13.3503 16.5137C13.2036 16.6357 13.1114 16.8109 13.0939 17.0009C13.0764 17.1908 13.135 17.38 13.257 17.5267L15.1392 19.7968C15.2037 19.8765 15.2845 19.9414 15.3762 19.9873C15.4678 20.0331 15.5683 20.0588 15.6708 20.0626C15.7734 20.0644 15.8753 20.0441 15.9695 20.0033C16.0637 19.9624 16.1479 19.9018 16.2168 19.8255L20.5918 15.0698C20.72 14.9295 20.7875 14.7442 20.7794 14.5544C20.7713 14.3645 20.6883 14.1856 20.5487 14.0568Z" fill="#E4E4E7" fill-opacity="0.4"/>
</svg>
