<svg width="57" height="55" viewBox="0 0 57 55" fill="none" xmlns="http://www.w3.org/2000/svg">
<g filter="url(#filter0_d_1284_1844)">
<path d="M36.6098 22.7788L31.786 20.098C31.6183 20.0379 31.436 20.0321 31.2648 20.0814C28.5202 21.4675 24.1234 23.6438 23.203 24.018C22.2604 23.6327 17.8886 21.4648 15.1634 20.0897C15.1021 20.0565 15.0335 20.0391 14.9638 20.0391C14.8941 20.0391 14.8255 20.0565 14.7642 20.0897L10.2038 22.7844C10.1396 22.8224 10.0869 22.877 10.0511 22.9424C10.0152 23.0079 9.99769 23.0818 10.0002 23.1563C10.0028 23.2309 10.0254 23.3034 10.0656 23.3662C10.1058 23.429 10.1621 23.4799 10.2288 23.5135C12.1 24.4561 13.5555 25.1768 14.6783 25.7313V29.8426C14.6781 29.9174 14.698 29.9909 14.7361 30.0553C14.7742 30.1197 14.8289 30.1726 14.8945 30.2085L22.7179 34.5056C22.7316 34.563 22.7578 34.6168 22.7945 34.663C22.8312 34.7093 22.8777 34.747 22.9305 34.7734C22.9833 34.7998 23.0413 34.8143 23.1004 34.8159C23.1594 34.8176 23.2181 34.8063 23.2723 34.7828C23.3247 34.7998 23.38 34.8061 23.4349 34.8013C23.4898 34.7965 23.5431 34.7807 23.5918 34.7548C23.6404 34.7289 23.6833 34.6935 23.718 34.6507C23.7527 34.6079 23.7783 34.5585 23.7935 34.5056L31.6501 30.2085C31.7154 30.1728 31.7698 30.1203 31.8078 30.0565C31.8459 29.9926 31.8661 29.9197 31.8664 29.8454V25.942C31.8682 25.9198 31.8682 25.8976 31.8664 25.8755C33.0335 25.3016 34.5721 24.5392 36.6014 23.5162C36.6688 23.4821 36.7257 23.4303 36.7658 23.3663C36.806 23.3023 36.8279 23.2286 36.8294 23.1531C36.8308 23.0776 36.8116 23.0031 36.7739 22.9376C36.7362 22.8722 36.6814 22.8182 36.6153 22.7816L36.6098 22.7788ZM14.986 20.9353C19.3412 23.1281 21.3789 24.1067 22.3519 24.5392L18.6703 26.7099C17.8387 26.3828 14.0323 24.4921 11.2822 23.106L14.986 20.9353ZM15.51 26.1416C18.4541 27.5749 18.6399 27.5776 18.7202 27.5776C18.7944 27.5774 18.8672 27.5573 18.9309 27.5194L22.7151 25.3016V33.5491L15.51 29.5959V26.1416ZM31.0347 29.5986L23.5496 33.7044V25.1103L27.8993 27.525C27.9612 27.5594 28.0308 27.5775 28.1016 27.5776C28.182 27.5776 28.3539 27.5776 31.0347 26.2774V29.5986ZM28.146 26.7127L24.1595 24.4949C25.1741 24.0347 27.2395 23.0394 31.5032 20.8909L35.5175 23.1087C32.7646 24.506 28.9527 26.3911 28.146 26.7127Z" fill="#E4E4E7"/>
<path d="M22.978 20.8287C23.056 20.9066 23.1616 20.9504 23.2718 20.9504C23.382 20.9504 23.4877 20.9066 23.5657 20.8287L25.5063 18.8882C25.5798 18.8093 25.6197 18.7051 25.6178 18.5973C25.6159 18.4896 25.5723 18.3868 25.4961 18.3106C25.4199 18.2344 25.3171 18.1908 25.2094 18.1889C25.1017 18.187 24.9974 18.227 24.9186 18.3004L23.8263 19.3927V10.9705C23.8263 10.8602 23.7825 10.7545 23.7045 10.6765C23.6265 10.5985 23.5207 10.5547 23.4105 10.5547C23.3002 10.5547 23.1944 10.5985 23.1164 10.6765C23.0384 10.7545 22.9946 10.8602 22.9946 10.9705V19.6699L21.6251 18.3004C21.5463 18.227 21.442 18.187 21.3343 18.1889C21.2266 18.1908 21.1238 18.2344 21.0476 18.3106C20.9714 18.3868 20.9277 18.4896 20.9258 18.5973C20.9239 18.7051 20.9639 18.8093 21.0374 18.8882L22.978 20.8287Z" fill="#E4E4E7"/>
<path d="M16.8792 18.6108C16.9572 18.6887 17.0629 18.7324 17.1731 18.7324C17.2833 18.7324 17.389 18.6887 17.467 18.6108L19.0139 17.0639C19.0873 16.985 19.1273 16.8808 19.1254 16.7731C19.1235 16.6653 19.0799 16.5625 19.0037 16.4863C18.9275 16.4102 18.8247 16.3665 18.717 16.3646C18.6093 16.3627 18.505 16.4027 18.4262 16.4762L17.7276 17.1748V10.6932C17.7276 10.5829 17.6837 10.4771 17.6058 10.3991C17.5278 10.3212 17.422 10.2773 17.3117 10.2773C17.2014 10.2773 17.0957 10.3212 17.0177 10.3991C16.9397 10.4771 16.8959 10.5829 16.8959 10.6932V17.452L15.92 16.4762C15.8412 16.4027 15.7369 16.3627 15.6292 16.3646C15.5215 16.3665 15.4187 16.4102 15.3425 16.4863C15.2663 16.5625 15.2227 16.6653 15.2208 16.7731C15.2189 16.8808 15.2589 16.985 15.3323 17.0639L16.8792 18.6108Z" fill="#E4E4E7"/>
<path d="M29.0775 18.3335C29.1555 18.4113 29.2611 18.4551 29.3713 18.4551C29.4815 18.4551 29.5872 18.4113 29.6652 18.3335L31.2121 16.7865C31.2856 16.7077 31.3256 16.6034 31.3237 16.4957C31.3218 16.388 31.2781 16.2852 31.2019 16.209C31.1258 16.1328 31.023 16.0892 30.9152 16.0873C30.8075 16.0854 30.7032 16.1254 30.6244 16.1988L29.9258 16.8974V10.4158C29.9258 10.3056 29.882 10.1998 29.804 10.1218C29.726 10.0438 29.6202 10 29.51 10C29.3997 10 29.2939 10.0438 29.2159 10.1218C29.1379 10.1998 29.0941 10.3056 29.0941 10.4158V17.1747L28.1183 16.1988C28.0394 16.1254 27.9352 16.0854 27.8275 16.0873C27.7197 16.0892 27.6169 16.1328 27.5407 16.209C27.4646 16.2852 27.4209 16.388 27.419 16.4957C27.4171 16.6034 27.4571 16.7077 27.5306 16.7865L29.0775 18.3335Z" fill="#E4E4E7"/>
</g>
<defs>
<filter id="filter0_d_1284_1844" x="0" y="0" width="56.8296" height="54.8164" filterUnits="userSpaceOnUse" color-interpolation-filters="sRGB">
<feFlood flood-opacity="0" result="BackgroundImageFix"/>
<feColorMatrix in="SourceAlpha" type="matrix" values="0 0 0 0 0 0 0 0 0 0 0 0 0 0 0 0 0 0 127 0" result="hardAlpha"/>
<feOffset dx="5" dy="5"/>
<feGaussianBlur stdDeviation="7.5"/>
<feComposite in2="hardAlpha" operator="out"/>
<feColorMatrix type="matrix" values="0 0 0 0 0.6625 0 0 0 0 1 0 0 0 0 0.91206 0 0 0 0.4 0"/>
<feBlend mode="normal" in2="BackgroundImageFix" result="effect1_dropShadow_1284_1844"/>
<feBlend mode="normal" in="SourceGraphic" in2="effect1_dropShadow_1284_1844" result="shape"/>
</filter>
</defs>
</svg>
