<svg width="17" height="16" viewBox="0 0 17 16" fill="none" xmlns="http://www.w3.org/2000/svg">
<path d="M16.384 0.796875H0V5.13555H1.28762V9.13971C1.28762 10.9673 2.00559 12.6855 3.30925 13.9778C4.61293 15.27 6.34623 15.9817 8.18988 15.9817C10.0335 15.9817 11.7668 15.27 13.0705 13.9778C14.3741 12.6855 15.0921 10.9673 15.0921 9.13971V5.13555H16.384V0.796875ZM14.1283 9.13971C14.1283 12.3856 11.4643 15.0264 8.18985 15.0264C4.91536 15.0264 2.25139 12.3856 2.25139 9.13971V5.13555H14.1283V9.13971H14.1283ZM15.4202 4.18019H0.963765V1.75223H15.4202V4.18019Z" fill="#E4E4E7" fill-opacity="0.4"/>
<path d="M8.18151 13.8922C10.2848 13.8922 11.9959 12.196 11.9959 10.1111C11.9959 8.02625 10.2848 6.33008 8.18151 6.33008C6.07829 6.33008 4.36719 8.02625 4.36719 10.1111C4.36719 12.196 6.07825 13.8922 8.18151 13.8922ZM8.18151 7.28541C9.75334 7.28541 11.0321 8.55301 11.0321 10.1111C11.0321 11.6692 9.75334 12.9368 8.18151 12.9368C6.6097 12.9368 5.33095 11.6692 5.33095 10.1111C5.33095 8.55301 6.60967 7.28541 8.18151 7.28541Z" fill="#E4E4E7" fill-opacity="0.4"/>
<path d="M8.18512 11.9828C9.22631 11.9828 10.0734 11.1431 10.0734 10.111C10.0734 9.07893 9.22631 8.23926 8.18512 8.23926C7.14393 8.23926 6.29688 9.07893 6.29688 10.111C6.29688 11.1431 7.14393 11.9828 8.18512 11.9828ZM8.18512 9.19459C8.69489 9.19459 9.10959 9.60568 9.10959 10.111C9.10959 10.6163 8.69485 11.0274 8.18512 11.0274C7.67538 11.0274 7.26064 10.6163 7.26064 10.111C7.26064 9.60568 7.67535 9.19459 8.18512 9.19459Z" fill="#E4E4E7" fill-opacity="0.4"/>
<path d="M3.96276 7.37333C4.21481 7.37333 4.4563 7.15363 4.44464 6.89565C4.43295 6.63684 4.2329 6.41797 3.96276 6.41797C3.7107 6.41797 3.46921 6.63767 3.48087 6.89565C3.49257 7.15446 3.69261 7.37333 3.96276 7.37333Z" fill="#E4E4E7" fill-opacity="0.4"/>
</svg>
