<svg width="161" height="200" viewBox="0 0 161 200" fill="none" xmlns="http://www.w3.org/2000/svg">
<path d="M79.8024 188.627L55.2478 142.025L18.1369 151.179L0 200H161L142.863 151.179L105.473 142.025L79.8024 188.627Z" fill="white"/>
<path fill-rule="evenodd" clip-rule="evenodd" d="M35.4367 18.5853L22.3224 41.8863L31.8094 50.7628V53.5368C45.2028 67.4064 116.355 67.6838 129.191 53.5368V50.7628L139.794 41.8863L126.121 18.5853L80.3605 0L35.4367 18.5853ZM80.3605 10.5409L118.029 24.1331L133.655 41.8863L80.3605 21.914V10.5409ZM77.2912 36.061L80.9185 26.3523C81.8486 29.2187 83.8204 35.1734 84.2669 36.061H95.7071L86.4991 42.4411L89.0104 52.982L80.9185 47.1567L72.5477 52.982L75.338 42.4411L66.409 36.061H77.2912Z" fill="white"/>
<path fill-rule="evenodd" clip-rule="evenodd" d="M41.0173 62.6907V74.6186L37.1109 72.9542L33.4835 77.3925L35.4367 96.2552L38.227 100.693H41.0173V116.227C41.0173 116.893 59.4333 136.107 68.6413 145.631H92.9168L120.82 116.782V100.693H123.889L126.958 96.5326L128.354 77.6699L125.284 72.9542L121.378 75.4508V62.6907C111.612 74.6186 55.8059 76.5603 41.0173 62.6907ZM79.8024 143.689V80.9986C93.1958 81.5534 112.449 76.8377 116.355 72.9542V116.227L91.8007 143.689H79.8024Z" fill="white"/>
<path fill-rule="evenodd" clip-rule="evenodd" d="M88.7314 152.566H72.8267L77.5702 160.888L73.9428 172.538L79.7359 182.554C79.6611 182.636 79.6835 182.641 79.7916 182.666L79.8024 182.669L80.3605 183.634L87.0572 171.983L82.3137 160.888L88.7314 152.566ZM80.3605 183.356V154.508H87.0572L82.3137 160.888L86.9526 171.706C83.3298 179.387 80.2719 182.01 79.8147 182.473L80.3605 183.356Z" fill="white"/>
</svg>
