<svg width="54" height="67" viewBox="0 0 54 67" fill="none" xmlns="http://www.w3.org/2000/svg">
<path d="M26.766 63.19L18.5303 47.5784L6.08319 50.6449L0 67H54L47.9168 50.6449L35.3761 47.5784L26.766 63.19Z" fill="white"/>
<path fill-rule="evenodd" clip-rule="evenodd" d="M11.8856 6.22607L7.487 14.0319L10.669 17.0055V17.9348C15.1612 22.5811 39.026 22.6741 43.331 17.9348V17.0055L46.8874 14.0319L42.3016 6.22607L26.9532 0L11.8856 6.22607ZM26.9532 3.53121L39.5875 8.0846L44.8284 14.0319L26.9532 7.34119V3.53121ZM25.9237 12.0804L27.1404 8.82802C27.4523 9.78826 28.1137 11.7831 28.2634 12.0804H32.1005L29.0121 14.2178L29.8544 17.749L27.1404 15.7975L24.3328 17.749L25.2686 14.2178L22.2738 12.0804H25.9237Z" fill="white"/>
<path fill-rule="evenodd" clip-rule="evenodd" d="M13.7574 21.0014V24.9972L12.4471 24.4397L11.2305 25.9265L11.8856 32.2455L12.8215 33.7323H13.7574V38.9362C13.7574 39.1592 19.9341 45.5959 23.0225 48.7864H31.1646L40.5234 39.1221V33.7323H41.5529L42.5823 32.3384L43.0503 26.0194L42.0208 24.4397L40.7106 25.276V21.0014C37.435 24.9972 18.7175 25.6477 13.7574 21.0014ZM26.766 48.1359V27.1345C31.2582 27.3204 37.7158 25.7406 39.026 24.4397V38.9362L30.7903 48.1359H26.766Z" fill="white"/>
<path fill-rule="evenodd" clip-rule="evenodd" d="M29.7608 51.1096H24.4263L26.0173 53.8974L24.8007 57.8003L26.7437 61.1556C26.7186 61.1829 26.7261 61.1847 26.7624 61.1932L26.766 61.1941L26.9532 61.5173L29.1993 57.6144L27.6083 53.8974L29.7608 51.1096ZM26.9532 61.4244V51.7601H29.1993L27.6083 53.8974L29.1642 57.5215C27.9491 60.0948 26.9235 60.9732 26.7702 61.1283L26.9532 61.4244Z" fill="white"/>
</svg>
