<svg width="53" height="53" viewBox="0 0 53 53" fill="none" xmlns="http://www.w3.org/2000/svg">
<circle cx="26.5" cy="26.5" r="25.75" stroke="#E4E4E7" stroke-opacity="0.6" stroke-width="1.5"/>
<path fill-rule="evenodd" clip-rule="evenodd" d="M32.7895 36.9891V38.0833H34.8948C35.4761 38.0833 35.9474 37.6198 35.9474 37.0485V19.3333H31.7346C30.5732 19.3333 29.6316 18.4098 29.6316 17.2438V12.0417H19.1006C18.5218 12.0417 18.0526 12.5159 18.0526 13.0786V37.0464C18.0526 37.6191 18.5313 38.0833 19.1052 38.0833H27.5263V36.9891C26.8752 36.3315 26.4737 35.4309 26.4737 34.4375C26.4737 32.424 28.1232 30.7917 30.1579 30.7917C32.1926 30.7917 33.8421 32.424 33.8421 34.4375C33.8421 35.4309 33.4406 36.3315 32.7895 36.9891ZM28.5789 37.7325V41.8333L30.1579 40.2708L31.7368 41.8333V37.7325C31.2583 37.9575 30.7229 38.0833 30.1579 38.0833C29.5928 38.0833 29.0575 37.9575 28.5789 37.7325ZM32.7895 39.125H34.8975C36.0587 39.125 37 38.1894 37 37.0513V18.2917L30.6842 11H19.1082C17.9439 11 17 11.9358 17 13.091V37.034C17 38.1888 17.9378 39.125 19.1025 39.125H27.5263V44.3333L30.1579 41.7292L32.7895 44.3333V39.125ZM30.6842 12.5625V17.2408C30.6842 17.8212 31.1586 18.2917 31.7334 18.2917H35.6315L30.6842 12.5625ZM20.1579 18.2917V19.3333H27.5263V18.2917H20.1579ZM20.1579 15.1667V16.2083H27.5263V15.1667H20.1579ZM20.1579 21.4167V22.4583H33.8421V21.4167H20.1579ZM20.1579 24.5417V25.5833H33.8421V24.5417H20.1579ZM20.1579 27.6667V28.7083H33.8421V27.6667H20.1579ZM30.1579 37.0417C31.6113 37.0417 32.7895 35.8757 32.7895 34.4375C32.7895 32.9993 31.6113 31.8333 30.1579 31.8333C28.7045 31.8333 27.5263 32.9993 27.5263 34.4375C27.5263 35.8757 28.7045 37.0417 30.1579 37.0417Z" fill="#E4E4E7" fill-opacity="0.4"/>
</svg>
