<svg width="17" height="17" viewBox="0 0 17 17" fill="none" xmlns="http://www.w3.org/2000/svg">
<path d="M8.21543 0.847656C3.69845 0.847656 0.0234375 4.2537 0.0234375 8.44009C0.0234375 12.6265 3.69845 16.0325 8.21543 16.0325C12.7324 16.0325 16.4074 12.6265 16.4074 8.44009C16.4074 4.2537 12.7324 0.847656 8.21543 0.847656ZM8.21543 15.0835C4.26293 15.0835 1.04744 12.1033 1.04744 8.44009C1.04744 4.77687 4.26293 1.79671 8.21543 1.79671C12.1679 1.79671 15.3834 4.77687 15.3834 8.44009C15.3834 12.1033 12.1679 15.0835 8.21543 15.0835Z" fill="#E4E4E7" fill-opacity="0.4"/>
<path d="M8.72713 3.69531H7.70312V8.63705L10.9251 11.6232L11.6491 10.9522L8.72713 8.24408V3.69531Z" fill="#E4E4E7" fill-opacity="0.4"/>
</svg>
