<svg width="16" height="16" viewBox="0 0 16 16" fill="none" xmlns="http://www.w3.org/2000/svg">
<path d="M8.00003 6.99926C7.81403 6.99926 7.62785 7.07035 7.48585 7.21235L0.213136 14.4851C-0.0710453 14.7692 -0.0710453 15.2294 0.213136 15.5134C0.497317 15.7974 0.957498 15.7976 1.2415 15.5134L8.00003 8.75489L14.7586 15.5134C15.0428 15.7976 15.5029 15.7976 15.7869 15.5134C16.0709 15.2292 16.0711 14.7691 15.7869 14.4851L8.51422 7.21235C8.37222 7.07035 8.18603 6.99926 8.00003 6.99926Z" fill="#E4E4E7"/>
<path d="M8.00003 8.7273C7.81403 8.7273 7.62785 8.65621 7.48585 8.51421L0.213136 1.2415C-0.0710453 0.957316 -0.0710453 0.497136 0.213136 0.213136C0.497317 -0.0708635 0.957498 -0.0710453 1.2415 0.213136L8.00003 6.97167L14.7586 0.213136C15.0428 -0.0710453 15.5029 -0.0710453 15.7869 0.213136C16.0709 0.497317 16.0711 0.957498 15.7869 1.2415L8.51422 8.51421C8.37222 8.65621 8.18603 8.7273 8.00003 8.7273Z" fill="#E4E4E7"/>
</svg>