<svg width="39" height="39" viewBox="0 0 39 39" fill="none" xmlns="http://www.w3.org/2000/svg">
<path d="M36.4986 13.3272H35.3757V0.672414C35.3757 0.494079 35.3049 0.323047 35.1788 0.196945C35.0527 0.0708434 34.8816 0 34.7033 0H32.4911C32.3127 0 32.1417 0.0708434 32.0156 0.196945C31.8895 0.323047 31.8186 0.494079 31.8186 0.672414V13.3272H30.6957C30.0335 13.3272 29.3983 13.5899 28.9293 14.0575C28.4604 14.5251 28.1961 15.1597 28.1943 15.8219V36.4986C28.1961 37.1615 28.4602 37.7967 28.9289 38.2654C29.3976 38.7341 30.0329 38.9982 30.6957 39H36.4986C37.1615 38.9982 37.7967 38.7341 38.2654 38.2654C38.7341 37.7967 38.9983 37.1615 39 36.4986V15.8219C38.9982 15.1597 38.7339 14.5251 38.265 14.0575C37.7961 13.5899 37.1609 13.3272 36.4986 13.3272ZM33.1635 1.34483H34.0309V13.3272H33.1635V1.34483ZM37.6552 36.4986C37.6552 36.8054 37.5333 37.0995 37.3165 37.3164C37.0996 37.5333 36.8054 37.6552 36.4986 37.6552H30.6957C30.389 37.6552 30.0948 37.5333 29.8779 37.3164C29.661 37.0995 29.5392 36.8054 29.5392 36.4986V15.8219C29.5409 15.5163 29.6636 15.2239 29.8803 15.0084C30.097 14.793 30.3901 14.6721 30.6957 14.6721H36.4986C36.8042 14.6721 37.0974 14.793 37.3141 15.0084C37.5308 15.2239 37.6534 15.5163 37.6552 15.8219V36.4986Z" fill="#E4E4E7" fill-opacity="0.8"/>
<path d="M36.31 25.4902H30.9307C30.7524 25.4902 30.5813 25.5611 30.4552 25.6872C30.3291 25.8133 30.2583 25.9843 30.2583 26.1626C30.2583 26.341 30.3291 26.512 30.4552 26.6381C30.5813 26.7642 30.7524 26.8351 30.9307 26.8351H36.31C36.4884 26.8351 36.6594 26.7642 36.7855 26.6381C36.9116 26.512 36.9824 26.341 36.9824 26.1626C36.9824 25.9843 36.9116 25.8133 36.7855 25.6872C36.6594 25.5611 36.4884 25.4902 36.31 25.4902Z" fill="#E4E4E7" fill-opacity="0.8"/>
<path d="M36.31 28.5293H30.9307C30.7524 28.5293 30.5813 28.6001 30.4552 28.7262C30.3291 28.8523 30.2583 29.0234 30.2583 29.2017C30.2583 29.38 30.3291 29.5511 30.4552 29.6772C30.5813 29.8033 30.7524 29.8741 30.9307 29.8741H36.31C36.4884 29.8741 36.6594 29.8033 36.7855 29.6772C36.9116 29.5511 36.9824 29.38 36.9824 29.2017C36.9824 29.0234 36.9116 28.8523 36.7855 28.7262C36.6594 28.6001 36.4884 28.5293 36.31 28.5293Z" fill="#E4E4E7" fill-opacity="0.8"/>
<path d="M36.31 31.6035H30.9307C30.7524 31.6035 30.5813 31.6744 30.4552 31.8005C30.3291 31.9266 30.2583 32.0976 30.2583 32.2759C30.2583 32.4543 30.3291 32.6253 30.4552 32.7514C30.5813 32.8775 30.7524 32.9483 30.9307 32.9483H36.31C36.4884 32.9483 36.6594 32.8775 36.7855 32.7514C36.9116 32.6253 36.9824 32.4543 36.9824 32.2759C36.9824 32.0976 36.9116 31.9266 36.7855 31.8005C36.6594 31.6744 36.4884 31.6035 36.31 31.6035Z" fill="#E4E4E7" fill-opacity="0.8"/>
<path d="M36.31 34.6172H30.9307C30.7524 34.6172 30.5813 34.688 30.4552 34.8141C30.3291 34.9402 30.2583 35.1113 30.2583 35.2896C30.2583 35.4679 30.3291 35.639 30.4552 35.7651C30.5813 35.8912 30.7524 35.962 30.9307 35.962H36.31C36.4884 35.962 36.6594 35.8912 36.7855 35.7651C36.9116 35.639 36.9824 35.4679 36.9824 35.2896C36.9824 35.1113 36.9116 34.9402 36.7855 34.8141C36.6594 34.688 36.4884 34.6172 36.31 34.6172Z" fill="#E4E4E7" fill-opacity="0.8"/>
<path d="M36.31 16.3672H30.9307C30.7524 16.3672 30.5813 16.438 30.4552 16.5641C30.3291 16.6902 30.2583 16.8613 30.2583 17.0396C30.2583 17.2179 30.3291 17.389 30.4552 17.5151C30.5813 17.6412 30.7524 17.712 30.9307 17.712H36.31C36.4884 17.712 36.6594 17.6412 36.7855 17.5151C36.9116 17.389 36.9824 17.2179 36.9824 17.0396C36.9824 16.8613 36.9116 16.6902 36.7855 16.5641C36.6594 16.438 36.4884 16.3672 36.31 16.3672Z" fill="#E4E4E7" fill-opacity="0.8"/>
<path d="M36.31 19.4062H30.9307C30.7524 19.4062 30.5813 19.4771 30.4552 19.6032C30.3291 19.7293 30.2583 19.9003 30.2583 20.0787C30.2583 20.257 30.3291 20.428 30.4552 20.5541C30.5813 20.6802 30.7524 20.7511 30.9307 20.7511H36.31C36.4884 20.7511 36.6594 20.6802 36.7855 20.5541C36.9116 20.428 36.9824 20.257 36.9824 20.0787C36.9824 19.9003 36.9116 19.7293 36.7855 19.6032C36.6594 19.4771 36.4884 19.4063 36.31 19.4062Z" fill="#E4E4E7" fill-opacity="0.8"/>
<path d="M36.31 22.4453H30.9307C30.7524 22.4453 30.5813 22.5162 30.4552 22.6423C30.3291 22.7684 30.2583 22.9394 30.2583 23.1177C30.2583 23.2961 30.3291 23.4671 30.4552 23.5932C30.5813 23.7193 30.7524 23.7901 30.9307 23.7901H36.31C36.4884 23.7901 36.6594 23.7193 36.7855 23.5932C36.9116 23.4671 36.9824 23.2961 36.9824 23.1177C36.9824 22.9394 36.9116 22.7684 36.7855 22.6423C36.6594 22.5162 36.4884 22.4453 36.31 22.4453Z" fill="#E4E4E7" fill-opacity="0.8"/>
<path d="M22.4047 19.4059H21.2818V0.672414C21.2818 0.494079 21.211 0.323047 21.0849 0.196945C20.9588 0.0708434 20.7877 0 20.6094 0H18.3904C18.2121 0 18.0411 0.0708434 17.915 0.196945C17.7889 0.323047 17.718 0.494079 17.718 0.672414V19.4059H16.5951C15.9369 19.4147 15.3086 19.6819 14.8456 20.1499C14.3827 20.6178 14.1223 21.249 14.1206 21.9072V36.4986C14.1223 37.1569 14.3827 37.788 14.8456 38.256C15.3086 38.724 15.9369 38.9912 16.5951 39H22.4047C23.0629 38.9912 23.6913 38.724 24.1542 38.256C24.6171 37.788 24.8775 37.1569 24.8792 36.4986V21.9072C24.8775 21.249 24.6171 20.6178 24.1542 20.1499C23.6913 19.6819 23.0629 19.4147 22.4047 19.4059ZM19.0628 1.34483H19.937V19.4059H19.0628V1.34483ZM23.5344 36.4986C23.5328 36.8002 23.4141 37.0894 23.2033 37.3052C22.9926 37.521 22.7062 37.6465 22.4047 37.6552H16.5951C16.2936 37.6465 16.0073 37.521 15.7965 37.3052C15.5858 37.0894 15.4671 36.8002 15.4654 36.4986V21.9072C15.4672 21.601 15.5896 21.3079 15.8061 21.0914C16.0226 20.8749 16.3158 20.7525 16.622 20.7507H22.4316C22.7284 20.7661 23.008 20.8946 23.213 21.1096C23.4181 21.3247 23.5331 21.6101 23.5344 21.9072V36.4986Z" fill="#E4E4E7" fill-opacity="0.8"/>
<path d="M22.1894 25.4902H16.8101C16.6318 25.4902 16.4607 25.5611 16.3346 25.6872C16.2085 25.8133 16.1377 25.9843 16.1377 26.1626C16.1377 26.341 16.2085 26.512 16.3346 26.6381C16.4607 26.7642 16.6318 26.8351 16.8101 26.8351H22.1894C22.3678 26.8351 22.5388 26.7642 22.6649 26.6381C22.791 26.512 22.8618 26.341 22.8618 26.1626C22.8618 25.9843 22.791 25.8133 22.6649 25.6872C22.5388 25.5611 22.3678 25.4902 22.1894 25.4902Z" fill="#E4E4E7" fill-opacity="0.8"/>
<path d="M22.1894 28.5293H16.8101C16.6318 28.5293 16.4607 28.6001 16.3346 28.7262C16.2085 28.8523 16.1377 29.0234 16.1377 29.2017C16.1377 29.38 16.2085 29.5511 16.3346 29.6772C16.4607 29.8033 16.6318 29.8741 16.8101 29.8741H22.1894C22.3678 29.8741 22.5388 29.8033 22.6649 29.6772C22.791 29.5511 22.8618 29.38 22.8618 29.2017C22.8618 29.0234 22.791 28.8523 22.6649 28.7262C22.5388 28.6001 22.3678 28.5293 22.1894 28.5293Z" fill="#E4E4E7" fill-opacity="0.8"/>
<path d="M22.1894 31.6035H16.8101C16.6318 31.6035 16.4607 31.6744 16.3346 31.8005C16.2085 31.9266 16.1377 32.0976 16.1377 32.2759C16.1377 32.4543 16.2085 32.6253 16.3346 32.7514C16.4607 32.8775 16.6318 32.9483 16.8101 32.9483H22.1894C22.3678 32.9483 22.5388 32.8775 22.6649 32.7514C22.791 32.6253 22.8618 32.4543 22.8618 32.2759C22.8618 32.0976 22.791 31.9266 22.6649 31.8005C22.5388 31.6744 22.3678 31.6035 22.1894 31.6035Z" fill="#E4E4E7" fill-opacity="0.8"/>
<path d="M22.1894 34.6172H16.8101C16.6318 34.6172 16.4607 34.688 16.3346 34.8141C16.2085 34.9402 16.1377 35.1113 16.1377 35.2896C16.1377 35.4679 16.2085 35.639 16.3346 35.7651C16.4607 35.8912 16.6318 35.962 16.8101 35.962H22.1894C22.3678 35.962 22.5388 35.8912 22.6649 35.7651C22.791 35.639 22.8618 35.4679 22.8618 35.2896C22.8618 35.1113 22.791 34.9402 22.6649 34.8141C22.5388 34.688 22.3678 34.6172 22.1894 34.6172Z" fill="#E4E4E7" fill-opacity="0.8"/>
<path d="M22.1894 22.4453H16.8101C16.6318 22.4453 16.4607 22.5162 16.3346 22.6423C16.2085 22.7684 16.1377 22.9394 16.1377 23.1177C16.1377 23.2961 16.2085 23.4671 16.3346 23.5932C16.4607 23.7193 16.6318 23.7901 16.8101 23.7901H22.1894C22.3678 23.7901 22.5388 23.7193 22.6649 23.5932C22.791 23.4671 22.8618 23.2961 22.8618 23.1177C22.8618 22.9394 22.791 22.7684 22.6649 22.6423C22.5388 22.5162 22.3678 22.4453 22.1894 22.4453Z" fill="#E4E4E7" fill-opacity="0.8"/>
<path d="M8.30431 19.4059H7.18138V0.672414C7.18138 0.494079 7.11054 0.323047 6.98443 0.196945C6.85833 0.0708434 6.6873 0 6.50897 0H4.29672C4.11839 0 3.94736 0.0708434 3.82126 0.196945C3.69515 0.323047 3.62431 0.494079 3.62431 0.672414V19.4059H2.50138C1.83852 19.4076 1.20331 19.6717 0.734598 20.1405C0.265882 20.6092 0.00177474 21.2444 0 21.9072V36.4986C0.00177474 37.1615 0.265882 37.7967 0.734598 38.2654C1.20331 38.7341 1.83852 38.9982 2.50138 39H8.30431C8.96717 38.9982 9.60238 38.7341 10.0711 38.2654C10.5398 37.7967 10.8039 37.1615 10.8057 36.4986V21.9072C10.8039 21.2444 10.5398 20.6092 10.0711 20.1405C9.60238 19.6717 8.96717 19.4076 8.30431 19.4059ZM4.96914 1.34483H5.83655V19.4059H4.96914V1.34483ZM9.46086 36.4986C9.46086 36.8054 9.33901 37.0995 9.12212 37.3164C8.90522 37.5333 8.61105 37.6552 8.30431 37.6552H2.50138C2.19464 37.6552 1.90047 37.5333 1.68357 37.3164C1.46668 37.0995 1.34483 36.8054 1.34483 36.4986V21.9072C1.34483 21.6005 1.46668 21.3063 1.68357 21.0894C1.90047 20.8725 2.19464 20.7507 2.50138 20.7507H8.30431C8.61105 20.7507 8.90522 20.8725 9.12212 21.0894C9.33901 21.3063 9.46086 21.6005 9.46086 21.9072V36.4986Z" fill="#E4E4E7" fill-opacity="0.8"/>
<path d="M8.06881 25.4902H2.6895C2.51117 25.4902 2.34014 25.5611 2.21404 25.6872C2.08793 25.8133 2.01709 25.9843 2.01709 26.1626C2.01709 26.341 2.08793 26.512 2.21404 26.6381C2.34014 26.7642 2.51117 26.8351 2.6895 26.8351H8.06881C8.24715 26.8351 8.41818 26.7642 8.54428 26.6381C8.67038 26.512 8.74123 26.341 8.74123 26.1626C8.74123 25.9843 8.67038 25.8133 8.54428 25.6872C8.41818 25.5611 8.24715 25.4902 8.06881 25.4902Z" fill="#E4E4E7" fill-opacity="0.8"/>
<path d="M8.06881 28.5293H2.6895C2.51117 28.5293 2.34014 28.6001 2.21404 28.7262C2.08793 28.8523 2.01709 29.0234 2.01709 29.2017C2.01709 29.38 2.08793 29.5511 2.21404 29.6772C2.34014 29.8033 2.51117 29.8741 2.6895 29.8741H8.06881C8.24715 29.8741 8.41818 29.8033 8.54428 29.6772C8.67038 29.5511 8.74123 29.38 8.74123 29.2017C8.74123 29.0234 8.67038 28.8523 8.54428 28.7262C8.41818 28.6001 8.24715 28.5293 8.06881 28.5293Z" fill="#E4E4E7" fill-opacity="0.8"/>
<path d="M8.06881 31.6035H2.6895C2.51117 31.6035 2.34014 31.6744 2.21404 31.8005C2.08793 31.9266 2.01709 32.0976 2.01709 32.2759C2.01709 32.4543 2.08793 32.6253 2.21404 32.7514C2.34014 32.8775 2.51117 32.9483 2.6895 32.9483H8.06881C8.24715 32.9483 8.41818 32.8775 8.54428 32.7514C8.67038 32.6253 8.74123 32.4543 8.74123 32.2759C8.74123 32.0976 8.67038 31.9266 8.54428 31.8005C8.41818 31.6744 8.24715 31.6035 8.06881 31.6035Z" fill="#E4E4E7" fill-opacity="0.8"/>
<path d="M8.06881 34.6172H2.6895C2.51117 34.6172 2.34014 34.688 2.21404 34.8141C2.08793 34.9402 2.01709 35.1113 2.01709 35.2896C2.01709 35.4679 2.08793 35.639 2.21404 35.7651C2.34014 35.8912 2.51117 35.962 2.6895 35.962H8.06881C8.24715 35.962 8.41818 35.8912 8.54428 35.7651C8.67038 35.639 8.74123 35.4679 8.74123 35.2896C8.74123 35.1113 8.67038 34.9402 8.54428 34.8141C8.41818 34.688 8.24715 34.6172 8.06881 34.6172Z" fill="#E4E4E7" fill-opacity="0.8"/>
<path d="M8.06881 22.4453H2.6895C2.51117 22.4453 2.34014 22.5162 2.21404 22.6423C2.08793 22.7684 2.01709 22.9394 2.01709 23.1177C2.01709 23.2961 2.08793 23.4671 2.21404 23.5932C2.34014 23.7193 2.51117 23.7901 2.6895 23.7901H8.06881C8.24715 23.7901 8.41818 23.7193 8.54428 23.5932C8.67038 23.4671 8.74123 23.2961 8.74123 23.1177C8.74123 22.9394 8.67038 22.7684 8.54428 22.6423C8.41818 22.5162 8.24715 22.4453 8.06881 22.4453Z" fill="#E4E4E7" fill-opacity="0.8"/>
</svg>
