<svg width="30" height="33" viewBox="0 0 30 33" fill="none" xmlns="http://www.w3.org/2000/svg">
<path d="M9.36283 7.51367L7.27734 9.76426V21.933L9.36283 24.1836H20.6392L22.7247 21.933V9.76426L20.6392 7.51367H9.36283ZM16.0266 16.6077C16.5824 16.6077 17.0347 17.0957 17.0347 17.6956C17.0347 18.2955 16.5824 18.7834 16.0266 18.7834H14.3779V16.6077H16.0266ZM15.5752 14.7104H14.3779V12.9218H15.5752C16.0321 12.9218 16.4039 13.3229 16.4039 13.8161C16.4039 14.3092 16.0322 14.7104 15.5752 14.7104ZM9.03556 21.1471V10.5502L10.0911 9.4111H14.1229V11.0245H11.5649V12.9218H12.6198V18.7835H11.5649V20.6809H14.1229V22.2863H10.0911L9.03556 21.1471ZM20.9666 21.1471L19.911 22.2863H15.8811V20.6808H16.0266C17.5519 20.6808 18.7929 19.3416 18.7929 17.6955C18.7929 16.7449 18.3785 15.8973 17.735 15.3502C18.0046 14.9096 18.1621 14.3824 18.1621 13.8161C18.1621 12.3885 17.1638 11.2085 15.8811 11.0446V9.41103H19.911L20.9666 10.5501V21.1471Z" fill="#E4E4E7" fill-opacity="0.6"/>
<path d="M30 11.9577V10.0603H26.3348V7.09999L23.4207 3.95524H20.6774V0H18.9192V3.95524H15.8791V0H14.1209V3.95524H11.0807V0H9.3225V3.95524H6.57926L3.66513 7.09999V10.0603H0V11.9577H3.66519V15.2384H0V17.1358H3.66519V20.4164H0V22.3138H3.66519V25.2742L6.57932 28.4189H9.32256V32.3742H11.0808V28.4189H14.1209V32.3742H15.8791V28.4189H18.9193V32.3742H20.6775V28.4189H23.4207L26.3349 25.2742V22.3138H30.0001V20.4164H26.3349V17.1357H30.0001V15.2383H26.3349V11.9576H30V11.9577ZM24.5766 24.4882L22.6924 26.5215H7.30764L5.42347 24.4882V7.88587L7.30764 5.8526H22.6924L24.5766 7.88587V24.4882Z" fill="#E4E4E7" fill-opacity="0.6"/>
</svg>
