<svg width="20" height="20" viewBox="0 0 20 20" fill="none" xmlns="http://www.w3.org/2000/svg">
<path d="M19.9914 13.454C19.9133 13.0562 19.224 9.55296 19.0537 9.04149C18.6443 7.81177 17.6608 6.41186 16.4227 5.29674C15.1355 4.13736 13.8019 3.47241 12.7637 3.47241H2.6646C2.14121 3.47241 1.71539 3.89824 1.71539 4.42162V5.91311H1.01612C0.759675 5.91311 0.551768 6.12102 0.551768 6.37746C0.551768 6.6339 0.759675 6.84181 1.01612 6.84181H1.71535V7.94946H0.464349C0.207907 7.94946 0 8.15737 0 8.41381C0 8.67025 0.207907 8.87816 0.464349 8.87816H1.71535V13.5433C1.71535 14.0667 2.14117 14.4925 2.66456 14.4925H3.82228C3.99538 15.6428 4.99026 16.5276 6.18804 16.5276C7.38582 16.5276 8.38069 15.6428 8.55375 14.4925H12.813C12.9861 15.6428 13.981 16.5276 15.1788 16.5276C16.3765 16.5276 17.3714 15.6428 17.5445 14.4925H19.0508C19.5742 14.4925 20 14.0667 20 13.5433C20 13.5134 19.9971 13.4835 19.9914 13.454ZM18.1194 9.18512L13.3345 9.18508V4.48413C15.0296 4.93939 17.3792 7.19467 18.1194 9.18512ZM6.18808 15.5989C5.38092 15.5989 4.72421 14.9423 4.72421 14.1351C4.72421 13.3279 5.38092 12.6712 6.18808 12.6712C6.99524 12.6712 7.65191 13.3279 7.65191 14.1351C7.65187 14.9423 6.99524 15.5989 6.18808 15.5989ZM15.1788 15.5989C14.3716 15.5989 13.7149 14.9422 13.7149 14.1351C13.7149 13.3279 14.3716 12.6712 15.1788 12.6712C15.986 12.6712 16.6426 13.3279 16.6426 14.1351C16.6426 14.9423 15.986 15.5989 15.1788 15.5989ZM19.0278 13.5638C18.6406 13.5638 17.5019 13.5638 17.5019 13.5638C17.245 12.5196 16.3012 11.7426 15.1788 11.7426C14.0564 11.7426 13.1125 12.5196 12.8557 13.5638H8.51116C8.25431 12.5196 7.31047 11.7426 6.18808 11.7426C5.06569 11.7426 4.12181 12.5196 3.86496 13.5638H2.6646C2.65329 13.5638 2.64408 13.5546 2.64408 13.5434V8.8782H8.33474C8.59119 8.8782 8.79909 8.6703 8.79909 8.41385C8.79909 8.15741 8.59119 7.9495 8.33474 7.9495H2.64404V6.84185H5.26338C5.51982 6.84185 5.72773 6.63394 5.72773 6.3775C5.72773 6.12106 5.51982 5.91315 5.26338 5.91315H2.64404V4.42166C2.64404 4.41036 2.65325 4.40115 2.66456 4.40115H12.4058V9.64943C12.4058 9.90587 12.6137 10.1138 12.8702 10.1138L18.3598 10.1138C18.5578 11.0167 18.8294 12.4639 19.0606 13.5352C19.0653 13.5568 19.0518 13.5638 19.0278 13.5638Z" fill="#E4E4E7"/>
</svg>
