<svg width="20" height="19" viewBox="0 0 20 19" fill="none" xmlns="http://www.w3.org/2000/svg">
<path d="M18.7007 0.0175781H1.29926C0.582852 0.0175781 0 0.619654 0 1.35969V14.4729C0 15.1702 0.517617 15.7449 1.17676 15.8089V17.6409C1.17676 17.9751 1.4391 18.2461 1.7627 18.2461H5.29297C5.61656 18.2461 5.87891 17.9751 5.87891 17.6409V15.815H14.1211V17.6409C14.1211 17.9751 14.3834 18.2461 14.707 18.2461H18.2373C18.5609 18.2461 18.8232 17.9751 18.8232 17.6409V15.8089C19.4824 15.7448 20 15.1702 20 14.4728V1.35969C20 0.619654 19.4171 0.0175781 18.7007 0.0175781ZM4.70703 17.0356H2.34863V15.815H4.70703V17.0356ZM17.6514 17.0356H15.293V15.815H17.6514V17.0356ZM18.8281 14.4728C18.8281 14.5454 18.771 14.6044 18.7007 14.6044H18.2373H1.7627H1.29926C1.22902 14.6044 1.17188 14.5454 1.17188 14.4728V1.35969C1.17188 1.28714 1.22902 1.2281 1.29926 1.2281H18.7008C18.771 1.2281 18.8282 1.28714 18.8282 1.35969V14.4728H18.8281Z" fill="#E4E4E7" fill-opacity="0.8"/>
<path d="M9.29492 2.63281H3.64062C2.92984 2.63281 2.35156 3.23017 2.35156 3.96439V7.19246C2.35156 7.92669 2.92984 8.52404 3.64062 8.52404H9.29492C10.0057 8.52404 10.584 7.92669 10.584 7.19246V3.96439C10.584 3.23017 10.0057 2.63281 9.29492 2.63281ZM9.41211 7.19246C9.41211 7.2592 9.35953 7.31352 9.29492 7.31352H3.64062C3.57602 7.31352 3.52344 7.2592 3.52344 7.19246V3.96439C3.52344 3.89765 3.57602 3.84334 3.64062 3.84334H9.29492C9.35953 3.84334 9.41211 3.89765 9.41211 3.96439V7.19246Z" fill="#E4E4E7" fill-opacity="0.8"/>
<path d="M14.7051 2.44824C13.0843 2.44824 11.7656 3.81037 11.7656 5.48465C11.7656 7.15893 13.0843 8.52105 14.7051 8.52105C16.3259 8.52105 17.6445 7.15893 17.6445 5.48465C17.6445 3.81037 16.3259 2.44824 14.7051 2.44824ZM14.7051 7.31052C13.7304 7.31052 12.9375 6.49144 12.9375 5.48465C12.9375 4.47785 13.7304 3.65877 14.7051 3.65877C15.6797 3.65877 16.4727 4.47785 16.4727 5.48465C16.4727 6.49144 15.6797 7.31052 14.7051 7.31052Z" fill="#E4E4E7" fill-opacity="0.8"/>
<path d="M15.8818 9.74316C15.43 9.74316 15.0174 9.9199 14.7051 10.2097C14.3928 9.9199 13.9802 9.74316 13.5283 9.74316C12.5564 9.74316 11.7656 10.56 11.7656 11.564C11.7656 12.568 12.5564 13.3848 13.5283 13.3848C13.9802 13.3848 14.3928 13.2081 14.7051 12.9183C15.0174 13.2081 15.43 13.3848 15.8818 13.3848C16.8538 13.3848 17.6445 12.568 17.6445 11.564C17.6445 10.56 16.8538 9.74316 15.8818 9.74316ZM13.5283 12.1743C13.2025 12.1743 12.9375 11.9005 12.9375 11.564C12.9375 11.2275 13.2025 10.9537 13.5283 10.9537C13.8541 10.9537 14.1191 11.2275 14.1191 11.564C14.1191 11.9005 13.8541 12.1743 13.5283 12.1743ZM15.8818 12.1743C15.5561 12.1743 15.291 11.9005 15.291 11.564C15.291 11.2275 15.5561 10.9537 15.8818 10.9537C16.2076 10.9537 16.4727 11.2275 16.4727 11.564C16.4727 11.9005 16.2076 12.1743 15.8818 12.1743Z" fill="#E4E4E7" fill-opacity="0.8"/>
<path d="M9.99805 9.74316H2.9375C2.61391 9.74316 2.35156 10.0142 2.35156 10.3484C2.35156 10.6827 2.61391 10.9537 2.9375 10.9537H9.99805C10.3216 10.9537 10.584 10.6827 10.584 10.3484C10.584 10.0142 10.3216 9.74316 9.99805 9.74316Z" fill="#E4E4E7" fill-opacity="0.8"/>
<path d="M9.99805 12.1719H2.9375C2.61391 12.1719 2.35156 12.4429 2.35156 12.7771C2.35156 13.1114 2.61391 13.3824 2.9375 13.3824H9.99805C10.3216 13.3824 10.584 13.1114 10.584 12.7771C10.584 12.4429 10.3216 12.1719 9.99805 12.1719Z" fill="#E4E4E7" fill-opacity="0.8"/>
</svg>
