<svg width="18" height="24" viewBox="0 0 18 24" fill="none" xmlns="http://www.w3.org/2000/svg">
<path fill-rule="evenodd" clip-rule="evenodd" d="M1.50067 3.0981L1.50067 3.09677C0.671874 3.09677 0 3.79226 0 4.65084V22.4459C0 23.3042 0.669356 24 1.50067 24H12.7741C13.6011 24 14.2718 23.3076 14.2767 22.4516C15.1037 22.4516 15.7744 21.7592 15.7793 20.9032C16.6081 20.9032 17.28 20.2078 17.28 19.362V5.80645V5.41935L12.7722 0H4.5099C3.68072 0 3.00819 0.692425 3.00328 1.54839C2.17631 1.54839 1.50557 2.24081 1.50262 3.09677C1.50261 3.09677 1.50261 3.09678 1.5026 3.09678C1.50262 3.09678 1.50262 3.09677 1.50262 3.09677L1.50067 3.0981ZM1.50258 3.87097C1.08766 3.87097 0.751304 4.22343 0.751304 4.64164V22.4551C0.751304 22.8808 1.09293 23.2258 1.50258 23.2258H12.7722C13.1871 23.2258 13.5235 22.8733 13.5235 22.4551L3.00328 22.4516C2.17197 22.4516 1.50261 21.7558 1.50261 20.8976V3.87097C1.50261 3.87097 1.5026 3.87096 1.50258 3.87095L1.50258 3.87097ZM3.00519 2.32258C2.59027 2.32258 2.25391 2.67504 2.25391 3.09326V20.9067C2.25391 21.3324 2.59554 21.6774 3.00519 21.6774H14.2748C14.6897 21.6774 15.0261 21.325 15.0261 20.9067V20.9032H4.50589C3.67457 20.9032 3.00522 20.2074 3.00522 19.3492V2.32258H3.00519ZM12.0209 0.774194H4.5045C4.0914 0.774194 3.75652 1.12665 3.75652 1.54487V19.3584C3.75652 19.784 4.09815 20.129 4.5078 20.129H15.7774C16.1923 20.129 16.5287 19.7846 16.5287 19.36V6.19355H13.5219C12.6929 6.19355 12.0209 5.50718 12.0209 4.64058V0.774194ZM12.7722 1.16129V4.63836C12.7722 5.06969 13.1108 5.41935 13.521 5.41935H16.3033L12.7722 1.16129Z" fill="#E4E4E7"/>
</svg>
