<svg width="18" height="22" viewBox="0 0 18 22" fill="none" xmlns="http://www.w3.org/2000/svg">
<path d="M8.84145 13.5102C10.0631 13.5102 11.1165 13.6131 12.2086 14.1383C12.0888 13.9748 12.3285 13.8304 12.8503 14.1189C12.9439 13.9241 12.8621 13.6906 12.6676 13.5973C11.4686 13.0207 10.1815 12.7285 8.84145 12.7285C3.9664 12.7285 0 16.6944 0 21.5694C0 21.7855 0.175161 21.9604 0.390984 21.9604H13.2327C13.4485 21.9604 13.0654 21.8509 13.0654 21.6348C13.0654 21.4187 12.4914 21.1785 12.2756 21.1785H0.791612C0.995706 16.9152 4.52838 13.5102 8.84145 13.5102Z" fill="#E4E4E7"/>
<path d="M3.85068 5.24257C3.6849 5.75164 3.5968 6.28155 3.5968 6.82163C3.5968 9.63254 5.88301 11.9193 8.69315 11.9193C11.5043 11.9193 13.7916 9.63254 13.7916 6.82163C13.7916 6.26956 13.7011 5.72818 13.5281 5.20947L14.2459 3.6398C14.3288 3.45812 14.2618 3.24308 14.0898 3.1409L8.89359 0.0547378C8.77082 -0.0182459 8.61703 -0.0182459 8.49453 0.0547378L3.29835 3.1409C3.12814 3.24204 3.06037 3.45421 3.14039 3.63511L3.85068 5.24257ZM8.69315 11.1373C6.31414 11.1373 4.37877 9.20116 4.37877 6.82163C4.37877 6.47209 4.42308 6.12776 4.50519 5.7923C4.51874 5.7936 4.53125 5.79777 4.54507 5.79777H12.8853C12.9663 6.13141 13.0096 6.47391 13.0096 6.82163C13.0093 9.20116 11.0729 11.1373 8.69315 11.1373ZM8.69393 0.845829L13.3883 3.63407L12.7563 5.0158H4.60528L3.9956 3.63641L8.69393 0.845829Z" fill="#E4E4E7"/>
<path d="M15.3385 14.1406C14.3751 13.5382 13.2347 13.3472 12.1275 13.6026C11.0205 13.8578 10.079 14.5293 9.47633 15.4924C8.87369 16.4555 8.68263 17.5954 8.93807 18.7024C9.19325 19.8094 9.86444 20.7509 10.8278 21.3532C11.5277 21.7909 12.3065 21.9994 13.0768 21.9994C14.4953 21.9994 15.8838 21.2917 16.6892 20.0033C17.9328 18.0142 17.327 15.3845 15.3385 14.1406ZM10.1392 15.9071C10.631 15.1207 11.3994 14.5728 12.3034 14.3645C12.5648 14.3043 12.8286 14.2743 13.0903 14.2743C13.7336 14.2743 14.3655 14.4542 14.9238 14.8037C15.8006 15.3522 16.3446 16.2313 16.5028 17.1791H9.6567C9.73021 16.7334 9.89207 16.302 10.1392 15.9071ZM9.69971 18.5269C9.65644 18.339 9.63272 18.15 9.62047 17.9613H12.606V21.183C12.1353 21.1184 11.6703 20.9583 11.242 20.6904C10.4559 20.1988 9.90823 19.4304 9.69971 18.5269ZM16.0264 19.5889C15.4276 20.546 14.4348 21.1067 13.3883 21.2002V17.9613H16.5474C16.5138 18.5212 16.3441 19.0806 16.0264 19.5889Z" fill="#E4E4E7"/>
</svg>
