<svg width="14" height="15" viewBox="0 0 14 15" fill="none" xmlns="http://www.w3.org/2000/svg">
<path d="M10.774 14.0008C10.4767 14.0008 10.2354 13.7595 10.2354 13.4621C10.2354 13.1648 10.4767 12.9235 10.774 12.9235H10.7746C10.7746 12.6261 11.0154 12.3848 11.313 12.3848C11.6106 12.3848 11.8514 12.6261 11.8514 12.9235C11.8514 13.5176 11.3682 14.0008 10.774 14.0008Z" fill="#56CCF2"/>
<path d="M11.3121 13.4621C11.0148 13.4621 10.7734 13.2208 10.7734 12.9234V7.64025C10.7734 7.3429 11.0148 7.10156 11.3121 7.10156C11.6095 7.10156 11.8508 7.3429 11.8508 7.64025V12.9234C11.8508 13.2208 11.6095 13.4621 11.3121 13.4621Z" fill="#56CCF2"/>
<path d="M10.7742 14.0012H1.07775C0.780395 14.0012 0.539062 13.7599 0.539062 13.4625C0.539062 13.1652 0.780395 12.9238 1.07775 12.9238H10.7742C11.0715 12.9238 11.3129 13.1652 11.3129 13.4625C11.3129 13.7599 11.0715 14.0012 10.7742 14.0012Z" fill="#56CCF2"/>
<path d="M1.07738 14.0008C0.483204 14.0008 0 13.5176 0 12.9235C0 12.6261 0.241333 12.3848 0.538689 12.3848C0.836046 12.3848 1.07738 12.6261 1.07738 12.9235V12.9243C1.37474 12.9243 1.61607 13.1651 1.61607 13.4624C1.61607 13.7598 1.37474 14.0008 1.07738 14.0008Z" fill="#56CCF2"/>
<path d="M0.538689 13.4613C0.241333 13.4613 0 13.22 0 12.9226V3.22619C0 2.92883 0.241333 2.6875 0.538689 2.6875C0.836046 2.6875 1.07738 2.92883 1.07738 3.22619V12.9226C1.07738 13.22 0.836046 13.4613 0.538689 13.4613Z" fill="#56CCF2"/>
<path d="M0.53842 3.76646C0.240794 3.76646 0 3.52513 0 3.22777C0 2.6336 0.483204 2.15039 1.07738 2.15039C1.37474 2.15039 1.61607 2.39172 1.61607 2.68908C1.61607 2.98644 1.37474 3.22777 1.07738 3.22777H1.07684C1.07684 3.52513 0.836046 3.76646 0.53842 3.76646Z" fill="#56CCF2"/>
<path d="M6.36095 3.22777H1.07775C0.780395 3.22777 0.539062 2.98644 0.539062 2.68908C0.539062 2.39172 0.780395 2.15039 1.07775 2.15039H6.36095C6.65831 2.15039 6.89964 2.39172 6.89964 2.68908C6.89964 2.98644 6.65857 3.22777 6.36095 3.22777Z" fill="#56CCF2"/>
<path d="M5.90679 6.72709C5.76888 6.72709 5.63098 6.67457 5.52593 6.56926C5.31557 6.3589 5.31557 6.01791 5.52593 5.80755L10.787 0.546441C10.9971 0.336082 11.3387 0.336082 11.5487 0.546441C11.7591 0.756799 11.7591 1.09779 11.5487 1.30815L6.28764 6.56926C6.18259 6.67457 6.04442 6.72709 5.90679 6.72709Z" fill="#56CCF2"/>
<path d="M5.38786 9.15274C5.35042 9.15274 5.31244 9.14897 5.27447 9.14062C4.98357 9.0784 4.79826 8.79182 4.86075 8.5012L5.38086 6.07656C5.44308 5.7854 5.7302 5.59928 6.02055 5.66284C6.31144 5.72506 6.49675 6.01165 6.43426 6.30227L5.91416 8.72691C5.85975 8.97982 5.63647 9.15274 5.38786 9.15274Z" fill="#56CCF2"/>
<path d="M7.81108 8.63139C7.67318 8.63139 7.53527 8.57887 7.43023 8.47355C7.21987 8.2632 7.21987 7.92221 7.43023 7.71185L12.6913 2.45074C12.9014 2.24038 13.243 2.24038 13.453 2.45074C13.6634 2.6611 13.6634 3.00209 13.453 3.21244L8.19194 8.47355C8.08689 8.57887 7.94899 8.63139 7.81108 8.63139Z" fill="#56CCF2"/>
<path d="M5.386 9.15221C5.13739 9.15221 4.9141 8.97929 4.8597 8.72665C4.79748 8.43576 4.98252 8.14917 5.27341 8.08695L7.69805 7.56658C7.98814 7.5049 8.27526 7.68913 8.33774 7.98003C8.39996 8.27092 8.21492 8.5575 7.92403 8.61972L5.49939 9.14009C5.46141 9.14817 5.42343 9.15221 5.386 9.15221Z" fill="#56CCF2"/>
<path d="M12.1209 4.32364C11.983 4.32364 11.8451 4.27112 11.74 4.16581L9.8355 2.26127C9.62514 2.05091 9.62514 1.70992 9.8355 1.49957C10.0456 1.28921 10.3871 1.28921 10.5972 1.49957L12.5017 3.4041C12.7121 3.61446 12.7121 3.95545 12.5017 4.16581C12.3967 4.27112 12.2588 4.32364 12.1209 4.32364Z" fill="#56CCF2"/>
<path d="M13.0726 3.37112C12.9347 3.37112 12.7968 3.3186 12.6915 3.21328C12.4811 3.00292 12.4811 2.66166 12.6915 2.45131C12.8407 2.30236 12.9228 2.09927 12.9228 1.8803C12.9228 1.66132 12.8407 1.45823 12.6915 1.30928C12.3925 1.01004 11.8471 1.01031 11.5487 1.30902C11.3383 1.51937 10.9973 1.51937 10.7867 1.30928C10.5763 1.09893 10.5763 0.757667 10.7867 0.547308C11.1395 0.194197 11.613 0 12.1199 0C12.6268 0 13.1006 0.194467 13.4532 0.547308C13.8058 0.899881 14 1.37312 14 1.8803C14 2.38747 13.8058 2.86098 13.4529 3.21355C13.3484 3.3186 13.2105 3.37112 13.0726 3.37112Z" fill="#56CCF2"/>
</svg>
