<svg width="50" height="30" viewBox="0 0 50 30" fill="none" xmlns="http://www.w3.org/2000/svg">
<path d="M49.2052 9.39169H45.4562C45.0175 9.39169 44.6614 9.74724 44.6614 10.1865V15.762H41.3014L36.2966 9.69425C36.1456 9.51144 35.9209 9.40547 35.6836 9.40547H27.6812V5.22626C27.6812 4.78699 27.3251 4.43143 26.8864 4.43143H19.6301V1.58966H26.9373C27.376 1.58966 27.7321 1.2341 27.7321 0.794828C27.7321 0.355553 27.376 0 26.9373 0H10.7334C10.2941 0 9.93853 0.355553 9.93853 0.794828C9.93853 1.2341 10.2941 1.58966 10.7334 1.58966H18.0405V4.43143H10.7334C10.2941 4.43143 9.93853 4.78699 9.93853 5.22626V9.40547H5.75933C5.32005 9.40547 4.9645 9.76102 4.9645 10.2003V16.0274H1.58966V11.2813C1.58966 10.842 1.2341 10.4864 0.794828 10.4864C0.355553 10.4864 0 10.842 0 11.2813V22.3633C0 22.802 0.355553 23.1581 0.794828 23.1581C1.2341 23.1581 1.58966 22.802 1.58966 22.3633V17.6171H4.9645V24.2778C4.9645 24.7165 5.32005 25.0726 5.75933 25.0726H10.4334L13.2143 28.8231C13.3642 29.025 13.6011 29.1442 13.8528 29.1442H40.9268C41.3655 29.1442 41.7216 28.7882 41.7216 28.3494V20.9999H44.6614V26.4911C44.6614 26.9298 45.0175 27.2859 45.4562 27.2859H49.2052C49.6439 27.2859 50 26.9298 50 26.4911V10.1865C50 9.74777 49.6439 9.39169 49.2052 9.39169ZM40.9268 19.4102C40.488 19.4102 40.1319 19.7663 40.1319 20.2051V27.5546H14.2529L11.472 23.804C11.3221 23.6016 11.0852 23.4829 10.8335 23.4829H6.55415V10.9951H10.7334C11.1726 10.9951 11.5282 10.6396 11.5282 10.2003V6.02109H26.0916V10.2003C26.0916 10.6396 26.4476 10.9951 26.8864 10.9951H35.3089L40.3137 17.0628C40.4647 17.2462 40.6894 17.3522 40.9268 17.3522H44.6614V19.4108H40.9268V19.4102ZM48.4103 25.6963H46.2511V10.9813H48.4103V25.6963Z" fill="#E4E4E7" fill-opacity="0.8"/>
</svg>
