<svg width="20" height="20" viewBox="0 0 20 20" fill="none" xmlns="http://www.w3.org/2000/svg">
<path d="M1.27344 17.6341C1.27344 18.1493 1.6926 18.5685 2.20783 18.5685C2.72306 18.5685 3.14222 18.1493 3.14222 17.6341C3.14222 17.3017 2.96342 16.9918 2.67562 16.8251C2.53399 16.7431 2.3722 16.6997 2.20783 16.6997C1.6926 16.6997 1.27344 17.1189 1.27344 17.6341ZM2.5458 17.6341C2.5458 17.8205 2.39419 17.9721 2.20783 17.9721C2.02147 17.9721 1.86986 17.8205 1.86986 17.6341C1.86986 17.4477 2.02147 17.2961 2.20783 17.2961C2.26739 17.2961 2.32576 17.3117 2.37674 17.3413C2.48103 17.4016 2.5458 17.5139 2.5458 17.6341Z" fill="#E4E4E7"/>
<path d="M4.7508 18.5685C5.26603 18.5685 5.68519 18.1493 5.68519 17.6341C5.68519 17.3017 5.50639 16.9918 5.21859 16.8251C5.07692 16.7431 4.91517 16.6997 4.7508 16.6997C4.23557 16.6997 3.81641 17.1189 3.81641 17.6341C3.81641 18.1493 4.23557 18.5685 4.7508 18.5685ZM4.7508 17.2961C4.81036 17.2961 4.86873 17.3117 4.91971 17.3413C5.024 17.4017 5.08877 17.5139 5.08877 17.6341C5.08877 17.8205 4.93716 17.9721 4.7508 17.9721C4.56444 17.9721 4.41283 17.8205 4.41283 17.6341C4.41283 17.4477 4.56444 17.2961 4.7508 17.2961Z" fill="#E4E4E7"/>
<path d="M7.29768 18.5685C7.8129 18.5685 8.23207 18.1493 8.23207 17.6341C8.23207 17.3017 8.05326 16.9918 7.76547 16.8251C7.6238 16.7431 7.46205 16.6997 7.29768 16.6997C6.78245 16.6997 6.36328 17.1189 6.36328 17.6341C6.36328 18.1493 6.78245 18.5685 7.29768 18.5685ZM7.29768 17.2961C7.35724 17.2961 7.41561 17.3117 7.46658 17.3413C7.57088 17.4017 7.63565 17.5139 7.63565 17.6341C7.63565 17.8205 7.48404 17.9721 7.29768 17.9721C7.11131 17.9721 6.9597 17.8205 6.9597 17.6341C6.9597 17.4477 7.11131 17.2961 7.29768 17.2961Z" fill="#E4E4E7"/>
<path d="M9.84064 18.5685C10.3559 18.5685 10.775 18.1493 10.775 17.6341C10.775 17.3017 10.5962 16.9918 10.3084 16.8251C10.1668 16.7431 10.005 16.6997 9.84064 16.6997C9.32541 16.6997 8.90625 17.1189 8.90625 17.6341C8.90625 18.1493 9.32541 18.5685 9.84064 18.5685ZM9.84064 17.2961C9.90021 17.2961 9.95858 17.3117 10.0095 17.3413C10.1138 17.4017 10.1786 17.5139 10.1786 17.6341C10.1786 17.8205 10.027 17.9721 9.84064 17.9721C9.65428 17.9721 9.50267 17.8205 9.50267 17.6341C9.50267 17.4477 9.65428 17.2961 9.84064 17.2961Z" fill="#E4E4E7"/>
<path d="M2.52477 12.5246H2.84286C3.00756 12.5246 3.14108 12.3911 3.14108 12.2264C3.14108 12.0617 3.00756 11.9282 2.84286 11.9282H2.52477C2.36008 11.9282 2.22656 12.0617 2.22656 12.2264C2.22656 12.3911 2.36008 12.5246 2.52477 12.5246Z" fill="#E4E4E7"/>
<path d="M2.52477 13.479H2.84286C3.00756 13.479 3.14108 13.3455 3.14108 13.1808C3.14108 13.0161 3.00756 12.8826 2.84286 12.8826H2.52477C2.36008 12.8826 2.22656 13.0161 2.22656 13.1808C2.22656 13.3455 2.36008 13.479 2.52477 13.479Z" fill="#E4E4E7"/>
<path d="M19.8735 10.4856L14.8026 0.903667C14.6074 0.465417 14.168 0.158936 13.6581 0.158936C13.231 0.158936 12.8534 0.373926 12.6272 0.701202C12.6267 0.701878 12.6261 0.702435 12.6256 0.70311L7.77328 7.17035C7.70624 7.16164 7.63825 7.15695 7.56954 7.15695H5.38767C4.52167 7.15695 3.8171 7.86152 3.8171 8.72752V10.656H1.88867C1.37344 10.656 0.954274 11.0751 0.954274 11.5903V13.817C0.954274 14.3322 1.37344 14.7514 1.88867 14.7514H4.11531H4.45328V15.4273H2.20676C0.98994 15.4273 0 16.4173 0 17.6341C0 18.8509 0.98994 19.8408 2.20676 19.8408H9.84095C11.0578 19.8408 12.0477 18.8509 12.0477 17.6341C12.0477 16.4173 11.0578 15.4273 9.84095 15.4273H7.59443V14.7514H10.159C10.3237 14.7514 10.4573 14.6179 10.4573 14.4532V13.4791L10.7953 13.479C10.7993 13.479 10.8032 13.4786 10.8072 13.4784C10.8134 13.4782 10.8196 13.4781 10.8257 13.4775C10.8289 13.4771 10.8318 13.4765 10.835 13.4761C10.8417 13.4752 10.8486 13.4743 10.8553 13.473C10.8607 13.4719 10.8659 13.4703 10.8712 13.4689C10.8754 13.4678 10.8797 13.4669 10.8839 13.4656C10.8871 13.4646 10.8902 13.4632 10.8934 13.4621C10.8994 13.46 10.9054 13.4581 10.9113 13.4556C10.9119 13.4553 10.9126 13.4549 10.9133 13.4546C10.9304 13.4472 10.9467 13.4384 10.9619 13.4281C10.9657 13.4255 10.9693 13.4226 10.973 13.4198C10.977 13.4169 10.9811 13.4141 10.9849 13.411C10.9889 13.4076 10.9927 13.4039 10.9965 13.4004C10.9997 13.3975 11.003 13.3948 11.0061 13.3917C11.0089 13.389 11.0113 13.3859 11.014 13.383C11.0178 13.3789 11.0217 13.3749 11.0253 13.3705C11.0266 13.369 11.0278 13.3672 11.029 13.3656C11.0337 13.3597 11.0383 13.3538 11.0425 13.3476C11.0444 13.3447 11.046 13.3417 11.0478 13.3388C11.0511 13.3336 11.0544 13.3284 11.0574 13.323C11.0741 13.2923 11.0852 13.2581 11.0903 13.222C11.0921 13.2085 11.0934 13.1948 11.0934 13.1808V12.0427C11.0934 11.4796 10.9283 10.9343 10.6159 10.4657L10.1433 9.75683L13.4195 4.25651L18.2583 11.4237C18.3713 11.6173 18.5518 11.7666 18.7674 11.8395V12.3319L18.6804 12.1154C18.6509 12.042 18.5935 11.9833 18.5208 11.9523C18.448 11.9212 18.3659 11.9204 18.2925 11.9498L14.2171 13.587L13.515 13.0082C13.388 12.9034 13.2 12.9215 13.0952 13.0486C12.9905 13.1756 13.0085 13.3636 13.1356 13.4684L15.3367 15.283C15.7389 15.6145 16.2365 15.7872 16.7404 15.7872C17.0177 15.7872 17.297 15.7349 17.5631 15.628L18.578 15.2203C19.0155 15.0445 19.2995 14.648 19.3539 14.2102C19.3601 14.1862 19.3638 14.1611 19.3638 14.1351V11.8395C19.7332 11.7147 20 11.3651 20 10.9542C20 10.7835 19.9538 10.6234 19.8735 10.4856ZM3.8171 14.155H1.88867C1.70231 14.155 1.5507 14.0033 1.5507 13.817V11.5903C1.5507 11.404 1.70231 11.2524 1.88867 11.2524H3.8171V14.155ZM18.3556 14.6668L17.3408 15.0745C16.7937 15.2944 16.1711 15.1979 15.7161 14.8228L14.7414 14.0191L18.2381 12.6144L18.7198 13.8135C18.8547 14.1492 18.6913 14.532 18.3556 14.6668ZM13.6581 0.755357C13.9035 0.755357 14.1176 0.891063 14.2301 1.09114C14.2345 1.10295 14.2394 1.11464 14.2455 1.12609L14.2647 1.16239C14.2964 1.23925 14.3141 1.32327 14.3141 1.41142C14.3141 1.5354 14.2789 1.65102 14.2189 1.75003C14.217 1.75297 14.2149 1.75571 14.2131 1.75874L14.2006 1.77969C14.0825 1.95325 13.8834 2.06748 13.6581 2.06748C13.2963 2.06748 13.002 1.77317 13.002 1.41142C13.002 1.04967 13.2963 0.755357 13.6581 0.755357ZM9.84095 16.0237C10.7289 16.0237 11.4513 16.7461 11.4513 17.6341C11.4513 18.522 10.7289 19.2444 9.84095 19.2444H2.20676C1.31881 19.2444 0.596421 18.522 0.596421 17.6341C0.596421 16.7461 1.31881 16.0237 2.20676 16.0237H9.84095ZM5.0497 15.4273V14.7514H6.99801V15.4273H5.0497ZM9.86084 14.155H4.41352V10.9557C4.41352 10.9552 4.4136 10.9547 4.4136 10.9542C4.4136 10.9536 4.41352 10.9531 4.41352 10.9526V8.72752C4.41352 8.29436 4.69777 7.92649 5.08946 7.80025V12.0837C5.08946 12.4385 5.29897 12.7609 5.62318 12.905C6.48012 13.2859 7.39006 13.479 8.32783 13.479H9.86084V14.155ZM10.497 12.0427V12.8826H8.32783C7.97237 12.8826 7.62139 12.8517 7.27634 12.7911V8.72752C7.27634 8.56283 7.14282 8.42931 6.97813 8.42931C6.81344 8.42931 6.67992 8.56283 6.67992 8.72752V12.6545C6.40346 12.5762 6.13157 12.4783 5.86545 12.36C5.75638 12.3115 5.68588 12.2031 5.68588 12.0837V7.75337H7.56958C7.89602 7.75337 8.19905 7.91556 8.38012 8.18717L10.1197 10.7965C10.3666 11.1668 10.497 11.5977 10.497 12.0427ZM9.77674 9.20689L8.87634 7.85631C8.74255 7.6556 8.56712 7.49249 8.366 7.37412L12.4939 1.87245C12.6779 2.33552 13.1302 2.66391 13.6581 2.66391C13.6635 2.66391 13.6688 2.66355 13.6742 2.66351L9.77674 9.20689ZM18.2999 10.4195L13.7569 3.69023L14.7105 2.08927C14.7187 2.07647 14.7269 2.06359 14.7347 2.05047L18.9557 10.0265C18.6849 10.0583 18.4492 10.2064 18.2999 10.4195ZM19.0656 11.2921C18.8792 11.2921 18.7276 11.1405 18.7276 10.9542C18.7276 10.7678 18.8792 10.6162 19.0656 10.6162C19.252 10.6162 19.4036 10.7678 19.4036 10.9542C19.4036 11.1405 19.252 11.2921 19.0656 11.2921Z" fill="#E4E4E7"/>
</svg>
