<svg width="20" height="19" viewBox="0 0 20 19" fill="none" xmlns="http://www.w3.org/2000/svg">
<path d="M4.58855 5.17632H13.7552C13.9855 5.17632 14.1719 4.98948 14.1719 4.75857C14.1719 4.52767 13.9855 4.34082 13.7552 4.34082H4.58855C4.35824 4.34082 4.17188 4.52767 4.17188 4.75857C4.17191 4.98951 4.35828 5.17632 4.58855 5.17632Z" fill="#E4E4E7" fill-opacity="0.8"/>
<path d="M9.58855 9.35449H4.58855C4.35824 9.35449 4.17188 9.54134 4.17188 9.77224C4.17188 10.0031 4.35824 10.19 4.58855 10.19H9.58855C9.81887 10.19 10.0052 10.0031 10.0052 9.77224C10.0052 9.54134 9.81887 9.35449 9.58855 9.35449Z" fill="#E4E4E7" fill-opacity="0.8"/>
<path d="M18.405 1.836C18.3808 1.836 18.3574 1.84207 18.3334 1.84321V1.836C18.3334 0.914461 17.5855 0.165039 16.6667 0.165039H1.66668C0.747891 0.165039 0 0.914461 0 1.836V18.1278C0 18.2967 0.101719 18.4492 0.257148 18.5137C0.308437 18.5353 0.36293 18.5455 0.416641 18.5455C0.524883 18.5455 0.631484 18.5031 0.71125 18.4231L4.75586 14.3681H16.6667C17.5855 14.3681 18.3334 13.6188 18.3334 12.6972V5.76839L19.5329 4.56597C19.5329 4.56597 19.5329 4.56597 19.5329 4.56558C19.8299 4.26779 20 3.85575 20 3.43514C20 2.55319 19.2847 1.836 18.405 1.836ZM17.5 12.6972C17.5 13.1577 17.1264 13.5326 16.6667 13.5326H4.58332C4.47266 13.5326 4.36684 13.5767 4.28871 13.655L0.83332 17.1193V1.836C0.83332 1.37545 1.20687 1.00054 1.66664 1.00054H16.6666C17.1265 1.00054 17.5 1.37545 17.5 1.836V2.12134C17.4209 2.17586 17.3452 2.23582 17.277 2.30431L12.7434 6.84886H4.58332C4.35301 6.84886 4.16664 7.0357 4.16664 7.26661C4.16664 7.49751 4.35301 7.68436 4.58332 7.68436H12.0749L11.6748 9.69107C11.6471 9.82814 11.6903 9.96971 11.7887 10.0684C11.8677 10.1475 11.9743 10.1908 12.0834 10.1908C12.1102 10.1908 12.1379 10.1879 12.1647 10.1826L14.2473 9.76489C14.3286 9.74856 14.4027 9.709 14.4605 9.65065L17.5 6.60377V12.6972ZM13.9608 8.97058L12.6148 9.24065L12.8841 7.88953L16.6665 4.09747L17.7441 5.17785L13.9608 8.97058ZM18.9437 3.97528L18.3333 4.5872L17.2556 3.50673L17.8662 2.89462C18.0078 2.75304 18.2039 2.67147 18.4049 2.67147C18.8248 2.67147 19.1666 3.01414 19.1666 3.43514C19.1667 3.63585 19.0853 3.83292 18.9437 3.97528Z" fill="#E4E4E7" fill-opacity="0.8"/>
</svg>
