<svg width="40" height="52" viewBox="0 0 40 52" fill="none" xmlns="http://www.w3.org/2000/svg">
<rect width="40" height="51.5884" rx="20" transform="matrix(-1 0 0 1 40 0)" fill="white" fill-opacity="0.4"/>
<path d="M17.6167 35.9484C18.9768 33.7908 19.8811 31.2161 20.2417 28.4745C20.2417 27.6298 20.8767 25.2954 19.9167 25.1406C19.0567 25.1987 19.5317 27.4557 19.2567 28.2617C18.973 30.4245 18.3209 32.4793 17.3474 34.2779C16.3738 36.0766 15.1031 37.5743 13.6267 38.6632C13.5123 38.7483 13.4287 38.8883 13.394 39.0526C13.3593 39.2169 13.3765 39.3922 13.4417 39.5402C14.1267 40.8686 17.0817 36.7867 17.6167 35.9484Z" fill="black" fill-opacity="0.6"/>
<path d="M19.8218 36.4824C21.5618 33.4709 24.8518 22.676 19.7118 22.5664C19.0822 22.6283 18.4941 22.9951 18.0656 23.5932C17.6371 24.1913 17.3999 24.9764 17.4018 25.7907C17.4048 27.9443 16.9648 30.0605 16.1268 31.9233C15.1342 34.1377 13.6312 35.8981 11.8268 36.9596C11.767 36.9947 11.7132 37.0447 11.6684 37.1067C11.6237 37.1686 11.5888 37.2413 11.5658 37.3207C11.5194 37.4809 11.5242 37.6584 11.5793 37.814C11.6343 37.9696 11.735 38.0907 11.8593 38.1506C11.9835 38.2104 12.1211 38.2042 12.2418 38.1332C13.5623 37.3548 14.744 36.233 15.7128 34.8382C16.6816 33.4434 17.4166 31.8056 17.8718 30.0274C18.2258 28.6595 18.4048 27.2263 18.4018 25.7842C18.4015 25.2843 18.5512 24.8036 18.8197 24.4429C19.0881 24.0823 19.4544 23.8697 19.8418 23.8497C23.3418 23.9786 20.2518 33.8256 19.0018 35.7408C18.1189 37.3791 17.0247 38.8099 15.7668 39.9711C15.7131 40.0204 15.6675 40.083 15.6326 40.1552C15.5978 40.2273 15.5743 40.3077 15.5636 40.3916C15.5529 40.4755 15.5552 40.5613 15.5703 40.6441C15.5855 40.7268 15.6131 40.8049 15.6518 40.8738C16.4518 42.1055 19.3268 37.3723 19.8218 36.4824Z" fill="black" fill-opacity="0.6"/>
<path d="M23.5866 32.5767C24.1817 30.292 24.4708 27.8932 24.4416 25.4833C24.3666 20.8919 19.8116 18.2545 17.0866 21.2208C13.8766 24.6772 16.9916 29.4363 12.0866 33.7891C11.5514 34.2626 10.9696 34.6421 10.3566 34.9176C10.2945 34.9457 10.2373 34.9895 10.1883 35.0463C10.1393 35.1031 10.0994 35.1718 10.0711 35.2485C10.0428 35.3252 10.0264 35.4084 10.0231 35.4932C10.0198 35.5781 10.0295 35.663 10.0516 35.743C10.6316 37.2261 13.7416 33.8858 14.2516 33.0346C15.6351 31.035 16.3972 28.4469 16.3916 25.7671C16.392 25.0874 16.5113 24.4166 16.7407 23.8047C16.9701 23.1928 17.3037 22.6556 17.7166 22.2332C19.8366 19.9053 23.3916 21.956 23.4466 25.5414C23.4728 28.4063 23.0211 31.2451 22.1222 33.8653C21.2233 36.4854 19.8982 38.8258 18.2366 40.7277C18.1373 40.8407 18.0768 40.9998 18.0683 41.1703C18.0599 41.3408 18.1042 41.5086 18.1916 41.6369C18.9066 42.5655 20.2766 39.7346 20.8066 39.1156C22.0237 37.1633 22.9648 34.9499 23.5866 32.5767Z" fill="black" fill-opacity="0.6"/>
<path d="M26.4611 25.7842C26.5411 17.7816 18.2661 14.3058 14.6511 20.806C13.8186 22.243 13.3711 23.9904 13.3761 25.7842C13.3682 27.3638 12.9562 28.8957 12.204 30.1422C11.4517 31.3887 10.4014 32.28 9.21614 32.6777C9.15185 32.6987 9.09144 32.736 9.03843 32.7874C8.98542 32.8388 8.94086 32.9033 8.90736 32.9771C8.87386 33.0509 8.85207 33.1326 8.84328 33.2174C8.83449 33.3022 8.83886 33.3883 8.85614 33.4709C9.22114 34.6897 10.9011 33.1614 11.4661 32.7809C16.0361 28.9698 12.6961 23.437 16.8411 19.8838C20.3411 16.6595 25.6061 20.2836 25.4611 25.8036C25.4577 31.3148 23.8909 36.6339 21.0561 40.7578C20.986 40.8499 20.939 40.9669 20.921 41.0939C20.903 41.2208 20.915 41.3518 20.9554 41.4699C20.9958 41.588 21.0627 41.6877 21.1476 41.7562C21.2324 41.8247 21.3311 41.8587 21.4311 41.854C24.8461 38.0171 26.3861 31.5364 26.4611 25.7842Z" fill="black" fill-opacity="0.6"/>
<path d="M25.0918 17.035C21.0318 12.8434 14.4518 14.8296 12.2518 20.9041C10.7268 24.2832 12.3868 29.2292 8.42182 30.2545C8.35616 30.2685 8.29327 30.299 8.23676 30.3443C8.18024 30.3897 8.1312 30.4489 8.09243 30.5186C8.05366 30.5884 8.02593 30.6673 8.01081 30.7509C7.99569 30.8345 7.99349 30.9211 8.00432 31.0058C8.01515 31.0905 8.03881 31.1716 8.07395 31.2445C8.10909 31.3174 8.15501 31.3806 8.2091 31.4306C8.26319 31.4806 8.32439 31.5164 8.3892 31.5359C8.45401 31.5554 8.52116 31.5582 8.58682 31.5442C9.6387 31.3124 10.5936 30.61 11.284 29.5605C11.9743 28.5109 12.3559 27.1813 12.3618 25.805C12.3658 23.7936 12.8517 21.833 13.7531 20.1915C14.6544 18.55 15.927 17.3079 17.3968 16.6352C22.0818 14.3008 27.6318 19.2855 27.4718 25.7857C27.4744 30.7477 26.3365 35.5993 24.2018 39.7275C24.1652 39.7981 24.1398 39.8774 24.127 39.9607C24.1142 40.0441 24.1143 40.1299 24.1273 40.2132C24.1404 40.2965 24.166 40.3756 24.2028 40.4461C24.2396 40.5166 24.2869 40.577 24.3418 40.6238C25.2418 41.4363 26.5518 36.716 26.9368 35.8261C28.8118 29.7967 29.7418 21.3878 25.0918 17.035Z" fill="black" fill-opacity="0.6"/>
<path d="M8.90718 17.9497C8.52718 18.8977 6.76718 23.5019 7.90718 23.8437C7.97366 23.8613 8.04223 23.8613 8.1087 23.8436C8.17518 23.826 8.23817 23.791 8.29384 23.741C8.34951 23.6909 8.39669 23.6267 8.4325 23.5524C8.46832 23.478 8.49203 23.395 8.50218 23.3085C8.83004 20.7865 9.66052 18.4176 10.9122 16.4343C17.7022 5.61366 31.5022 11.8236 31.5022 25.7847C31.5024 27.2983 31.3237 28.8031 30.9722 30.2471C30.952 30.328 30.9444 30.4132 30.9498 30.4979C30.9552 30.5826 30.9735 30.665 31.0037 30.7405C31.0339 30.816 31.0754 30.8831 31.1258 30.9378C31.1761 30.9926 31.2344 31.034 31.2972 31.0597C32.4022 31.4466 32.4472 26.7585 32.5022 25.7847C32.4072 9.14747 15.2172 3.49854 8.90718 17.9497Z" fill="black" fill-opacity="0.6"/>
<path d="M26.8316 15.5196C21.4566 9.16134 11.9566 12.5275 9.8766 21.5426C9.525 22.9113 9.34606 24.3439 9.3466 25.7857C9.34771 26.2741 9.20556 26.745 8.94867 27.1038C8.69178 27.4626 8.33916 27.6828 7.9616 27.7203C7.82899 27.734 7.70603 27.815 7.61976 27.9456C7.53349 28.0762 7.49099 28.2457 7.5016 28.4167C7.51221 28.5878 7.57506 28.7463 7.67633 28.8576C7.7776 28.9689 7.90899 29.0237 8.0416 29.01C11.0416 28.5779 10.0416 24.5347 10.8266 21.9488C15.6916 5.82744 35.5916 13.7527 27.6966 36.8837C27.6516 37.0383 27.6542 37.2093 27.704 37.3614C27.7539 37.5135 27.847 37.6352 27.9644 37.7014C28.0817 37.7675 28.2142 37.7731 28.3347 37.7169C28.4551 37.6608 28.5542 37.5472 28.6116 37.3996C29.8549 33.7404 30.4935 29.7873 30.4866 25.7922C30.489 23.841 30.1635 21.9123 29.5325 20.139C28.9016 18.3656 27.9801 16.7896 26.8316 15.5196Z" fill="black" fill-opacity="0.6"/>
</svg>
