<svg width="20" height="17" viewBox="0 0 20 17" fill="none" xmlns="http://www.w3.org/2000/svg">
<path d="M19.9303 5.40747C19.8653 5.301 19.7632 5.23842 19.6552 5.23842H17.7012V2.59741C17.7012 2.36295 17.5469 2.17295 17.3568 2.17267L7.14828 2.1571L5.49793 0.124306C5.43333 0.0447387 5.34552 0 5.25402 0H0.344828C0.154483 0 0 0.190282 0 0.424737V15.7153C0 15.9497 0.154483 16.14 0.344828 16.14H17.3092C17.4772 16.14 17.617 15.9913 17.6476 15.7951C17.6639 15.7625 17.6791 15.7289 17.688 15.6903L19.9869 5.77982C20.0163 5.65183 19.9956 5.51393 19.9303 5.40747ZM5.11127 0.849474L6.76138 2.88198C6.82575 2.96155 6.91333 3.006 7.00483 3.00629L17.0115 3.02158V5.23842H2.64368C2.48966 5.23842 2.35448 5.36414 2.31218 5.5465L0.689655 12.5411V0.849474H5.11127ZM17.0634 15.2905H0.769195L2.90391 6.08789H19.1982L17.0634 15.2905Z" fill="#E4E4E7" fill-opacity="0.4"/>
</svg>
