<svg width="20" height="21" viewBox="0 0 20 21" fill="none" xmlns="http://www.w3.org/2000/svg">
<path d="M19.4968 0H0.502675C0.224673 0 0.00390625 0.224855 0.00390625 0.498769V9.60743C0.00390625 9.88543 0.228761 10.1062 0.502675 10.1062C0.776589 10.1062 1.00553 9.88134 1.00553 9.60743V1.00163H19.0021V18.9982H10.339C10.061 18.9982 9.83619 19.223 9.83619 19.501C9.83619 19.779 10.061 20.0039 10.339 20.0039H19.4968C19.7748 20.0039 19.9996 19.779 19.9996 19.501V0.502857C19.9996 0.224855 19.7748 0 19.4968 0Z" fill="white" fill-opacity="0.8"/>
<path d="M0 19.4964C0 19.7744 0.224855 19.9993 0.498769 19.9993H7.46518C7.74318 19.9993 7.96803 19.7744 7.96803 19.4964V12.5341C7.96803 12.2561 7.74318 12.0312 7.46518 12.0312H0.502857C0.224855 12.0312 0.00408827 12.2561 0.00408827 12.5341V19.4964H0ZM1.00163 13.0329H6.96641V18.9977H1.00163V13.0329Z" fill="white" fill-opacity="0.8"/>
<path d="M9.11202 10.8871C9.21014 10.9853 9.33688 11.0343 9.4677 11.0343C9.59853 11.0343 9.72526 10.9853 9.82338 10.8871L15.4897 5.21671V8.48323C15.4897 8.76124 15.7146 8.98609 15.9926 8.98609C16.2706 8.98609 16.4954 8.76124 16.4954 8.48323V4.01067C16.4954 3.73267 16.2706 3.50781 15.9926 3.50781H11.5159C11.2379 3.50781 11.0131 3.73267 11.0131 4.01067C11.0131 4.28867 11.2379 4.51353 11.5159 4.51353H14.7824L9.11202 10.1799C8.91578 10.3761 8.91578 10.6909 9.11202 10.8871Z" fill="white" fill-opacity="0.8"/>
</svg>
