<svg width="20" height="20" viewBox="0 0 20 20" fill="none" xmlns="http://www.w3.org/2000/svg">
<path d="M19.1083 19.9469H12.6115C12.1444 19.9469 11.7622 19.5648 11.7622 19.0977V15.0637C11.7622 14.0446 10.9554 13.2378 9.93631 13.2378C8.9172 13.2378 8.1104 14.0446 8.1104 15.0637V19.0977C8.1104 19.5648 7.72824 19.9469 7.26115 19.9469H0.849257C0.382166 19.9469 0 19.5648 0 19.0977V8.22718C0 7.46285 0.382166 6.74098 0.976645 6.31635L9.51168 0.159236C9.80892 -0.0530786 10.1911 -0.0530786 10.4883 0.159236L19.0234 6.31635C19.6178 6.74098 20 7.46285 20 8.22718V19.1401C19.9575 19.5648 19.5754 19.9469 19.1083 19.9469V19.9469ZM13.4607 18.2909H18.3015V8.22718C18.3015 8.01486 18.1741 7.80255 18.0042 7.67516L9.97877 1.85775L1.95329 7.6327C1.78344 7.76009 1.65605 7.9724 1.65605 8.18471V18.2484H6.49682V15.0637C6.49682 13.1529 8.06794 11.5817 9.97877 11.5817C11.8896 11.5817 13.4607 13.1529 13.4607 15.0637V18.2909Z" fill="white" fill-opacity="0.8"/>
</svg>
