<svg width="26" height="26" viewBox="0 0 26 26" fill="none" xmlns="http://www.w3.org/2000/svg">
<path d="M24.375 23.7655H22.7784V12.9999C22.7784 12.8383 22.7143 12.6833 22.6 12.569C22.4857 12.4547 22.3307 12.3905 22.1691 12.3905H18.59V5.28117C18.5905 5.15474 18.5517 5.03132 18.4788 4.92793C18.406 4.82458 18.3029 4.74642 18.1838 4.70429L7.74719 1.04804C7.65525 1.0169 7.55723 1.00803 7.46115 1.02215C7.36511 1.03628 7.27378 1.073 7.19469 1.12929C7.11514 1.18508 7.05035 1.25931 7.00578 1.34563C6.96118 1.43195 6.93818 1.52778 6.93875 1.62492V8.19804H3.83094C3.66932 8.19804 3.51432 8.26223 3.40004 8.37651C3.28577 8.49079 3.22156 8.64581 3.22156 8.80742V23.7655H1.625C1.46339 23.7655 1.30839 23.8297 1.19411 23.944C1.07983 24.0583 1.01562 24.2133 1.01562 24.3749C1.01562 24.5365 1.07983 24.6916 1.19411 24.8058C1.30839 24.9201 1.46339 24.9843 1.625 24.9843H24.375C24.5366 24.9843 24.6916 24.9201 24.8059 24.8058C24.9202 24.6916 24.9844 24.5365 24.9844 24.3749C24.9844 24.2133 24.9202 24.0583 24.8059 23.944C24.6916 23.8297 24.5366 23.7655 24.375 23.7655ZM8.1575 2.48617L17.3713 5.71179V12.3905H15.0597C14.8981 12.3905 14.7431 12.4547 14.6288 12.569C14.5145 12.6833 14.4503 12.8383 14.4503 12.9999V23.7655H11.8787V8.80742C11.8787 8.64581 11.8146 8.49079 11.7003 8.37651C11.586 8.26223 11.431 8.19804 11.2694 8.19804H8.1575V2.48617ZM4.44031 9.41679H10.66V23.7655H4.44031V9.41679ZM15.6691 23.7655V13.6093H21.5597V23.7655H15.6691Z" fill="#E4E4E7" fill-opacity="0.8"/>
</svg>