<svg width="20" height="18" viewBox="0 0 20 18" fill="none" xmlns="http://www.w3.org/2000/svg">
<path d="M7.45792 8.78775C7.74083 8.43192 7.91667 7.98817 7.91667 7.49984C7.91667 6.35109 6.98208 5.4165 5.83333 5.4165C4.68458 5.4165 3.75 6.35109 3.75 7.49984C3.75 7.98817 3.92583 8.43192 4.20875 8.78775C3.23875 8.96525 2.5 9.81275 2.5 10.8332V13.7498H9.16667V10.8332C9.16667 9.81275 8.42792 8.96525 7.45792 8.78775ZM5.83333 6.24984C6.5225 6.24984 7.08333 6.81067 7.08333 7.49984C7.08333 8.189 6.5225 8.74984 5.83333 8.74984C5.14417 8.74984 4.58333 8.189 4.58333 7.49984C4.58333 6.81067 5.14417 6.24984 5.83333 6.24984ZM8.33333 12.9165H3.33333V10.8332C3.33333 10.144 3.89417 9.58317 4.58333 9.58317H7.08333C7.7725 9.58317 8.33333 10.144 8.33333 10.8332V12.9165Z" fill="#E4E4E7" fill-opacity="0.8"/>
<path d="M13.3346 6.6665H10.418V7.49984H13.3346V6.6665Z" fill="#E4E4E7" fill-opacity="0.8"/>
<path d="M17.4987 6.6665H14.582V7.49984H17.4987V6.6665Z" fill="#E4E4E7" fill-opacity="0.8"/>
<path d="M11.668 8.75H10.418V9.58333H11.668V8.75Z" fill="#E4E4E7" fill-opacity="0.8"/>
<path d="M17.5013 8.75H12.918V9.58333H17.5013V8.75Z" fill="#E4E4E7" fill-opacity="0.8"/>
<path d="M13.7513 10.8335H10.418V11.6668H13.7513V10.8335Z" fill="#E4E4E7" fill-opacity="0.8"/>
<path d="M17.4987 10.8335H15.832V11.6668H17.4987V10.8335Z" fill="#E4E4E7" fill-opacity="0.8"/>
<path d="M11.2513 12.9165H10.418V13.7498H11.2513V12.9165Z" fill="#E4E4E7" fill-opacity="0.8"/>
<path d="M12.9154 12.9165H12.082V13.7498H12.9154V12.9165Z" fill="#E4E4E7" fill-opacity="0.8"/>
<path d="M14.5833 12.9165H13.75V13.7498H14.5833V12.9165Z" fill="#E4E4E7" fill-opacity="0.8"/>
<path d="M17.5013 12.9165H16.668V13.7498H17.5013V12.9165Z" fill="#E4E4E7" fill-opacity="0.8"/>
<path d="M11.6667 0H8.33333V2.5H0V17.5H20V2.5H11.6667V0ZM9.16667 0.833333H10.8333V2.5V4.16667H9.16667V2.5V0.833333ZM19.1667 3.33333V16.6667H0.833333V3.33333H8.33333V5H11.6667V3.33333H19.1667Z" fill="#E4E4E7" fill-opacity="0.8"/>
</svg>
