<svg width="26" height="24" viewBox="0 0 26 24" fill="none" xmlns="http://www.w3.org/2000/svg">
<path d="M22.5079 11.5632C22.4699 11.5028 22.4171 11.453 22.3546 11.4186C22.292 11.3842 22.2218 11.3663 22.1504 11.3665H18.5289V9.26095C18.5289 9.14927 18.4845 9.04216 18.4055 8.96318C18.3265 8.88421 18.2194 8.83984 18.1077 8.83984H5.47443C5.36275 8.83984 5.25564 8.88421 5.17666 8.96318C5.09769 9.04216 5.05332 9.14927 5.05332 9.26095V10.5243H3.36888C3.2572 10.5243 3.15009 10.5687 3.07111 10.6476C2.99214 10.7266 2.94777 10.8337 2.94777 10.9454C2.94777 11.0571 2.99214 11.1642 3.07111 11.2432C3.15009 11.3221 3.2572 11.3665 3.36888 11.3665H5.05332V15.1565H0.42111C0.309425 15.1565 0.202314 15.2009 0.12334 15.2798C0.0443668 15.3588 0 15.4659 0 15.5776C0 15.6893 0.0443668 15.7964 0.12334 15.8754C0.202314 15.9544 0.309425 15.9987 0.42111 15.9987H5.05332V20.2098H1.26333C1.15165 20.2098 1.04453 20.2542 0.965561 20.3332C0.886588 20.4121 0.842221 20.5192 0.842221 20.6309C0.842221 20.7426 0.886588 20.8497 0.965561 20.9287C1.04453 21.0077 1.15165 21.052 1.26333 21.052H5.05332V21.8943C5.05332 22.0059 5.09769 22.1131 5.17666 22.192C5.25564 22.271 5.36275 22.3154 5.47443 22.3154H7.21867C7.30376 22.6424 7.4858 22.936 7.74085 23.1576H0.42111C0.309425 23.1576 0.202314 23.202 0.12334 23.2809C0.0443668 23.3599 0 23.467 0 23.5787C0 23.6904 0.0443668 23.7975 0.12334 23.8765C0.202314 23.9554 0.309425 23.9998 0.42111 23.9998H24.8455C24.9572 23.9998 25.0643 23.9554 25.1433 23.8765C25.2223 23.7975 25.2666 23.6904 25.2666 23.5787C25.2666 23.467 25.2223 23.3599 25.1433 23.2809C25.0643 23.202 24.9572 23.1576 24.8455 23.1576H22.5808C22.8358 22.936 23.0179 22.6424 23.103 22.3154H24.8455C24.9572 22.3154 25.0643 22.271 25.1433 22.192C25.2223 22.1131 25.2666 22.0059 25.2666 21.8943V16.0636C25.2666 15.9841 25.2441 15.9063 25.2018 15.8391L22.5079 11.5632ZM7.22036 21.4732H5.89554V9.68206H17.6866V21.4732H10.4696C10.3777 21.112 10.1681 20.7918 9.87389 20.5631C9.57968 20.3344 9.21765 20.2102 8.845 20.2102C8.47235 20.2102 8.11032 20.3344 7.81611 20.5631C7.5219 20.7918 7.31227 21.112 7.22036 21.4732ZM9.68554 21.8943C9.68554 22.0608 9.63614 22.2237 9.5436 22.3622C9.45105 22.5007 9.31952 22.6086 9.16562 22.6724C9.01172 22.7361 8.84238 22.7528 8.67901 22.7203C8.51563 22.6878 8.36556 22.6076 8.24778 22.4898C8.12999 22.372 8.04978 22.2219 8.01728 22.0586C7.98478 21.8952 8.00146 21.7259 8.06521 21.572C8.12895 21.4181 8.2369 21.2865 8.3754 21.194C8.51391 21.1014 8.67674 21.052 8.84332 21.052C9.06669 21.052 9.28091 21.1408 9.43886 21.2987C9.5968 21.4567 9.68554 21.6709 9.68554 21.8943ZM9.94578 23.1576C10.2008 22.936 10.3829 22.6424 10.468 22.3154H19.8537C19.9388 22.6424 20.1208 22.936 20.3758 23.1576H9.94578ZM20.6344 21.8943C20.6344 21.7277 20.6838 21.5649 20.7763 21.4264C20.8689 21.2878 21.0004 21.1799 21.1543 21.1162C21.3082 21.0524 21.4776 21.0357 21.6409 21.0682C21.8043 21.1007 21.9544 21.1809 22.0722 21.2987C22.19 21.4165 22.2702 21.5666 22.3027 21.73C22.3352 21.8933 22.3185 22.0627 22.2547 22.2166C22.191 22.3705 22.083 22.502 21.9445 22.5945C21.806 22.6871 21.6432 22.7365 21.4766 22.7365C21.2533 22.7365 21.039 22.6478 20.8811 22.4898C20.7231 22.3319 20.6344 22.1176 20.6344 21.8943ZM24.4244 21.4732H23.103C23.011 21.112 22.8014 20.7918 22.5072 20.5631C22.213 20.3344 21.851 20.2102 21.4783 20.2102C21.1057 20.2102 20.7436 20.3344 20.4494 20.5631C20.1552 20.7918 19.9456 21.112 19.8537 21.4732H18.5289V12.2087H21.9179L24.4244 16.1853V21.4732Z" fill="#E4E4E7" fill-opacity="0.8"/>
<path d="M10.1067 14.3144H13.724L12.7597 15.28C12.7194 15.3189 12.6874 15.3653 12.6653 15.4167C12.6432 15.4681 12.6316 15.5234 12.6311 15.5793C12.6306 15.6352 12.6413 15.6906 12.6625 15.7424C12.6836 15.7941 12.7149 15.8412 12.7544 15.8807C12.794 15.9202 12.841 15.9515 12.8927 15.9727C12.9445 15.9939 12.9999 16.0045 13.0559 16.004C13.1118 16.0035 13.167 15.9919 13.2184 15.9699C13.2698 15.9478 13.3163 15.9157 13.3551 15.8755L15.0395 14.191C15.0788 14.1519 15.1099 14.1055 15.1311 14.0543C15.1523 14.0031 15.1633 13.9483 15.1633 13.8929C15.1633 13.8375 15.1523 13.7827 15.1311 13.7315C15.1099 13.6803 15.0788 13.6339 15.0395 13.5947L13.3551 11.9103C13.276 11.8313 13.1688 11.787 13.0571 11.7871C12.9453 11.7872 12.8382 11.8317 12.7592 11.9107C12.6803 11.9898 12.636 12.097 12.636 12.2088C12.6361 12.3205 12.6806 12.4276 12.7597 12.5066L13.724 13.4722H10.1067C9.99497 13.4722 9.88786 13.5166 9.80889 13.5955C9.72991 13.6745 9.68555 13.7816 9.68555 13.8933C9.68555 14.005 9.72991 14.1121 9.80889 14.1911C9.88786 14.2701 9.99497 14.3144 10.1067 14.3144Z" fill="#E4E4E7" fill-opacity="0.8"/>
<path d="M8.12762 17.5609L9.81206 19.2454C9.89149 19.3221 9.99786 19.3645 10.1083 19.3636C10.2187 19.3626 10.3243 19.3183 10.4024 19.2402C10.4805 19.1622 10.5248 19.0566 10.5257 18.9461C10.5267 18.8357 10.4842 18.7294 10.4075 18.6499L9.44064 17.6839H13.0546C13.1663 17.6839 13.2734 17.6395 13.3524 17.5606C13.4314 17.4816 13.4757 17.3745 13.4757 17.2628C13.4757 17.1511 13.4314 17.044 13.3524 16.965C13.2734 16.886 13.1663 16.8417 13.0546 16.8417H9.44064L10.4063 15.8761C10.4789 15.796 10.518 15.6911 10.5155 15.5831C10.5129 15.475 10.4689 15.3721 10.3926 15.2955C10.3162 15.219 10.2134 15.1748 10.1053 15.172C9.99724 15.1692 9.89225 15.2081 9.81206 15.2806L8.12762 16.9651C8.08841 17.0042 8.05729 17.0507 8.03606 17.1018C8.01483 17.153 8.00391 17.2078 8.00391 17.2632C8.00391 17.3186 8.01483 17.3734 8.03606 17.4246C8.05729 17.4758 8.08841 17.5222 8.12762 17.5614V17.5609Z" fill="#E4E4E7" fill-opacity="0.8"/>
<path d="M1.26291 11.3676H1.68402C1.7957 11.3676 1.90281 11.3232 1.98179 11.2443C2.06076 11.1653 2.10513 11.0582 2.10513 10.9465C2.10513 10.8348 2.06076 10.7277 1.98179 10.6487C1.90281 10.5698 1.7957 10.5254 1.68402 10.5254H1.26291C1.15122 10.5254 1.04411 10.5698 0.965137 10.6487C0.886164 10.7277 0.841797 10.8348 0.841797 10.9465C0.841797 11.0582 0.886164 11.1653 0.965137 11.2443C1.04411 11.3232 1.15122 11.3676 1.26291 11.3676Z" fill="#E4E4E7" fill-opacity="0.8"/>
<path d="M20.6344 17.2617H19.7922C19.6805 17.2617 19.5734 17.3061 19.4944 17.3851C19.4155 17.464 19.3711 17.5711 19.3711 17.6828C19.3711 17.7945 19.4155 17.9016 19.4944 17.9806C19.5734 18.0596 19.6805 18.1039 19.7922 18.1039H20.6344C20.7461 18.1039 20.8532 18.0596 20.9322 17.9806C21.0112 17.9016 21.0555 17.7945 21.0555 17.6828C21.0555 17.5711 21.0112 17.464 20.9322 17.3851C20.8532 17.3061 20.7461 17.2617 20.6344 17.2617Z" fill="#E4E4E7" fill-opacity="0.8"/>
<path d="M21.2661 13.0508H19.7922C19.6805 13.0508 19.5734 13.0951 19.4944 13.1741C19.4155 13.2531 19.3711 13.3602 19.3711 13.4719V15.9986C19.3711 16.1102 19.4155 16.2174 19.4944 16.2963C19.5734 16.3753 19.6805 16.4197 19.7922 16.4197H22.74C22.8138 16.4195 22.8863 16.3999 22.9502 16.3629C23.0141 16.3259 23.0672 16.2727 23.104 16.2087C23.1409 16.1447 23.1603 16.0722 23.1602 15.9983C23.1602 15.9245 23.1407 15.852 23.1038 15.788L21.6299 13.2613C21.593 13.1974 21.54 13.1444 21.4762 13.1074C21.4123 13.0705 21.3399 13.0509 21.2661 13.0508ZM20.2133 15.5774V13.893H21.0261L22.0085 15.5774H20.2133Z" fill="#E4E4E7" fill-opacity="0.8"/>
<path d="M24.7637 0.597761C23.9182 0.768271 23.0396 0.615289 22.3015 0.169071L22.1166 0.0574769C22.1049 0.0516784 22.093 0.046478 22.0808 0.0418958C22.0686 0.0360003 22.0564 0.0309469 22.0437 0.0258936C21.9503 -0.0086312 21.8475 -0.0086312 21.754 0.0258936C21.7414 0.0309469 21.7292 0.0360003 21.717 0.0418958C21.7048 0.046478 21.6928 0.0516784 21.6812 0.0574769L21.4963 0.169071C20.7582 0.615787 19.8793 0.768799 19.0337 0.597761C18.9725 0.585271 18.9093 0.586547 18.8486 0.601497C18.788 0.616447 18.7314 0.644697 18.6831 0.6842C18.6347 0.723703 18.5957 0.773471 18.5689 0.829898C18.5422 0.886324 18.5283 0.947997 18.5283 1.01045V5.25103C18.5283 5.84838 18.6898 6.43462 18.9958 6.94768C19.3491 7.54295 19.8823 8.01066 20.5185 8.28345L21.7304 8.80562C21.7827 8.82812 21.839 8.83973 21.8959 8.83973C21.9529 8.83973 22.0092 8.82812 22.0614 8.80562L23.2738 8.28345C23.91 8.01066 24.4432 7.54295 24.7965 6.94768C25.1032 6.43483 25.2655 5.84858 25.2661 5.25103V1.01045C25.2661 0.947997 25.2522 0.886324 25.2255 0.829898C25.1987 0.773471 25.1597 0.723703 25.1113 0.6842C25.063 0.644697 25.0064 0.616447 24.9458 0.601497C24.8851 0.586547 24.8219 0.585271 24.7608 0.597761H24.7637ZM19.7205 6.51605C19.4928 6.13396 19.3725 5.6975 19.3722 5.25272V1.49431C20.094 1.55175 20.8186 1.42466 21.4778 1.12499V7.77853L20.8533 7.50945C20.38 7.30658 19.9834 6.95875 19.7205 6.51605ZM24.4255 5.25272C24.4253 5.6975 24.305 6.13396 24.0773 6.51605C23.8144 6.9589 23.4178 7.30689 22.9445 7.50987L22.3183 7.77896V1.12499C22.9775 1.42463 23.7021 1.55172 24.4239 1.49431L24.4255 5.25272Z" fill="#E4E4E7" fill-opacity="0.8"/>
</svg>
