<svg width="25" height="14" viewBox="0 0 25 14" fill="none" xmlns="http://www.w3.org/2000/svg">
<path d="M12.1375 14C18.6555 14 23.8135 7.58351 24.0295 7.31051L24.275 7.00001L24.0295 6.68951C23.8135 6.41651 18.6555 0 12.1375 0C5.6195 0 0.4615 6.41651 0.2455 6.68951L0 7.00001L0.2455 7.31051C0.4615 7.58351 5.6195 14 12.1375 14ZM12.1375 1C17.3845 1 21.8725 5.73001 22.9825 7.00001C21.874 8.27101 17.392 13 12.1375 13C6.89051 13 2.4025 8.27001 1.2925 7.00001C2.401 5.72901 6.88301 1 12.1375 1Z" fill="#E4E4E7"/>
<path d="M12.1377 11.5C14.6192 11.5 16.6377 9.48101 16.6377 7C16.6377 4.519 14.6192 2.5 12.1377 2.5C9.6562 2.5 7.6377 4.519 7.6377 7C7.6377 9.48101 9.6562 11.5 12.1377 11.5ZM12.1377 3.5C14.0672 3.5 15.6377 5.07 15.6377 7C15.6377 8.93001 14.0672 10.5 12.1377 10.5C10.2082 10.5 8.6377 8.93001 8.6377 7C8.6377 5.07 10.2082 3.5 12.1377 3.5Z" fill="#E4E4E7"/>
</svg>