<svg width="16" height="16" viewBox="0 0 16 16" fill="none" xmlns="http://www.w3.org/2000/svg">
<path d="M8 0C3.57841 0 0 3.578 0 8C0 12.4215 3.578 16 8 16C12.4216 16 16 12.422 16 8C16 3.57847 12.422 0 8 0ZM8 14.8837C4.20431 14.8837 1.11628 11.7957 1.11628 8C1.11628 4.20428 4.20431 1.11628 8 1.11628C11.7957 1.11628 14.8837 4.20428 14.8837 8C14.8837 11.7957 11.7957 14.8837 8 14.8837Z" fill="#56CCF2"/>
<path d="M8.0003 6.66797C7.52642 6.66797 7.18945 6.86809 7.18945 7.16294V11.175C7.18945 11.4278 7.52642 11.6804 8.0003 11.6804C8.45311 11.6804 8.82164 11.4278 8.82164 11.175V7.16287C8.82164 6.86806 8.45311 6.66797 8.0003 6.66797Z" fill="#56CCF2"/>
<path d="M8.00019 4.19531C7.51578 4.19531 7.13672 4.54281 7.13672 4.94297C7.13672 5.34316 7.51581 5.70119 8.00019 5.70119C8.47406 5.70119 8.85319 5.34316 8.85319 4.94297C8.85319 4.54281 8.47403 4.19531 8.00019 4.19531Z" fill="#56CCF2"/>
</svg>
