<svg width="12" height="13" viewBox="0 0 12 13" fill="none" xmlns="http://www.w3.org/2000/svg">
<path d="M10.2445 1.81213C7.90392 -0.528522 4.0961 -0.528522 1.75547 1.81213C-0.585157 4.15226 -0.585157 7.96112 1.75547 10.3013C2.92554 11.4718 4.46277 12.0566 6 12.0566C7.53723 12.0566 9.07448 11.4718 10.2445 10.3013C12.5852 7.96112 12.5852 4.15226 10.2445 1.81213ZM6 10.0587C5.72387 10.0587 5.49977 9.83455 5.49977 9.55841C5.49977 9.28228 5.72387 9.05818 6 9.05818C6.27613 9.05818 6.50023 9.28228 6.50023 9.55841C6.50023 9.83455 6.27613 10.0587 6 10.0587ZM6.50025 7.55742C6.50025 7.83356 6.27665 8.05766 6.00002 8.05766C5.7234 8.05766 5.49979 7.83356 5.49979 7.55742V2.55499C5.49979 2.27886 5.7234 2.05475 6.00002 2.05475C6.27665 2.05475 6.50025 2.27886 6.50025 2.55499V7.55742Z" fill="#E0A515"/>
</svg>
