<svg width="24" height="24" viewBox="0 0 24 24" fill="none" xmlns="http://www.w3.org/2000/svg">
<path d="M6.00009 17.625H6.50222L3.41859 23.4495C3.35709 23.5658 3.36084 23.7056 3.42872 23.8181C3.49659 23.931 3.61847 24 3.75009 24H20.2501C20.3817 24 20.5036 23.931 20.5711 23.8185C20.6393 23.706 20.6427 23.5661 20.5812 23.4499L17.498 17.625H18.0001C18.2075 17.625 18.3751 17.457 18.3751 17.25V5.25C18.3751 3.8025 17.1972 2.625 15.7501 2.625H14.2501V0.75H16.5001V0H7.50009V0.75H9.75009V2.625H8.25009C6.80297 2.625 5.62509 3.8025 5.62509 5.25V17.25C5.62509 17.457 5.79272 17.625 6.00009 17.625ZM7.35122 17.625H8.37759L5.39972 23.25H4.37334L7.35122 17.625ZM14.7743 17.625L17.7522 23.25H6.24797L9.22584 17.625H14.7743ZM19.6272 23.25H18.6008L15.623 17.625H16.6493L19.6272 23.25ZM10.5001 0.75H13.5001V2.625H10.5001V0.75ZM6.37509 5.25C6.37509 4.21613 7.21622 3.375 8.25009 3.375H15.7501C16.784 3.375 17.6251 4.21613 17.6251 5.25V16.875H16.8751H7.12509H6.37509V5.25Z" fill="#E4E4E7"/>
<path d="M7.5 10.875H16.5C16.7074 10.875 16.875 10.707 16.875 10.5V5.625C16.875 4.79775 16.2023 4.125 15.375 4.125H8.625C7.79775 4.125 7.125 4.79775 7.125 5.625V10.5C7.125 10.707 7.29263 10.875 7.5 10.875ZM7.875 5.625C7.875 5.21137 8.21137 4.875 8.625 4.875H15.375C15.7886 4.875 16.125 5.21137 16.125 5.625V10.125H7.875V5.625Z" fill="#E4E4E7"/>
<path d="M9 13.125C8.17275 13.125 7.5 13.7977 7.5 14.625C7.5 15.4523 8.17275 16.125 9 16.125C9.82725 16.125 10.5 15.4523 10.5 14.625C10.5 13.7977 9.82725 13.125 9 13.125ZM9 15.375C8.58637 15.375 8.25 15.0386 8.25 14.625C8.25 14.2114 8.58637 13.875 9 13.875C9.41363 13.875 9.75 14.2114 9.75 14.625C9.75 15.0386 9.41363 15.375 9 15.375Z" fill="#E4E4E7"/>
<path d="M15 13.125C14.1727 13.125 13.5 13.7977 13.5 14.625C13.5 15.4523 14.1727 16.125 15 16.125C15.8273 16.125 16.5 15.4523 16.5 14.625C16.5 13.7977 15.8273 13.125 15 13.125ZM15 15.375C14.5864 15.375 14.25 15.0386 14.25 14.625C14.25 14.2114 14.5864 13.875 15 13.875C15.4136 13.875 15.75 14.2114 15.75 14.625C15.75 15.0386 15.4136 15.375 15 15.375Z" fill="#E4E4E7"/>
<path d="M20.625 10.125H19.875V10.875H20.625V10.125Z" fill="#E4E4E7"/>
<path d="M22.125 10.125H21.375V10.875H22.125V10.125Z" fill="#E4E4E7"/>
<path d="M22.125 11.625H21.375V12.375H22.125V11.625Z" fill="#E4E4E7"/>
<path d="M22.125 8.625H21.375V9.375H22.125V8.625Z" fill="#E4E4E7"/>
<path d="M4.125 10.125H3.375V10.875H4.125V10.125Z" fill="#E4E4E7"/>
<path d="M2.625 10.125H1.875V10.875H2.625V10.125Z" fill="#E4E4E7"/>
<path d="M2.625 8.625H1.875V9.375H2.625V8.625Z" fill="#E4E4E7"/>
<path d="M2.625 11.625H1.875V12.375H2.625V11.625Z" fill="#E4E4E7"/>
<path d="M11.7349 5.73433L8.73486 8.73438L9.26519 9.2647L12.2652 6.26465L11.7349 5.73433Z" fill="#E4E4E7"/>
<path d="M12.86 7.60929L11.7349 8.73438L12.2652 9.2647L13.3903 8.13961L12.86 7.60929Z" fill="#E4E4E7"/>
<path d="M14.7349 5.73429L13.6099 6.85938L14.1402 7.3897L15.2653 6.26462L14.7349 5.73429Z" fill="#E4E4E7"/>
</svg>
