<svg width="13" height="15" viewBox="0 0 13 15" fill="none" xmlns="http://www.w3.org/2000/svg">
<path d="M10.4305 1.75736C9.2903 0.624107 7.7743 0 6.16182 0C4.54935 0 3.03332 0.624107 1.89314 1.75736C0.752936 2.89065 0.125 4.39737 0.125 5.99999C0.125 9.24207 3.20929 11.9387 4.86628 13.3874C5.09655 13.5887 5.2954 13.7626 5.45382 13.9096C5.65231 14.0939 5.90708 14.1861 6.1618 14.1861C6.41657 14.1861 6.67128 14.0939 6.8698 13.9096C7.02822 13.7625 7.22707 13.5887 7.45734 13.3874C9.11433 11.9387 12.1986 9.24207 12.1986 5.99999C12.1986 4.39737 11.5707 2.89065 10.4305 1.75736ZM6.90509 12.7635C6.66978 12.9692 6.46658 13.1469 6.29904 13.3024C6.22207 13.3738 6.10153 13.3738 6.02453 13.3024C5.85701 13.1468 5.65379 12.9692 5.41848 12.7634C3.86069 11.4015 0.96104 8.86631 0.96104 6.00001C0.96104 3.14982 3.29406 0.831025 6.16177 0.831025C9.02945 0.831025 11.3625 3.14982 11.3625 6.00001C11.3625 8.86631 8.46287 11.4015 6.90509 12.7635Z" fill="#E4E4E7" fill-opacity="0.4"/>
<path d="M6.16036 3.12915C4.69343 3.12915 3.5 4.31527 3.5 5.77326C3.5 7.23124 4.69343 8.41736 6.16036 8.41736C7.62729 8.41736 8.82068 7.23124 8.82068 5.77326C8.82068 4.31527 7.62729 3.12915 6.16036 3.12915ZM6.16036 7.58634C5.15446 7.58634 4.33609 6.77296 4.33609 5.77323C4.33609 4.7735 5.15446 3.96012 6.16036 3.96012C7.16625 3.96012 7.98459 4.7735 7.98459 5.77323C7.98459 6.77296 7.16625 7.58634 6.16036 7.58634Z" fill="#E4E4E7" fill-opacity="0.4"/>
</svg>
