<svg width="20" height="20" viewBox="0 0 20 20" fill="none" xmlns="http://www.w3.org/2000/svg">
<path d="M19.5924 6.56594L17.6669 4.14527C17.3091 3.69547 16.7742 3.4375 16.1995 3.4375H1.875C0.841133 3.4375 0 4.27863 0 5.3125V6.13281C0 6.30539 0.139922 6.44531 0.3125 6.44531C0.485078 6.44531 0.625 6.30539 0.625 6.13281V5.3125C0.625 4.62324 1.18574 4.0625 1.875 4.0625H16.1995C16.8885 4.0625 17.1723 4.52754 17.455 4.88281H4.25418C3.49855 4.88281 2.83598 5.41922 2.67875 6.15832L2.44992 7.23379C2.23648 8.23691 3.00195 9.17969 4.02535 9.17969H19.375V10.4688H18.3594C17.8424 10.4688 17.4219 10.8893 17.4219 11.4062C17.4219 11.9232 17.8424 12.3438 18.3594 12.3438H19.375V12.5C19.375 13.1893 18.8143 13.75 18.125 13.75H17.011C16.8567 12.5186 15.8039 11.5625 14.5312 11.5625C13.2586 11.5625 12.2058 12.5186 12.0515 13.75H8.67188C8.4993 13.75 8.35938 13.8899 8.35938 14.0625C8.35938 14.2351 8.4993 14.375 8.67188 14.375H12.0515C12.2058 15.6064 13.2586 16.5625 14.5312 16.5625C15.8039 16.5625 16.8567 15.6064 17.011 14.375H18.125C19.1589 14.375 20 13.5339 20 12.5V7.73316C20 7.31094 19.8552 6.89641 19.5924 6.56594ZM14.5312 15.9375C13.4974 15.9375 12.6562 15.0964 12.6562 14.0625C12.6562 13.0286 13.4974 12.1875 14.5312 12.1875C15.5651 12.1875 16.4062 13.0286 16.4062 14.0625C16.4062 15.0964 15.5651 15.9375 14.5312 15.9375ZM11.1719 5.50781H15.2344V8.55469H11.1719V5.50781ZM10.5469 8.55469H7.26562V5.50781H10.5469V8.55469ZM3.06121 7.36387L3.29004 6.2884C3.38629 5.83609 3.79176 5.50781 4.25418 5.50781H6.64062V8.55469H4.02535C3.39781 8.55469 2.9309 7.97652 3.06121 7.36387ZM15.8594 8.55469V5.50781H17.9521C19.5407 7.505 19.375 7.04363 19.375 8.55469H15.8594ZM18.3594 11.7188C18.1871 11.7188 18.0469 11.5786 18.0469 11.4062C18.0469 11.2339 18.1871 11.0938 18.3594 11.0938H19.375V11.7188H18.3594Z" fill="#E4E4E7" fill-opacity="0.8"/>
<path d="M0.192969 7.71046C0.50457 7.84042 0.772891 7.44651 0.533594 7.20069C0.337812 7.00495 0 7.1437 0 7.42178C0 7.54425 0.0722266 7.66022 0.192969 7.71046Z" fill="#E4E4E7" fill-opacity="0.8"/>
<path d="M5.07812 11.5625C3.80551 11.5625 2.7527 12.5186 2.59836 13.75H1.875C1.18574 13.75 0.625 13.1893 0.625 12.5V11.9922H1.52344C1.69602 11.9922 1.83594 11.8523 1.83594 11.6797C1.83594 11.5071 1.69602 11.3672 1.52344 11.3672H0.625V10.8203H1.91406C2.08664 10.8203 2.22656 10.6804 2.22656 10.5078C2.22656 10.3352 2.08664 10.1953 1.91406 10.1953H0.625V8.56445C0.625 8.39187 0.485078 8.25195 0.3125 8.25195C0.139922 8.25195 0 8.39187 0 8.56445V12.5C0 13.5339 0.841133 14.375 1.875 14.375H2.59836C2.7527 15.6064 3.80551 16.5625 5.07812 16.5625C6.45664 16.5625 7.57812 15.441 7.57812 14.0625C7.57812 12.684 6.45664 11.5625 5.07812 11.5625ZM5.07812 15.9375C4.04426 15.9375 3.20312 15.0964 3.20312 14.0625C3.20312 13.0286 4.04426 12.1875 5.07812 12.1875C6.11199 12.1875 6.95312 13.0286 6.95312 14.0625C6.95312 15.0964 6.11199 15.9375 5.07812 15.9375Z" fill="#E4E4E7" fill-opacity="0.8"/>
<path d="M5.07812 13.4375C4.73352 13.4375 4.45312 13.7179 4.45312 14.0625C4.45312 14.4071 4.73352 14.6875 5.07812 14.6875C5.42273 14.6875 5.70312 14.4071 5.70312 14.0625C5.70312 13.7179 5.42273 13.4375 5.07812 13.4375Z" fill="#E4E4E7" fill-opacity="0.8"/>
<path d="M14.5312 13.4375C14.1866 13.4375 13.9062 13.7179 13.9062 14.0625C13.9062 14.4071 14.1866 14.6875 14.5312 14.6875C14.8759 14.6875 15.1562 14.4071 15.1562 14.0625C15.1562 13.7179 14.8759 13.4375 14.5312 13.4375Z" fill="#E4E4E7" fill-opacity="0.8"/>
<path d="M13.0469 10.8203H13.6719C13.8445 10.8203 13.9844 10.6804 13.9844 10.5078C13.9844 10.3352 13.8445 10.1953 13.6719 10.1953H13.0469C12.8743 10.1953 12.7344 10.3352 12.7344 10.5078C12.7344 10.6804 12.8743 10.8203 13.0469 10.8203Z" fill="#E4E4E7" fill-opacity="0.8"/>
</svg>
