<svg width="20" height="20" viewBox="0 0 20 20" fill="none" xmlns="http://www.w3.org/2000/svg">
<path d="M18.6364 0H1.36364C1.00198 0 0.655131 0.143668 0.3994 0.3994C0.143668 0.655131 0 1.00198 0 1.36364V13.6364C0 13.998 0.143668 14.3449 0.3994 14.6006C0.655131 14.8563 1.00198 15 1.36364 15H8.03182L7.38636 17.2727H5.45455C4.85178 17.2727 4.2737 17.5122 3.84748 17.9384C3.42127 18.3646 3.18182 18.9427 3.18182 19.5455C3.18182 19.666 3.22971 19.7816 3.31495 19.8669C3.4002 19.9521 3.51581 20 3.63636 20H16.8182C16.9387 20 17.0544 19.9521 17.1396 19.8669C17.2248 19.7816 17.2727 19.666 17.2727 19.5455C17.2727 18.9427 17.0333 18.3646 16.6071 17.9384C16.1808 17.5122 15.6028 17.2727 15 17.2727H12.6136L11.9682 15H18.6364C18.998 15 19.3449 14.8563 19.6006 14.6006C19.8563 14.3449 20 13.998 20 13.6364V1.36364C20 1.00198 19.8563 0.655131 19.6006 0.3994C19.3449 0.143668 18.998 0 18.6364 0ZM0.909091 1.36364C0.909091 1.24308 0.956981 1.12747 1.04222 1.04222C1.12747 0.956981 1.24308 0.909091 1.36364 0.909091H18.6364C18.7569 0.909091 18.8725 0.956981 18.9578 1.04222C19.043 1.12747 19.0909 1.24308 19.0909 1.36364V11.3636H0.909091V1.36364ZM16.2864 19.0909H4.16818C4.26222 18.8249 4.43644 18.5947 4.66683 18.4318C4.89721 18.269 5.17243 18.1817 5.45455 18.1818H15C15.2821 18.1817 15.5573 18.269 15.7877 18.4318C16.0181 18.5947 16.1923 18.8249 16.2864 19.0909ZM11.6682 17.2727H8.33182L8.97727 15H11.0227L11.6682 17.2727ZM19.0909 13.6364C19.0909 13.7569 19.043 13.8725 18.9578 13.9578C18.8725 14.043 18.7569 14.0909 18.6364 14.0909H1.36364C1.24308 14.0909 1.12747 14.043 1.04222 13.9578C0.956981 13.8725 0.909091 13.7569 0.909091 13.6364V12.2727H19.0909V13.6364Z" fill="#E4E4E7" fill-opacity="0.8"/>
<path d="M8.63826 3.6363C8.2766 3.6363 7.92976 3.77997 7.67402 4.0357C7.41829 4.29143 7.27462 4.63827 7.27462 4.99993C7.27583 5.20311 7.32242 5.40344 7.41099 5.5863L6.93372 6.06812C6.78622 5.87699 6.59682 5.72227 6.3801 5.61588C6.16338 5.5095 5.92514 5.45428 5.68372 5.45448C5.49414 5.45629 5.30639 5.49169 5.12917 5.55902L4.59735 4.14993C4.82155 3.92756 4.96163 3.63428 4.99367 3.32013C5.02572 3.00599 4.94774 2.69046 4.77306 2.4274C4.59837 2.16434 4.33781 1.97006 4.03584 1.87772C3.73386 1.78538 3.4092 1.8007 3.11727 1.92107C2.82534 2.04145 2.58423 2.2594 2.4351 2.53774C2.28596 2.81608 2.23805 3.13755 2.29954 3.44728C2.36103 3.75702 2.52811 4.03581 2.77226 4.23607C3.0164 4.43634 3.32249 4.54566 3.63826 4.54539H3.77462L4.37462 6.15448C4.233 6.35957 4.14154 6.59506 4.10762 6.84198C4.0737 7.0889 4.09826 7.34033 4.17934 7.57602C4.26042 7.8117 4.39573 8.02504 4.57438 8.19883C4.75303 8.37262 4.97001 8.50201 5.20784 8.57657C5.44567 8.65112 5.69768 8.66875 5.94357 8.62804C6.18946 8.58733 6.42235 8.48942 6.62346 8.3422C6.82457 8.19498 6.98828 8.00256 7.10138 7.78047C7.21449 7.55837 7.27383 7.31281 7.27462 7.06357C7.27462 7.06357 7.27462 7.04084 7.27462 7.02721L8.05644 6.24993C8.2397 6.33002 8.43833 6.36881 8.63826 6.36357C8.99992 6.36357 9.34677 6.2199 9.6025 5.96417C9.85823 5.70844 10.0019 5.36159 10.0019 4.99993C10.0019 4.63827 9.85823 4.29143 9.6025 4.0357C9.34677 3.77997 8.99992 3.6363 8.63826 3.6363ZM3.18372 3.18175C3.18372 3.09185 3.21037 3.00397 3.26032 2.92922C3.31027 2.85447 3.38126 2.79621 3.46431 2.76181C3.54737 2.7274 3.63876 2.7184 3.72694 2.73594C3.81511 2.75348 3.8961 2.79677 3.95967 2.86034C4.02324 2.92391 4.06653 3.0049 4.08407 3.09307C4.10161 3.18125 4.09261 3.27264 4.05821 3.3557C4.0238 3.43876 3.96554 3.50975 3.89079 3.55969C3.81604 3.60964 3.72816 3.6363 3.63826 3.6363C3.51771 3.6363 3.40209 3.58841 3.31685 3.50316C3.2316 3.41792 3.18372 3.3023 3.18372 3.18175ZM5.68372 7.72721C5.54886 7.72721 5.41704 7.68722 5.30492 7.6123C5.19279 7.53738 5.1054 7.43089 5.0538 7.30631C5.00219 7.18172 4.98869 7.04463 5.015 6.91237C5.04131 6.78011 5.10624 6.65862 5.2016 6.56327C5.29695 6.46792 5.41844 6.40298 5.5507 6.37667C5.68296 6.35036 5.82005 6.36386 5.94464 6.41547C6.06922 6.46708 6.17571 6.55447 6.25063 6.66659C6.32555 6.77871 6.36553 6.91054 6.36553 7.04539C6.36553 7.22622 6.2937 7.39964 6.16583 7.52751C6.03797 7.65537 5.86454 7.72721 5.68372 7.72721ZM8.63826 5.45448C8.54836 5.45448 8.46048 5.42782 8.38573 5.37787C8.31098 5.32793 8.25272 5.25694 8.21832 5.17388C8.18391 5.09082 8.17491 4.99943 8.19245 4.91126C8.20999 4.82308 8.25328 4.74209 8.31685 4.67852C8.38042 4.61495 8.46141 4.57166 8.54958 4.55412C8.63776 4.53658 8.72915 4.54558 8.81221 4.57999C8.89527 4.61439 8.96626 4.67265 9.0162 4.7474C9.06615 4.82215 9.09281 4.91003 9.09281 4.99993C9.09281 5.12049 9.04492 5.2361 8.95967 5.32135C8.87443 5.40659 8.75881 5.45448 8.63826 5.45448Z" fill="#E4E4E7" fill-opacity="0.8"/>
<path d="M11.3647 3.1818H15.4556C15.5762 3.1818 15.6918 3.13391 15.777 3.04866C15.8623 2.96342 15.9102 2.8478 15.9102 2.72725C15.9102 2.6067 15.8623 2.49108 15.777 2.40584C15.6918 2.32059 15.5762 2.27271 15.4556 2.27271H11.3647C11.2441 2.27271 11.1285 2.32059 11.0433 2.40584C10.958 2.49108 10.9102 2.6067 10.9102 2.72725C10.9102 2.8478 10.958 2.96342 11.0433 3.04866C11.1285 3.13391 11.2441 3.1818 11.3647 3.1818Z" fill="#E4E4E7" fill-opacity="0.8"/>
<path d="M17.2738 4.54541H11.3647C11.2441 4.54541 11.1285 4.5933 11.0433 4.67854C10.958 4.76379 10.9102 4.8794 10.9102 4.99996C10.9102 5.12051 10.958 5.23612 11.0433 5.32137C11.1285 5.40661 11.2441 5.4545 11.3647 5.4545H17.2738C17.3943 5.4545 17.51 5.40661 17.5952 5.32137C17.6804 5.23612 17.7283 5.12051 17.7283 4.99996C17.7283 4.8794 17.6804 4.76379 17.5952 4.67854C17.51 4.5933 17.3943 4.54541 17.2738 4.54541Z" fill="#E4E4E7" fill-opacity="0.8"/>
<path d="M11.3647 7.72721H16.3647C16.4853 7.72721 16.6009 7.67932 16.6861 7.59407C16.7714 7.50883 16.8192 7.39321 16.8192 7.27266C16.8192 7.15211 16.7714 7.03649 16.6861 6.95125C16.6009 6.866 16.4853 6.81812 16.3647 6.81812H11.3647C11.2441 6.81812 11.1285 6.866 11.0433 6.95125C10.958 7.03649 10.9102 7.15211 10.9102 7.27266C10.9102 7.39321 10.958 7.50883 11.0433 7.59407C11.1285 7.67932 11.2441 7.72721 11.3647 7.72721Z" fill="#E4E4E7" fill-opacity="0.8"/>
<path d="M16.8192 9.09082H11.3647C11.2441 9.09082 11.1285 9.13871 11.0433 9.22395C10.958 9.3092 10.9102 9.42481 10.9102 9.54537C10.9102 9.66592 10.958 9.78153 11.0433 9.86678C11.1285 9.95202 11.2441 9.99991 11.3647 9.99991H16.8192C16.9398 9.99991 17.0554 9.95202 17.1407 9.86678C17.2259 9.78153 17.2738 9.66592 17.2738 9.54537C17.2738 9.42481 17.2259 9.3092 17.1407 9.22395C17.0554 9.13871 16.9398 9.09082 16.8192 9.09082Z" fill="#E4E4E7" fill-opacity="0.8"/>
</svg>
