<svg width="250" height="250" viewBox="0 0 250 250" fill="none" xmlns="http://www.w3.org/2000/svg">
<g clip-path="url(#clip0_119_283)">
<path d="M124.813 10C123.763 10.039 122.751 10.4081 121.923 11.0547L6.92275 100.791C6.40465 101.195 5.97118 101.697 5.64711 102.269C5.32303 102.84 5.11469 103.47 5.03399 104.122C4.95328 104.774 5.00178 105.435 5.17673 106.069C5.35168 106.702 5.64964 107.294 6.05361 107.813C6.45758 108.331 6.95964 108.764 7.53113 109.088C8.10262 109.412 8.73234 109.621 9.38435 109.701C10.0364 109.782 10.6979 109.733 11.3311 109.559C11.9644 109.384 12.557 109.086 13.0751 108.682L19.9989 103.281V234.736C19.9989 237.501 22.2389 239.736 24.9989 239.736H169.784C167.039 236.811 164.261 233.675 161.561 230H99.9989V144.736H149.999V145.439L151.571 145.049C154.726 144.369 157.504 143.674 159.999 142.969V135H89.9989V230H29.9989V95.4785L124.999 21.3379L219.999 95.4785V134.844C220.994 135.324 221.983 135.809 222.958 136.299C225.098 137.369 227.369 138.456 229.999 139.541V103.281L236.923 108.682C237.441 109.086 238.033 109.384 238.667 109.559C239.3 109.734 239.962 109.782 240.614 109.702C241.266 109.621 241.896 109.413 242.467 109.089C243.039 108.765 243.541 108.331 243.945 107.813C244.349 107.295 244.647 106.702 244.822 106.069C244.997 105.435 245.045 104.774 244.964 104.122C244.884 103.47 244.675 102.84 244.351 102.269C244.027 101.697 243.593 101.195 243.075 100.791L204.999 71.084V35H174.999V47.666L128.075 11.0547C127.146 10.3298 125.991 9.9563 124.813 10ZM184.999 44.7364H194.999V63.2813L184.999 55.4688V44.7364ZM199.999 139.746C192.499 139.746 187.503 142.254 181.503 145.254C175.503 148.254 168.003 151.746 154.003 154.746L149.999 155.752V159.746C149.999 224.746 195.999 248.248 197.499 249.248L199.999 250.254L202.499 249.248C204.499 248.248 249.999 222.746 249.999 159.746V155.752L245.995 154.746C231.995 151.746 224.495 148.254 218.495 145.254C212.495 142.254 207.499 139.746 199.999 139.746ZM199.999 149.746C205.499 149.746 208.503 151.248 214.003 154.248C220.003 156.748 227.499 160.75 239.999 163.75C238.499 210.25 208.499 233.25 199.999 238.75C190.999 233.75 161.499 212.25 159.999 163.75C172.999 160.75 180.495 156.748 185.995 154.248C191.495 151.248 194.499 149.746 199.999 149.746Z" fill="#E4E4E7"/>
</g>
<defs>
<clipPath id="clip0_119_283">
<rect width="250" height="250" fill="white"/>
</clipPath>
</defs>
</svg>
