<svg width="251" height="169" viewBox="0 0 251 169" fill="none" xmlns="http://www.w3.org/2000/svg">
<path d="M200.714 1.85705C199.401 1.8676 198.185 2.62261 197.606 3.83847L188.332 23.3427C183.744 32.9885 190.579 44.0864 200.742 44.0864C206.025 44.0864 211.25 40.6963 213.741 35.6504C215.933 31.2119 215.574 26.3802 212.774 22.7239C205.438 13.1329 204.196 4.93453 204.186 4.86844C203.982 3.34466 202.798 2.1364 201.281 1.89896C201.091 1.86928 200.902 1.85554 200.714 1.85705ZM93.6119 12.2758V19.2221H100.556V12.2758H93.6119ZM110.976 12.2758V19.2221H117.922V12.2758H110.976ZM128.341 12.2758V19.2221H135.288V12.2758H128.341ZM145.705 12.2758V19.2221H152.651V12.2758H145.705ZM163.072 12.2758V19.2221H170.018V12.2758H163.072ZM200.083 14.8022C201.58 18.2735 203.846 22.4849 207.26 26.9456C208.865 29.0427 208.108 31.3716 207.515 32.5745C206.184 35.2636 203.401 37.1401 200.741 37.1401C198.423 37.1401 196.347 35.9576 195.044 33.8945C193.602 31.6094 193.436 28.7809 194.603 26.3261L200.083 14.8022ZM86.269 33.1141C84.6778 33.1141 83.29 34.1973 82.9017 35.7429L71.6066 80.7428L69.2992 79.589V64.3717C69.2992 61.8995 66.7819 60.2119 64.4913 61.1654L50.5987 66.954C49.3059 67.4919 48.4609 68.7575 48.4609 70.159V81.7348C48.4606 83.6541 50.0165 85.208 51.9354 85.208H65.007L68.0456 86.7283C67.9049 86.825 67.7686 86.9251 67.6211 87.0144C64.3229 89.0335 62.3535 92.427 62.3535 96.0918V137.303C62.3535 139.224 63.9091 140.778 65.828 140.778H131.815C133.731 140.778 135.288 139.224 135.288 137.303C135.288 135.386 133.731 133.832 131.815 133.832H69.2992V96.0912C69.2992 94.8627 70.0287 93.6851 71.2487 92.9387C74.6471 90.8586 77.031 87.6689 77.9627 83.9578L88.979 40.0604H159.598C161.515 40.0604 163.072 38.5044 163.072 36.5872C163.072 34.6683 161.515 33.1141 159.598 33.1141H86.269ZM176.998 49.9249C175.685 49.9358 174.469 50.6916 173.89 51.9057L144.531 113.648C136.153 131.262 142.088 151.263 156.078 161.616H51.9354C50.0165 161.616 48.4609 163.17 48.4609 165.087C48.4609 167.008 50.0165 168.562 51.9354 168.562H211.692C213.612 168.562 215.166 167.007 215.166 165.087C215.166 163.17 213.612 161.616 211.692 161.616H198.047C213.829 150.551 221.25 128.847 209.147 113.027C184.525 80.8526 180.507 53.2078 180.469 52.9363C180.265 51.4125 179.085 50.2042 177.565 49.9668C177.375 49.9371 177.186 49.9233 176.998 49.9249ZM114.274 60.9019C113.606 60.9349 112.941 61.1611 112.365 61.5925C110.83 62.743 110.521 64.9196 111.671 66.455L117.921 74.7912H93.6119C91.6912 74.7912 90.1367 76.3447 90.1367 78.2637C90.1367 80.1809 91.6916 81.7355 93.6119 81.7355H149.18C151.098 81.7355 152.651 80.1809 152.651 78.2637C152.651 76.3447 151.097 74.7912 149.18 74.7912H143.672L134.27 65.3877C132.913 64.0322 130.714 64.0322 129.357 65.3877C128.001 66.7449 128.001 68.9439 129.357 70.2994L133.849 74.7912H126.605L117.226 62.2865C116.507 61.328 115.388 60.8469 114.274 60.9019ZM175.876 63.912C179.133 75.2982 186.711 95.1344 203.63 117.249C209.147 124.46 209.72 133.832 205.207 142.97C202.866 147.707 199.476 151.779 195.482 154.9C197.019 149.983 196.242 144.938 193.215 140.985C182.737 127.289 180.989 115.558 180.972 115.45C180.768 113.926 179.588 112.718 178.068 112.481C176.548 112.243 175.055 113.034 174.397 114.422L161.468 141.605C159.208 146.356 158.998 151.684 160.755 156.478C157.606 154.249 154.847 151.344 152.631 147.832C146.679 138.409 145.994 126.744 150.806 116.631L175.876 63.912ZM62.3529 69.5801V78.2637H55.4072V72.4751L62.3529 69.5801ZM85.3083 96.6441C80.3839 96.6617 76.2455 100.673 76.2455 105.759V107.354C76.2455 112.38 80.334 116.466 85.3595 116.466H94.9153C99.9407 116.466 104.029 112.38 104.029 107.354C104.029 102.878 100.827 99.0982 96.415 98.362L86.8579 96.7705C86.3353 96.6836 85.8177 96.6422 85.3083 96.6441ZM85.4686 103.594C85.5503 103.599 85.6332 103.608 85.7161 103.622L95.2733 105.216C96.3235 105.389 97.0837 106.289 97.0837 107.354C97.0837 108.549 96.1114 109.522 94.9153 109.522H85.3595C84.1651 109.522 83.1911 108.549 83.1911 107.354V105.759C83.1911 104.505 84.2437 103.53 85.4686 103.594ZM176.71 125.725C178.671 130.907 182.027 137.792 187.701 145.206C192.411 151.361 186.024 160.9 178.352 161.579C178.213 161.586 178.132 161.599 177.335 161.609C169.211 161.46 164.073 152.295 167.742 144.589L176.71 125.725ZM65.828 144.249C63.9091 144.249 62.3529 145.807 62.3529 147.724V149.228C62.3529 154.144 66.3539 158.141 71.2673 158.141H81.223C86.1397 158.141 90.1374 154.144 90.1374 149.228V147.724C90.1374 145.807 88.5835 144.249 86.6662 144.249C84.7473 144.249 83.1911 145.807 83.1911 147.724V149.228C83.1911 150.314 82.3087 151.195 81.223 151.195H71.2673C70.183 151.195 69.2992 150.313 69.2992 149.228V147.724C69.2988 145.807 67.7453 144.249 65.828 144.249Z" fill="#E4E4E7"/>
<line x1="0.734116" y1="157.46" x2="250.734" y2="0.483599" stroke="#E4E4E7"/>
</svg>
