<svg width="200" height="200" viewBox="0 0 200 200" fill="none" xmlns="http://www.w3.org/2000/svg">
<g clip-path="url(#clip0_119_315)">
<path d="M112 0V8H128L112 24V32H140V24H122L138 8V0H112ZM64 40V48H86L64 72V80H100V72H74L96 48V40H64ZM12 68C5.42188 68 0 73.4219 0 80V200H24V180H176V200H200V148.625C200.016 148.422 200.016 148.203 200 148V124C200 113.016 190.984 104 180 104H76C75.875 104 75.75 104 75.625 104C73.5625 104.188 71.9844 105.922 72 108V144H24V80C24 73.4219 18.5781 68 12 68ZM48 144C59 144 68 135 68 124C68 113 59 104 48 104C37 104 28 113 28 124C28 135 37 144 48 144ZM12 76C14.2188 76 16 77.7812 16 80V152H192V192H184V172H16V192H8V80C8 77.7812 9.78125 76 12 76ZM48 112C54.6719 112 60 117.328 60 124C60 130.672 54.6719 136 48 136C41.3281 136 36 130.672 36 124C36 117.328 41.3281 112 48 112ZM80 112H180C186.625 112 192 117.375 192 124V144H80V112Z" fill="#E4E4E7"/>
</g>
<defs>
<clipPath id="clip0_119_315">
<rect width="200" height="200" fill="white"/>
</clipPath>
</defs>
</svg>
