<svg width="19" height="18" viewBox="0 0 19 18" fill="none" xmlns="http://www.w3.org/2000/svg">
<path d="M2.86252 0.000421875C2.83158 0.00745314 2.80065 0.0187031 2.77252 0.0341719L0.252521 1.18167C0.069709 1.26183 -0.0146662 1.47698 0.0668965 1.6598C0.147053 1.84261 0.362209 1.92558 0.545021 1.84542L2.91877 0.754172L11.1988 4.47792V5.31042L11.0413 5.24292C11.0342 5.2387 11.0258 5.23448 11.0188 5.23167L10.985 5.20917C10.9667 5.20073 10.9485 5.1923 10.9288 5.18667L3.06502 1.62042C2.97221 1.57964 2.86533 1.57964 2.77252 1.62042L0.252521 2.76792C0.120334 2.8087 0.0233027 2.92402 0.00361519 3.06042C-0.0160724 3.19823 0.0458027 3.33464 0.161115 3.41198C0.276428 3.48792 0.42549 3.49214 0.545021 3.42042L2.91877 2.34042L10.4788 5.77167V12.8929C10.4689 12.9407 10.4689 12.9914 10.4788 13.0392V17.2804H0.398771C0.269396 17.279 0.148459 17.3465 0.0823653 17.459C0.0176777 17.5715 0.0176777 17.7093 0.0823653 17.8218C0.148459 17.9343 0.269396 18.0018 0.398771 18.0004H10.8388C11.0371 18.0004 11.1988 17.8387 11.1988 17.6404V13.3204H15.5188C15.7171 13.3204 15.8788 13.1587 15.8788 12.9604V10.4067C17.0966 10.2309 18.0388 9.18605 18.0388 7.92042C18.0388 6.53245 16.9067 5.40042 15.5188 5.40042C14.1308 5.40042 12.9988 6.53245 12.9988 7.92042C12.9988 9.18605 13.941 10.2309 15.1588 10.4067V12.6004H11.1988V6.09792L11.4125 6.19917C11.5236 6.24839 11.6516 6.23855 11.7542 6.17245C11.8555 6.10636 11.9174 5.99386 11.9188 5.87292V4.25292C11.9216 4.10808 11.8372 3.97448 11.705 3.91542L3.06502 0.0341719C3.01299 0.00885937 2.95393 -0.00239062 2.89627 0.000421875C2.88502 0.000421875 2.87377 0.000421875 2.86252 0.000421875ZM15.5188 6.12042C16.5172 6.12042 17.3188 6.92198 17.3188 7.92042C17.3188 8.91886 16.5172 9.72042 15.5188 9.72042C14.5203 9.72042 13.7188 8.91886 13.7188 7.92042C13.7188 6.92198 14.5203 6.12042 15.5188 6.12042ZM15.5188 6.84042C14.9267 6.84042 14.4388 7.32839 14.4388 7.92042C14.4388 8.51245 14.9267 9.00042 15.5188 9.00042C16.1108 9.00042 16.5988 8.51245 16.5988 7.92042C16.5988 7.32839 16.1108 6.84042 15.5188 6.84042ZM15.5188 7.56042C15.7213 7.56042 15.8788 7.71792 15.8788 7.92042C15.8788 8.12292 15.7213 8.28042 15.5188 8.28042C15.3163 8.28042 15.1588 8.12292 15.1588 7.92042C15.1588 7.71792 15.3163 7.56042 15.5188 7.56042Z" fill="#E4E4E7"/>
</svg>
