<svg width="12" height="12" viewBox="0 0 12 12" fill="none" xmlns="http://www.w3.org/2000/svg">
<path d="M11.9969 3.24029C11.9938 3.17288 11.9716 3.10725 11.9323 3.04953C11.8931 2.99184 11.8381 2.94391 11.7725 2.91022L6.22403 0.0536017C6.1558 0.018488 6.07838 0 5.99958 0C5.92077 0 5.84338 0.018488 5.77513 0.0536017C5.76166 0.0536017 0.219962 2.90622 0.20874 2.92023C0.145105 2.95613 0.0926332 3.00574 0.0561554 3.06448C0.0196776 3.12321 0.000365856 3.18916 0 3.2563V8.74549C8.08025e-05 8.81565 0.0208605 8.88456 0.0602561 8.9453C0.0996518 9.00605 0.156276 9.05648 0.224451 9.09157L5.77513 11.9482C5.84379 11.9822 5.92104 12 5.99958 12C6.07811 12 6.15537 11.9822 6.22403 11.9482L11.7747 9.09157C11.8429 9.05648 11.8995 9.00605 11.9389 8.9453C11.9783 8.88456 11.9991 8.81565 11.9992 8.74549C11.9969 8.72949 12.0036 3.2543 11.9969 3.24029ZM5.99958 0.861777L10.6525 3.2623L9.01171 4.10048L4.35884 1.69996L5.99958 0.861777ZM5.99958 5.65082L1.3467 3.2503L3.46328 2.16206L8.11391 4.56258L5.99958 5.65082ZM11.1014 8.51544L6.44848 10.91V6.34297L8.56281 5.25473V6.74106C8.56281 6.84716 8.6101 6.94892 8.69429 7.02396C8.77849 7.09899 8.89266 7.14114 9.01171 7.14114C9.13078 7.14114 9.24496 7.09899 9.32913 7.02396C9.41333 6.94892 9.46062 6.84716 9.46062 6.74106V4.80063L11.1014 3.95645V8.51544Z" fill="#DA1165"/>
</svg>
