<svg width="48" height="48" viewBox="0 0 48 48" fill="none" xmlns="http://www.w3.org/2000/svg">
<g filter="url(#filter0_f_1065_1233)">
<circle cx="24" cy="24" r="20" fill="#87FFE0" fill-opacity="0.3"/>
<circle cx="24" cy="24" r="19.75" stroke="#018F6A" stroke-width="0.5"/>
</g>
<circle cx="24.4167" cy="24.4167" r="17.9167" fill="#272B3A"/>
<path d="M32.6712 18.8279L23.765 15.0777C23.7074 15.0535 23.6455 15.041 23.583 15.041C23.5205 15.041 23.4587 15.0535 23.4011 15.0777L14.4948 18.8279C14.4098 18.8637 14.3373 18.9238 14.2862 19.0006C14.2352 19.0775 14.208 19.1677 14.208 19.2599V29.5724C14.208 29.6646 14.2352 29.7548 14.2863 29.8317C14.3373 29.9085 14.4098 29.9686 14.4948 30.0045L23.401 33.7545C23.4586 33.7787 23.5205 33.7911 23.583 33.7911C23.6455 33.7911 23.7073 33.7787 23.7649 33.7545L32.6712 30.0045C32.7562 29.9687 32.8287 29.9086 32.8797 29.8317C32.9308 29.7549 32.958 29.6647 32.958 29.5724V19.2599C32.958 19.1677 32.9308 19.0775 32.8797 19.0006C32.8287 18.9238 32.7562 18.8637 32.6712 18.8279ZM23.583 22.5013L20.072 21.023L27.7232 17.8014C27.7373 17.7947 27.751 17.7872 27.7643 17.779L31.2813 19.26L23.583 22.5013ZM23.583 16.0184L26.5625 17.2729L18.9479 20.479C18.9224 20.4901 18.898 20.5034 18.8748 20.5189L15.8847 19.2599L23.583 16.0184ZM15.1455 19.9659L23.1142 23.3211V32.6163L15.1455 29.2611V19.9659ZM24.0518 32.6163V23.3211L32.0205 19.9659V29.2611L24.0518 32.6163Z" fill="#018F6A"/>
<defs>
<filter id="filter0_f_1065_1233" x="0" y="0" width="48" height="48" filterUnits="userSpaceOnUse" color-interpolation-filters="sRGB">
<feFlood flood-opacity="0" result="BackgroundImageFix"/>
<feBlend mode="normal" in="SourceGraphic" in2="BackgroundImageFix" result="shape"/>
<feGaussianBlur stdDeviation="2" result="effect1_foregroundBlur_1065_1233"/>
</filter>
</defs>
</svg>
