<svg width="22" height="22" viewBox="0 0 22 22" fill="none" xmlns="http://www.w3.org/2000/svg">
<path d="M10.9882 7.5482e-05C10.8435 0.00149894 10.7006 0.0315321 10.5675 0.0885082C10.4344 0.145484 10.3139 0.228276 10.2127 0.332111C10.1115 0.435945 10.0317 0.55886 9.97784 0.693708C9.92399 0.828555 9.89713 0.972698 9.89882 1.11798V9.95986C9.8989 10.2531 10.015 10.5344 10.2215 10.7418C10.428 10.9492 10.708 11.0656 11 11.0656C11.292 11.0656 11.572 10.9492 11.7785 10.7418C11.985 10.5344 12.1011 10.2531 12.1012 9.95986V1.11798C12.1029 0.970699 12.0753 0.824533 12.0199 0.688125C11.9646 0.551717 11.8827 0.427762 11.779 0.32361C11.6753 0.219458 11.5519 0.137227 11.4161 0.0816569C11.2803 0.0260865 11.1348 -0.00164577 10.9882 7.5482e-05ZM17.4062 2.21648C17.3704 2.21544 17.3345 2.21616 17.2988 2.21863C17.0813 2.23718 16.8742 2.32032 16.7038 2.45741C16.5335 2.59451 16.4076 2.77935 16.3422 2.98852C16.2768 3.19768 16.2748 3.42173 16.3364 3.63203C16.3981 3.84234 16.5207 4.02946 16.6885 4.16961C18.5942 5.79502 19.7998 8.21426 19.7998 10.931C19.7998 15.8363 15.8782 19.7901 11.0054 19.7901C6.13256 19.7901 2.20235 15.8363 2.20236 10.931C2.20237 8.22998 3.39264 5.82716 5.27922 4.20196C5.38913 4.10773 5.47949 3.99264 5.54513 3.86333C5.61077 3.73402 5.65041 3.59301 5.66179 3.44832C5.67317 3.30362 5.65606 3.15816 5.61144 3.02011C5.56682 2.88206 5.49557 2.75419 5.40174 2.6438C5.30792 2.5334 5.19337 2.44265 5.06463 2.37672C4.93589 2.3108 4.79548 2.27091 4.65142 2.25949C4.50736 2.24807 4.36248 2.26529 4.22503 2.31011C4.08759 2.35493 3.96028 2.42648 3.85038 2.52073C1.49533 4.54949 1.03521e-05 7.57347 0 10.931C-9.89479e-06 17.0287 4.94151 22 11.0054 22C17.0692 22 22 17.0287 22 10.931C22 7.55389 20.4899 4.51747 18.1109 2.48837C17.9153 2.31709 17.6657 2.22078 17.4062 2.21648H17.4062Z" fill="#E03761"/>
</svg>
