<svg width="30" height="30" viewBox="0 0 30 30" fill="none" xmlns="http://www.w3.org/2000/svg">
<path d="M3.28125 0.234375C1.59375 0.234375 0.234375 1.59375 0.234375 3.28125V29.0625C0.234375 29.4609 0.539062 29.7656 0.9375 29.7656C1.33594 29.7656 1.64062 29.4609 1.64062 29.0625V8.20312H12.6562C13.0547 8.20312 13.3594 7.89844 13.3594 7.5C13.3594 7.10156 13.0547 6.79688 12.6562 6.79688H1.64062V3.28125C1.64062 2.36719 2.36719 1.64062 3.28125 1.64062H26.7188C27.6328 1.64062 28.3594 2.36719 28.3594 3.28125V24.375C28.3594 24.7734 28.6641 25.0781 29.0625 25.0781C29.4609 25.0781 29.7656 24.7734 29.7656 24.375V3.28125C29.7656 1.59375 28.4062 0.234375 26.7188 0.234375H3.28125ZM4.21875 3.51562C3.82031 3.51562 3.51562 3.82031 3.51562 4.21875C3.51562 4.61719 3.82031 4.92188 4.21875 4.92188H5.15625C5.55469 4.92188 5.85938 4.61719 5.85938 4.21875C5.85938 3.82031 5.55469 3.51562 5.15625 3.51562H4.21875ZM7.96875 3.51562C7.57031 3.51562 7.26562 3.82031 7.26562 4.21875C7.26562 4.61719 7.57031 4.92188 7.96875 4.92188H8.90625C9.30469 4.92188 9.60938 4.61719 9.60938 4.21875C9.60938 3.82031 9.30469 3.51562 8.90625 3.51562H7.96875ZM20.6332 5.71106C20.3352 5.70035 20.033 5.73358 19.7342 5.81268C18.9373 6.02362 18.2814 6.53915 17.883 7.24228L9.63272 21.5625C8.85928 22.9219 8.39072 24.4454 8.29697 25.9923L8.10928 29.0158C8.08585 29.2736 8.22647 29.5312 8.46085 29.6718C8.57803 29.7421 8.69522 29.7656 8.81241 29.7656C8.95303 29.7656 9.09393 29.7188 9.21112 29.6484L11.7421 27.9845C13.0312 27.1173 14.1327 25.9688 14.9062 24.6094L22.3361 11.7188C22.9689 12.2109 23.1562 13.1016 22.7344 13.8281L18.9844 20.3201C18.7969 20.6483 18.914 21.0939 19.2421 21.2814C19.3593 21.3517 19.4765 21.3748 19.5937 21.3748C19.828 21.3748 20.0623 21.2576 20.2029 21.0233L23.9529 14.5312C24.7498 13.1484 24.3283 11.3908 23.0392 10.5002L23.1564 10.2892C23.6017 9.58603 23.6951 8.76562 23.4842 7.96875C23.2733 7.17188 22.7812 6.51553 22.0546 6.1171C21.6151 5.86807 21.1299 5.72891 20.6332 5.71106ZM20.5312 7.12509C20.8124 7.12509 21.0937 7.1955 21.3515 7.33612C22.1483 7.80487 22.4295 8.81259 21.9608 9.58603L13.6876 23.9062C13.0079 25.0547 12.0701 26.0626 10.9451 26.8126L9.58603 27.7029L9.67987 26.0861C9.75018 24.7502 10.1483 23.4375 10.8279 22.2656L19.1016 7.9454C19.3125 7.5704 19.6642 7.28897 20.1096 7.17178C20.2502 7.12491 20.3905 7.12509 20.5312 7.12509ZM24.6272 25.5634C24.5442 25.5593 24.46 25.5614 24.375 25.5702C23.7188 25.6171 23.1563 26.0858 22.9454 26.7421L22.4533 28.3127C22.4533 28.3361 22.4297 28.3594 22.3828 28.3594C22.3359 28.3594 22.3123 28.3361 22.3123 28.3127L22.1017 27.914C21.8439 27.4218 21.3751 27.1171 20.836 27.0937C20.297 27.0702 19.7812 27.3514 19.4765 27.8201L18.7967 28.6171C18.5389 28.9218 18.5859 29.3674 18.8672 29.6017C19.0078 29.7189 19.172 29.7656 19.3126 29.7656C19.5001 29.7656 19.7108 29.672 19.8514 29.5079L20.5545 28.6876C20.5779 28.6642 20.6016 28.6172 20.625 28.5938C20.6719 28.5234 20.7187 28.4999 20.7655 28.4999C20.7655 28.4999 20.7892 28.5002 20.8127 28.5471L21.0233 28.9453C21.3045 29.4844 21.8673 29.8125 22.4767 29.7656C23.086 29.7188 23.5782 29.3202 23.7657 28.7343L24.2578 27.1642C24.3047 27.0001 24.4219 26.9765 24.4922 26.9765C24.5625 26.9765 24.7029 26.9764 24.7733 27.117L25.4764 28.4532C25.8279 29.1095 26.4376 29.5312 27.1642 29.6484C27.8907 29.7656 28.6174 29.5311 29.133 28.992C29.4142 28.7108 29.4142 28.2656 29.133 28.0078C28.8517 27.7266 28.4062 27.7266 28.1483 28.0078C27.9374 28.2188 27.6799 28.3124 27.3752 28.2655C27.0939 28.2187 26.8594 28.0546 26.7188 27.7968L26.0156 26.461C25.7285 25.9278 25.2082 25.5919 24.6272 25.5634ZM13.5938 28.3594C13.1953 28.3594 12.8906 28.6641 12.8906 29.0625C12.8906 29.4609 13.1953 29.7656 13.5938 29.7656H15.9375C16.3359 29.7656 16.6406 29.4609 16.6406 29.0625C16.6406 28.6641 16.3359 28.3594 15.9375 28.3594H13.5938Z" fill="#E4E4E7"/>
</svg>
