<svg width="18" height="18" viewBox="0 0 18 18" fill="none" xmlns="http://www.w3.org/2000/svg">
<path d="M0 17.9997H8.18179V9.81787H0V17.9997ZM1.63623 11.4544H6.54538V16.3508H1.63623V11.4544Z" fill="#E4E4E7"/>
<path d="M4.90977 13.0906H3.27344V14.7271H4.90977V13.0906Z" fill="#E4E4E7"/>
<path d="M14.7266 16.3638H13.0898V18.0001H14.7266V16.3638Z" fill="#E4E4E7"/>
<path d="M17.9999 16.3638H16.3633V18.0001H17.9999V16.3638Z" fill="#E4E4E7"/>
<path d="M16.3619 11.4544H14.7257V9.81787H9.81641V17.9997H11.4529V13.0906H13.089V14.7271H17.9983V9.81787H16.3619V11.4544Z" fill="#E4E4E7"/>
<path d="M0 8.18197H8.18179V0H0V8.18197ZM1.63623 1.63623H6.54538V6.54538H1.63623V1.63623Z" fill="#E4E4E7"/>
<path d="M4.90977 3.27271H3.27344V4.90916H4.90977V3.27271Z" fill="#E4E4E7"/>
<path d="M9.81641 0V8.18197H17.9984V0H9.81641ZM16.3619 6.54538H11.4529V1.63623H16.3619V6.54538Z" fill="#E4E4E7"/>
<path d="M14.7266 3.27271H13.0898V4.90916H14.7266V3.27271Z" fill="#E4E4E7"/>
</svg>
