<svg width="22" height="26" viewBox="0 0 22 26" fill="none" xmlns="http://www.w3.org/2000/svg">
<path d="M5.82558 18.7018C5.62758 18.5672 5.43377 18.4142 5.24834 18.2476C4.81829 17.86 4.15515 17.8956 3.76911 18.3252C3.38201 18.7552 3.41658 19.4173 3.84663 19.8044C4.1012 20.0338 4.37044 20.2455 4.64649 20.4335C4.8272 20.5566 5.03253 20.6158 5.23525 20.6158C5.57048 20.6158 5.89996 20.4555 6.10215 20.1575C6.42743 19.6792 6.30381 19.0276 5.82558 18.7018Z" fill="#E4E4E7"/>
<path d="M22 11.2315C22 5.03851 17.0479 0 10.9607 0C5.38585 0 0.676816 4.23813 0.00738931 9.85859C-0.0607058 10.4332 0.349436 10.9544 0.924054 11.0225C1.49448 11.0927 2.01986 10.681 2.08848 10.1058C2.63167 5.53927 6.44656 2.09523 10.9607 2.09523C15.8924 2.09523 19.9048 6.19351 19.9048 11.2315C19.9048 15.4848 17.0406 19.0582 13.1817 20.0708L14.4477 18.2641C14.7798 17.7901 14.6651 17.1369 14.1911 16.8048C13.7181 16.4722 13.0638 16.588 12.7323 17.0615L10.1027 20.8135C10.1012 20.8161 10.1001 20.8188 10.0986 20.8214C10.0734 20.8575 10.054 20.8979 10.0336 20.9371C10.0226 20.9586 10.0079 20.9796 9.99851 21.0016C9.98594 21.0314 9.9786 21.0634 9.96865 21.0943C9.95765 21.1283 9.94403 21.1624 9.9367 21.1969C9.93198 21.2205 9.93146 21.2451 9.92779 21.2687C9.92151 21.3132 9.9147 21.3578 9.91417 21.4023C9.91417 21.4065 9.91313 21.4107 9.91313 21.4149C9.91313 21.4395 9.91889 21.462 9.92046 21.4861C9.92308 21.5264 9.92517 21.5662 9.93251 21.6055C9.93879 21.6385 9.94874 21.6699 9.95817 21.7019C9.9676 21.7349 9.97598 21.7674 9.98855 21.7993C10.0011 21.8313 10.0174 21.8606 10.0331 21.891C10.0483 21.9208 10.0629 21.9507 10.0807 21.979C10.0996 22.0083 10.1211 22.0345 10.1426 22.0618C10.163 22.0874 10.1824 22.1136 10.2049 22.1377C10.2321 22.166 10.262 22.1906 10.2924 22.2158C10.3102 22.2309 10.3254 22.2482 10.3442 22.2624L14.025 24.9422C14.211 25.0773 14.4268 25.1428 14.6405 25.1428C14.9642 25.1428 15.2837 24.9935 15.4885 24.7117C15.8285 24.2439 15.7258 23.5887 15.2581 23.2482L13.6845 22.1026C18.4564 20.8638 22 16.4664 22 11.2315Z" fill="#E4E4E7"/>
<path d="M2.93517 15.3097C2.93098 15.2914 2.92312 15.2741 2.91841 15.2557C2.90427 15.2034 2.88803 15.1515 2.86603 15.1028C2.86341 15.097 2.86236 15.0902 2.85974 15.0845C2.73036 14.811 2.63765 14.5868 2.56693 14.3794C2.38098 13.832 1.78594 13.5366 1.23803 13.7247C0.69013 13.9106 0.397321 14.5057 0.583273 15.0536C0.673892 15.3202 0.78651 15.5957 0.934748 15.9152C0.93632 15.9189 0.939462 15.922 0.941034 15.9262C0.975081 16.0106 1.02118 16.0881 1.07513 16.1598C1.08822 16.1771 1.10237 16.1928 1.11651 16.2096C1.16994 16.2725 1.22965 16.3301 1.2967 16.3788C1.30456 16.3846 1.31137 16.3919 1.31975 16.3977C1.39413 16.4485 1.47637 16.4867 1.56279 16.5176C1.58479 16.5255 1.60627 16.5317 1.62879 16.538C1.71784 16.5632 1.81003 16.5805 1.90746 16.581C1.90903 16.581 1.9106 16.5815 1.91217 16.5815C2.41817 16.5815 2.84089 16.2201 2.93831 15.7424C2.95246 15.6743 2.95979 15.6036 2.95979 15.5313C2.95979 15.4553 2.95089 15.3815 2.93517 15.3097Z" fill="#E4E4E7"/>
</svg>
