<svg width="16" height="16" viewBox="0 0 16 16" fill="none" xmlns="http://www.w3.org/2000/svg">
<path d="M4.57868 0.768577C3.19475 1.42149 2.03262 2.45553 1.21726 3.75824C0.086372 5.57016 -0.272887 7.71322 0.208208 9.79692C0.686179 11.8775 1.94827 13.6488 3.76019 14.7797C5.57211 15.9137 7.71517 16.273 9.79887 15.7919C11.8795 15.3108 13.6508 14.0487 14.7816 12.2399C15.5783 10.9653 16 9.50327 16 8.00687V7.91003C15.9813 6.41988 15.5501 4.97035 14.7567 3.7145C14.5255 3.349 14.0444 3.24278 13.6789 3.47396C13.3134 3.70513 13.2071 4.18623 13.4383 4.55173C14.0787 5.56078 14.4255 6.72916 14.4411 7.92877C14.4567 9.15963 14.1162 10.3624 13.4633 11.412C12.5511 12.8709 11.1266 13.8862 9.45211 14.2705C7.7714 14.6547 6.04695 14.3673 4.58805 13.4551C1.57964 11.5745 0.661187 7.59451 2.54183 4.5861C3.19787 3.53644 4.13195 2.70545 5.24409 2.18062C6.32811 1.66829 7.53085 1.46835 8.71797 1.60268C9.14596 1.64954 9.53333 1.34339 9.58019 0.912281C9.62705 0.484294 9.3209 0.0969181 8.88979 0.0500584C7.41839 -0.115514 5.92512 0.134406 4.57868 0.768577Z" fill="white" fill-opacity="0.8"/>
<path d="M10.7115 5.28821C10.4053 4.98206 9.91172 4.98206 9.60557 5.28821L7.99983 6.89706L6.3941 5.29133C6.08795 4.98518 5.59436 4.98518 5.28821 5.29133C4.98206 5.59748 4.98206 6.09107 5.28821 6.39723L6.89394 8.00296L5.28821 9.60869C4.98206 9.91484 4.98206 10.4084 5.28821 10.7146C5.44128 10.8677 5.64122 10.9426 5.84115 10.9426C6.04109 10.9426 6.24103 10.8677 6.3941 10.7146L7.99983 9.10885L9.60557 10.7146C9.75864 10.8677 9.95858 10.9426 10.1585 10.9426C10.3585 10.9426 10.5584 10.8677 10.7115 10.7146C11.0176 10.4084 11.0176 9.91484 10.7115 9.60869L9.10573 7.99984L10.7115 6.3941C11.0176 6.08795 11.0176 5.59436 10.7115 5.28821Z" fill="white" fill-opacity="0.8"/>
</svg>
