<svg width="24" height="24" viewBox="0 0 24 24" fill="none" xmlns="http://www.w3.org/2000/svg">
<path d="M6.2538 20.893C5.50582 20.8633 4.7924 20.5544 4.2416 20.0218C3.69079 19.4892 3.33868 18.7678 3.24845 17.987L3.23227 17.793L3.22656 17.6V16.025C3.22664 15.8372 3.28504 15.6545 3.39291 15.5047C3.50077 15.3549 3.6522 15.2462 3.82421 15.195L3.9327 15.169L4.0488 15.159H5.92928V3.887C5.92941 3.76285 5.95499 3.64018 6.00424 3.52733C6.05351 3.41448 6.12531 3.3141 6.21478 3.233L6.30995 3.159L6.41558 3.1C6.51987 3.04998 6.63306 3.02373 6.74771 3.023C6.8674 3.02232 6.98583 3.04857 7.09507 3.1L7.2026 3.161L7.29777 3.237L8.87848 4.707L10.4649 3.221C10.5679 3.12413 10.6923 3.05605 10.8268 3.02302C10.9614 2.98999 11.1017 2.99308 11.2348 3.032L11.3461 3.074L11.467 3.144L11.5622 3.22L13.1429 4.706L14.7245 3.221C14.8736 3.07945 15.067 3.00075 15.2679 3C15.3476 3.00053 15.4267 3.01299 15.503 3.037L15.6181 3.081L15.7285 3.144L15.8237 3.22L17.4063 4.708L18.988 3.239C19.0765 3.15686 19.1807 3.09569 19.2938 3.05962C19.4067 3.02356 19.5257 3.01346 19.6427 3.03L19.7588 3.055L19.8721 3.1C19.9791 3.15042 20.0746 3.22462 20.1519 3.31749C20.229 3.41037 20.2861 3.51971 20.3194 3.638L20.3479 3.763L20.3565 3.887V17.6C20.3556 18.4416 20.0489 19.251 19.4988 19.8627C18.9489 20.4745 18.1972 20.8423 17.3978 20.891H17.3216L6.2538 20.893ZM7.57566 5.807V15.159H14.9035C15.0822 15.1591 15.256 15.2205 15.3986 15.3338C15.5412 15.4471 15.6446 15.6063 15.6933 15.787L15.7181 15.902L15.7266 16.024V17.6C15.7261 17.9906 15.8643 18.3674 16.1144 18.6564C16.3644 18.9455 16.7083 19.1259 17.0784 19.1625C17.4485 19.199 17.8182 19.089 18.1151 18.854C18.412 18.619 18.6147 18.2759 18.6834 17.892L18.7025 17.745L18.7091 17.6V5.807L17.9478 6.514C17.7987 6.6526 17.6064 6.72907 17.4073 6.729C17.2871 6.72879 17.1683 6.70151 17.059 6.649L16.9486 6.586L16.8534 6.51L15.2727 5.025L13.6948 6.512C13.5454 6.65246 13.352 6.73008 13.1514 6.73C13.0315 6.72977 12.913 6.70249 12.8041 6.65L12.6937 6.588L12.5985 6.512L11.0131 5.025L9.43235 6.512C9.28292 6.65246 9.08944 6.73008 8.88895 6.73C8.77015 6.72994 8.65273 6.70335 8.54445 6.652L8.43405 6.591L8.33889 6.515L7.57566 5.807ZM4.87294 16.889V17.6C4.87183 17.9652 4.9925 18.3194 5.21397 18.6009C5.43545 18.8824 5.74376 19.0735 6.08535 19.141L6.2262 19.161L6.36324 19.167H14.4562L14.44 19.137C14.2744 18.8074 14.1633 18.4507 14.1117 18.082L14.0879 17.856L14.0774 17.599V16.892L4.87294 16.889ZM16.4832 13.511H9.82538C9.6238 13.5158 9.42757 13.4427 9.27397 13.3054C9.12037 13.1681 9.02013 12.9764 8.99229 12.7665C8.96444 12.5567 9.01095 12.3434 9.12297 12.1672C9.23498 11.9911 9.40469 11.8643 9.59984 11.811L9.70833 11.785L9.82443 11.776H16.4813C16.683 11.7709 16.8794 11.8439 17.0332 11.9811C17.187 12.1182 17.2875 12.31 17.3153 12.52C17.3433 12.7299 17.2969 12.9433 17.1849 13.1196C17.0729 13.2959 16.9031 13.4227 16.7078 13.476L16.5984 13.502L16.4832 13.511ZM13.6139 10.5H9.82538C9.62408 10.504 9.42837 10.4303 9.27535 10.2928C9.12233 10.1553 9.02265 9.96356 8.9952 9.75397C8.96775 9.54438 9.01442 9.33149 9.1264 9.15566C9.23837 8.97983 9.40784 8.85328 9.60269 8.8L9.71118 8.774L9.82729 8.765H13.6168C13.8153 8.76464 14.0073 8.83975 14.1572 8.97647C14.307 9.1132 14.4049 9.30229 14.4325 9.50886C14.4601 9.71543 14.4156 9.92551 14.3073 10.1003C14.199 10.2752 14.0342 10.4029 13.8433 10.46L13.7339 10.486L13.6139 10.5Z" fill="#E4E4E7" fill-opacity="0.8"/>
</svg>
