<svg width="64" height="57" viewBox="0 0 64 57" fill="none" xmlns="http://www.w3.org/2000/svg">
<circle cx="26.5" cy="30.5" r="25.75" fill="#272B3A" stroke="#353A4B" stroke-width="1.5"/>
<path d="M38.6133 42.0009H15.3871C15.2844 42.0009 15.186 41.9601 15.1134 41.8876C15.0408 41.815 15 41.7165 15 41.6138V28.0652C14.9999 28.0085 15.0123 27.9524 15.0363 27.9009C15.0604 27.8495 15.0954 27.8039 15.139 27.7676L17.4616 25.832C17.5405 25.7662 17.6424 25.7345 17.7448 25.7438C17.8471 25.7531 17.9416 25.8026 18.0074 25.8816C18.0732 25.9605 18.105 26.0624 18.0957 26.1648C18.0864 26.2671 18.0368 26.3616 17.9579 26.4274L15.7742 28.2468V41.2267H38.2262V28.2468L36.0425 26.4274C36.0034 26.3948 35.9711 26.3549 35.9475 26.3098C35.9238 26.2647 35.9093 26.2154 35.9047 26.1648C35.9001 26.1141 35.9055 26.063 35.9207 26.0144C35.9358 25.9658 35.9604 25.9207 35.993 25.8816C36.0588 25.8026 36.1532 25.7531 36.2556 25.7438C36.3063 25.7392 36.3574 25.7446 36.406 25.7597C36.4546 25.7749 36.4997 25.7995 36.5388 25.832L38.8614 27.7676C38.905 27.8039 38.94 27.8495 38.964 27.9009C38.988 27.9524 39.0004 28.0085 39.0004 28.0652V41.6138C39.0004 41.7165 38.9596 41.815 38.887 41.8876C38.8144 41.9601 38.7159 42.0009 38.6133 42.0009Z" fill="#018F6A" fill-opacity="0.8"/>
<path d="M27.0013 35.8058C26.9297 35.8057 26.8596 35.7858 26.7985 35.7485L16.7338 29.5548C16.6525 29.4984 16.5958 29.4129 16.5756 29.3159C16.5553 29.219 16.573 29.118 16.625 29.0337C16.6769 28.9493 16.7593 28.8882 16.855 28.8627C16.9507 28.8372 17.0525 28.8494 17.1395 28.8968L27.0013 34.9642L36.8632 28.8952C36.9064 28.8652 36.9553 28.8444 37.0068 28.8339C37.0583 28.8234 37.1115 28.8236 37.163 28.8343C37.2145 28.8451 37.2632 28.8662 37.3063 28.8965C37.3493 28.9267 37.3857 28.9654 37.4133 29.0101C37.4409 29.0549 37.4591 29.1048 37.4668 29.1569C37.4745 29.2089 37.4714 29.262 37.4579 29.3128C37.4444 29.3636 37.4207 29.4112 37.3881 29.4525C37.3556 29.4939 37.315 29.5282 37.2688 29.5533L27.2042 35.7469C27.1433 35.7848 27.0731 35.8052 27.0013 35.8058Z" fill="#018F6A" fill-opacity="0.8"/>
<path d="M16.936 40.451C16.855 40.451 16.7762 40.4257 16.7104 40.3785C16.6446 40.3314 16.5953 40.2648 16.5693 40.1882C16.5433 40.1115 16.542 40.0287 16.5656 39.9513C16.5891 39.8739 16.6364 39.8058 16.7006 39.7566L23.2813 34.7242C23.3631 34.6659 23.4644 34.6417 23.5637 34.6567C23.663 34.6716 23.7526 34.7246 23.8136 34.8043C23.8746 34.8841 23.9022 34.9845 23.8906 35.0842C23.8789 35.184 23.829 35.2753 23.7513 35.339L17.1705 40.3713C17.1033 40.4231 17.0208 40.4511 16.936 40.451Z" fill="#018F6A" fill-opacity="0.8"/>
<path d="M37.0646 40.4511C36.9798 40.4512 36.8973 40.4232 36.8301 40.3714L30.2493 35.339C30.207 35.3089 30.1712 35.2706 30.1441 35.2263C30.1169 35.182 30.099 35.1328 30.0912 35.0814C30.0835 35.0301 30.0862 34.9777 30.0991 34.9274C30.112 34.8771 30.135 34.83 30.1665 34.7887C30.198 34.7475 30.2375 34.713 30.2827 34.6873C30.3278 34.6617 30.3776 34.6453 30.4292 34.6393C30.4808 34.6333 30.533 34.6377 30.5829 34.6523C30.6327 34.6669 30.6791 34.6914 30.7193 34.7243L37.3 39.7566C37.3643 39.8058 37.4115 39.8739 37.435 39.9513C37.4586 40.0288 37.4573 40.1116 37.4313 40.1883C37.4053 40.2649 37.356 40.3315 37.2902 40.3786C37.2245 40.4258 37.1456 40.4511 37.0646 40.4511Z" fill="#018F6A" fill-opacity="0.8"/>
<path d="M17.7094 30.0002C17.6067 30.0002 17.5082 29.9594 17.4356 29.8868C17.363 29.8142 17.3223 29.7157 17.3223 29.6131V18.3871C17.3223 18.2844 17.363 18.186 17.4356 18.1134C17.5082 18.0408 17.6067 18 17.7094 18H32.8064C32.909 18 33.0075 18.0408 33.0801 18.1134C33.1527 18.186 33.1935 18.2844 33.1935 18.3871C33.1935 18.4898 33.1527 18.5882 33.0801 18.6608C33.0075 18.7334 32.909 18.7742 32.8064 18.7742H18.0965V29.6131C18.0965 29.7157 18.0557 29.8142 17.9831 29.8868C17.9105 29.9594 17.812 30.0002 17.7094 30.0002Z" fill="#018F6A" fill-opacity="0.8"/>
<path d="M36.2914 30.0006C36.1887 30.0006 36.0903 29.9598 36.0177 29.8873C35.9451 29.8147 35.9043 29.7162 35.9043 29.6135V21.8715C35.9043 21.7688 35.9451 21.6704 36.0177 21.5978C36.0903 21.5252 36.1887 21.4844 36.2914 21.4844C36.3941 21.4844 36.4925 21.5252 36.5651 21.5978C36.6377 21.6704 36.6785 21.7688 36.6785 21.8715V29.6135C36.6785 29.7162 36.6377 29.8147 36.5651 29.8873C36.4925 29.9598 36.3941 30.0006 36.2914 30.0006Z" fill="#018F6A" fill-opacity="0.8"/>
<path d="M36.2909 22.258H32.807C32.7044 22.258 32.6059 22.2173 32.5333 22.1447C32.4607 22.0721 32.4199 21.9736 32.4199 21.8709V18.387C32.4199 18.3105 32.4427 18.2356 32.4852 18.172C32.5277 18.1084 32.5882 18.0588 32.6589 18.0295C32.7296 18.0002 32.8074 17.9925 32.8825 18.0074C32.9576 18.0224 33.0266 18.0592 33.0807 18.1133L36.5646 21.5973C36.6188 21.6514 36.6556 21.7204 36.6705 21.7954C36.6855 21.8705 36.6778 21.9483 36.6485 22.0191C36.6192 22.0898 36.5696 22.1502 36.506 22.1928C36.4423 22.2353 36.3675 22.258 36.2909 22.258ZM33.1941 21.4838H35.3565L33.1941 19.3215V21.4838Z" fill="#018F6A" fill-opacity="0.8"/>
<path d="M33.1943 28.0652H20.807C20.7044 28.0652 20.6059 28.0244 20.5333 27.9518C20.4607 27.8792 20.4199 27.7808 20.4199 27.6781C20.4199 27.5755 20.4607 27.477 20.5333 27.4044C20.6059 27.3318 20.7044 27.291 20.807 27.291H33.1943C33.297 27.291 33.3954 27.3318 33.468 27.4044C33.5406 27.477 33.5814 27.5755 33.5814 27.6781C33.5814 27.7808 33.5406 27.8792 33.468 27.9518C33.3954 28.0244 33.297 28.0652 33.1943 28.0652Z" fill="#018F6A" fill-opacity="0.8"/>
<path d="M33.1943 29.9988H20.807C20.7044 29.9988 20.6059 29.958 20.5333 29.8854C20.4607 29.8128 20.4199 29.7144 20.4199 29.6117C20.4199 29.509 20.4607 29.4106 20.5333 29.338C20.6059 29.2654 20.7044 29.2246 20.807 29.2246H33.1943C33.297 29.2246 33.3954 29.2654 33.468 29.338C33.5406 29.4106 33.5814 29.509 33.5814 29.6117C33.5814 29.7144 33.5406 29.8128 33.468 29.8854C33.3954 29.958 33.297 29.9988 33.1943 29.9988Z" fill="#018F6A" fill-opacity="0.8"/>
<path d="M29.7108 31.9344H24.2914C24.1887 31.9344 24.0903 31.8936 24.0177 31.821C23.9451 31.7484 23.9043 31.6499 23.9043 31.5473C23.9043 31.4446 23.9451 31.3461 24.0177 31.2735C24.0903 31.2009 24.1887 31.1602 24.2914 31.1602H29.7108C29.8135 31.1602 29.912 31.2009 29.9846 31.2735C30.0572 31.3461 30.0979 31.4446 30.0979 31.5473C30.0979 31.6499 30.0572 31.7484 29.9846 31.821C29.912 31.8936 29.8135 31.9344 29.7108 31.9344Z" fill="#018F6A" fill-opacity="0.8"/>
<path d="M64 11.892L61.1699 8.74979L61.613 4.54324L57.4747 3.66712L55.3637 0L51.5 1.72672L47.6364 0L45.5254 3.66712L41.387 4.54324L41.8301 8.74979L39 11.892L41.8301 15.0341L41.387 19.2407L45.5253 20.1168L47.6363 23.7839L51.5 22.0571L55.3636 23.7839L57.4746 20.1168L61.613 19.2407L61.1698 15.0341L64 11.892ZM56.7403 9.15497L50.4658 16.1846L46.1057 11.8245L47.1428 10.7875L50.4052 14.05L55.6462 8.17834L56.7403 9.15497Z" fill="#018F6A" fill-opacity="0.85"/>
</svg>
