<svg width="48" height="48" viewBox="0 0 48 48" fill="none" xmlns="http://www.w3.org/2000/svg">
<g filter="url(#filter0_f_1065_1210)">
<circle cx="24" cy="24" r="20" fill="#87FFE0" fill-opacity="0.3"/>
<circle cx="24" cy="24" r="19.75" stroke="#018F6A" stroke-width="0.5"/>
</g>
<circle cx="23.5837" cy="24.4167" r="17.9167" fill="#272B3A"/>
<path d="M23.7139 18.6992C21.0068 18.6992 18.792 20.9141 18.792 23.6211C18.792 26.3281 21.0068 28.543 23.7139 28.543C26.4209 28.543 28.6357 26.3281 28.6357 23.6211C28.6357 20.9141 26.4209 18.6992 23.7139 18.6992ZM23.7139 27.8398C21.3936 27.8398 19.4951 25.9414 19.4951 23.6211C19.4951 21.3008 21.3936 19.4023 23.7139 19.4023C26.0342 19.4023 27.9326 21.3008 27.9326 23.6211C27.9326 25.9414 26.0342 27.8398 23.7139 27.8398Z" fill="#018F6A" fill-opacity="0.85"/>
<path d="M25.1201 23.6211C25.1201 22.8477 24.4873 22.2148 23.7139 22.2148C22.9404 22.2148 22.3076 22.8477 22.3076 23.6211C22.3076 24.3945 22.9404 25.0273 23.7139 25.0273C24.4873 25.0273 25.1201 24.3945 25.1201 23.6211ZM23.0107 23.6211C23.0107 23.2344 23.3271 22.918 23.7139 22.918C24.1006 22.918 24.417 23.2344 24.417 23.6211C24.417 24.0078 24.1006 24.3242 23.7139 24.3242C23.3271 24.3242 23.0107 24.0078 23.0107 23.6211Z" fill="#018F6A" fill-opacity="0.85"/>
<path d="M30.6045 20.0342C29.4443 18.9443 28.0381 18.1357 26.4912 17.7139C24.6982 17.1865 22.7646 17.1865 20.9717 17.7139C19.46 18.1357 18.0186 18.9443 16.8584 20.0342L13.2725 23.374C13.2021 23.4443 13.167 23.5146 13.167 23.6201C13.167 23.7256 13.2021 23.7959 13.2725 23.8662L16.085 26.6787C17.7373 28.3311 19.8818 29.3857 22.2021 29.7373C22.6943 29.8076 23.2217 29.8428 23.7139 29.8428C24.2061 29.8428 24.7334 29.8076 25.2256 29.7373C27.5107 29.4209 29.6904 28.3311 31.3428 26.6787L34.1553 23.8662C34.2256 23.7959 34.2607 23.6904 34.2607 23.6201C34.2607 23.5146 34.2256 23.4443 34.1553 23.374L30.6045 20.0342ZM30.8506 26.1865C29.3037 27.7334 27.2998 28.7178 25.1553 29.0342C24.2061 29.1748 23.2568 29.1748 22.3076 29.0342C20.1631 28.7178 18.124 27.6982 16.6123 26.1865L14.0107 23.6201L17.3154 20.5264C18.4053 19.5068 19.7061 18.7686 21.1475 18.3818C22.835 17.8896 24.6279 17.8896 26.2803 18.3818C27.6865 18.8037 29.0225 19.542 30.1123 20.5264L33.417 23.6201L30.8506 26.1865Z" fill="#018F6A" fill-opacity="0.85"/>
<path d="M14.9248 15.1836V17.6445H15.6279V15.5352H17.7373V14.832H15.2764C15.0654 14.832 14.9248 14.9727 14.9248 15.1836Z" fill="#018F6A" fill-opacity="0.85"/>
<path d="M15.6279 29.5977H14.9248V32.0586C14.9248 32.2695 15.0654 32.4102 15.2764 32.4102H17.7373V31.707H15.6279V29.5977Z" fill="#018F6A" fill-opacity="0.85"/>
<path d="M32.5029 17.6445V15.1836C32.5029 14.9727 32.3623 14.832 32.1514 14.832H29.6904V15.5352H31.7998V17.6445H32.5029Z" fill="#018F6A" fill-opacity="0.85"/>
<path d="M31.7998 31.707H29.6904V32.4102H32.1514C32.3623 32.4102 32.5029 32.2695 32.5029 32.0586V29.5977H31.7998V31.707Z" fill="#018F6A" fill-opacity="0.85"/>
<path d="M24.4873 20.1758C24.2412 20.1406 23.96 20.1055 23.7139 20.1055V20.8086C23.9248 20.8086 24.1357 20.8438 24.3467 20.8789L24.4873 20.1758Z" fill="#018F6A" fill-opacity="0.85"/>
<path d="M23.7139 26.4336C23.5381 26.4336 23.3623 26.4336 23.1865 26.3984L23.0459 27.1016C23.2568 27.1367 23.5029 27.1719 23.7139 27.1719H23.8193L23.7842 26.4687L23.7139 26.4336Z" fill="#018F6A" fill-opacity="0.85"/>
<path d="M21.6396 26.4687C21.8506 26.6094 22.0615 26.75 22.3076 26.8555L22.5889 26.2227C22.4131 26.1523 22.2021 26.0469 22.0615 25.9062L21.6396 26.4687Z" fill="#018F6A" fill-opacity="0.85"/>
<path d="M20.9014 23.7617L20.1982 23.7969C20.1982 24.043 20.2686 24.3242 20.3037 24.5703L20.9717 24.3945C20.9365 24.1836 20.9014 23.9727 20.9014 23.7617Z" fill="#018F6A" fill-opacity="0.85"/>
<path d="M20.6201 25.2734C20.7607 25.5195 20.9014 25.7305 21.0771 25.9062L21.6045 25.4492C21.4639 25.3086 21.3584 25.1328 21.2529 24.9219L20.6201 25.2734Z" fill="#018F6A" fill-opacity="0.85"/>
<path d="M25.8936 21.8633C26.0342 22.0391 26.1396 22.2148 26.2451 22.3906L26.8779 22.0742C26.7725 21.8281 26.6318 21.6172 26.4561 21.4062L25.8936 21.8633Z" fill="#018F6A" fill-opacity="0.85"/>
<path d="M26.5264 23.5859H27.2295C27.2295 23.3398 27.1943 23.0586 27.124 22.8125L26.4561 22.9883C26.4912 23.1641 26.5264 23.375 26.5264 23.5859Z" fill="#018F6A" fill-opacity="0.85"/>
<path d="M25.5068 25.7656L25.9639 26.293C26.1748 26.1172 26.3506 25.9414 26.4912 25.7305L25.9287 25.3086C25.8232 25.4844 25.6826 25.625 25.5068 25.7656Z" fill="#018F6A" fill-opacity="0.85"/>
<path d="M26.2803 24.7813L26.9131 25.0625C27.0186 24.8164 27.0889 24.5703 27.1592 24.3242L26.4561 24.1836C26.4209 24.3945 26.3506 24.6055 26.2803 24.7813Z" fill="#018F6A" fill-opacity="0.85"/>
<path d="M24.417 26.3281L24.5928 26.9961C24.8389 26.9258 25.085 26.8203 25.3311 26.7148L25.0146 26.082C24.8037 26.2227 24.6279 26.293 24.417 26.3281Z" fill="#018F6A" fill-opacity="0.85"/>
<path d="M25.2256 20.457L24.9092 21.0898C25.085 21.1953 25.2607 21.3008 25.4365 21.4063L25.8584 20.8438C25.6826 20.7031 25.4717 20.5625 25.2256 20.457Z" fill="#018F6A" fill-opacity="0.85"/>
<defs>
<filter id="filter0_f_1065_1210" x="0" y="0" width="48" height="48" filterUnits="userSpaceOnUse" color-interpolation-filters="sRGB">
<feFlood flood-opacity="0" result="BackgroundImageFix"/>
<feBlend mode="normal" in="SourceGraphic" in2="BackgroundImageFix" result="shape"/>
<feGaussianBlur stdDeviation="2" result="effect1_foregroundBlur_1065_1210"/>
</filter>
</defs>
</svg>
