<svg width="24" height="24" viewBox="0 0 24 24" fill="none" xmlns="http://www.w3.org/2000/svg">
<path d="M23.589 11.8093C23.5569 11.7583 23.5123 11.7163 23.4595 11.6873C23.4068 11.6582 23.3475 11.6429 23.2872 11.643H21.1272C21.111 11.5981 21.086 11.5569 21.0536 11.5218L19.105 9.38318C19.0719 9.34677 19.0315 9.31762 18.9865 9.29758C18.9416 9.27754 18.8929 9.26704 18.8437 9.26675H17.8599L15.7664 7.00457C15.7331 6.96859 15.6926 6.93988 15.6476 6.92026C15.6027 6.90063 15.5541 6.8905 15.505 6.89051H8.55454V2.96972C8.55454 2.87518 8.51699 2.78452 8.45015 2.71768C8.3833 2.65083 8.29264 2.61328 8.19811 2.61328H6.53474C6.44021 2.61328 6.34955 2.65083 6.28271 2.71768C6.21586 2.78452 6.17831 2.87518 6.17831 2.96972V6.89051H4.15851C4.06397 6.89051 3.97331 6.92806 3.90647 6.99491C3.83962 7.06175 3.80207 7.15241 3.80207 7.24694V9.26675H2.97039C2.87585 9.26675 2.78519 9.3043 2.71835 9.37114C2.6515 9.43799 2.61395 9.52865 2.61395 9.62318V11.643H0.950585C0.893446 11.6428 0.837092 11.6563 0.786272 11.6824C0.735452 11.7085 0.691657 11.7465 0.658578 11.7931C0.625498 11.8397 0.604105 11.8935 0.5962 11.9501C0.588296 12.0067 0.594112 12.0644 0.613159 12.1182L3.10583 19.2469C3.13048 19.3167 3.1762 19.377 3.23666 19.4196C3.29711 19.4621 3.36931 19.4849 3.44326 19.4846H19.8393C19.9064 19.4845 19.972 19.4655 20.0288 19.4298C20.0855 19.394 20.131 19.343 20.1601 19.2826L23.6009 12.1539C23.6282 12.1001 23.6414 12.0403 23.6394 11.9801C23.6373 11.9198 23.62 11.8611 23.589 11.8093ZM6.89118 3.32615H7.84167V6.89051H6.89118V3.32615ZM4.51494 7.60338H15.3482L16.888 9.26675H4.51494V7.60338ZM3.32682 9.97962H18.6868L20.1981 11.643H3.32682V9.97962ZM19.6231 18.7717H3.70227L1.45197 12.3559H22.7193L19.6231 18.7717Z" fill="#E4E4E7"/>
<path d="M5.94039 16.871C6.22238 16.871 6.49803 16.7874 6.73249 16.6307C6.96695 16.4741 7.1497 16.2514 7.25761 15.9909C7.36552 15.7304 7.39375 15.4437 7.33874 15.1671C7.28373 14.8906 7.14794 14.6365 6.94854 14.4371C6.74915 14.2377 6.49511 14.1019 6.21854 14.0469C5.94197 13.9919 5.6553 14.0201 5.39478 14.1281C5.13426 14.236 4.91159 14.4187 4.75493 14.6532C4.59827 14.8876 4.51465 15.1633 4.51465 15.4453C4.51465 15.8234 4.66486 16.186 4.93224 16.4534C5.19962 16.7208 5.56226 16.871 5.94039 16.871ZM5.94039 14.7324C6.08138 14.7324 6.21921 14.7742 6.33644 14.8525C6.45367 14.9309 6.54504 15.0422 6.599 15.1725C6.65295 15.3027 6.66707 15.4461 6.63957 15.5843C6.61206 15.7226 6.54416 15.8497 6.44447 15.9494C6.34477 16.049 6.21775 16.1169 6.07947 16.1444C5.94118 16.172 5.79785 16.1578 5.66759 16.1039C5.53733 16.0499 5.42599 15.9586 5.34766 15.8413C5.26933 15.7241 5.22752 15.5863 5.22752 15.4453C5.22752 15.2562 5.30263 15.0749 5.43632 14.9412C5.57 14.8075 5.75133 14.7324 5.94039 14.7324Z" fill="#E4E4E7"/>
<path d="M11.7646 16.871C12.0466 16.871 12.3222 16.7874 12.5567 16.6307C12.7912 16.4741 12.9739 16.2514 13.0818 15.9909C13.1897 15.7304 13.218 15.4437 13.163 15.1671C13.1079 14.8906 12.9722 14.6365 12.7728 14.4371C12.5734 14.2377 12.3193 14.1019 12.0428 14.0469C11.7662 13.9919 11.4795 14.0201 11.219 14.1281C10.9585 14.236 10.7358 14.4187 10.5791 14.6532C10.4225 14.8876 10.3389 15.1633 10.3389 15.4453C10.3389 15.8234 10.4891 16.186 10.7565 16.4534C11.0238 16.7208 11.3865 16.871 11.7646 16.871ZM11.7646 14.7324C11.9056 14.7324 12.0434 14.7742 12.1607 14.8525C12.2779 14.9309 12.3693 15.0422 12.4232 15.1725C12.4772 15.3027 12.4913 15.4461 12.4638 15.5843C12.4363 15.7226 12.3684 15.8497 12.2687 15.9494C12.169 16.049 12.042 16.1169 11.9037 16.1444C11.7654 16.172 11.6221 16.1578 11.4918 16.1039C11.3615 16.0499 11.2502 15.9586 11.1719 15.8413C11.0935 15.7241 11.0517 15.5863 11.0517 15.4453C11.0517 15.2562 11.1268 15.0749 11.2605 14.9412C11.3942 14.8075 11.5755 14.7324 11.7646 14.7324Z" fill="#E4E4E7"/>
<path d="M17.5839 16.871C17.8659 16.871 18.1416 16.7874 18.376 16.6307C18.6105 16.4741 18.7933 16.2514 18.9012 15.9909C19.0091 15.7304 19.0373 15.4437 18.9823 15.1671C18.9273 14.8906 18.7915 14.6365 18.5921 14.4371C18.3927 14.2377 18.1387 14.1019 17.8621 14.0469C17.5855 13.9919 17.2989 14.0201 17.0383 14.1281C16.7778 14.236 16.5551 14.4187 16.3985 14.6532C16.2418 14.8876 16.1582 15.1633 16.1582 15.4453C16.1582 15.8234 16.3084 16.186 16.5758 16.4534C16.8432 16.7208 17.2058 16.871 17.5839 16.871ZM17.5839 14.7324C17.7249 14.7324 17.8628 14.7742 17.98 14.8525C18.0972 14.9309 18.1886 15.0422 18.2426 15.1725C18.2965 15.3027 18.3106 15.4461 18.2831 15.5843C18.2556 15.7226 18.1877 15.8497 18.088 15.9494C17.9883 16.049 17.8613 16.1169 17.723 16.1444C17.5847 16.172 17.4414 16.1578 17.3111 16.1039C17.1809 16.0499 17.0695 15.9586 16.9912 15.8413C16.9129 15.7241 16.8711 15.5863 16.8711 15.4453C16.8711 15.2562 16.9462 15.0749 17.0799 14.9412C17.2136 14.8075 17.3949 14.7324 17.5839 14.7324Z" fill="#E4E4E7"/>
</svg>
