<svg width="17" height="17" viewBox="0 0 17 17" fill="none" xmlns="http://www.w3.org/2000/svg">
<path d="M15.8744 7.50081L14.4223 6.04873V3.98748C14.4223 3.61175 14.2731 3.25142 14.0074 2.98574C13.7417 2.72007 13.3814 2.57081 13.0057 2.57081H10.9515L9.4994 1.15414C9.23397 0.890288 8.87491 0.742188 8.50065 0.742188C8.12639 0.742188 7.76733 0.890288 7.5019 1.15414L6.04982 2.57789H3.98857C3.61284 2.57789 3.25251 2.72715 2.98683 2.99283C2.72116 3.2585 2.5719 3.61884 2.5719 3.99456V6.04873L1.15523 7.50081C1.01837 7.6294 0.908431 7.78392 0.831821 7.95538C0.755211 8.12684 0.713456 8.31182 0.708985 8.49956C0.708686 8.87366 0.856374 9.2327 1.11982 9.49831L2.57898 10.9504V13.0116C2.57898 13.3874 2.72824 13.7477 2.99392 14.0134C3.25959 14.2791 3.61993 14.4283 3.99565 14.4283H6.04982L7.5019 15.8804C7.76751 16.1438 8.12655 16.2915 8.50065 16.2912C8.87475 16.2915 9.23379 16.1438 9.4994 15.8804L10.9515 14.4212H13.0127C13.3885 14.4212 13.7488 14.272 14.0145 14.0063C14.2801 13.7406 14.4294 13.3803 14.4294 13.0046V10.9504L15.8815 9.49831C16.1453 9.23288 16.2934 8.87383 16.2934 8.49956C16.2934 8.1253 16.1453 7.76624 15.8815 7.50081H15.8744ZM13.0057 10.3696V13.0046H10.3707L8.50065 14.8746L6.63065 13.0046H3.99565V10.3696L2.12565 8.49956L3.99565 6.62956V3.99456H6.63065L8.50065 2.12456L10.3707 3.99456H13.0057V6.62956L14.8756 8.49956L13.0057 10.3696Z" fill="#018F6A" fill-opacity="0.85"/>
<path d="M7.79198 9.01727L6.1699 7.39518L5.16406 8.39393L7.79198 11.0219L11.8366 6.97727L10.8307 5.97852L7.79198 9.01727Z" fill="#018F6A" fill-opacity="0.85"/>
</svg>
