<svg width="80" height="77" viewBox="0 0 80 77" fill="none" xmlns="http://www.w3.org/2000/svg">
<path d="M80 38.0543L70.9436 27.9993L72.3616 14.5384L59.1189 11.7348L52.3638 0L40.0001 5.5255L27.6364 0L20.8813 11.7348L7.63854 14.5384L9.05637 27.9993L0 38.0543L9.05621 48.1092L7.63839 61.5702L20.8811 64.3737L27.6362 76.1085L39.9999 70.5829L52.3636 76.1085L59.1187 64.3737L72.3615 61.5702L70.9435 48.1092L80 38.0543ZM56.769 29.2959L36.6906 51.7909L22.7382 37.8385L26.0568 34.52L36.4967 44.9599L53.2677 26.1707L56.769 29.2959Z" fill="#7F0606"/>
<path d="M40.4375 8.875C24.1108 8.875 10.875 22.1108 10.875 38.4375C10.875 54.7642 24.1108 68 40.4375 68C56.7642 68 70 54.7642 70 38.4375C70 22.1108 56.7642 8.875 40.4375 8.875Z" fill="#7F0606"/>
<path d="M50.889 24.5031L40.437 34.9551L29.9851 24.5031C29.0226 23.5406 27.464 23.5406 26.5016 24.5031C25.5392 25.4655 25.5392 27.0241 26.5016 27.9865L36.9536 38.4385L26.5016 48.8905C25.5392 49.8529 25.5392 51.4115 26.5016 52.3739C27.464 53.3364 29.0226 53.3364 29.9851 52.3739L40.437 41.9219L50.889 52.3739C51.8514 53.3364 53.41 53.3364 54.3725 52.3739C55.3349 51.4115 55.3349 49.8529 54.3725 48.8905L43.9205 38.4385L54.3725 27.9865C55.3349 27.0241 55.3349 25.4655 54.3725 24.5031C53.4117 23.5406 51.8514 23.5406 50.889 24.5031Z" fill="#22242C"/>
</svg>
