<svg width="24" height="16" viewBox="0 0 24 16" fill="none" xmlns="http://www.w3.org/2000/svg">
<path d="M23.5909 7.63636H21.5455V4.22727C21.5455 4.11878 21.5024 4.01472 21.4256 3.938C21.3489 3.86128 21.2449 3.81818 21.1364 3.81818H14.7273V0.409091C14.7273 0.300593 14.6842 0.19654 14.6075 0.11982C14.5307 0.0431007 14.4267 0 14.3182 0H0.409091C0.300593 0 0.196539 0.0431007 0.11982 0.11982C0.0431005 0.19654 0 0.300593 0 0.409091V13.2273C0 13.3358 0.0431005 13.4398 0.11982 13.5165C0.196539 13.5933 0.300593 13.6364 0.409091 13.6364H3.52364C3.57933 14.1476 3.82184 14.6202 4.20462 14.9635C4.58741 15.3069 5.08351 15.4968 5.59773 15.4968C6.11194 15.4968 6.60804 15.3069 6.99083 14.9635C7.37362 14.6202 7.61613 14.1476 7.67182 13.6364H16.8218C16.8776 14.1483 17.1204 14.6215 17.5037 14.9654C17.887 15.3092 18.3837 15.4993 18.8986 15.4993C19.4135 15.4993 19.9103 15.3092 20.2936 14.9654C20.6769 14.6215 20.9197 14.1483 20.9755 13.6364H23.5909C23.6994 13.6364 23.8035 13.5933 23.8802 13.5165C23.9569 13.4398 24 13.3358 24 13.2273V8.04545C24 7.93696 23.9569 7.8329 23.8802 7.75618C23.8035 7.67946 23.6994 7.63636 23.5909 7.63636V7.63636ZM5.59091 14.6836C5.3392 14.6847 5.09284 14.611 4.88307 14.4719C4.67329 14.3328 4.50955 14.1345 4.4126 13.9022C4.31565 13.67 4.28986 13.4141 4.3385 13.1671C4.38715 12.9202 4.50803 12.6932 4.68582 12.515C4.86362 12.3369 5.09032 12.2155 5.33718 12.1663C5.58403 12.1171 5.83994 12.1424 6.07244 12.2388C6.30493 12.3353 6.50356 12.4986 6.64312 12.7081C6.78268 12.9175 6.8569 13.1637 6.85636 13.4155C6.85568 13.7492 6.72371 14.0693 6.48897 14.3066C6.25423 14.5439 5.93557 14.6793 5.60182 14.6836H5.59091ZM5.59091 11.3264C5.14308 11.3292 4.70797 11.4756 4.34958 11.7441C3.99119 12.0127 3.72845 12.3892 3.6 12.8182H0.818182V0.818182H13.9091V12.8182H7.59818C7.46985 12.388 7.20639 12.0107 6.84682 11.742C6.48724 11.4733 6.05069 11.3276 5.60182 11.3264H5.59091ZM18.8973 14.6836C18.6458 14.6836 18.4 14.609 18.1909 14.4693C17.9819 14.3295 17.819 14.1308 17.7228 13.8985C17.6267 13.6661 17.6017 13.4104 17.651 13.1638C17.7002 12.9172 17.8216 12.6907 17.9996 12.5131C18.1776 12.3355 18.4043 12.2146 18.651 12.1659C18.8977 12.1172 19.1533 12.1427 19.3855 12.2393C19.6177 12.336 19.816 12.4993 19.9553 12.7086C20.0946 12.918 20.1687 13.164 20.1682 13.4155C20.1675 13.752 20.0332 14.0746 19.795 14.3124C19.5567 14.5501 19.2339 14.6836 18.8973 14.6836ZM23.1818 12.8182H20.8991C20.7683 12.391 20.504 12.0171 20.1448 11.7515C19.7857 11.4858 19.3508 11.3425 18.9041 11.3425C18.4574 11.3425 18.0225 11.4858 17.6633 11.7515C17.3042 12.0171 17.0398 12.391 16.9091 12.8182H14.7273V4.63636H20.7273V8.04545C20.7273 8.15395 20.7704 8.25801 20.8471 8.33473C20.9238 8.41145 21.0279 8.45455 21.1364 8.45455H23.1818V12.8182Z" fill="#E4E4E7"/>
<path d="M2.59073 4.90981H10.9089L9.54528 6.27345C9.50508 6.3109 9.47285 6.35607 9.45049 6.40625C9.42813 6.45643 9.41611 6.5106 9.41514 6.56553C9.41417 6.62046 9.42427 6.67502 9.44485 6.72596C9.46542 6.7769 9.49605 6.82317 9.53489 6.86202C9.57374 6.90086 9.62001 6.93149 9.67095 6.95206C9.72189 6.97264 9.77645 6.98274 9.83138 6.98177C9.88631 6.9808 9.94048 6.96878 9.99066 6.94642C10.0408 6.92406 10.086 6.89182 10.1235 6.85163L11.9589 5.01618C12.0355 4.93947 12.0786 4.8355 12.0786 4.72709C12.0786 4.61868 12.0355 4.5147 11.9589 4.438L10.1235 2.60254C10.0848 2.56458 10.039 2.5346 9.98874 2.51433C9.93847 2.49406 9.88471 2.48389 9.83051 2.48439C9.77632 2.4849 9.72275 2.49608 9.67287 2.51728C9.623 2.53849 9.57779 2.56932 9.53982 2.608C9.50186 2.64668 9.47189 2.69245 9.45161 2.74272C9.43134 2.79298 9.42117 2.84675 9.42167 2.90094C9.42218 2.95514 9.43336 3.0087 9.45457 3.05858C9.47577 3.10846 9.5066 3.15367 9.54528 3.19163L10.4453 4.09163H2.59073C2.48223 4.09163 2.37818 4.13473 2.30146 4.21145C2.22474 4.28817 2.18164 4.39222 2.18164 4.50072C2.18164 4.60922 2.22474 4.71327 2.30146 4.78999C2.37818 4.86671 2.48223 4.90981 2.59073 4.90981Z" fill="#E4E4E7"/>
<path d="M11.4541 8.86605C11.4541 8.75755 11.411 8.65349 11.3343 8.57678C11.2576 8.50006 11.1535 8.45696 11.045 8.45696H2.75413L4.09049 7.12332C4.12827 7.085 4.15814 7.03961 4.17838 6.98974C4.19863 6.93988 4.20885 6.88651 4.20847 6.8327C4.20809 6.77888 4.19712 6.72567 4.17617 6.6761C4.15523 6.62652 4.12472 6.58156 4.0864 6.54377C4.04808 6.50599 4.00269 6.47612 3.95282 6.45588C3.90296 6.43564 3.84959 6.42541 3.79578 6.42579C3.74196 6.42617 3.68875 6.43715 3.63917 6.45809C3.5896 6.47904 3.54464 6.50954 3.50685 6.54786L1.6714 8.38332C1.59479 8.46002 1.55176 8.564 1.55176 8.67241C1.55176 8.78082 1.59479 8.8848 1.6714 8.9615L3.50685 10.797C3.58389 10.8744 3.68851 10.918 3.79771 10.9182C3.9069 10.9185 4.01173 10.8754 4.08913 10.7983C4.16652 10.7213 4.21014 10.6167 4.2104 10.5075C4.21066 10.3983 4.16752 10.2934 4.09049 10.216L3.14685 9.27514H11.0559C11.1625 9.27229 11.2638 9.22794 11.3382 9.15153C11.4126 9.07511 11.4542 8.97268 11.4541 8.86605V8.86605Z" fill="#E4E4E7"/>
</svg>
