<svg width="20" height="21" viewBox="0 0 20 21" fill="none" xmlns="http://www.w3.org/2000/svg">
<path d="M9.74447 12.6918C9.74216 12.6918 9.73985 12.6918 9.73754 12.6918C9.31285 12.6879 8.97126 12.3397 8.9751 11.9135L8.97857 11.5278C8.97857 11.5058 8.97972 11.4835 8.98203 11.4615C9.08859 10.3396 9.8314 9.65192 10.4288 9.09926C10.6312 8.91182 10.8227 8.7348 10.9858 8.55006C11.1847 8.32522 11.4732 7.86473 11.1697 7.30898C10.82 6.66722 9.96604 6.48557 9.30247 6.63791C8.60927 6.79681 8.35385 7.39035 8.26306 7.72974C8.15304 8.14125 7.73105 8.38538 7.32059 8.27546C6.91014 8.16516 6.66664 7.74208 6.77627 7.33057C7.08286 6.18244 7.87838 5.38217 8.95856 5.13419C10.4123 4.80135 11.8764 5.39027 12.5192 6.56849C13.0543 7.54964 12.9077 8.70086 12.1364 9.57324C11.9221 9.81544 11.6933 10.0276 11.4717 10.2324C10.9197 10.7434 10.5746 11.0851 10.5161 11.5783L10.5131 11.9266C10.51 12.3512 10.1661 12.6918 9.74447 12.6918Z" fill="#E4E4E7" fill-opacity="0.8"/>
<path d="M9.73811 15.0048C9.53808 15.0048 9.33804 14.9238 9.19571 14.7811C9.04953 14.6384 8.96875 14.4378 8.96875 14.2334C8.96875 14.0329 9.04953 13.8323 9.19571 13.6896C9.48038 13.4042 9.99585 13.4042 10.2805 13.6896C10.4267 13.8323 10.5075 14.0329 10.5075 14.2334C10.5075 14.4378 10.4267 14.6345 10.2844 14.7811C10.1382 14.9238 9.94199 15.0048 9.73811 15.0048Z" fill="#E4E4E7" fill-opacity="0.8"/>
<path d="M9.97253 20.0554C9.09738 20.0554 8.22993 19.9412 7.39401 19.7156C3.79187 18.7441 0.971388 15.7525 0.208566 12.0936C-0.568874 8.36614 0.865985 4.44774 3.86457 2.11097C5.59794 0.759967 7.78408 0.015625 10.0206 0.015625C11.569 0.015625 13.1065 0.376612 14.4675 1.05886C17.8285 2.74462 20 6.26656 20 10.0318C20 13.1041 18.554 16.0653 16.132 17.9527C14.3925 19.3087 12.2048 20.0554 9.97253 20.0554ZM10.021 1.5583C8.12491 1.5583 6.27383 2.18694 4.80935 3.32891C2.27161 5.30662 1.05679 8.623 1.71498 11.7778C2.36047 14.8728 4.74664 17.4039 7.79408 18.2258C8.49959 18.4159 9.23279 18.5127 9.97253 18.5127H9.97291C11.8648 18.5127 13.7166 17.8814 15.188 16.7348C17.238 15.1373 18.4617 12.6316 18.4617 10.0318C18.4617 6.84583 16.624 3.86538 13.7797 2.43879C12.6311 1.86298 11.3316 1.5583 10.021 1.5583Z" fill="#E4E4E7" fill-opacity="0.8"/>
</svg>
