<svg width="74" height="74" viewBox="0 0 74 74" fill="none" xmlns="http://www.w3.org/2000/svg">
<g filter="url(#filter0_d_1237_6173)">
<circle cx="37" cy="33" r="30" fill="#272B3A"/>
<circle cx="37" cy="33" r="29.25" stroke="url(#paint0_linear_1237_6173)" stroke-width="1.5"/>
</g>
<path d="M44.8212 22.844H40.1998V19.8251C40.1998 19.4562 39.9398 19.1543 39.6221 19.1543H20.2701C19.9523 19.1543 19.6924 19.4562 19.6924 19.8251V42.2987C19.6924 42.6677 19.9523 42.9695 20.2701 42.9695H23.2018C23.4761 44.9653 24.9709 46.4915 26.7689 46.4915C28.5669 46.4915 30.0544 44.9653 30.336 42.9695H39.6221H42.5538C42.8282 44.9653 44.3229 46.4915 46.121 46.4915C47.919 46.4915 49.4065 44.9653 49.6881 42.9695H52.6198C52.9375 42.9695 53.1975 42.6677 53.1975 42.2987V32.5713C53.1975 27.2045 49.4426 22.844 44.8212 22.844ZM52.0277 31.9843H46.4026C45.2039 31.9843 44.2219 30.8523 44.2219 29.4519V24.1857H44.8212C48.6338 24.1857 51.7605 27.6322 52.0277 31.9843ZM39.0445 20.496V35.5063H20.8477V20.496H39.0445ZM23.2018 41.6278H20.8477V36.848H39.0445V41.6278H30.336C30.0616 39.6321 28.5669 38.1059 26.7689 38.1059C24.9709 38.1059 23.4834 39.6321 23.2018 41.6278ZM26.7689 45.1498C25.4186 45.1498 24.3138 43.8668 24.3138 42.2987C24.3138 40.7306 25.4186 39.4476 26.7689 39.4476C28.1192 39.4476 29.224 40.7306 29.224 42.2987C29.224 43.8668 28.1192 45.1498 26.7689 45.1498ZM46.121 45.1498C44.7706 45.1498 43.6658 43.8668 43.6658 42.2987C43.6658 40.7306 44.7706 39.4476 46.121 39.4476C47.4713 39.4476 48.5761 40.7306 48.5761 42.2987C48.5761 43.8668 47.4713 45.1498 46.121 45.1498ZM49.6881 41.6278C49.4137 39.6321 47.919 38.1059 46.121 38.1059C44.3229 38.1059 42.8354 39.6321 42.5538 41.6278H40.1998V24.1857H43.0665V29.4519C43.0665 31.5902 44.5612 33.326 46.4026 33.326H52.0421V41.6278H49.6881Z" fill="#018F6A" fill-opacity="0.6"/>
<defs>
<filter id="filter0_d_1237_6173" x="0" y="0" width="74" height="74" filterUnits="userSpaceOnUse" color-interpolation-filters="sRGB">
<feFlood flood-opacity="0" result="BackgroundImageFix"/>
<feColorMatrix in="SourceAlpha" type="matrix" values="0 0 0 0 0 0 0 0 0 0 0 0 0 0 0 0 0 0 127 0" result="hardAlpha"/>
<feMorphology radius="1" operator="dilate" in="SourceAlpha" result="effect1_dropShadow_1237_6173"/>
<feOffset dy="4"/>
<feGaussianBlur stdDeviation="3"/>
<feComposite in2="hardAlpha" operator="out"/>
<feColorMatrix type="matrix" values="0 0 0 0 0 0 0 0 0 0 0 0 0 0 0 0 0 0 0.13 0"/>
<feBlend mode="normal" in2="BackgroundImageFix" result="effect1_dropShadow_1237_6173"/>
<feBlend mode="normal" in="SourceGraphic" in2="effect1_dropShadow_1237_6173" result="shape"/>
</filter>
<linearGradient id="paint0_linear_1237_6173" x1="37" y1="3" x2="37" y2="100.5" gradientUnits="userSpaceOnUse">
<stop stop-color="#353A4B"/>
<stop offset="1" stop-color="#353A4B" stop-opacity="0"/>
</linearGradient>
</defs>
</svg>
