<svg width="20" height="14" viewBox="0 0 20 14" fill="none" xmlns="http://www.w3.org/2000/svg">
<path d="M13.1624 6.52227H15.1128C15.2746 6.52227 15.4058 6.39109 15.4058 6.2293C15.4058 6.0675 15.2746 5.93633 15.1128 5.93633H13.1624C13.0189 5.93633 12.9023 5.81961 12.9023 5.67617V2.27773C12.9023 2.06859 13.0726 1.89844 13.282 1.89844H15.3995C15.4154 1.89844 15.4319 1.90992 15.4376 1.92496L16.8369 5.58379C16.8679 5.66465 16.8574 5.75207 16.8083 5.82355C16.759 5.89523 16.6809 5.93633 16.5941 5.93633H16.2816C16.1198 5.93633 15.9886 6.0675 15.9886 6.2293C15.9886 6.39109 16.1198 6.52227 16.2816 6.52227H16.5941C16.8727 6.52227 17.1333 6.38516 17.2912 6.15555C17.4489 5.92605 17.4837 5.63391 17.3841 5.37426L15.9849 1.71547C15.8925 1.47445 15.6573 1.3125 15.3996 1.3125H13.282C12.7496 1.3125 12.3164 1.74551 12.3164 2.27773V5.67617C12.3163 6.1427 12.6959 6.52227 13.1624 6.52227Z" fill="#E4E4E7" fill-opacity="0.8"/>
<path d="M4.84172 10.1504C4.12773 10.1504 3.54688 10.7313 3.54688 11.4453C3.54688 12.1593 4.12773 12.7402 4.84172 12.7402C5.5557 12.7402 6.1366 12.1593 6.1366 11.4453C6.1366 10.7313 5.55574 10.1504 4.84172 10.1504ZM4.84172 12.1542C4.45082 12.1542 4.13281 11.8362 4.13281 11.4453C4.13281 11.0544 4.45086 10.7363 4.84172 10.7363C5.23266 10.7363 5.55066 11.0544 5.55066 11.4453C5.55066 11.8362 5.23266 12.1542 4.84172 12.1542Z" fill="#E4E4E7" fill-opacity="0.8"/>
<path d="M15.1464 10.1504C14.4324 10.1504 13.8516 10.7313 13.8516 11.4453C13.8516 12.1593 14.4324 12.7402 15.1464 12.7402C15.8604 12.7402 16.4413 12.1593 16.4413 11.4453C16.4413 10.7313 15.8604 10.1504 15.1464 10.1504ZM15.1464 12.1542C14.7555 12.1542 14.4375 11.8362 14.4375 11.4453C14.4375 11.0544 14.7555 10.7363 15.1464 10.7363C15.5373 10.7363 15.8554 11.0544 15.8554 11.4453C15.8554 11.8362 15.5373 12.1542 15.1464 12.1542Z" fill="#E4E4E7" fill-opacity="0.8"/>
<path d="M19.4141 9.54188V7.64145C19.4141 7.48031 19.3849 7.32262 19.3275 7.17313L17.0803 1.29699C16.8161 0.605313 16.1409 0.140625 15.4004 0.140625H11.7531C10.8795 0.140625 10.1688 0.851367 10.1688 1.725V5.93645H0.796875C0.635039 5.93645 0.503906 6.06762 0.503906 6.22941V7.82785C0.503906 7.98965 0.635039 8.12082 0.796875 8.12082C0.958711 8.12082 1.08984 7.98965 1.08984 7.82785V6.52238H10.1688V11.1517H7.23824C7.09316 9.95688 6.07332 9.02793 4.84 9.02793C3.60672 9.02793 2.58691 9.9568 2.4418 11.1516H2.21941V10.2909C2.21941 9.86473 1.87273 9.51805 1.44664 9.51805H1.08984V8.99422C1.08984 8.83242 0.958711 8.70125 0.796875 8.70125C0.635039 8.70125 0.503906 8.83242 0.503906 8.99422V9.56727C0.210156 9.67684 0 9.95942 0 10.2909V11.22C0 11.6462 0.34668 11.9928 0.772774 11.9928H1.44664C1.67363 11.9928 1.87742 11.8939 2.01891 11.7375H2.4418C2.58691 12.9323 3.60672 13.8611 4.84 13.8611C6.07328 13.8611 7.09301 12.9323 7.2382 11.7376L12.7486 11.7375C12.8937 12.9323 13.9135 13.8611 15.1468 13.8611C16.38 13.8611 17.3998 12.9323 17.545 11.7375H17.981C18.1225 11.8938 18.3263 11.9928 18.5533 11.9928H19.2271C19.6532 11.9928 19.9999 11.6461 19.9999 11.22V10.2909C20 9.92926 19.75 9.62574 19.4141 9.54188ZM1.63348 11.22C1.63348 11.3231 1.54965 11.4069 1.44664 11.4069H0.772774C0.669727 11.4069 0.585938 11.323 0.585938 11.22V10.2909C0.585938 10.1878 0.669766 10.104 0.772774 10.104H0.796484H0.796875C0.796875 10.104 0.797109 10.104 0.797266 10.104H1.44664C1.54969 10.104 1.63348 10.1878 1.63348 10.2909V11.22ZM4.84 13.2752C3.83055 13.2752 3.00934 12.454 3.00934 11.4446C3.00934 10.4351 3.83055 9.61391 4.84 9.61391C5.84945 9.61391 6.67066 10.4351 6.67066 11.4446C6.67066 12.454 5.84945 13.2752 4.84 13.2752ZM10.7547 1.72504C10.7547 1.17449 11.2026 0.726602 11.7531 0.726602H15.4004C15.8996 0.726602 16.3548 1.03988 16.533 1.50625L18.7804 7.38273C18.8121 7.46527 18.8281 7.55234 18.8281 7.64148V9.51813H18.5534C18.1273 9.51813 17.7806 9.86481 17.7806 10.2909V11.1516H17.545C17.3999 9.95688 16.3801 9.02801 15.1468 9.02801C13.9136 9.02801 12.8937 9.95688 12.7486 11.1516H10.7547V1.72504ZM15.1468 13.2752C14.1373 13.2752 13.3161 12.454 13.3161 11.4446C13.3161 10.4351 14.1373 9.61391 15.1468 9.61391C16.1562 9.61391 16.9775 10.4351 16.9775 11.4446C16.9775 12.454 16.1562 13.2752 15.1468 13.2752ZM19.4141 11.22C19.4141 11.3231 19.3302 11.4069 19.2272 11.4069H18.5534C18.4503 11.4069 18.3665 11.323 18.3665 11.22V10.2909C18.3665 10.1878 18.4504 10.104 18.5534 10.104H19.2272C19.3303 10.104 19.4141 10.1878 19.4141 10.2909V11.22Z" fill="#E4E4E7" fill-opacity="0.8"/>
<path d="M9.54031 7.58789C9.70215 7.58789 9.83328 7.45672 9.83328 7.29492C9.83328 7.13312 9.70215 7.00195 9.54031 7.00195H1.86328C1.70145 7.00195 1.57031 7.13312 1.57031 7.29492C1.57031 7.45672 1.70145 7.58789 1.86328 7.58789H9.54031Z" fill="#E4E4E7" fill-opacity="0.8"/>
<path d="M16.6797 8.0084V8.43707C16.6797 8.91019 17.0646 9.29508 17.5377 9.29508C18.0109 9.29508 18.3958 8.91016 18.3958 8.43707V8.0084C18.3958 7.53527 18.0109 7.15039 17.5377 7.15039C17.0646 7.15039 16.6797 7.53531 16.6797 8.0084ZM17.2656 8.0084C17.2656 7.85836 17.3877 7.73633 17.5377 7.73633C17.6878 7.73633 17.8098 7.8584 17.8098 8.0084V8.43707C17.8098 8.58711 17.6878 8.70914 17.5377 8.70914C17.3877 8.70914 17.2656 8.58707 17.2656 8.43707V8.0084Z" fill="#E4E4E7" fill-opacity="0.8"/>
<path d="M13.5172 7.50977C13.6791 7.50977 13.8102 7.37859 13.8102 7.2168C13.8102 7.055 13.6791 6.92383 13.5172 6.92383H12.543C12.3811 6.92383 12.25 7.055 12.25 7.2168C12.25 7.37859 12.3811 7.50977 12.543 7.50977H13.5172Z" fill="#E4E4E7" fill-opacity="0.8"/>
</svg>
