<svg width="59" height="59" viewBox="0 0 59 59" fill="none" xmlns="http://www.w3.org/2000/svg">
<g filter="url(#filter0_d_1242_2372)">
<circle cx="29.5" cy="25.5" r="22.5" fill="#272B3A"/>
<circle cx="29.5" cy="25.5" r="21.75" stroke="url(#paint0_linear_1242_2372)" stroke-width="1.5"/>
</g>
<path d="M35.3603 17.8786H31.8942V15.6145C31.8942 15.3377 31.6993 15.1113 31.461 15.1113H16.9469C16.7086 15.1113 16.5137 15.3377 16.5137 15.6145V32.4696C16.5137 32.7464 16.7086 32.9728 16.9469 32.9728H19.1457C19.3515 34.4696 20.4725 35.6143 21.821 35.6143C23.1696 35.6143 24.2852 34.4696 24.4964 32.9728H31.461H33.6597C33.8655 34.4696 34.9866 35.6143 36.3351 35.6143C37.6836 35.6143 38.7992 34.4696 39.0105 32.9728H41.2092C41.4475 32.9728 41.6425 32.7464 41.6425 32.4696V25.1741C41.6425 21.149 38.8263 17.8786 35.3603 17.8786ZM40.7651 24.7339H36.5463C35.6473 24.7339 34.9108 23.8848 34.9108 22.8345V18.8849H35.3603C38.2198 18.8849 40.5648 21.4698 40.7651 24.7339ZM31.0277 16.1176V27.3753H17.3802V16.1176H31.0277ZM19.1457 31.9665H17.3802V28.3816H31.0277V31.9665H24.4964C24.2906 30.4697 23.1696 29.325 21.821 29.325C20.4725 29.325 19.3569 30.4697 19.1457 31.9665ZM21.821 34.608C20.8083 34.608 19.9797 33.6457 19.9797 32.4696C19.9797 31.2935 20.8083 30.3313 21.821 30.3313C22.8338 30.3313 23.6624 31.2935 23.6624 32.4696C23.6624 33.6457 22.8338 34.608 21.821 34.608ZM36.3351 34.608C35.3224 34.608 34.4938 33.6457 34.4938 32.4696C34.4938 31.2935 35.3224 30.3313 36.3351 30.3313C37.3478 30.3313 38.1764 31.2935 38.1764 32.4696C38.1764 33.6457 37.3478 34.608 36.3351 34.608ZM39.0105 31.9665C38.8047 30.4697 37.6836 29.325 36.3351 29.325C34.9866 29.325 33.871 30.4697 33.6597 31.9665H31.8942V18.8849H34.0443V22.8345C34.0443 24.4383 35.1653 25.7401 36.5463 25.7401H40.776V31.9665H39.0105Z" fill="#018F6A" fill-opacity="0.6"/>
<defs>
<filter id="filter0_d_1242_2372" x="0" y="0" width="59" height="59" filterUnits="userSpaceOnUse" color-interpolation-filters="sRGB">
<feFlood flood-opacity="0" result="BackgroundImageFix"/>
<feColorMatrix in="SourceAlpha" type="matrix" values="0 0 0 0 0 0 0 0 0 0 0 0 0 0 0 0 0 0 127 0" result="hardAlpha"/>
<feMorphology radius="1" operator="dilate" in="SourceAlpha" result="effect1_dropShadow_1242_2372"/>
<feOffset dy="4"/>
<feGaussianBlur stdDeviation="3"/>
<feComposite in2="hardAlpha" operator="out"/>
<feColorMatrix type="matrix" values="0 0 0 0 0 0 0 0 0 0 0 0 0 0 0 0 0 0 0.13 0"/>
<feBlend mode="normal" in2="BackgroundImageFix" result="effect1_dropShadow_1242_2372"/>
<feBlend mode="normal" in="SourceGraphic" in2="effect1_dropShadow_1242_2372" result="shape"/>
</filter>
<linearGradient id="paint0_linear_1242_2372" x1="29.5" y1="3" x2="29.5" y2="76.125" gradientUnits="userSpaceOnUse">
<stop stop-color="#353A4B"/>
<stop offset="1" stop-color="#353A4B" stop-opacity="0"/>
</linearGradient>
</defs>
</svg>
