<svg width="26" height="25" viewBox="0 0 26 25" fill="none" xmlns="http://www.w3.org/2000/svg">
<path d="M1.91797 6.25H15.0628V17.9688H10.4234" stroke="#E4E4E7" stroke-opacity="0.8" stroke-width="2" stroke-miterlimit="10" stroke-linejoin="round"/>
<path d="M18.9283 19.5312C19.7824 19.5312 20.4747 18.8317 20.4747 17.9688C20.4747 17.1058 19.7824 16.4062 18.9283 16.4062C18.0742 16.4062 17.3818 17.1058 17.3818 17.9688C17.3818 18.8317 18.0742 19.5312 18.9283 19.5312Z" stroke="#E4E4E7" stroke-opacity="0.8" stroke-width="2" stroke-miterlimit="10" stroke-linejoin="round"/>
<path d="M6.55719 19.5312C7.41127 19.5312 8.10364 18.8317 8.10364 17.9688C8.10364 17.1058 7.41127 16.4062 6.55719 16.4062C5.70311 16.4062 5.01074 17.1058 5.01074 17.9688C5.01074 18.8317 5.70311 19.5312 6.55719 19.5312Z" stroke="#E4E4E7" stroke-opacity="0.8" stroke-width="2" stroke-miterlimit="10" stroke-linejoin="round"/>
<path d="M15.0625 17.9688V9.375H19.7019L22.7948 13.2812V17.9688H20.4751" stroke="#E4E4E7" stroke-opacity="0.8" stroke-width="2" stroke-miterlimit="10" stroke-linejoin="round"/>
<path d="M3.46387 9.375H10.4229" stroke="#E4E4E7" stroke-opacity="0.8" stroke-width="2" stroke-miterlimit="10" stroke-linejoin="round"/>
<path d="M1.91797 12.5H8.87699" stroke="#E4E4E7" stroke-opacity="0.8" stroke-width="2" stroke-miterlimit="10" stroke-linejoin="round"/>
</svg>
