<svg width="25" height="17" viewBox="0 0 25 17" fill="none" xmlns="http://www.w3.org/2000/svg">
<path d="M24.75 6.98974C24.7476 6.95023 24.7389 6.91135 24.7244 6.87453C24.7244 6.87453 24.7244 6.84039 24.7244 6.82759C24.7112 6.80322 24.6955 6.78035 24.6775 6.75931L24.6305 6.69104L19.1684 1.57035C19.13 1.5383 19.0868 1.5124 19.0404 1.49353C19.0234 1.49161 19.0063 1.49161 18.9892 1.49353C18.9552 1.4891 18.9208 1.4891 18.8868 1.49353H14.8329V0.426724C14.8329 0.313557 14.788 0.204998 14.7079 0.124988C14.6279 0.0449768 14.5194 0 14.4062 0H0.426724C0.313548 0 0.205011 0.0449768 0.124983 0.124988C0.0449597 0.204998 0 0.313557 0 0.426724V13.2925C0 13.4056 0.0449597 13.5142 0.124983 13.5942C0.205011 13.6742 0.313548 13.7192 0.426724 13.7192H3.52047C3.6205 14.4118 3.9667 15.0452 4.49571 15.5033C5.02472 15.9614 5.70108 16.2136 6.40086 16.2136C7.10065 16.2136 7.777 15.9614 8.30601 15.5033C8.83502 15.0452 9.18123 14.4118 9.28125 13.7192H16.3222C16.4222 14.4118 16.7684 15.0452 17.2974 15.5033C17.8264 15.9614 18.5028 16.2136 19.2026 16.2136C19.9024 16.2136 20.5787 15.9614 21.1077 15.5033C21.6367 15.0452 21.983 14.4118 22.083 13.7192H24.3233C24.4364 13.7192 24.545 13.6742 24.625 13.5942C24.705 13.5142 24.75 13.4056 24.75 13.2925V6.98974ZM0.853448 9.34526H3.84052C3.95368 9.34526 4.06224 9.30028 4.14225 9.22027C4.22226 9.14026 4.26724 9.0317 4.26724 8.91854C4.26724 8.80537 4.22226 8.69681 4.14225 8.6168C4.06224 8.53679 3.95368 8.49181 3.84052 8.49181H0.853448V5.07802H3.84052C3.95368 5.07802 4.06224 5.03304 4.14225 4.95303C4.22226 4.87302 4.26724 4.76446 4.26724 4.65129C4.26724 4.53813 4.22226 4.42957 4.14225 4.34956C4.06224 4.26955 3.95368 4.22457 3.84052 4.22457H0.853448V0.776638H13.9411V4.22457H10.6681C10.5549 4.22457 10.4464 4.26955 10.3664 4.34956C10.2864 4.42957 10.2414 4.53813 10.2414 4.65129C10.2414 4.76446 10.2864 4.87302 10.3664 4.95303C10.4464 5.03304 10.5549 5.07802 10.6681 5.07802H13.9411V8.49181H10.6681C10.5549 8.49181 10.4464 8.53679 10.3664 8.6168C10.2864 8.69681 10.2414 8.80537 10.2414 8.91854C10.2414 9.0317 10.2864 9.14026 10.3664 9.22027C10.4464 9.30028 10.5549 9.34526 10.6681 9.34526H13.9411V12.8657H9.28125C9.18123 12.1731 8.83502 11.5397 8.30601 11.0816C7.777 10.6235 7.10065 10.3714 6.40086 10.3714C5.70108 10.3714 5.02472 10.6235 4.49571 11.0816C3.9667 11.5397 3.6205 12.1731 3.52047 12.8657H0.853448V9.34526ZM6.40086 15.3535C5.85495 15.3535 5.33136 15.137 4.94496 14.7514C4.55857 14.3658 4.34089 13.8426 4.33978 13.2967C4.33978 12.7501 4.55694 12.2259 4.94347 11.8393C5.33 11.4528 5.85423 11.2356 6.40086 11.2356C6.9475 11.2356 7.47173 11.4528 7.85825 11.8393C8.24478 12.2259 8.46194 12.7501 8.46194 13.2967C8.46083 13.8426 8.24316 14.3658 7.85676 14.7514C7.47036 15.137 6.94677 15.3535 6.40086 15.3535ZM19.2026 15.3535C18.6567 15.3535 18.1331 15.137 17.7467 14.7514C17.3603 14.3658 17.1426 13.8426 17.1415 13.2967C17.1415 12.7501 17.3587 12.2259 17.7452 11.8393C18.1317 11.4528 18.656 11.2356 19.2026 11.2356C19.7492 11.2356 20.2734 11.4528 20.66 11.8393C21.0465 12.2259 21.2637 12.7501 21.2637 13.2967C21.2626 13.8426 21.0449 14.3658 20.6585 14.7514C20.2721 15.137 19.7485 15.3535 19.2026 15.3535ZM22.083 12.8657C21.983 12.1731 21.6367 11.5397 21.1077 11.0816C20.5787 10.6235 19.9024 10.3714 19.2026 10.3714C18.5028 10.3714 17.8264 10.6235 17.2974 11.0816C16.7684 11.5397 16.4222 12.1731 16.3222 12.8657H14.7945V2.27017H18.6777L23.8966 7.18177V12.8657H22.083Z" fill="#E4E4E7"/>
<path d="M20.0216 4.79503C20.0009 4.74417 19.9704 4.69778 19.932 4.65848L18.4641 3.18628C18.4239 3.14587 18.376 3.11395 18.3233 3.0924C18.2717 3.07196 18.2166 3.06185 18.1611 3.06253H15.7885C15.6754 3.06253 15.5668 3.10747 15.4868 3.18752C15.4068 3.26753 15.3618 3.37605 15.3618 3.48926V8.95133C15.3618 9.06449 15.4068 9.17301 15.4868 9.25306C15.5668 9.33307 15.6754 9.37805 15.7885 9.37805H19.6291C19.7422 9.37805 19.8508 9.33307 19.9308 9.25306C20.0108 9.17301 20.0558 9.06449 20.0558 8.95133V4.96146C20.0579 4.90402 20.0462 4.84696 20.0216 4.79503ZM17.9819 3.91171L19.2023 5.13641V8.5246H16.2153V3.91171H17.9819Z" fill="#E4E4E7"/>
<path d="M6.4008 12.3711C6.23199 12.3711 6.06702 12.4211 5.92667 12.5149C5.78632 12.6087 5.67691 12.742 5.6123 12.898C5.54774 13.0539 5.53084 13.2255 5.56374 13.391C5.59669 13.5566 5.67798 13.7087 5.79733 13.828C5.91669 13.9474 6.06877 14.0287 6.2343 14.0616C6.39987 14.0945 6.57145 14.0776 6.72742 14.013C6.88334 13.9484 7.01665 13.8391 7.1104 13.6987C7.2042 13.5584 7.25425 13.3934 7.25425 13.2245C7.25425 12.9982 7.16434 12.7811 7.00428 12.6211C6.84421 12.461 6.62714 12.3711 6.4008 12.3711Z" fill="#E4E4E7"/>
<path d="M19.2021 12.3711C19.0333 12.3711 18.8683 12.4211 18.7279 12.5149C18.5876 12.6087 18.4782 12.742 18.4136 12.898C18.349 13.0539 18.3321 13.2255 18.365 13.391C18.398 13.5566 18.4792 13.7087 18.5986 13.828C18.718 13.9474 18.87 14.0287 19.0356 14.0616C19.2011 14.0945 19.3727 14.0776 19.5287 14.013C19.6846 13.9484 19.8179 13.8391 19.9117 13.6987C20.0055 13.5584 20.0555 13.3934 20.0555 13.2245C20.0555 12.9982 19.9656 12.7811 19.8055 12.6211C19.6455 12.461 19.4284 12.3711 19.2021 12.3711Z" fill="#E4E4E7"/>
</svg>
