<svg width="26" height="17" viewBox="0 0 26 17" fill="none" xmlns="http://www.w3.org/2000/svg">
<g clip-path="url(#clip0_236_836)">
<path fill-rule="evenodd" clip-rule="evenodd" d="M20.9625 6.4175C20.2258 2.75187 16.9433 0 13 0C9.86917 0 7.15 1.7425 5.79583 4.2925C2.535 4.6325 0 7.34188 0 10.625C0 14.1419 2.91417 17 6.5 17H20.5833C23.5733 17 26 14.62 26 11.6875C26 8.8825 23.7792 6.60875 20.9625 6.4175ZM20.5833 14.875H6.5C4.10583 14.875 2.16667 12.9731 2.16667 10.625C2.16667 8.44688 3.82417 6.63 6.02333 6.40687L7.1825 6.29L7.72417 5.28063C8.75333 3.33625 10.7683 2.125 13 2.125C15.8383 2.125 18.2867 4.10125 18.8392 6.83188L19.1642 8.42563L20.8217 8.5425C22.5117 8.64875 23.8333 10.0406 23.8333 11.6875C23.8333 13.4406 22.3708 14.875 20.5833 14.875ZM8.66667 9.5625H11.4292V12.75H14.5708V9.5625H17.3333L13 5.3125L8.66667 9.5625Z" fill="white" fill-opacity="0.8"/>
</g>
<defs>
<clipPath id="clip0_236_836">
<rect width="26" height="17" fill="white"/>
</clipPath>
</defs>
</svg>
