<svg width="52" height="45" viewBox="0 0 52 45" fill="none" xmlns="http://www.w3.org/2000/svg">
<g filter="url(#filter0_d_1284_1829)">
<path d="M31.75 16.1425C31.7479 16.1078 31.7403 16.0736 31.7275 16.0413C31.7275 16.0413 31.7275 16.0113 31.7275 16C31.7159 15.9786 31.7021 15.9585 31.6863 15.94L31.645 15.88L26.845 11.38C26.8112 11.3518 26.7733 11.3291 26.7325 11.3125C26.7175 11.3108 26.7025 11.3108 26.6875 11.3125C26.6576 11.3086 26.6274 11.3086 26.5975 11.3125H23.035V10.375C23.035 10.2756 22.9955 10.1802 22.9252 10.1098C22.8548 10.0395 22.7594 10 22.66 10H10.375C10.2755 10 10.1802 10.0395 10.1098 10.1098C10.0395 10.1802 10 10.2756 10 10.375V21.6813C10 21.7807 10.0395 21.8761 10.1098 21.9464C10.1802 22.0167 10.2755 22.0563 10.375 22.0563H13.0938C13.1816 22.6649 13.4859 23.2215 13.9508 23.6241C14.4157 24.0267 15.01 24.2483 15.625 24.2483C16.24 24.2483 16.8343 24.0267 17.2992 23.6241C17.7641 23.2215 18.0683 22.6649 18.1562 22.0563H24.3438C24.4317 22.6649 24.7359 23.2215 25.2008 23.6241C25.6657 24.0267 26.26 24.2483 26.875 24.2483C27.49 24.2483 28.0843 24.0267 28.5492 23.6241C29.0141 23.2215 29.3183 22.6649 29.4062 22.0563H31.375C31.4744 22.0563 31.5699 22.0167 31.6402 21.9464C31.7105 21.8761 31.75 21.7807 31.75 21.6813V16.1425ZM10.75 18.2125H13.375C13.4745 18.2125 13.5698 18.173 13.6402 18.1027C13.7105 18.0324 13.75 17.937 13.75 17.8375C13.75 17.7381 13.7105 17.6427 13.6402 17.5723C13.5698 17.502 13.4745 17.4625 13.375 17.4625H10.75V14.4625H13.375C13.4745 14.4625 13.5698 14.423 13.6402 14.3527C13.7105 14.2824 13.75 14.187 13.75 14.0875C13.75 13.9881 13.7105 13.8927 13.6402 13.8223C13.5698 13.752 13.4745 13.7125 13.375 13.7125H10.75V10.6825H22.2512V13.7125H19.375C19.2755 13.7125 19.1802 13.752 19.1098 13.8223C19.0395 13.8927 19 13.9881 19 14.0875C19 14.187 19.0395 14.2824 19.1098 14.3527C19.1802 14.423 19.2755 14.4625 19.375 14.4625H22.2512V17.4625H19.375C19.2755 17.4625 19.1802 17.502 19.1098 17.5723C19.0395 17.6427 19 17.7381 19 17.8375C19 17.937 19.0395 18.0324 19.1098 18.1027C19.1802 18.173 19.2755 18.2125 19.375 18.2125H22.2512V21.3063H18.1562C18.0683 20.6976 17.7641 20.141 17.2992 19.7384C16.8343 19.3358 16.24 19.1142 15.625 19.1142C15.01 19.1142 14.4157 19.3358 13.9508 19.7384C13.4859 20.141 13.1816 20.6976 13.0938 21.3063H10.75V18.2125ZM15.625 23.4925C15.1453 23.4925 14.6851 23.3022 14.3456 22.9633C14.006 22.6245 13.8147 22.1647 13.8138 21.685C13.8138 21.2046 14.0046 20.7439 14.3443 20.4043C14.6839 20.0646 15.1446 19.8738 15.625 19.8738C16.1054 19.8738 16.5661 20.0646 16.9057 20.4043C17.2454 20.7439 17.4362 21.2046 17.4362 21.685C17.4353 22.1647 17.244 22.6245 16.9044 22.9633C16.5649 23.3022 16.1047 23.4925 15.625 23.4925ZM26.875 23.4925C26.3953 23.4925 25.9351 23.3022 25.5956 22.9633C25.256 22.6245 25.0647 22.1647 25.0637 21.685C25.0637 21.2046 25.2546 20.7439 25.5943 20.4043C25.9339 20.0646 26.3946 19.8738 26.875 19.8738C27.3554 19.8738 27.8161 20.0646 28.1557 20.4043C28.4954 20.7439 28.6863 21.2046 28.6863 21.685C28.6853 22.1647 28.494 22.6245 28.1544 22.9633C27.8149 23.3022 27.3547 23.4925 26.875 23.4925ZM29.4062 21.3063C29.3183 20.6976 29.0141 20.141 28.5492 19.7384C28.0843 19.3358 27.49 19.1142 26.875 19.1142C26.26 19.1142 25.6657 19.3358 25.2008 19.7384C24.7359 20.141 24.4317 20.6976 24.3438 21.3063H23.0012V11.995H26.4137L31 16.3113V21.3063H29.4062Z" fill="#E4E4E7"/>
<path d="M27.595 14.2178C27.5767 14.1731 27.55 14.1324 27.5162 14.0978L26.2262 12.8041C26.1909 12.7686 26.1488 12.7405 26.1025 12.7216C26.0572 12.7036 26.0087 12.6947 25.96 12.6953H23.875C23.7755 12.6953 23.6801 12.7348 23.6098 12.8052C23.5395 12.8755 23.5 12.9709 23.5 13.0703V17.8703C23.5 17.9698 23.5395 18.0652 23.6098 18.1355C23.6801 18.2058 23.7755 18.2453 23.875 18.2453H27.25C27.3494 18.2453 27.4448 18.2058 27.5152 18.1355C27.5855 18.0652 27.625 17.9698 27.625 17.8703V14.3641C27.6269 14.3136 27.6166 14.2635 27.595 14.2178ZM25.8025 13.4416L26.875 14.5178V17.4953H24.25V13.4416H25.8025Z" fill="#E4E4E7"/>
<path d="M15.625 20.8711C15.4766 20.8711 15.3317 20.9151 15.2083 20.9975C15.085 21.0799 14.9888 21.197 14.9321 21.3341C14.8753 21.4711 14.8605 21.6219 14.8894 21.7674C14.9183 21.9129 14.9898 22.0465 15.0947 22.1514C15.1996 22.2563 15.3332 22.3277 15.4787 22.3567C15.6242 22.3856 15.775 22.3708 15.912 22.314C16.049 22.2572 16.1662 22.1611 16.2486 22.0378C16.331 21.9145 16.375 21.7694 16.375 21.6211C16.375 21.4222 16.296 21.2314 16.1553 21.0908C16.0147 20.9501 15.8239 20.8711 15.625 20.8711Z" fill="#E4E4E7"/>
<path d="M26.875 20.8711C26.7266 20.8711 26.5817 20.9151 26.4583 20.9975C26.335 21.0799 26.2388 21.197 26.1821 21.3341C26.1253 21.4711 26.1105 21.6219 26.1394 21.7674C26.1683 21.9129 26.2398 22.0465 26.3447 22.1514C26.4496 22.2563 26.5832 22.3277 26.7287 22.3567C26.8742 22.3856 27.025 22.3708 27.162 22.314C27.299 22.2572 27.4162 22.1611 27.4986 22.0378C27.581 21.9145 27.625 21.7694 27.625 21.6211C27.625 21.4222 27.546 21.2314 27.4053 21.0908C27.2647 20.9501 27.0739 20.8711 26.875 20.8711Z" fill="#E4E4E7"/>
</g>
<defs>
<filter id="filter0_d_1284_1829" x="0" y="0" width="51.75" height="44.248" filterUnits="userSpaceOnUse" color-interpolation-filters="sRGB">
<feFlood flood-opacity="0" result="BackgroundImageFix"/>
<feColorMatrix in="SourceAlpha" type="matrix" values="0 0 0 0 0 0 0 0 0 0 0 0 0 0 0 0 0 0 127 0" result="hardAlpha"/>
<feOffset dx="5" dy="5"/>
<feGaussianBlur stdDeviation="7.5"/>
<feComposite in2="hardAlpha" operator="out"/>
<feColorMatrix type="matrix" values="0 0 0 0 0.6625 0 0 0 0 1 0 0 0 0 0.91206 0 0 0 0.4 0"/>
<feBlend mode="normal" in2="BackgroundImageFix" result="effect1_dropShadow_1284_1829"/>
<feBlend mode="normal" in="SourceGraphic" in2="effect1_dropShadow_1284_1829" result="shape"/>
</filter>
</defs>
</svg>
