<svg width="32" height="13" viewBox="0 0 32 13" fill="none" xmlns="http://www.w3.org/2000/svg">
<path d="M3.56605 12L0.206055 1.504H1.63005L3.31005 7.168C3.50205 7.78667 3.66739 8.368 3.80605 8.912C3.95539 9.44533 4.13139 10.0213 4.33405 10.64H4.39806C4.59005 10.0213 4.76072 9.44533 4.91005 8.912C5.05939 8.368 5.22472 7.78667 5.40605 7.168L7.08605 1.504H8.44606L5.11805 12H3.56605ZM9.75243 12V4.224H11.0644V12H9.75243ZM10.4244 2.624C10.1684 2.624 9.9551 2.54933 9.78443 2.4C9.62443 2.24 9.54443 2.02667 9.54443 1.76C9.54443 1.504 9.62443 1.296 9.78443 1.136C9.9551 0.976 10.1684 0.896 10.4244 0.896C10.6804 0.896 10.8884 0.976 11.0484 1.136C11.2191 1.296 11.3044 1.504 11.3044 1.76C11.3044 2.02667 11.2191 2.24 11.0484 2.4C10.8884 2.54933 10.6804 2.624 10.4244 2.624ZM16.8419 12.192C16.1486 12.192 15.5193 12.032 14.9539 11.712C14.3886 11.3813 13.9406 10.912 13.6099 10.304C13.2793 9.696 13.1139 8.97067 13.1139 8.128C13.1139 7.27467 13.2793 6.544 13.6099 5.936C13.9513 5.328 14.3886 4.85867 14.9219 4.528C15.4553 4.19733 16.0153 4.032 16.6019 4.032C17.5939 4.032 18.3566 4.36267 18.8899 5.024C19.4339 5.68533 19.7059 6.57067 19.7059 7.68C19.7059 7.81867 19.7006 7.95733 19.6899 8.096C19.6899 8.224 19.6793 8.336 19.6579 8.432H14.4099C14.4633 9.25333 14.7193 9.90933 15.1779 10.4C15.6473 10.8907 16.2553 11.136 17.0019 11.136C17.3753 11.136 17.7166 11.0827 18.0259 10.976C18.3459 10.8587 18.6499 10.7093 18.9379 10.528L19.4019 11.392C19.0713 11.6053 18.6926 11.792 18.2659 11.952C17.8499 12.112 17.3753 12.192 16.8419 12.192ZM14.3939 7.488H18.5539C18.5539 6.69867 18.3833 6.10133 18.0419 5.696C17.7113 5.28 17.2419 5.072 16.6339 5.072C16.0899 5.072 15.5993 5.28533 15.1619 5.712C14.7353 6.128 14.4793 6.72 14.3939 7.488ZM22.9376 12L20.7776 4.224H22.1216L23.2736 8.72C23.3589 9.08267 23.4389 9.44533 23.5136 9.808C23.5882 10.16 23.6629 10.5173 23.7376 10.88H23.8016C23.8869 10.5173 23.9722 10.16 24.0576 9.808C24.1429 9.44533 24.2336 9.08267 24.3296 8.72L25.5296 4.224H26.8096L28.0256 8.72C28.1216 9.08267 28.2122 9.44533 28.2976 9.808C28.3936 10.16 28.4842 10.5173 28.5696 10.88H28.6336C28.7189 10.5173 28.7989 10.16 28.8736 9.808C28.9589 9.44533 29.0389 9.08267 29.1136 8.72L30.2496 4.224H31.4976L29.4176 12H27.8176L26.6976 7.824C26.6016 7.45067 26.5109 7.08267 26.4256 6.72C26.3509 6.35733 26.2656 5.97867 26.1696 5.584H26.1056C26.0202 5.97867 25.9349 6.36267 25.8496 6.736C25.7642 7.09867 25.6682 7.46667 25.5616 7.84L24.4736 12H22.9376Z" fill="#0A8768"/>
</svg>
