<svg width="22" height="17" viewBox="0 0 22 17" fill="none" xmlns="http://www.w3.org/2000/svg">
<path d="M4.71925 8.44285C4.79405 8.44279 4.86744 8.42246 4.93161 8.38403C4.99578 8.34559 5.04834 8.29049 5.08371 8.22458C5.11907 8.15866 5.13591 8.0844 5.13245 8.00968C5.12898 7.93496 5.10533 7.86257 5.06402 7.80022C4.72988 7.29419 4.51099 6.72094 4.42282 6.121C4.33464 5.52105 4.37934 4.90906 4.55375 4.3283C4.72816 3.74753 5.02802 3.21217 5.43214 2.76007C5.83626 2.30797 6.33476 1.95016 6.8924 1.71194C7.45004 1.47373 8.0532 1.36093 8.65924 1.38151C9.26528 1.4021 9.8594 1.55557 10.3996 1.83107C10.9398 2.10657 11.4129 2.49738 11.7854 2.97586C12.1579 3.45434 12.4207 4.00882 12.5553 4.60008C12.5795 4.70717 12.6453 4.80026 12.7382 4.85886C12.831 4.91746 12.9434 4.93678 13.0505 4.91256C13.1575 4.88834 13.2506 4.82256 13.3092 4.72971C13.3678 4.63685 13.3872 4.52452 13.3629 4.41743C13.2016 3.70774 12.8863 3.04217 12.4394 2.46779C11.9924 1.89341 11.4247 1.42425 10.7764 1.09348C10.1282 0.762718 9.41512 0.578433 8.68775 0.55366C7.96038 0.528888 7.23645 0.664233 6.56717 0.950124C5.89788 1.23601 5.29959 1.66547 4.81459 2.20811C4.3296 2.75075 3.96976 3.39333 3.76052 4.09039C3.55128 4.78745 3.49776 5.52198 3.60373 6.24201C3.7097 6.96204 3.97258 7.65 4.37378 8.25722C4.4115 8.31434 4.46281 8.3612 4.5231 8.3936C4.5834 8.426 4.6508 8.44292 4.71925 8.44285Z" fill="white" fill-opacity="0.8"/>
<path d="M1.2914 1.82466L2.64055 2.60383C2.68765 2.63144 2.73975 2.64946 2.79384 2.65686C2.84794 2.66426 2.90296 2.66088 2.95574 2.64692C3.00853 2.63297 3.05803 2.60871 3.1014 2.57555C3.14477 2.54238 3.18115 2.50097 3.20845 2.45368C3.23575 2.4064 3.25342 2.35419 3.26046 2.30005C3.2675 2.2459 3.26376 2.19091 3.24945 2.13822C3.23515 2.08553 3.21056 2.03619 3.17711 1.99304C3.14366 1.94989 3.102 1.91378 3.05454 1.8868L1.70539 1.10763C1.65829 1.08002 1.6062 1.06199 1.5521 1.0546C1.49801 1.0472 1.44299 1.05058 1.3902 1.06453C1.33742 1.07849 1.28792 1.10275 1.24455 1.13591C1.20118 1.16907 1.1648 1.21049 1.1375 1.25777C1.1102 1.30505 1.09252 1.35727 1.08548 1.41141C1.07845 1.46555 1.08219 1.52055 1.09649 1.57324C1.1108 1.62593 1.13538 1.67527 1.16884 1.71842C1.20229 1.76157 1.24394 1.79767 1.2914 1.82466Z" fill="white" fill-opacity="0.8"/>
<path d="M2.3859 5.5175C2.3859 5.40771 2.34229 5.30241 2.26465 5.22477C2.18701 5.14713 2.08171 5.10352 1.97191 5.10352H0.413989C0.304192 5.10352 0.198893 5.14713 0.121255 5.22477C0.0436166 5.30241 0 5.40771 0 5.5175C0 5.6273 0.0436166 5.7326 0.121255 5.81024C0.198893 5.88788 0.304192 5.93149 0.413989 5.93149H1.97191C2.08171 5.93149 2.18701 5.88788 2.26465 5.81024C2.34229 5.7326 2.3859 5.6273 2.3859 5.5175Z" fill="white" fill-opacity="0.8"/>
<path d="M3.2061 8.58346C3.17892 8.53638 3.14273 8.49511 3.09959 8.46201C3.05646 8.42892 3.00723 8.40464 2.95471 8.39057C2.90219 8.3765 2.84742 8.37291 2.79352 8.38001C2.73961 8.38711 2.68764 8.40476 2.64055 8.43195L1.2914 9.21091C1.24394 9.23789 1.20229 9.274 1.16884 9.31715C1.13538 9.3603 1.1108 9.40964 1.09649 9.46233C1.08219 9.51502 1.07845 9.57001 1.08548 9.62416C1.09252 9.6783 1.1102 9.73051 1.1375 9.77779C1.1648 9.82508 1.20118 9.86649 1.24455 9.89965C1.28792 9.93282 1.33742 9.95708 1.3902 9.97103C1.44299 9.98499 1.49801 9.98836 1.5521 9.98097C1.6062 9.97357 1.65829 9.95555 1.70539 9.92794L3.05454 9.14902C3.10163 9.12183 3.1429 9.08564 3.17601 9.04251C3.20911 8.99938 3.23339 8.95015 3.24746 8.89763C3.26154 8.84512 3.26513 8.79034 3.25803 8.73643C3.25094 8.68253 3.23329 8.63055 3.2061 8.58346Z" fill="white" fill-opacity="0.8"/>
<path d="M14.1879 2.65914C14.2604 2.65914 14.3317 2.63999 14.3945 2.60362L15.7437 1.82466C15.7911 1.79767 15.8328 1.76157 15.8662 1.71842C15.8997 1.67527 15.9243 1.62593 15.9386 1.57324C15.9529 1.52055 15.9566 1.46555 15.9496 1.41141C15.9425 1.35727 15.9249 1.30505 15.8976 1.25777C15.8703 1.21049 15.8339 1.16907 15.7905 1.13591C15.7472 1.10275 15.6976 1.07849 15.6449 1.06453C15.5921 1.05058 15.5371 1.0472 15.483 1.0546C15.4289 1.06199 15.3768 1.08002 15.3297 1.10763L13.9805 1.88659C13.9015 1.93217 13.8398 2.00254 13.8049 2.08679C13.77 2.17103 13.764 2.26443 13.7876 2.35249C13.8112 2.44055 13.8633 2.51834 13.9357 2.57379C14.0081 2.62924 14.0967 2.65924 14.1879 2.65914Z" fill="white" fill-opacity="0.8"/>
<path d="M18.6858 9.87605C18.8776 8.96485 18.7419 8.0152 18.3027 7.19414C17.8634 6.37308 17.1487 5.73321 16.2843 5.38708C15.4198 5.04095 14.461 5.01073 13.5765 5.30174C12.692 5.59275 11.9384 6.18635 11.4483 6.97812C10.6876 6.67406 9.83803 6.68029 9.08186 6.99548C8.32569 7.31068 7.72319 7.90971 7.40365 8.66405C6.86128 8.57039 6.30535 8.59043 5.77112 8.72289C5.23689 8.85536 4.73601 9.09738 4.30023 9.43359C3.86444 9.7698 3.50326 10.1929 3.23958 10.676C2.97589 11.1592 2.81545 11.6918 2.76843 12.2402C2.72141 12.7886 2.78884 13.3408 2.96643 13.8617C3.14402 14.3827 3.42791 14.8611 3.8001 15.2666C4.1723 15.6721 4.62467 15.9958 5.12855 16.2173C5.63243 16.4388 6.17683 16.5532 6.72724 16.5532H17.7973C18.6207 16.553 19.416 16.2539 20.0354 15.7113C20.6548 15.1688 21.0561 14.4198 21.1647 13.6036C21.2733 12.7874 21.0818 11.9595 20.6259 11.2739C20.1699 10.5882 19.4805 10.0915 18.6858 9.87605ZM17.7971 15.7253H6.72707C6.27864 15.725 5.83546 15.6288 5.42726 15.4431C5.01907 15.2575 4.65528 14.9867 4.36031 14.6489C4.06534 14.3112 3.846 13.9142 3.717 13.4848C3.588 13.0553 3.55233 12.6032 3.61237 12.1588C3.67242 11.7144 3.82679 11.288 4.06513 10.9081C4.30348 10.5283 4.62029 10.2038 4.99432 9.95641C5.36835 9.70903 5.79096 9.5445 6.23379 9.47383C6.67662 9.40316 7.12944 9.428 7.56188 9.54668C7.6673 9.57564 7.77989 9.56172 7.87509 9.50798C7.97028 9.45423 8.04036 9.36501 8.07001 9.25978C8.16475 8.92412 8.3345 8.61436 8.56645 8.35389C8.7984 8.09341 9.08649 7.88903 9.40897 7.75617C9.73146 7.62331 10.0799 7.56544 10.428 7.58693C10.7761 7.60841 11.1148 7.7087 11.4185 7.88021C11.4678 7.90808 11.5222 7.92555 11.5785 7.93155C11.6348 7.93755 11.6917 7.93194 11.7458 7.91507C11.7998 7.8982 11.8498 7.87042 11.8927 7.83347C11.9355 7.79651 11.9704 7.75116 11.995 7.7002C12.3419 6.98386 12.9487 6.42659 13.6919 6.14177C14.4351 5.85696 15.259 5.866 15.9957 6.16705C16.7325 6.46811 17.3269 7.03857 17.658 7.76235C17.9891 8.48614 18.032 9.30888 17.778 10.0632C17.7583 10.1213 17.7519 10.1832 17.759 10.2441C17.7662 10.3051 17.7869 10.3637 17.8195 10.4157C17.8521 10.4677 17.8959 10.5118 17.9477 10.5448C17.9995 10.5778 18.058 10.5989 18.1189 10.6065C18.7674 10.6882 19.3604 11.014 19.7772 11.5176C20.1939 12.0212 20.4031 12.6647 20.3621 13.317C20.3211 13.9694 20.033 14.5816 19.5565 15.029C19.0799 15.4765 18.4508 15.7255 17.7971 15.7253Z" fill="white" fill-opacity="0.8"/>
</svg>
