<svg width="20" height="20" viewBox="0 0 20 20" fill="none" xmlns="http://www.w3.org/2000/svg">
<path d="M2.00078 1.59961C1.34297 1.59961 0.800781 2.1418 0.800781 2.79961V17.1996C0.800781 17.8574 1.34297 18.3996 2.00078 18.3996H18.0008C18.6586 18.3996 19.2008 17.8574 19.2008 17.1996V2.79961C19.2008 2.1418 18.6586 1.59961 18.0008 1.59961H2.00078ZM2.00078 2.39961H18.0008C18.2227 2.39961 18.4008 2.57773 18.4008 2.79961V17.1996C18.4008 17.4215 18.2227 17.5996 18.0008 17.5996H2.00078C1.77891 17.5996 1.60078 17.4215 1.60078 17.1996V2.79961C1.60078 2.57773 1.77891 2.39961 2.00078 2.39961ZM4.32578 5.59961C4.10547 5.61992 3.94297 5.8168 3.96328 6.03711C3.98359 6.25742 4.18047 6.41992 4.40078 6.39961H15.6008C15.7445 6.40117 15.8789 6.32617 15.9523 6.20117C16.0242 6.07617 16.0242 5.92305 15.9523 5.79805C15.8789 5.67305 15.7445 5.59805 15.6008 5.59961H4.40078C4.38828 5.59961 4.37578 5.59961 4.36328 5.59961C4.35078 5.59961 4.33828 5.59961 4.32578 5.59961ZM4.32578 9.59961C4.10547 9.61992 3.94297 9.8168 3.96328 10.0371C3.98359 10.2574 4.18047 10.4199 4.40078 10.3996H15.6008C15.7445 10.4012 15.8789 10.3262 15.9523 10.2012C16.0242 10.0762 16.0242 9.92305 15.9523 9.79805C15.8789 9.67305 15.7445 9.59805 15.6008 9.59961H4.40078C4.38828 9.59961 4.37578 9.59961 4.36328 9.59961C4.35078 9.59961 4.33828 9.59961 4.32578 9.59961ZM4.32578 13.5996C4.10547 13.6199 3.94297 13.8168 3.96328 14.0371C3.98359 14.2574 4.18047 14.4199 4.40078 14.3996H15.6008C15.7445 14.4012 15.8789 14.3262 15.9523 14.2012C16.0242 14.0762 16.0242 13.923 15.9523 13.798C15.8789 13.673 15.7445 13.598 15.6008 13.5996H4.40078C4.38828 13.5996 4.37578 13.5996 4.36328 13.5996C4.35078 13.5996 4.33828 13.5996 4.32578 13.5996Z" fill="#E4E4E7" fill-opacity="0.8"/>
</svg>
