<svg width="50" height="50" viewBox="0 0 50 50" fill="none" xmlns="http://www.w3.org/2000/svg">
<circle cx="25" cy="25" r="25" fill="#1D1D20"/>
<path d="M36.7398 21.1309H13.2616C12.9016 21.1309 12.6094 21.4231 12.6094 21.7831V25.6961C12.6094 32.5283 18.1685 38.0874 25.0007 38.0874C31.8329 38.0874 37.392 32.5283 37.392 25.6961V21.7831C37.392 21.4231 37.0998 21.1309 36.7398 21.1309ZM36.0877 25.6961C36.0877 31.8095 31.1142 36.783 25.0008 36.783C18.8873 36.783 13.9138 31.8095 13.9138 25.6961V22.4352H36.0877V25.6961Z" fill="#E4E4E7" fill-opacity="0.4"/>
<path d="M25.0024 23.7383C21.7663 23.7383 19.1328 26.3718 19.1328 29.6079C19.1328 32.8439 21.7663 35.4774 25.0024 35.4774C28.2385 35.4774 30.872 32.8439 30.872 29.6079C30.872 26.3718 28.2385 23.7383 25.0024 23.7383ZM25.0024 34.1731C22.485 34.1731 20.4371 32.1253 20.4371 29.6079C20.4371 27.0904 22.485 25.0426 25.0024 25.0426C27.5198 25.0426 29.5676 27.0905 29.5676 29.6079C29.5676 32.1252 27.5198 34.1731 25.0024 34.1731Z" fill="#E4E4E7" fill-opacity="0.4"/>
<path d="M24.9991 26.3477C23.2005 26.3477 21.7383 27.8111 21.7383 29.6085C21.7383 31.4059 23.2005 32.8694 24.9991 32.8694C26.7978 32.8694 28.26 31.4059 28.26 29.6085C28.26 27.8111 26.7978 26.3477 24.9991 26.3477ZM24.9991 31.565C23.9204 31.565 23.0426 30.6872 23.0426 29.6085C23.0426 28.5298 23.9204 27.652 24.9991 27.652C26.0778 27.652 26.9556 28.5298 26.9556 29.6085C26.9556 30.6872 26.0778 31.565 24.9991 31.565Z" fill="#E4E4E7" fill-opacity="0.4"/>
<path d="M39.3478 15.9141H10.6522C10.2922 15.9141 10 16.2063 10 16.5663V20.4793C10 21.558 10.8778 22.4358 11.9565 22.4358H38.0435C39.1222 22.4358 40 21.558 40 20.4793V16.5663C40 16.2063 39.7078 15.9141 39.3478 15.9141ZM38.6956 20.4793C38.6956 20.8393 38.4021 21.1315 38.0434 21.1315H11.9565C11.5978 21.1315 11.3043 20.8393 11.3043 20.4793V17.2184H38.6956V20.4793Z" fill="#E4E4E7" fill-opacity="0.4"/>
<path d="M32.8241 26.3474C33.1843 26.3474 33.4763 26.0554 33.4763 25.6952C33.4763 25.335 33.1843 25.043 32.8241 25.043C32.4639 25.043 32.1719 25.335 32.1719 25.6952C32.1719 26.0554 32.4639 26.3474 32.8241 26.3474Z" fill="#E4E4E7" fill-opacity="0.4"/>
</svg>
