<svg width="50" height="50" viewBox="0 0 50 50" fill="none" xmlns="http://www.w3.org/2000/svg">
<circle cx="25" cy="25" r="25" fill="#1D1D20"/>
<path d="M19.8256 30.7018C19.6276 30.5672 19.4338 30.4142 19.2483 30.2476C18.8183 29.86 18.1552 29.8956 17.7691 30.3252C17.382 30.7552 17.4166 31.4173 17.8466 31.8044C18.1012 32.0338 18.3704 32.2455 18.6465 32.4335C18.8272 32.5566 19.0325 32.6158 19.2352 32.6158C19.5705 32.6158 19.9 32.4555 20.1021 32.1575C20.4274 31.6792 20.3038 31.0276 19.8256 30.7018Z" fill="#E4E4E7"/>
<path d="M36 23.2315C36 17.0385 31.0479 12 24.9607 12C19.3859 12 14.6768 16.2381 14.0074 21.8586C13.9393 22.4332 14.3494 22.9544 14.9241 23.0225C15.4945 23.0927 16.0199 22.681 16.0885 22.1058C16.6317 17.5393 20.4466 14.0952 24.9607 14.0952C29.8924 14.0952 33.9048 18.1935 33.9048 23.2315C33.9048 27.4848 31.0406 31.0582 27.1817 32.0708L28.4477 30.2641C28.7798 29.7901 28.6651 29.1369 28.1911 28.8048C27.7181 28.4722 27.0638 28.588 26.7323 29.0615L24.1027 32.8135C24.1012 32.8161 24.1001 32.8188 24.0986 32.8214C24.0734 32.8575 24.054 32.8979 24.0336 32.9371C24.0226 32.9586 24.0079 32.9796 23.9985 33.0016C23.9859 33.0314 23.9786 33.0634 23.9686 33.0943C23.9576 33.1283 23.944 33.1624 23.9367 33.1969C23.932 33.2205 23.9315 33.2451 23.9278 33.2687C23.9215 33.3132 23.9147 33.3578 23.9142 33.4023C23.9142 33.4065 23.9131 33.4107 23.9131 33.4149C23.9131 33.4395 23.9189 33.462 23.9205 33.4861C23.9231 33.5264 23.9252 33.5662 23.9325 33.6055C23.9388 33.6385 23.9487 33.6699 23.9582 33.7019C23.9676 33.7349 23.976 33.7674 23.9886 33.7993C24.0011 33.8313 24.0174 33.8606 24.0331 33.891C24.0483 33.9208 24.0629 33.9507 24.0807 33.979C24.0996 34.0083 24.1211 34.0345 24.1426 34.0618C24.163 34.0874 24.1824 34.1136 24.2049 34.1377C24.2321 34.166 24.262 34.1906 24.2924 34.2158C24.3102 34.2309 24.3254 34.2482 24.3442 34.2624L28.025 36.9422C28.211 37.0773 28.4268 37.1428 28.6405 37.1428C28.9642 37.1428 29.2837 36.9935 29.4885 36.7117C29.8285 36.2439 29.7258 35.5887 29.2581 35.2482L27.6845 34.1026C32.4564 32.8638 36 28.4664 36 23.2315Z" fill="#E4E4E7"/>
<path d="M16.9352 27.3097C16.931 27.2914 16.9231 27.2741 16.9184 27.2557C16.9043 27.2034 16.888 27.1515 16.866 27.1028C16.8634 27.097 16.8624 27.0902 16.8597 27.0845C16.7304 26.811 16.6376 26.5868 16.5669 26.3794C16.381 25.832 15.7859 25.5366 15.238 25.7247C14.6901 25.9106 14.3973 26.5057 14.5833 27.0536C14.6739 27.3202 14.7865 27.5957 14.9347 27.9152C14.9363 27.9189 14.9395 27.922 14.941 27.9262C14.9751 28.0106 15.0212 28.0881 15.0751 28.1598C15.0882 28.1771 15.1024 28.1928 15.1165 28.2096C15.1699 28.2725 15.2297 28.3301 15.2967 28.3788C15.3046 28.3846 15.3114 28.3919 15.3197 28.3977C15.3941 28.4485 15.4764 28.4867 15.5628 28.5176C15.5848 28.5255 15.6063 28.5317 15.6288 28.538C15.7178 28.5632 15.81 28.5805 15.9075 28.581C15.909 28.581 15.9106 28.5815 15.9122 28.5815C16.4182 28.5815 16.8409 28.2201 16.9383 27.7424C16.9525 27.6743 16.9598 27.6036 16.9598 27.5313C16.9598 27.4553 16.9509 27.3815 16.9352 27.3097Z" fill="#E4E4E7"/>
</svg>
