<svg width="50" height="50" viewBox="0 0 50 50" fill="none" xmlns="http://www.w3.org/2000/svg">
<circle cx="25" cy="25" r="25" fill="#1D1D20"/>
<path d="M24.9882 14.0001C24.8435 14.0015 24.7006 14.0315 24.5675 14.0885C24.4344 14.1455 24.3139 14.2283 24.2127 14.3321C24.1115 14.4359 24.0317 14.5589 23.9778 14.6937C23.924 14.8286 23.8971 14.9727 23.8988 15.118V23.9599C23.8989 24.2531 24.015 24.5344 24.2215 24.7418C24.428 24.9492 24.708 25.0656 25 25.0656C25.292 25.0656 25.572 24.9492 25.7785 24.7418C25.985 24.5344 26.1011 24.2531 26.1012 23.9599V15.118C26.1029 14.9707 26.0753 14.8245 26.0199 14.6881C25.9646 14.5517 25.8827 14.4278 25.779 14.3236C25.6753 14.2195 25.5519 14.1372 25.4161 14.0817C25.2803 14.0261 25.1348 13.9984 24.9882 14.0001ZM31.4062 16.2165C31.3704 16.2154 31.3345 16.2162 31.2988 16.2186C31.0813 16.2372 30.8742 16.3203 30.7038 16.4574C30.5335 16.5945 30.4076 16.7794 30.3422 16.9885C30.2768 17.1977 30.2748 17.4217 30.3364 17.632C30.3981 17.8423 30.5207 18.0295 30.6885 18.1696C32.5942 19.795 33.7998 22.2143 33.7998 24.931C33.7998 29.8363 29.8782 33.7901 25.0054 33.7901C20.1326 33.7901 16.2024 29.8363 16.2024 24.931C16.2024 22.23 17.3926 19.8272 19.2792 18.202C19.3891 18.1077 19.4795 17.9926 19.5451 17.8633C19.6108 17.734 19.6504 17.593 19.6618 17.4483C19.6732 17.3036 19.6561 17.1582 19.6114 17.0201C19.5668 16.8821 19.4956 16.7542 19.4017 16.6438C19.3079 16.5334 19.1934 16.4426 19.0646 16.3767C18.9359 16.3108 18.7955 16.2709 18.6514 16.2595C18.5074 16.2481 18.3625 16.2653 18.225 16.3101C18.0876 16.3549 17.9603 16.4265 17.8504 16.5207C15.4953 18.5495 14 21.5735 14 24.931C14 31.0287 18.9415 36 25.0054 36C31.0692 36 36 31.0287 36 24.931C36 21.5539 34.4899 18.5175 32.1109 16.4884C31.9153 16.3171 31.6657 16.2208 31.4062 16.2165H31.4062Z" fill="#018F6A" fill-opacity="0.8"/>
</svg>
