<svg width="20" height="14" viewBox="0 0 20 14" fill="none" xmlns="http://www.w3.org/2000/svg">
<path d="M19.9997 1.48015C19.9993 1.0878 19.8433 0.711633 19.566 0.434155C19.2886 0.156676 18.9125 0.000541798 18.5201 0H1.47989C1.0875 0.0004741 0.711321 0.156578 0.433883 0.434064C0.156445 0.71155 0.000406283 1.08776 1.77811e-08 1.48015V4.30381C-5.98843e-05 4.68983 0.151233 5.06048 0.4214 5.3362C0.151233 5.61192 -5.98843e-05 5.98258 1.77811e-08 6.36859V9.19303C0.000628584 9.50711 0.100896 9.8129 0.286371 10.0664C0.471845 10.3199 0.732962 10.5079 1.03214 10.6036V11.9008C1.0321 11.9596 1.04366 12.0178 1.06615 12.0722C1.08864 12.1265 1.12162 12.1759 1.1632 12.2175C1.20479 12.2591 1.25416 12.292 1.3085 12.3145C1.36284 12.337 1.42108 12.3486 1.47989 12.3485H2.51305V13.4359C2.51301 13.4947 2.52457 13.553 2.54706 13.6073C2.56955 13.6617 2.60253 13.711 2.64412 13.7526C2.6857 13.7942 2.73508 13.8272 2.78941 13.8497C2.84375 13.8722 2.90199 13.8837 2.9608 13.8837H4.49596C4.55477 13.8837 4.61301 13.8722 4.66735 13.8497C4.72168 13.8272 4.77106 13.7942 4.81264 13.7526C4.85423 13.711 4.88721 13.6617 4.9097 13.6073C4.93219 13.553 4.94374 13.4947 4.94371 13.4359V12.3478H15.056V13.4352C15.056 13.494 15.0676 13.5522 15.09 13.6066C15.1125 13.6609 15.1455 13.7103 15.1871 13.7519C15.2287 13.7934 15.2781 13.8264 15.3324 13.8489C15.3867 13.8714 15.445 13.883 15.5038 13.8829H17.0389C17.0978 13.883 17.156 13.8714 17.2103 13.8489C17.2647 13.8264 17.314 13.7934 17.3556 13.7519C17.3972 13.7103 17.4302 13.6609 17.4527 13.6066C17.4752 13.5522 17.4867 13.494 17.4867 13.4352V12.3478H18.5201C18.5789 12.3478 18.6372 12.3362 18.6915 12.3138C18.7458 12.2913 18.7952 12.2583 18.8368 12.2167C18.8784 12.1751 18.9114 12.1257 18.9338 12.0714C18.9563 12.0171 18.9679 11.9588 18.9679 11.9V10.6028C19.267 10.5072 19.5282 10.3191 19.7136 10.0656C19.8991 9.81213 19.9994 9.50634 20 9.19226V6.36859C20.0001 5.98258 19.8488 5.61192 19.5786 5.3362C19.8488 5.06048 20.0001 4.68983 20 4.30381L19.9997 1.48015ZM0.895763 1.48015C0.895898 1.32522 0.957467 1.17667 1.06697 1.06707C1.17647 0.957477 1.32496 0.895778 1.47989 0.895508H18.5201C18.6751 0.895711 18.8236 0.95738 18.9332 1.06698C19.0428 1.17659 19.1044 1.32518 19.1045 1.48015V4.30381C19.1044 4.45878 19.0428 4.60737 18.9332 4.71697C18.8236 4.82658 18.6751 4.88825 18.5201 4.88845H1.47989C1.32492 4.88825 1.17636 4.82658 1.0668 4.71697C0.957246 4.60737 0.895642 4.45878 0.895507 4.30381L0.895763 1.48015ZM4.04846 12.9874H3.40881V12.3478H4.04846V12.9874ZM16.5912 12.9874H15.9515V12.3478H16.5912V12.9874ZM1.9279 11.4523V10.6724H18.0726V11.4523H1.9279ZM19.1042 9.19303C19.1039 9.34782 19.0422 9.49617 18.9328 9.6056C18.8233 9.71503 18.6749 9.77662 18.5201 9.7769H1.47989C1.3251 9.77662 1.17672 9.71503 1.06724 9.6056C0.95776 9.49617 0.896101 9.34782 0.895763 9.19303V6.36859C0.895898 6.21367 0.957467 6.06512 1.06697 5.95552C1.17647 5.84593 1.32496 5.78423 1.47989 5.78396H18.5201C18.6751 5.78416 18.8236 5.84583 18.9332 5.95543C19.0428 6.06504 19.1044 6.21362 19.1045 6.36859L19.1042 9.19303Z" fill="#018F6A" fill-opacity="0.85"/>
</svg>
