<svg width="12" height="16" viewBox="0 0 12 16" fill="none" xmlns="http://www.w3.org/2000/svg">
<path d="M6.00859 2.24961C6.25712 2.24961 6.45859 2.04814 6.45859 1.79961C6.45859 1.55108 6.25712 1.34961 6.00859 1.34961C5.76007 1.34961 5.55859 1.55108 5.55859 1.79961C5.55859 2.04814 5.76007 2.24961 6.00859 2.24961Z" fill="#E4E4E7" fill-opacity="0.4"/>
<path d="M12 3.59996C12 2.93722 11.4627 2.39996 10.8 2.39996H9.1341C8.91188 2.1531 8.62642 1.96421 8.29845 1.86986C8.02219 1.79044 7.80956 1.57781 7.7301 1.30155C7.51391 0.549862 6.82118 0 5.99996 0C5.17879 0 4.48609 0.549863 4.26994 1.30147C4.19036 1.57807 3.97721 1.79044 3.70061 1.87012C3.37301 1.96455 3.08783 2.15325 2.86579 2.39996H1.2C0.537225 2.39996 0 2.93722 0 3.59996V14.3999C0 15.0627 0.537225 15.5999 1.2 15.5999C3.95498 15.5999 7.34093 15.5999 10.8 15.5999C11.4628 15.5999 12 15.0627 12 14.3999C12 10.992 12 7.7286 12 3.59996ZM3.00004 3.59032C3.00416 3.06285 3.36056 2.5926 3.86674 2.44672C4.34336 2.3094 4.70962 1.94325 4.8465 1.46737C4.99342 0.956625 5.46772 0.6 5.99996 0.6C6.53224 0.6 7.00654 0.956625 7.15339 1.46737C7.29034 1.94355 7.65638 2.30959 8.13255 2.4465C8.64323 2.59339 8.99993 3.06772 8.99993 3.59992V4.19992H3.00004V3.59032ZM10.8 14.9999C7.59544 14.9999 4.39613 14.9999 1.2 14.9999C0.869138 14.9999 0.6 14.7307 0.6 14.3999V3.59996C0.6 3.26914 0.869138 2.99996 1.2 2.99996H2.50283C2.43795 3.18341 2.40165 3.38032 2.40007 3.5856V4.79996H9.6V3.59996C9.6 3.3894 9.5628 3.1878 9.49635 2.99996H10.8C11.1308 2.99996 11.4 3.26914 11.4 3.59996C11.4 5.31532 11.3999 13.3595 11.4 14.3999C11.4 14.7307 11.1309 14.9999 10.8 14.9999Z" fill="#E4E4E7" fill-opacity="0.4"/>
<path d="M8.49505 7.29492L4.88879 10.9011L3.29924 9.3116L2.875 9.73587L4.88879 11.7497L8.91929 7.7192L8.49505 7.29492Z" fill="#E4E4E7" fill-opacity="0.4"/>
</svg>
