<svg width="19" height="18" viewBox="0 0 19 18" fill="none" xmlns="http://www.w3.org/2000/svg">
<path d="M9.0117 0L8.61378 0.257477L0 5.6645L0.772432 6.88166V18H17.251V6.88166L18.0234 5.6645L9.40962 0.257477L9.0117 0ZM9.0117 1.77893L15.7529 6.0156V12.7568H9.76073V11.1417C11.0481 10.8082 12.0078 9.64954 12.0078 8.26268C12.0078 6.61541 10.659 5.26658 9.0117 5.26658C7.36443 5.26658 6.0156 6.61541 6.0156 8.26268C6.0156 9.64954 6.97529 10.8082 8.26268 11.1417V14.2549H15.7529V16.5019H2.27048V6.0156L9.0117 1.77893ZM9.0117 6.76463C9.84851 6.76463 10.5098 7.42588 10.5098 8.26268C10.5098 9.09948 9.84851 9.76073 9.0117 9.76073C8.1749 9.76073 7.51365 9.09948 7.51365 8.26268C7.51365 7.42588 8.1749 6.76463 9.0117 6.76463ZM9.0117 7.51365C8.59915 7.51365 8.26268 7.85013 8.26268 8.26268C8.26268 8.67523 8.59915 9.0117 9.0117 9.0117C9.42425 9.0117 9.76073 8.67523 9.76073 8.26268C9.76073 7.85013 9.42425 7.51365 9.0117 7.51365Z" fill="#E4E4E7" fill-opacity="0.8"/>
</svg>
