<svg width="12" height="15" viewBox="0 0 12 15" fill="none" xmlns="http://www.w3.org/2000/svg">
<path d="M10.2426 1.75736C9.10941 0.624107 7.60266 0 6.00001 0C4.39737 0 2.89059 0.624107 1.75736 1.75736C0.624107 2.89065 0 4.39737 0 5.99999C0 9.24207 3.06548 11.9387 4.71237 13.3874C4.94124 13.5887 5.13887 13.7626 5.29633 13.9096C5.49361 14.0939 5.74682 14.1861 5.99999 14.1861C6.2532 14.1861 6.50636 14.0939 6.70367 13.9096C6.86113 13.7625 7.05876 13.5887 7.28763 13.3874C8.93452 11.9387 12 9.24207 12 5.99999C12 4.39737 11.3759 2.89065 10.2426 1.75736ZM6.73875 12.7635C6.50487 12.9692 6.30291 13.1469 6.13639 13.3024C6.05989 13.3738 5.94008 13.3738 5.86356 13.3024C5.69706 13.1468 5.49508 12.9692 5.2612 12.7634C3.71292 11.4015 0.830942 8.86631 0.830942 6.00001C0.830942 3.14982 3.14974 0.831025 5.99996 0.831025C8.85015 0.831025 11.1689 3.14982 11.1689 6.00001C11.169 8.86631 8.28703 11.4015 6.73875 12.7635Z" fill="#E4E4E7" fill-opacity="0.4"/>
<path d="M5.9996 3.12891C4.54162 3.12891 3.35547 4.31503 3.35547 5.77301C3.35547 7.231 4.54162 8.41712 5.9996 8.41712C7.45759 8.41712 8.64371 7.231 8.64371 5.77301C8.64371 4.31503 7.45759 3.12891 5.9996 3.12891ZM5.9996 7.58609C4.99984 7.58609 4.18647 6.77272 4.18647 5.77299C4.18647 4.77325 4.99984 3.95988 5.9996 3.95988C6.99937 3.95988 7.81271 4.77325 7.81271 5.77299C7.81271 6.77272 6.99937 7.58609 5.9996 7.58609Z" fill="#E4E4E7" fill-opacity="0.4"/>
</svg>
