<svg width="12" height="17" viewBox="0 0 12 17" fill="none" xmlns="http://www.w3.org/2000/svg">
<path d="M6.00049 8.50488C7.00824 8.50488 7.82508 7.68782 7.82508 6.68017C7.82508 5.67242 7.00824 4.85547 6.00049 4.85547C4.99262 4.85547 4.17578 5.67242 4.17578 6.68017C4.17699 7.68738 4.99317 8.50356 6.00049 8.50488ZM6.00049 5.56488C6.61835 5.56488 7.1192 6.06573 7.1192 6.6837C7.1192 7.30157 6.61835 7.80253 6.00049 7.80253C5.38251 7.80253 4.88166 7.30157 4.88166 6.6837C4.88177 6.06584 5.38262 5.5651 6.00049 5.56488Z" fill="#E4E4E7" fill-opacity="0.4"/>
<path d="M6.00157 9.17976C5.25499 9.17425 4.53852 9.47392 4.01804 10.0092C3.48863 10.5492 3.19922 11.2833 3.19922 12.0809C3.19977 12.2756 3.35738 12.4333 3.55216 12.4339H8.45087C8.64565 12.4333 8.80326 12.2756 8.80381 12.0809C8.80381 11.2833 8.5144 10.5492 7.98499 10.0092C7.46462 9.47392 6.74804 9.17425 6.00157 9.17976ZM3.92981 11.728C3.99014 11.2665 4.19826 10.837 4.52275 10.5033C4.9133 10.1081 5.44591 9.88564 6.00157 9.88564C6.55712 9.88564 7.08973 10.1081 7.48028 10.5033C7.80411 10.8374 8.01201 11.2667 8.07323 11.728H3.92981Z" fill="#E4E4E7" fill-opacity="0.4"/>
<path d="M10.2353 0H1.76471C0.790257 0.000441176 0.000330889 0.790257 0 1.76471V14.2588C0.000330889 15.2333 0.790257 16.0231 1.76471 16.0235H10.2353C11.2097 16.0231 11.9996 15.2333 12 14.2588V1.76471C11.9996 0.790257 11.2097 0.000441176 10.2353 0ZM11.2941 14.2588C11.2925 14.8428 10.8193 15.316 10.2353 15.3176H1.76471C1.1807 15.316 0.707537 14.8428 0.705882 14.2588V1.76471C0.707537 1.1807 1.1807 0.707537 1.76471 0.705882H10.2353C10.8193 0.707537 11.2925 1.1807 11.2941 1.76471V14.2588Z" fill="#E4E4E7" fill-opacity="0.4"/>
<path d="M4.52872 2.36799H7.35225C7.54714 2.36799 7.70519 2.20994 7.70519 2.01505C7.70519 1.82016 7.54714 1.66211 7.35225 1.66211H4.52872C4.33372 1.66211 4.17578 1.82016 4.17578 2.01505C4.17578 2.20994 4.33372 2.36799 4.52872 2.36799Z" fill="#E4E4E7" fill-opacity="0.4"/>
</svg>
