<svg width="13" height="11" viewBox="0 0 13 11" fill="none" xmlns="http://www.w3.org/2000/svg">
<path d="M11.598 5.73828C10.912 5.73828 10.3399 6.35787 10.2197 7.17304H7.87828C7.75802 6.35787 7.18594 5.73828 6.49997 5.73828C5.81401 5.73828 5.24193 6.35787 5.12167 7.17304H2.78027C2.66 6.35787 2.08793 5.73828 1.40196 5.73828C0.62892 5.73828 0 6.52494 0 7.49187C0 8.4588 0.62892 9.24546 1.40196 9.24546C1.99517 9.24546 2.50314 8.782 2.70754 8.12954H5.19442C5.39882 8.782 5.90679 9.24546 6.5 9.24546C7.09321 9.24546 7.60118 8.782 7.80558 8.12954H10.2925C10.4969 8.782 11.0048 9.24546 11.598 9.24546C12.3711 9.24546 13 8.4588 13 7.49187C13 6.52494 12.371 5.73828 11.598 5.73828ZM1.40191 8.28895C1.05053 8.28895 0.764655 7.93138 0.764655 7.49187C0.764655 7.05236 1.05053 6.69478 1.40191 6.69478C1.75329 6.69478 2.03916 7.05236 2.03916 7.49187C2.03916 7.93138 1.75329 8.28895 1.40191 8.28895ZM6.49995 8.28895C6.14857 8.28895 5.86269 7.93138 5.86269 7.49187C5.86269 7.05236 6.14857 6.69478 6.49995 6.69478C6.85133 6.69478 7.1372 7.05236 7.1372 7.49187C7.1372 7.93138 6.85133 8.28895 6.49995 8.28895ZM11.598 8.28895C11.2466 8.28895 10.9607 7.93138 10.9607 7.49187C10.9607 7.05236 11.2466 6.69478 11.598 6.69478C11.9494 6.69478 12.2352 7.05236 12.2352 7.49187C12.2352 7.93138 11.9494 8.28895 11.598 8.28895Z" fill="#E4E4E7" fill-opacity="0.4"/>
<path d="M2.67693 3.82601H1.91222V0H0.382812V0.956503H1.14752V3.82601H0.382812V4.78251H2.67693V3.82601Z" fill="#E4E4E7" fill-opacity="0.4"/>
<path d="M7.64568 3.82601H6.11627V3.3036L7.64568 2.18768V0H5.35156V0.956503H6.88097V1.63833L5.35156 2.75425V4.78251H7.64568V3.82601Z" fill="#E4E4E7" fill-opacity="0.4"/>
<path d="M5.35156 10.043H7.64568V10.9995H5.35156V10.043Z" fill="#E4E4E7" fill-opacity="0.4"/>
<path d="M12.6183 0H10.3242V0.956503H11.8536V1.91301H10.7066V2.86951H11.8536V3.82601H10.3242V4.78251H12.6183V0Z" fill="#E4E4E7" fill-opacity="0.4"/>
</svg>
