<svg width="19" height="18" viewBox="0 0 19 18" fill="none" xmlns="http://www.w3.org/2000/svg">
<path d="M3.82346 0.000421875C3.79252 0.00745314 3.76158 0.0187031 3.73346 0.0341719L1.21346 1.18167C1.03065 1.26183 0.946271 1.47698 1.02783 1.6598C1.10799 1.84261 1.32315 1.92558 1.50596 1.84542L3.87971 0.754172L12.1597 4.47792V5.31042L12.0022 5.24292C11.9952 5.2387 11.9867 5.23448 11.9797 5.23167L11.946 5.20917C11.9277 5.20073 11.9094 5.1923 11.8897 5.18667L4.02596 1.62042C3.93315 1.57964 3.82627 1.57964 3.73346 1.62042L1.21346 2.76792C1.08127 2.8087 0.98424 2.92402 0.964553 3.06042C0.944865 3.19823 1.00674 3.33464 1.12205 3.41198C1.23737 3.48792 1.38643 3.49214 1.50596 3.42042L3.87971 2.34042L11.4397 5.77167V12.8929C11.4299 12.9407 11.4299 12.9914 11.4397 13.0392V17.2804H1.35971C1.23033 17.279 1.1094 17.3465 1.0433 17.459C0.978615 17.5715 0.978615 17.7093 1.0433 17.8218C1.1094 17.9343 1.23033 18.0018 1.35971 18.0004H11.7997C11.998 18.0004 12.1597 17.8387 12.1597 17.6404V13.3204H16.4797C16.678 13.3204 16.8397 13.1587 16.8397 12.9604V10.4067C18.0575 10.2309 18.9997 9.18605 18.9997 7.92042C18.9997 6.53245 17.8677 5.40042 16.4797 5.40042C15.0917 5.40042 13.9597 6.53245 13.9597 7.92042C13.9597 9.18605 14.9019 10.2309 16.1197 10.4067V12.6004H12.1597V6.09792L12.3735 6.19917C12.4846 6.24839 12.6125 6.23855 12.7152 6.17245C12.8164 6.10636 12.8783 5.99386 12.8797 5.87292V4.25292C12.8825 4.10808 12.7981 3.97448 12.666 3.91542L4.02596 0.0341719C3.97393 0.00885937 3.91487 -0.00239062 3.85721 0.000421875C3.84596 0.000421875 3.83471 0.000421875 3.82346 0.000421875ZM16.4797 6.12042C17.4781 6.12042 18.2797 6.92198 18.2797 7.92042C18.2797 8.91886 17.4781 9.72042 16.4797 9.72042C15.4813 9.72042 14.6797 8.91886 14.6797 7.92042C14.6797 6.92198 15.4813 6.12042 16.4797 6.12042ZM16.4797 6.84042C15.8877 6.84042 15.3997 7.32839 15.3997 7.92042C15.3997 8.51245 15.8877 9.00042 16.4797 9.00042C17.0717 9.00042 17.5597 8.51245 17.5597 7.92042C17.5597 7.32839 17.0717 6.84042 16.4797 6.84042ZM16.4797 7.56042C16.6822 7.56042 16.8397 7.71792 16.8397 7.92042C16.8397 8.12292 16.6822 8.28042 16.4797 8.28042C16.2772 8.28042 16.1197 8.12292 16.1197 7.92042C16.1197 7.71792 16.2772 7.56042 16.4797 7.56042Z" fill="#E4E4E7" fill-opacity="0.4"/>
</svg>
