<svg width="20" height="35" viewBox="0 0 20 35" fill="none" xmlns="http://www.w3.org/2000/svg">
<path d="M18.0556 0H1.94444C1.42892 0.000569813 0.934675 0.205613 0.570144 0.570144C0.205614 0.934675 0.000569813 1.42892 0 1.94444V32.5C0.000569813 33.0155 0.205614 33.5098 0.570144 33.8743C0.934675 34.2388 1.42892 34.4439 1.94444 34.4444H18.0556C18.5711 34.4439 19.0653 34.2388 19.4299 33.8743C19.7944 33.5098 19.9994 33.0155 20 32.5V1.94444C19.9994 1.42892 19.7944 0.934675 19.4299 0.570144C19.0653 0.205613 18.5711 0.000569813 18.0556 0ZM12.6215 1.11111L12.3438 2.22222H7.65625L7.37847 1.11111H12.6215ZM18.8889 32.5C18.8887 32.721 18.8008 32.9328 18.6446 33.0891C18.4884 33.2453 18.2765 33.3331 18.0556 33.3333H1.94444C1.72349 33.3331 1.51163 33.2453 1.35539 33.0891C1.19915 32.9328 1.1113 32.721 1.11111 32.5V1.94444C1.1113 1.72349 1.19915 1.51163 1.35539 1.35539C1.51163 1.19915 1.72349 1.11129 1.94444 1.11111H6.23264L6.68333 2.9125C6.71338 3.03269 6.78273 3.13939 6.88037 3.21564C6.97801 3.29189 7.09834 3.33331 7.22222 3.33333H12.7778C12.9017 3.33331 13.022 3.29189 13.1196 3.21564C13.2173 3.13939 13.2866 3.03269 13.3167 2.9125L13.7674 1.11111H18.0556C18.2765 1.11129 18.4884 1.19915 18.6446 1.35539C18.8008 1.51163 18.8887 1.72349 18.8889 1.94444V32.5Z" fill="#006A4E" fill-opacity="0.85"/>
<path d="M12.2227 31.667H7.77821C7.63087 31.667 7.48956 31.7255 7.38537 31.8297C7.28119 31.9339 7.22266 32.0752 7.22266 32.2225C7.22266 32.3699 7.28119 32.5112 7.38537 32.6154C7.48956 32.7196 7.63087 32.7781 7.77821 32.7781H12.2227C12.37 32.7781 12.5113 32.7196 12.6155 32.6154C12.7197 32.5112 12.7782 32.3699 12.7782 32.2225C12.7782 32.0752 12.7197 31.9339 12.6155 31.8297C12.5113 31.7255 12.37 31.667 12.2227 31.667Z" fill="#006A4E" fill-opacity="0.85"/>
<path d="M16.1137 10.5557H8.89149C8.74415 10.5557 8.60284 10.6142 8.49866 10.7184C8.39447 10.8226 8.33594 10.9639 8.33594 11.1112C8.33594 11.2586 8.39447 11.3999 8.49866 11.5041C8.60284 11.6082 8.74415 11.6668 8.89149 11.6668H12.2248V14.4446C12.2248 14.5919 12.2834 14.7332 12.3875 14.8374C12.4917 14.9416 12.633 15.0001 12.7804 15.0001H16.1137C16.2611 15.0001 16.4024 14.9416 16.5066 14.8374C16.6107 14.7332 16.6693 14.5919 16.6693 14.4446V11.1112C16.6693 10.9639 16.6107 10.8226 16.5066 10.7184C16.4024 10.6142 16.2611 10.5557 16.1137 10.5557ZM15.5582 13.889H13.3359V11.6668H15.5582V13.889Z" fill="#006A4E" fill-opacity="0.85"/>
<path d="M7.78038 23.3332V19.9999C7.78038 19.8525 7.72185 19.7112 7.61766 19.6071C7.51348 19.5029 7.37217 19.4443 7.22483 19.4443H3.89149C3.74415 19.4443 3.60284 19.5029 3.49866 19.6071C3.39447 19.7112 3.33594 19.8525 3.33594 19.9999V23.3332C3.33594 23.4806 3.39447 23.6219 3.49866 23.7261C3.60284 23.8302 3.74415 23.8888 3.89149 23.8888H7.22483C7.37217 23.8888 7.51348 23.8302 7.61766 23.7261C7.72185 23.6219 7.78038 23.4806 7.78038 23.3332ZM6.66927 22.7777H4.44705V20.5554H6.66927V22.7777Z" fill="#006A4E" fill-opacity="0.85"/>
<path d="M16.1137 19.4443H12.7804C12.633 19.4443 12.4917 19.5029 12.3875 19.6071C12.2834 19.7112 12.2248 19.8525 12.2248 19.9999V22.7777H8.89149C8.74415 22.7777 8.60284 22.8362 8.49866 22.9404C8.39447 23.0446 8.33594 23.1859 8.33594 23.3332C8.33594 23.4806 8.39447 23.6219 8.49866 23.7261C8.60284 23.8302 8.74415 23.8888 8.89149 23.8888H16.1137C16.2611 23.8888 16.4024 23.8302 16.5066 23.7261C16.6107 23.6219 16.6693 23.4806 16.6693 23.3332V19.9999C16.6693 19.8525 16.6107 19.7112 16.5066 19.6071C16.4024 19.5029 16.2611 19.4443 16.1137 19.4443ZM15.5582 22.7777H13.3359V20.5554H15.5582V22.7777Z" fill="#006A4E" fill-opacity="0.85"/>
<path d="M11.1137 21.1113H8.89149C8.74415 21.1113 8.60284 21.1699 8.49866 21.274C8.39447 21.3782 8.33594 21.5195 8.33594 21.6669C8.33594 21.8142 8.39447 21.9555 8.49866 22.0597C8.60284 22.1639 8.74415 22.2224 8.89149 22.2224H11.1137C11.2611 22.2224 11.4024 22.1639 11.5066 22.0597C11.6107 21.9555 11.6693 21.8142 11.6693 21.6669C11.6693 21.5195 11.6107 21.3782 11.5066 21.274C11.4024 21.1699 11.2611 21.1113 11.1137 21.1113Z" fill="#006A4E" fill-opacity="0.85"/>
<path d="M16.1102 15.5557C15.9629 15.5557 15.8216 15.6142 15.7174 15.7184C15.6132 15.8226 15.5547 15.9639 15.5547 16.1112V18.3334C15.5547 18.4808 15.6132 18.6221 15.7174 18.7263C15.8216 18.8305 15.9629 18.889 16.1102 18.889C16.2576 18.889 16.3989 18.8305 16.5031 18.7263C16.6073 18.6221 16.6658 18.4808 16.6658 18.3334V16.1112C16.6658 15.9639 16.6073 15.8226 16.5031 15.7184C16.3989 15.6142 16.2576 15.5557 16.1102 15.5557Z" fill="#006A4E" fill-opacity="0.85"/>
<path d="M15.0017 18.3334V16.1112C15.0017 15.9639 14.9432 15.8226 14.839 15.7184C14.7348 15.6142 14.5935 15.5557 14.4462 15.5557C14.2988 15.5557 14.1575 15.6142 14.0533 15.7184C13.9492 15.8226 13.8906 15.9639 13.8906 16.1112V18.3334C13.8906 18.4808 13.9492 18.6221 14.0533 18.7263C14.1575 18.8305 14.2988 18.889 14.4462 18.889C14.5935 18.889 14.7348 18.8305 14.839 18.7263C14.9432 18.6221 15.0017 18.4808 15.0017 18.3334Z" fill="#006A4E" fill-opacity="0.85"/>
<path d="M11.1137 15.5557H4.44705V15.0001H7.22483C7.37217 15.0001 7.51348 14.9416 7.61766 14.8374C7.72185 14.7332 7.78038 14.5919 7.78038 14.4446V11.1112C7.78038 10.9639 7.72185 10.8226 7.61766 10.7184C7.51348 10.6142 7.37217 10.5557 7.22483 10.5557H3.89149C3.74415 10.5557 3.60284 10.6142 3.49866 10.7184C3.39447 10.8226 3.33594 10.9639 3.33594 11.1112V18.3334C3.33594 18.4808 3.39447 18.6221 3.49866 18.7263C3.60284 18.8305 3.74415 18.889 3.89149 18.889C4.03884 18.889 4.18014 18.8305 4.28433 18.7263C4.38852 18.6221 4.44705 18.4808 4.44705 18.3334V16.6668H8.33594V17.7779H6.66927C6.52193 17.7779 6.38062 17.8364 6.27643 17.9406C6.17225 18.0448 6.11371 18.1861 6.11371 18.3334C6.11371 18.4808 6.17225 18.6221 6.27643 18.7263C6.38062 18.8305 6.52193 18.889 6.66927 18.889H11.1137C11.2611 18.889 11.4024 18.8305 11.5066 18.7263C11.6107 18.6221 11.6693 18.4808 11.6693 18.3334V16.1112C11.6693 15.9639 11.6107 15.8226 11.5066 15.7184C11.4024 15.6142 11.2611 15.5557 11.1137 15.5557ZM4.44705 11.6668H6.66927V13.889H4.44705V11.6668ZM10.5582 17.7779H9.44705V16.6668H10.5582V17.7779Z" fill="#006A4E" fill-opacity="0.85"/>
<path d="M13.8906 12.2227H15.0017V13.3338H13.8906V12.2227Z" fill="#006A4E" fill-opacity="0.85"/>
<path d="M5 21.1113H6.11111V22.2224H5V21.1113Z" fill="#006A4E" fill-opacity="0.85"/>
<path d="M10.5564 14.4449V12.7782C10.5564 12.6309 10.4979 12.4896 10.3937 12.3854C10.2895 12.2812 10.1482 12.2227 10.0009 12.2227C9.85353 12.2227 9.71222 12.2812 9.60803 12.3854C9.50384 12.4896 9.44531 12.6309 9.44531 12.7782V14.4449C9.44531 14.5922 9.50384 14.7335 9.60803 14.8377C9.71222 14.9419 9.85353 15.0004 10.0009 15.0004C10.1482 15.0004 10.2895 14.9419 10.3937 14.8377C10.4979 14.7335 10.5564 14.5922 10.5564 14.4449Z" fill="#006A4E" fill-opacity="0.85"/>
<path d="M12.7782 17.7779C12.9256 17.7779 13.0669 17.7194 13.171 17.6152C13.2752 17.511 13.3338 17.3697 13.3338 17.2223V16.1112C13.3338 15.9639 13.2752 15.8226 13.171 15.7184C13.0669 15.6142 12.9256 15.5557 12.7782 15.5557C12.6309 15.5557 12.4896 15.6142 12.3854 15.7184C12.2812 15.8226 12.2227 15.9639 12.2227 16.1112V17.2223C12.2227 17.3697 12.2812 17.511 12.3854 17.6152C12.4896 17.7194 12.6309 17.7779 12.7782 17.7779Z" fill="#006A4E" fill-opacity="0.85"/>
</svg>
