<svg width="12" height="14" viewBox="0 0 12 14" fill="none" xmlns="http://www.w3.org/2000/svg">
<path d="M9 3C9 1.34571 7.65429 0 6 0C4.34571 0 3 1.34571 3 3C3 4.65429 4.34571 6 6 6C7.65429 6 9 4.65429 9 3ZM3.85714 3C3.85714 1.81929 4.81929 0.857143 6 0.857143C7.18071 0.857143 8.14286 1.81929 8.14286 3C8.14286 4.18071 7.18071 5.14286 6 5.14286C4.81929 5.14286 3.85714 4.18071 3.85714 3Z" fill="#E4E4E7" fill-opacity="0.4"/>
<path d="M0 11.7094V13.0723C0 13.308 0.192857 13.5008 0.428571 13.5008H11.5714C11.8071 13.5008 12 13.308 12 13.0723V11.7094C12 9.15298 9.91929 7.07227 7.36286 7.07227H4.63714C2.08071 7.07227 0 9.15298 0 11.7094ZM4.63714 7.92941H7.36286C9.44786 7.92941 11.1429 9.62441 11.1429 11.7094V12.6437H0.857143V11.7094C0.857143 9.62441 2.55214 7.92941 4.63714 7.92941Z" fill="#E4E4E7" fill-opacity="0.4"/>
</svg>
