<svg width="50" height="50" viewBox="0 0 50 50" fill="none" xmlns="http://www.w3.org/2000/svg">
<g clip-path="url('#clip0_8_541')">
<path d="M48.7179 40.5652L9.53285 1.38012C7.82388 -0.328854 5.05321 -0.328854 3.34691 1.38012L1.28173 3.4421C-0.427243 5.1516 -0.427243 7.92227 1.28173 9.62857L40.4668 48.8137C42.1763 50.5226 44.947 50.5226 46.6533 48.8137L48.7153 46.7517C50.4274 45.0454 50.4274 42.2742 48.7179 40.5652Z" fill="#F44336"></path>
<path d="M40.4668 1.37996L1.28173 40.565C-0.427242 42.274 -0.427242 45.0452 1.28173 46.7515L3.3437 48.8135C5.05321 50.5225 7.82387 50.5225 9.53017 48.8135L48.7179 9.63108C50.4274 7.92211 50.4274 5.15144 48.7179 3.44514L46.6559 1.38316C44.9469 -0.32901 42.1763 -0.32901 40.4668 1.37996Z" fill="#F44336"></path>
</g>
<defs>
<clipPath id="clip0_8_541">
<rect width="50" height="50" fill="white"></rect>
</clipPath>
</defs>
</svg>
