<svg width="30" height="33" viewBox="0 0 30 33" fill="none" xmlns="http://www.w3.org/2000/svg">
<path d="M9.36283 7.85156L7.27734 10.1021V22.2709L9.36283 24.5215H20.6392L22.7247 22.2709V10.1021L20.6392 7.85156H9.36283ZM16.0266 16.9456C16.5824 16.9456 17.0347 17.4336 17.0347 18.0335C17.0347 18.6334 16.5824 19.1213 16.0266 19.1213H14.3779V16.9456H16.0266ZM15.5752 15.0483H14.3779V13.2597H15.5752C16.0321 13.2597 16.4039 13.6608 16.4039 14.154C16.4039 14.6471 16.0322 15.0483 15.5752 15.0483ZM9.03556 21.485V10.8881L10.0911 9.74899H14.1229V11.3624H11.5649V13.2597H12.6198V19.1214H11.5649V21.0187H14.1229V22.6242H10.0911L9.03556 21.485ZM20.9666 21.485L19.911 22.6242H15.8811V21.0187H16.0266C17.5519 21.0187 18.7929 19.6795 18.7929 18.0334C18.7929 17.0828 18.3785 16.2352 17.735 15.6881C18.0046 15.2475 18.1621 14.7203 18.1621 14.154C18.1621 12.7264 17.1638 11.5464 15.8811 11.3825V9.74892H19.911L20.9666 10.888V21.485Z" fill="#E4E4E7" fill-opacity="0.6"></path>
<path d="M30 11.9577V10.0603H26.3348V7.09999L23.4207 3.95524H20.6774V0H18.9192V3.95524H15.8791V0H14.1209V3.95524H11.0807V0H9.3225V3.95524H6.57926L3.66513 7.09999V10.0603H0V11.9577H3.66519V15.2384H0V17.1358H3.66519V20.4164H0V22.3138H3.66519V25.2742L6.57932 28.4189H9.32256V32.3742H11.0808V28.4189H14.1209V32.3742H15.8791V28.4189H18.9193V32.3742H20.6775V28.4189H23.4207L26.3349 25.2742V22.3138H30.0001V20.4164H26.3349V17.1357H30.0001V15.2383H26.3349V11.9576H30V11.9577ZM24.5766 24.4882L22.6924 26.5215H7.30764L5.42347 24.4882V7.88587L7.30764 5.8526H22.6924L24.5766 7.88587V24.4882Z" fill="#E4E4E7" fill-opacity="0.6"></path>
</svg>
