<svg width="18" height="18" viewBox="0 0 18 18" fill="none" xmlns="http://www.w3.org/2000/svg">
<path d="M7.33306 17.0028C7.15622 17.0028 6.98662 16.9325 6.86158 16.8075C6.73653 16.6824 6.66629 16.5128 6.66629 16.336V9.92496L0.485275 3.12718C0.241959 2.85905 0.0817001 2.52607 0.0239472 2.16863C-0.0338056 1.8112 0.013431 1.44469 0.159924 1.11358C0.306417 0.78247 0.545868 0.500999 0.849216 0.303328C1.15256 0.105657 1.50677 0.000285121 1.86883 0H16.1312C16.4932 0.000285121 16.8474 0.105657 17.1508 0.303328C17.4541 0.500999 17.6936 0.78247 17.8401 1.11358C17.9866 1.44469 18.0338 1.8112 17.9761 2.16863C17.9183 2.52607 17.758 2.85905 17.5147 3.12718L11.3337 9.92496V13.6689C11.3337 13.7688 11.3112 13.8674 11.2679 13.9574C11.2246 14.0474 11.1616 14.1266 11.0837 14.189L7.7498 16.8561C7.63159 16.9509 7.48461 17.0027 7.33306 17.0028ZM1.86883 1.33355C1.76508 1.33381 1.66362 1.36414 1.57674 1.42086C1.48986 1.47758 1.42128 1.55827 1.37931 1.65315C1.33733 1.74804 1.32376 1.85306 1.34023 1.9555C1.35669 2.05794 1.4025 2.15342 1.4721 2.23036L7.82647 9.23151C7.93534 9.35123 7.99696 9.50645 7.99984 9.66825V14.9491L10.0002 13.3355V9.66825C9.99977 9.50185 10.0616 9.34131 10.1735 9.21817L16.5279 2.21703C16.5934 2.13974 16.6356 2.0455 16.6498 1.94521C16.6639 1.84492 16.6494 1.74267 16.6079 1.65027C16.5664 1.55787 16.4997 1.4791 16.4153 1.42306C16.3309 1.36701 16.2324 1.33598 16.1312 1.33355H1.86883Z" fill="#E4E4E7" fill-opacity="0.6"></path>
</svg>
