<svg width="12" height="12" viewBox="0 0 12 12" fill="none" xmlns="http://www.w3.org/2000/svg">
<circle cx="6" cy="6" r="5.5" fill="#27A080" stroke="white"></circle>
<path d="M9.0983 3.49976C8.97812 3.38834 8.81871 3.32905 8.6549 3.33486C8.49115 3.34067 8.33633 3.4111 8.22439 3.53075L4.9333 7.11935L3.76187 5.70003C3.70978 5.63737 3.64585 5.58555 3.57374 5.54756C3.50164 5.50963 3.42275 5.4862 3.34161 5.47876C3.17771 5.46364 3.01454 5.51422 2.88797 5.61946C2.76139 5.72464 2.68179 5.8758 2.66668 6.03974C2.65158 6.20361 2.70219 6.3668 2.80739 6.49336L4.43127 8.45191C4.48692 8.52064 4.55665 8.57667 4.63574 8.61621C4.71482 8.65576 4.80153 8.67794 4.88991 8.68123C4.97848 8.68278 5.06637 8.6653 5.14762 8.63003C5.22888 8.59477 5.30158 8.54246 5.36096 8.4767L9.13549 4.37368C9.24612 4.25269 9.30432 4.09282 9.29731 3.92904C9.29037 3.76525 9.21879 3.6109 9.0983 3.49976Z" fill="white"></path>
</svg>
