<svg width="40" height="41" viewBox="0 0 40 41" fill="none" xmlns="http://www.w3.org/2000/svg">
<path d="M19.9999 40.4598C31.0456 40.4598 39.9998 31.5055 39.9998 20.4599C39.9998 9.41423 31.0456 0.459961 19.9999 0.459961C8.95426 0.459961 0 9.41423 0 20.4599C0 31.5055 8.95426 40.4598 19.9999 40.4598Z" fill="#FFD93B"></path>
<path d="M39.9983 20.4603C39.9983 31.5102 31.0421 40.4602 19.9984 40.4602C13.7109 40.4602 8.09842 37.5602 4.42969 33.0165C7.86092 35.7915 12.2297 37.4477 16.9859 37.4477C28.0296 37.4477 36.9858 28.4978 36.9858 17.4478C36.9858 12.6916 35.3295 8.32284 32.5546 4.8916C37.092 8.56034 39.9983 14.1728 39.9983 20.4603Z" fill="#F4C534"></path>
<path d="M28.952 27.3658C28.952 27.9671 28.4657 28.4533 27.8645 28.4533H12.1383C11.5433 28.4533 11.0508 27.9671 11.0508 27.3658C11.0508 26.7646 11.5433 26.2783 12.1383 26.2783H27.8645C28.467 26.2796 28.952 26.7646 28.952 27.3658Z" fill="#3E4347"></path>
<path d="M13.6362 19.6182C15.282 19.6182 16.6162 18.284 16.6162 16.6382C16.6162 14.9924 15.282 13.6582 13.6362 13.6582C11.9904 13.6582 10.6562 14.9924 10.6562 16.6382C10.6562 18.284 11.9904 19.6182 13.6362 19.6182Z" fill="#3E4347"></path>
<path d="M15.3022 15.1193C15.0442 14.7726 14.6532 14.6268 14.4289 14.7937C14.2046 14.9607 14.2319 15.377 14.4899 15.7238C14.7479 16.0705 15.1389 16.2162 15.3632 16.0493C15.5875 15.8824 15.5602 15.466 15.3022 15.1193Z" fill="#5A5F63"></path>
<path d="M26.3628 19.6182C28.0086 19.6182 29.3428 18.284 29.3428 16.6382C29.3428 14.9924 28.0086 13.6582 26.3628 13.6582C24.717 13.6582 23.3828 14.9924 23.3828 16.6382C23.3828 18.284 24.717 19.6182 26.3628 19.6182Z" fill="#3E4347"></path>
<path d="M28.0326 15.1223C27.7746 14.7756 27.3836 14.6299 27.1593 14.7968C26.935 14.9637 26.9623 15.3801 27.2204 15.7268C27.4784 16.0735 27.8693 16.2192 28.0936 16.0523C28.3179 15.8853 28.2906 15.469 28.0326 15.1223Z" fill="#5A5F63"></path>
</svg>
