<svg width="23" height="24" viewBox="0 0 23 24" fill="none" xmlns="http://www.w3.org/2000/svg">
<path d="M11.2668 2.7692C10.7573 2.7692 10.3438 2.35567 10.3438 1.84613V0.923066C10.3438 0.413534 10.7573 0 11.2668 0C11.7763 0 12.1899 0.413534 12.1899 0.923066V1.84613C12.1899 2.35567 11.7763 2.7692 11.2668 2.7692Z" fill="white" fill-opacity="0.8"></path>
<path d="M19.3316 10.8257C18.8221 10.8257 18.4085 10.4122 18.4085 9.90263C18.4085 6.15129 15.3624 2.95471 11.6185 2.77748C7.86989 2.6044 4.52793 5.49129 4.17485 9.22095C4.15362 9.44387 4.14301 9.67279 4.14301 9.90263C4.14301 10.4122 3.72947 10.8257 3.21994 10.8257C2.71041 10.8257 2.29688 10.4122 2.29688 9.90263C2.29688 9.61463 2.31026 9.32664 2.33703 9.04695C2.78148 4.35038 6.98928 0.711655 11.7057 0.933653C16.4198 1.15657 20.2547 5.18022 20.2547 9.90263C20.2547 10.4126 19.8411 10.8257 19.3316 10.8257Z" fill="white" fill-opacity="0.8"></path>
<path d="M21.0562 17.1212C20.8286 17.1212 20.6002 17.0372 20.4216 16.8687C19.1385 15.654 18.4023 13.9435 18.4023 12.1763C18.4023 11.6668 18.8159 11.2532 19.3254 11.2532C19.8349 11.2532 20.2485 11.6668 20.2485 12.1763C20.2485 13.4386 20.7742 14.6607 21.6908 15.528C22.0609 15.8783 22.0771 16.4626 21.7268 16.8332C21.5454 17.0242 21.3008 17.1212 21.0562 17.1212Z" fill="white" fill-opacity="0.8"></path>
<path d="M1.48563 17.1213C1.24056 17.1213 0.996407 17.0248 0.815024 16.8328C0.46472 16.4627 0.480874 15.8784 0.851024 15.5281C1.76763 14.6609 2.29332 13.4392 2.29332 12.1764C2.29332 11.6669 2.70685 11.2534 3.21638 11.2534C3.72591 11.2534 4.13945 11.6669 4.13945 12.1764C4.13945 13.9446 3.4033 15.655 2.12024 16.8688C1.94117 17.0373 1.71317 17.1213 1.48563 17.1213Z" fill="white" fill-opacity="0.8"></path>
<path d="M11.2755 24.0001C8.77398 24.0001 6.66016 21.8862 6.66016 19.3847C6.66016 18.8752 7.07369 18.4617 7.58322 18.4617C8.09276 18.4617 8.50629 18.8752 8.50629 19.3847C8.50629 20.8856 9.77458 22.1539 11.2755 22.1539C12.7764 22.1539 14.0447 20.8856 14.0447 19.3847C14.0447 18.8752 14.4582 18.4617 14.9678 18.4617C15.4773 18.4617 15.8908 18.8752 15.8908 19.3847C15.8908 21.8862 13.777 24.0001 11.2755 24.0001Z" fill="white" fill-opacity="0.8"></path>
<path d="M2.75261 20.3078C1.62786 20.3078 0.627254 19.6201 0.203104 18.5558C-0.221506 17.4901 0.0318753 16.3017 0.848789 15.5281C1.21894 15.1774 1.80278 15.1935 2.15401 15.5637C2.50431 15.9338 2.48862 16.5181 2.11847 16.8689C1.71416 17.252 1.86278 17.7343 1.91816 17.8727C1.97308 18.0103 2.196 18.4616 2.75261 18.4616C3.26215 18.4616 3.67568 18.8752 3.67568 19.3847C3.67568 19.8942 3.26261 20.3078 2.75261 20.3078Z" fill="white" fill-opacity="0.8"></path>
<path d="M19.7863 20.308C19.2768 20.308 18.8633 19.8945 18.8633 19.3849C18.8633 18.8754 19.2768 18.4619 19.7863 18.4619C20.3434 18.4619 20.5668 18.0086 20.6222 17.8697C20.6771 17.7317 20.8253 17.2513 20.421 16.8686C20.0508 16.5179 20.0347 15.934 20.385 15.5634C20.7357 15.1933 21.3196 15.1771 21.6902 15.5274C22.5071 16.301 22.7609 17.4885 22.3372 18.5523C21.9126 19.6189 20.9111 20.308 19.7863 20.308Z" fill="white" fill-opacity="0.8"></path>
<path d="M3.21213 13.0994C2.7026 13.0994 2.28906 12.6858 2.28906 12.1763V9.9028C2.28906 9.39327 2.7026 8.97974 3.21213 8.97974C3.72166 8.97974 4.1352 9.39327 4.1352 9.9028V12.1763C4.1352 12.6858 3.72212 13.0994 3.21213 13.0994Z" fill="white" fill-opacity="0.8"></path>
<path d="M19.3254 13.0994C18.8159 13.0994 18.4023 12.6858 18.4023 12.1763V9.9028C18.4023 9.39327 18.8159 8.97974 19.3254 8.97974C19.8349 8.97974 20.2485 9.39327 20.2485 9.9028V12.1763C20.2485 12.6858 19.8349 13.0994 19.3254 13.0994Z" fill="white" fill-opacity="0.8"></path>
<path d="M19.7903 20.3078H2.7551C2.24557 20.3078 1.83203 19.8943 1.83203 19.3847C1.83203 18.8752 2.24557 18.4617 2.7551 18.4617H19.7898C20.2994 18.4617 20.7129 18.8752 20.7129 19.3847C20.7129 19.8943 20.2998 20.3078 19.7903 20.3078Z" fill="white" fill-opacity="0.8"></path>
</svg>
