<svg width="14" height="14" viewBox="0 0 14 14" fill="none" xmlns="http://www.w3.org/2000/svg">
<path d="M10.7731 14.0008C10.4757 14.0008 10.2344 13.7595 10.2344 13.4621C10.2344 13.1648 10.4757 12.9235 10.7731 12.9235H10.7736C10.7736 12.6261 11.0144 12.3848 11.312 12.3848C11.6096 12.3848 11.8504 12.6261 11.8504 12.9235C11.8504 13.5176 11.3672 14.0008 10.7731 14.0008Z" fill="#56CCF2"></path>
<path d="M11.3121 13.4621C11.0148 13.4621 10.7734 13.2208 10.7734 12.9234V7.64025C10.7734 7.3429 11.0148 7.10156 11.3121 7.10156C11.6095 7.10156 11.8508 7.3429 11.8508 7.64025V12.9234C11.8508 13.2208 11.6095 13.4621 11.3121 13.4621Z" fill="#56CCF2"></path>
<path d="M10.7742 14.0012H1.07775C0.780395 14.0012 0.539062 13.7599 0.539062 13.4625C0.539062 13.1652 0.780395 12.9238 1.07775 12.9238H10.7742C11.0715 12.9238 11.3129 13.1652 11.3129 13.4625C11.3129 13.7599 11.0715 14.0012 10.7742 14.0012Z" fill="#56CCF2"></path>
<path d="M1.07738 14.0008C0.483204 14.0008 0 13.5176 0 12.9235C0 12.6261 0.241333 12.3848 0.538689 12.3848C0.836046 12.3848 1.07738 12.6261 1.07738 12.9235V12.9243C1.37474 12.9243 1.61607 13.1651 1.61607 13.4624C1.61607 13.7598 1.37474 14.0008 1.07738 14.0008Z" fill="#56CCF2"></path>
<path d="M0.538689 13.4623C0.241333 13.4623 0 13.2209 0 12.9236V3.22717C0 2.92981 0.241333 2.68848 0.538689 2.68848C0.836046 2.68848 1.07738 2.92981 1.07738 3.22717V12.9236C1.07738 13.2209 0.836046 13.4623 0.538689 13.4623Z" fill="#56CCF2"></path>
<path d="M0.53842 3.76548C0.240794 3.76548 0 3.52415 0 3.22679C0 2.63262 0.483204 2.14941 1.07738 2.14941C1.37474 2.14941 1.61607 2.39075 1.61607 2.6881C1.61607 2.98546 1.37474 3.22679 1.07738 3.22679H1.07684C1.07684 3.52415 0.836046 3.76548 0.53842 3.76548Z" fill="#56CCF2"></path>
<path d="M6.36095 3.22679H1.07775C0.780395 3.22679 0.539062 2.98546 0.539062 2.6881C0.539062 2.39075 0.780395 2.14941 1.07775 2.14941H6.36095C6.65831 2.14941 6.89964 2.39075 6.89964 2.6881C6.89964 2.98546 6.65857 3.22679 6.36095 3.22679Z" fill="#56CCF2"></path>
<path d="M5.90581 6.72807C5.7679 6.72807 5.63 6.67555 5.52496 6.57023C5.3146 6.35988 5.3146 6.01889 5.52496 5.80853L10.7861 0.547417C10.9962 0.337059 11.3377 0.337059 11.5478 0.547417C11.7581 0.757775 11.7581 1.09877 11.5478 1.30912L6.28666 6.57023C6.18162 6.67555 6.04344 6.72807 5.90581 6.72807Z" fill="#56CCF2"></path>
<path d="M5.38688 9.15274C5.34945 9.15274 5.31147 9.14897 5.27349 9.14062C4.9826 9.0784 4.79729 8.79182 4.85978 8.5012L5.37988 6.07656C5.4421 5.7854 5.72922 5.59928 6.01957 5.66284C6.31047 5.72506 6.49578 6.01165 6.43329 6.30227L5.91318 8.72691C5.85878 8.97982 5.63549 9.15274 5.38688 9.15274Z" fill="#56CCF2"></path>
<path d="M7.81206 8.63237C7.67415 8.63237 7.53625 8.57984 7.43121 8.47453C7.22085 8.26417 7.22085 7.92318 7.43121 7.71282L12.6923 2.45171C12.9024 2.24136 13.2439 2.24136 13.454 2.45171C13.6644 2.66207 13.6644 3.00306 13.454 3.21342L8.19291 8.47453C8.08787 8.57984 7.94996 8.63237 7.81206 8.63237Z" fill="#56CCF2"></path>
<path d="M5.386 9.15221C5.13739 9.15221 4.9141 8.97929 4.8597 8.72665C4.79748 8.43576 4.98252 8.14917 5.27341 8.08695L7.69805 7.56658C7.98814 7.5049 8.27526 7.68913 8.33774 7.98003C8.39996 8.27092 8.21492 8.5575 7.92403 8.61972L5.49939 9.14009C5.46141 9.14817 5.42343 9.15221 5.386 9.15221Z" fill="#56CCF2"></path>
<path d="M12.1189 4.32364C11.981 4.32364 11.8431 4.27112 11.7381 4.16581L9.83355 2.26127C9.62319 2.05091 9.62319 1.70992 9.83355 1.49957C10.0436 1.28921 10.3852 1.28921 10.5953 1.49957L12.4998 3.4041C12.7102 3.61446 12.7102 3.95545 12.4998 4.16581C12.3947 4.27112 12.2568 4.32364 12.1189 4.32364Z" fill="#56CCF2"></path>
<path d="M13.0726 3.37112C12.9347 3.37112 12.7968 3.3186 12.6915 3.21328C12.4811 3.00292 12.4811 2.66166 12.6915 2.45131C12.8407 2.30236 12.9228 2.09927 12.9228 1.8803C12.9228 1.66132 12.8407 1.45823 12.6915 1.30928C12.3925 1.01004 11.8471 1.01031 11.5487 1.30902C11.3383 1.51937 10.9973 1.51937 10.7867 1.30928C10.5763 1.09893 10.5763 0.757667 10.7867 0.547308C11.1395 0.194197 11.613 0 12.1199 0C12.6268 0 13.1006 0.194467 13.4532 0.547308C13.8058 0.899881 14 1.37312 14 1.8803C14 2.38747 13.8058 2.86098 13.4529 3.21355C13.3484 3.3186 13.2105 3.37112 13.0726 3.37112Z" fill="#56CCF2"></path>
</svg>
