<svg width="14" height="15" viewBox="0 0 14 15" fill="none" xmlns="http://www.w3.org/2000/svg">
<path d="M13.4531 6.91309H7.54688V1.00684C7.54688 0.704797 7.30204 0.459961 7 0.459961C6.69796 0.459961 6.45312 0.704797 6.45312 1.00684V6.91309H0.546875C0.244836 6.91309 0 7.15792 0 7.45996C0 7.762 0.244836 8.00684 0.546875 8.00684H6.45312V13.9131C6.45312 14.2151 6.69796 14.46 7 14.46C7.30204 14.46 7.54688 14.2151 7.54688 13.9131V8.00684H13.4531C13.7552 8.00684 14 7.762 14 7.45996C14 7.15792 13.7552 6.91309 13.4531 6.91309Z" fill="white" fill-opacity="0.8"></path>
</svg>
