<svg width="12" height="10" viewBox="0 0 12 10" fill="none" xmlns="http://www.w3.org/2000/svg">
<path d="M11.8825 9.10311L6.41917 0.235746C6.32911 0.0892275 6.16885 0 5.99709 0C5.82464 0 5.66496 0.0891915 5.57447 0.235746L0.0737664 9.16356C-0.0206039 9.31645 -0.024596 9.50889 0.0627614 9.66566C0.15055 9.82286 0.316166 9.92004 0.496419 9.92004H11.4972C11.4992 9.91939 11.5013 9.91939 11.5037 9.92004C11.7778 9.92004 12 9.69742 12 9.42376C12.0002 9.30134 11.9559 9.18992 11.8825 9.10311ZM5.67129 2.95432H6.32239V6.90896H5.67129V2.95432ZM6.31875 8.35548C6.22309 8.44532 6.11566 8.49067 5.99666 8.49067C5.87787 8.49067 5.77062 8.44532 5.67485 8.35548C5.57951 8.26435 5.53178 8.15484 5.53178 8.02526C5.53178 7.89632 5.57713 7.78685 5.66751 7.69593C5.75757 7.60562 5.86726 7.56031 5.99666 7.56031C6.12555 7.56031 6.23604 7.60566 6.32652 7.69593C6.41658 7.78685 6.46214 7.89632 6.46214 8.02526C6.46218 8.15484 6.41377 8.26431 6.31875 8.35548Z" fill="#DC0045"></path>
</svg>
