<svg width="40" height="41" viewBox="0 0 40 41" fill="none" xmlns="http://www.w3.org/2000/svg">
<path d="M20 40.4598C31.0457 40.4598 40 31.5055 40 20.4599C40 9.41423 31.0457 0.459961 20 0.459961C8.9543 0.459961 0 9.41423 0 20.4599C0 31.5055 8.9543 40.4598 20 40.4598Z" fill="#FFD93B"></path>
<path d="M39.9984 20.4603C39.9984 31.5102 31.0422 40.4602 19.9984 40.4602C13.7109 40.4602 8.09844 37.5602 4.42969 33.0165C7.86094 35.7915 12.2297 37.4477 16.9859 37.4477C28.0297 37.4477 36.9859 28.4977 36.9859 17.4478C36.9859 12.6916 35.3297 8.32284 32.5547 4.8916C37.0922 8.56033 39.9984 14.1728 39.9984 20.4603Z" fill="#F4C534"></path>
<path d="M27.7034 32.2709C26.7084 32.8709 24.0309 30.201 20.3409 30.1685C16.7047 30.136 13.9734 32.8722 12.9784 32.2709C11.7872 31.786 13.8247 25.9735 20.3409 25.9385C26.8572 25.9735 28.8947 31.7872 27.7034 32.2709Z" fill="#3E4347"></path>
<path d="M30.4942 17.7666C30.4942 19.5279 29.053 20.9691 27.2842 20.9691C25.5142 20.9691 24.0742 19.5279 24.0742 17.7666C24.0742 15.9891 25.5155 14.5566 27.2842 14.5566C29.0542 14.5566 30.4942 15.9891 30.4942 17.7666Z" fill="#3E4347"></path>
<path d="M28.7552 15.9551C28.3606 15.6125 27.8638 15.5384 27.6457 15.7897C27.4275 16.0409 27.5706 16.5224 27.9652 16.865C28.3598 17.2076 28.8565 17.2817 29.0747 17.0304C29.2928 16.7791 29.1498 16.2977 28.7552 15.9551Z" fill="#5A5F63"></path>
<path d="M15.9278 17.7666C15.9278 19.5279 14.4866 20.9691 12.7178 20.9691C10.9491 20.9691 9.50781 19.5279 9.50781 17.7666C9.50781 15.9891 10.9491 14.5566 12.7178 14.5566C14.4866 14.5566 15.9278 15.9891 15.9278 17.7666Z" fill="#3E4347"></path>
<path d="M14.1849 15.9571C13.7902 15.6144 13.2935 15.5404 13.0753 15.7916C12.8572 16.0429 13.0002 16.5243 13.3949 16.8669C13.7895 17.2096 14.2862 17.2836 14.5044 17.0324C14.7225 16.7811 14.5795 16.2997 14.1849 15.9571Z" fill="#5A5F63"></path>
</svg>
