<svg width="40" height="41" viewBox="0 0 40 41" fill="none" xmlns="http://www.w3.org/2000/svg">
<path d="M19.9999 40.4598C31.0456 40.4598 39.9998 31.5055 39.9998 20.4599C39.9998 9.41423 31.0456 0.459961 19.9999 0.459961C8.95426 0.459961 0 9.41423 0 20.4599C0 31.5055 8.95426 40.4598 19.9999 40.4598Z" fill="#FFD93B"></path>
<path d="M39.9983 20.4603C39.9983 31.5102 31.0421 40.4602 19.9984 40.4602C13.7109 40.4602 8.09842 37.5602 4.42969 33.0165C7.86092 35.7915 12.2297 37.4477 16.9859 37.4477C28.0296 37.4477 36.9858 28.4978 36.9858 17.4478C36.9858 12.6916 35.3295 8.32284 32.5546 4.8916C37.092 8.56034 39.9983 14.1728 39.9983 20.4603Z" fill="#F4C534"></path>
<path d="M30.3403 24.6207C32.0978 25.102 29.2815 34.4469 19.9991 34.5157C10.7166 34.4469 7.90039 25.102 9.65788 24.6207C11.0629 23.9282 14.8316 27.7657 19.9991 27.7657C25.2378 27.7645 28.9353 23.9282 30.3403 24.6207Z" fill="#3E4347"></path>
<path d="M13.5398 20.5207C13.4311 20.6544 13.2486 20.6869 13.0986 20.6044C11.9736 20.0132 7.44859 17.4795 7.01484 15.1207C6.73984 13.6295 7.72359 12.1957 9.21483 11.9207C10.2898 11.7207 11.3311 12.1795 11.9398 13.0207C12.1986 12.0207 13.0148 11.2207 14.0898 11.0295C15.5811 10.7545 17.006 11.7382 17.281 13.2295C17.7148 15.587 14.3811 19.562 13.5398 20.5207Z" fill="#E24B4B"></path>
<path d="M14.0159 19.9621C13.8247 20.1959 13.6572 20.3871 13.5409 20.5209C13.4322 20.6546 13.2497 20.6871 13.0997 20.6046C11.9747 20.0134 7.44968 17.4796 7.01593 15.1209C6.76593 13.7796 7.53218 12.4871 8.77468 12.0459C8.14093 12.6621 7.81593 13.5796 7.99093 14.5121C8.41593 16.8371 12.8072 19.3284 14.0159 19.9621Z" fill="#D03F3F"></path>
<g opacity="0.2">
<path opacity="0.2" d="M16.0411 12.9119C15.8224 12.3549 15.3409 12.0227 14.9657 12.17C14.5904 12.3173 14.4635 12.8883 14.6822 13.4454C14.9008 14.0025 15.3823 14.3347 15.7576 14.1874C16.1329 14.04 16.2598 13.469 16.0411 12.9119Z" fill="white"></path>
</g>
<path d="M25.9987 20.5207C26.1075 20.6544 26.29 20.6869 26.44 20.6044C27.565 20.0132 32.09 17.4795 32.5237 15.1207C32.7987 13.6295 31.815 12.1957 30.3237 11.9207C29.2487 11.7207 28.2075 12.1795 27.5987 13.0207C27.34 12.0207 26.5237 11.2207 25.4487 11.0295C23.9575 10.7545 22.5325 11.7382 22.2575 13.2295C21.8238 15.587 25.1562 19.562 25.9987 20.5207Z" fill="#E24B4B"></path>
<path d="M25.5234 19.9621C25.7147 20.1959 25.8822 20.3871 25.9984 20.5209C26.1072 20.6546 26.2897 20.6871 26.4397 20.6046C27.5647 20.0134 32.0897 17.4796 32.5234 15.1209C32.7734 13.7796 32.0072 12.4871 30.7647 12.0459C31.3984 12.6621 31.7234 13.5796 31.5484 14.5121C31.1234 16.8371 26.7309 19.3284 25.5234 19.9621Z" fill="#D03F3F"></path>
<g opacity="0.2">
<path opacity="0.2" d="M24.5734 12.1729C24.1981 12.0256 23.7166 12.3578 23.4979 12.9149C23.2793 13.4719 23.4062 14.043 23.7815 14.1903C24.1567 14.3376 24.6382 14.0054 24.8569 13.4484C25.0756 12.8913 24.9487 12.3203 24.5734 12.1729Z" fill="white"></path>
</g>
<path d="M19.9984 34.5158C21.7909 34.502 23.3397 34.1408 24.6634 33.567C24.3634 32.6858 23.8246 31.917 23.1159 31.3408C22.5472 30.872 21.7659 30.787 21.0634 31.0145C20.6584 31.142 20.2034 31.2208 19.6997 31.2208C19.3084 31.2208 18.9472 31.1708 18.6134 31.0933C17.8534 30.902 17.0584 31.1283 16.5047 31.6833C15.9809 32.207 15.5797 32.852 15.3359 33.5695C16.6597 34.142 18.2072 34.5033 19.9984 34.5158Z" fill="#E24B4B"></path>
</svg>
